<svg width="434" height="147" viewBox="0 0 434 147" fill="none" xmlns="http://www.w3.org/2000/svg">
<path d="M0 34C0 15.2223 15.2223 0 34 0H400C418.778 0 434 15.2223 434 34V113C434 131.778 418.778 147 400 147H34C15.2223 147 0 131.778 0 113V34Z" fill="#40423C"/>
<path d="M0 34C0 15.2223 15.2223 0 34 0H400C418.778 0 434 15.2223 434 34V113C434 131.778 418.778 147 400 147H34C15.2223 147 0 131.778 0 113V34Z" stroke="#32342E"/>
<path d="M165.098 37.8182V64H160.879L148.543 46.1662H148.325V64H143.582V37.8182H147.827L160.151 55.6648H160.381V37.8182H165.098ZM178.627 64.3835C176.709 64.3835 175.047 63.9616 173.641 63.1179C172.235 62.2741 171.144 61.0937 170.368 59.5767C169.601 58.0597 169.218 56.2869 169.218 54.2585C169.218 52.2301 169.601 50.4531 170.368 48.9276C171.144 47.402 172.235 46.2173 173.641 45.3736C175.047 44.5298 176.709 44.108 178.627 44.108C180.544 44.108 182.206 44.5298 183.613 45.3736C185.019 46.2173 186.105 47.402 186.873 48.9276C187.648 50.4531 188.036 52.2301 188.036 54.2585C188.036 56.2869 187.648 58.0597 186.873 59.5767C186.105 61.0937 185.019 62.2741 183.613 63.1179C182.206 63.9616 180.544 64.3835 178.627 64.3835ZM178.652 60.6761C179.692 60.6761 180.561 60.3906 181.26 59.8196C181.959 59.2401 182.479 58.4645 182.82 57.4929C183.169 56.5213 183.344 55.4389 183.344 54.2457C183.344 53.044 183.169 51.9574 182.82 50.9858C182.479 50.0057 181.959 49.2259 181.26 48.6463C180.561 48.0668 179.692 47.777 178.652 47.777C177.587 47.777 176.701 48.0668 175.993 48.6463C175.294 49.2259 174.77 50.0057 174.421 50.9858C174.08 51.9574 173.909 53.044 173.909 54.2457C173.909 55.4389 174.08 56.5213 174.421 57.4929C174.77 58.4645 175.294 59.2401 175.993 59.8196C176.701 60.3906 177.587 60.6761 178.652 60.6761ZM204.46 64H199.398L208.615 37.8182H214.47L223.7 64H218.638L211.645 43.1875H211.44L204.46 64ZM204.626 53.7344H218.433V57.544H204.626V53.7344ZM231.572 37.8182V64H226.944V37.8182H231.572ZM245.024 64.3835C243.055 64.3835 241.355 63.9744 239.923 63.1562C238.5 62.3295 237.405 61.1619 236.638 59.6534C235.871 58.1364 235.487 56.3509 235.487 54.2969C235.487 52.277 235.871 50.5043 236.638 48.9787C237.413 47.4446 238.496 46.2514 239.885 45.3991C241.274 44.5384 242.906 44.108 244.781 44.108C245.991 44.108 247.134 44.304 248.207 44.696C249.29 45.0795 250.244 45.6761 251.071 46.4858C251.906 47.2955 252.563 48.3267 253.04 49.5795C253.517 50.8239 253.756 52.3068 253.756 54.0284V55.4474H237.661V52.3281H249.32C249.311 51.4418 249.119 50.6534 248.744 49.9631C248.369 49.2642 247.845 48.7145 247.172 48.3139C246.507 47.9134 245.732 47.7131 244.845 47.7131C243.899 47.7131 243.068 47.9432 242.352 48.4034C241.636 48.8551 241.078 49.4517 240.678 50.1932C240.286 50.9261 240.085 51.7315 240.077 52.6094V55.3324C240.077 56.4744 240.286 57.4545 240.703 58.2727C241.121 59.0824 241.705 59.7045 242.455 60.1392C243.205 60.5653 244.082 60.7784 245.088 60.7784C245.761 60.7784 246.371 60.6847 246.916 60.4972C247.462 60.3011 247.935 60.0156 248.335 59.6406C248.736 59.2656 249.038 58.8011 249.243 58.2472L253.564 58.733C253.291 59.875 252.771 60.8722 252.004 61.7244C251.246 62.5682 250.274 63.2244 249.089 63.6932C247.905 64.1534 246.55 64.3835 245.024 64.3835ZM257.671 64V44.3636H262.158V47.6364H262.363C262.721 46.5028 263.334 45.6293 264.203 45.0156C265.081 44.3935 266.083 44.0824 267.208 44.0824C267.463 44.0824 267.749 44.0952 268.064 44.1207C268.388 44.1378 268.657 44.1676 268.87 44.2102V48.4673C268.674 48.3991 268.363 48.3395 267.936 48.2884C267.519 48.2287 267.114 48.1989 266.722 48.1989C265.878 48.1989 265.12 48.3821 264.446 48.7486C263.782 49.1065 263.257 49.6051 262.874 50.2443C262.49 50.8835 262.299 51.6207 262.299 52.456V64H257.671ZM282.804 44.3636V47.9432H271.516V44.3636H282.804ZM274.303 39.6591H278.931V58.0938C278.931 58.7159 279.025 59.1932 279.212 59.5256C279.408 59.8494 279.664 60.071 279.979 60.1903C280.294 60.3097 280.644 60.3693 281.027 60.3693C281.317 60.3693 281.581 60.348 281.82 60.3054C282.067 60.2628 282.255 60.2244 282.382 60.1903L283.162 63.8082C282.915 63.8935 282.561 63.9872 282.101 64.0895C281.65 64.1918 281.096 64.2514 280.439 64.2685C279.28 64.3026 278.236 64.1278 277.307 63.7443C276.378 63.3523 275.641 62.7472 275.096 61.929C274.559 61.1108 274.294 60.0881 274.303 58.8608V39.6591ZM295.809 64V37.8182H312.582V41.794H300.552V48.902H311.431V52.8778H300.552V64H295.809ZM322.173 64.3963C320.929 64.3963 319.808 64.1747 318.811 63.7315C317.822 63.2798 317.038 62.6151 316.458 61.7372C315.887 60.8594 315.602 59.777 315.602 58.4901C315.602 57.3821 315.806 56.4659 316.216 55.7415C316.625 55.017 317.183 54.4375 317.89 54.0028C318.598 53.5682 319.395 53.2401 320.281 53.0185C321.176 52.7884 322.1 52.6222 323.055 52.5199C324.206 52.4006 325.139 52.294 325.855 52.2003C326.571 52.098 327.091 51.9446 327.414 51.7401C327.747 51.527 327.913 51.1989 327.913 50.7557V50.679C327.913 49.7159 327.627 48.9702 327.056 48.4418C326.485 47.9134 325.663 47.6491 324.589 47.6491C323.456 47.6491 322.556 47.8963 321.892 48.3906C321.235 48.8849 320.792 49.4687 320.562 50.142L316.241 49.5284C316.582 48.3352 317.145 47.3381 317.929 46.5369C318.713 45.7273 319.672 45.1222 320.805 44.7216C321.939 44.3125 323.191 44.108 324.564 44.108C325.51 44.108 326.451 44.2188 327.389 44.4403C328.326 44.6619 329.183 45.0284 329.958 45.5398C330.734 46.0426 331.356 46.7287 331.825 47.598C332.302 48.4673 332.541 49.554 332.541 50.858V64H328.092V61.3026H327.939C327.657 61.848 327.261 62.3594 326.75 62.8366C326.247 63.3054 325.612 63.6847 324.845 63.9744C324.086 64.2557 323.196 64.3963 322.173 64.3963ZM323.375 60.9957C324.304 60.9957 325.109 60.8125 325.791 60.446C326.473 60.071 326.997 59.5767 327.363 58.9631C327.738 58.3494 327.926 57.6804 327.926 56.956V54.642C327.781 54.7614 327.534 54.8722 327.184 54.9744C326.843 55.0767 326.46 55.1662 326.034 55.2429C325.608 55.3196 325.186 55.3878 324.768 55.4474C324.35 55.5071 323.988 55.5582 323.681 55.6009C322.991 55.6946 322.373 55.848 321.828 56.0611C321.282 56.2741 320.852 56.5724 320.537 56.956C320.221 57.331 320.064 57.8168 320.064 58.4134C320.064 59.2656 320.375 59.9091 320.997 60.3438C321.619 60.7784 322.412 60.9957 323.375 60.9957ZM347 44.3636V47.9432H335.711V44.3636H347ZM338.498 39.6591H343.126V58.0938C343.126 58.7159 343.22 59.1932 343.407 59.5256C343.603 59.8494 343.859 60.071 344.174 60.1903C344.49 60.3097 344.839 60.3693 345.223 60.3693C345.512 60.3693 345.777 60.348 346.015 60.3054C346.262 60.2628 346.45 60.2244 346.578 60.1903L347.358 63.8082C347.11 63.8935 346.757 63.9872 346.297 64.0895C345.845 64.1918 345.291 64.2514 344.635 64.2685C343.475 64.3026 342.431 64.1278 341.502 63.7443C340.574 63.3523 339.836 62.7472 339.291 61.929C338.754 61.1108 338.49 60.0881 338.498 58.8608V39.6591ZM350.87 64V44.3636H355.498V64H350.87ZM353.197 41.5767C352.464 41.5767 351.833 41.3338 351.305 40.848C350.776 40.3537 350.512 39.7614 350.512 39.071C350.512 38.3722 350.776 37.7798 351.305 37.294C351.833 36.7997 352.464 36.5526 353.197 36.5526C353.938 36.5526 354.569 36.7997 355.089 37.294C355.617 37.7798 355.881 38.3722 355.881 39.071C355.881 39.7614 355.617 40.3537 355.089 40.848C354.569 41.3338 353.938 41.5767 353.197 41.5767ZM368.797 71.7727C367.135 71.7727 365.707 71.5469 364.514 71.0952C363.321 70.652 362.362 70.0554 361.637 69.3054C360.913 68.5554 360.41 67.7244 360.129 66.8125L364.297 65.8026C364.484 66.1861 364.757 66.5653 365.115 66.9403C365.473 67.3239 365.954 67.6392 366.559 67.8864C367.173 68.142 367.944 68.2699 368.873 68.2699C370.186 68.2699 371.272 67.9503 372.133 67.3111C372.994 66.6804 373.424 65.6406 373.424 64.1918V60.4716H373.194C372.956 60.9489 372.606 61.4389 372.146 61.9418C371.694 62.4446 371.093 62.8665 370.343 63.2074C369.602 63.5483 368.669 63.7188 367.544 63.7188C366.035 63.7188 364.667 63.3651 363.44 62.6577C362.221 61.9418 361.25 60.8764 360.525 59.4616C359.809 58.0384 359.451 56.2571 359.451 54.1179C359.451 51.9616 359.809 50.142 360.525 48.6591C361.25 47.1676 362.225 46.0384 363.453 45.2713C364.68 44.4957 366.048 44.108 367.556 44.108C368.707 44.108 369.653 44.304 370.395 44.696C371.145 45.0795 371.741 45.544 372.184 46.0895C372.627 46.6264 372.964 47.1335 373.194 47.6108H373.45V44.3636H378.014V64.3196C378.014 65.9986 377.613 67.3878 376.812 68.4872C376.011 69.5866 374.916 70.4091 373.527 70.9545C372.137 71.5 370.561 71.7727 368.797 71.7727ZM368.835 60.0881C369.815 60.0881 370.65 59.8494 371.341 59.3722C372.031 58.8949 372.555 58.2088 372.913 57.3139C373.271 56.419 373.45 55.3452 373.45 54.0923C373.45 52.8565 373.271 51.7741 372.913 50.8452C372.564 49.9162 372.044 49.196 371.353 48.6847C370.672 48.1648 369.832 47.9048 368.835 47.9048C367.804 47.9048 366.943 48.1733 366.252 48.7102C365.562 49.2472 365.042 49.9844 364.693 50.9219C364.343 51.8509 364.169 52.9077 364.169 54.0923C364.169 55.294 364.343 56.3466 364.693 57.25C365.051 58.1449 365.575 58.8437 366.265 59.3466C366.964 59.8409 367.821 60.0881 368.835 60.0881ZM395.272 55.7415V44.3636H399.9V64H395.413V60.5099H395.208C394.765 61.6094 394.037 62.5085 393.022 63.2074C392.017 63.9062 390.777 64.2557 389.302 64.2557C388.015 64.2557 386.877 63.9702 385.889 63.3991C384.909 62.8196 384.142 61.9801 383.588 60.8807C383.034 59.7727 382.757 58.4347 382.757 56.8665V44.3636H387.385V56.1506C387.385 57.3949 387.725 58.3835 388.407 59.1165C389.089 59.8494 389.984 60.2159 391.092 60.2159C391.774 60.2159 392.434 60.0497 393.074 59.7173C393.713 59.3849 394.237 58.8906 394.646 58.2344C395.064 57.5696 395.272 56.7386 395.272 55.7415ZM413.352 64.3835C411.384 64.3835 409.683 63.9744 408.251 63.1562C406.828 62.3295 405.733 61.1619 404.966 59.6534C404.199 58.1364 403.815 56.3509 403.815 54.2969C403.815 52.277 404.199 50.5043 404.966 48.9787C405.741 47.4446 406.824 46.2514 408.213 45.3991C409.602 44.5384 411.234 44.108 413.109 44.108C414.32 44.108 415.462 44.304 416.536 44.696C417.618 45.0795 418.572 45.6761 419.399 46.4858C420.234 47.2955 420.891 48.3267 421.368 49.5795C421.845 50.8239 422.084 52.3068 422.084 54.0284V55.4474H405.989V52.3281H417.648C417.639 51.4418 417.447 50.6534 417.072 49.9631C416.697 49.2642 416.173 48.7145 415.5 48.3139C414.835 47.9134 414.06 47.7131 413.173 47.7131C412.227 47.7131 411.396 47.9432 410.68 48.4034C409.964 48.8551 409.406 49.4517 409.006 50.1932C408.614 50.9261 408.413 51.7315 408.405 52.6094V55.3324C408.405 56.4744 408.614 57.4545 409.031 58.2727C409.449 59.0824 410.033 59.7045 410.783 60.1392C411.533 60.5653 412.411 60.7784 413.416 60.7784C414.089 60.7784 414.699 60.6847 415.244 60.4972C415.79 60.3011 416.263 60.0156 416.663 59.6406C417.064 59.2656 417.366 58.8011 417.571 58.2472L421.892 58.733C421.619 59.875 421.099 60.8722 420.332 61.7244C419.574 62.5682 418.602 63.2244 417.418 63.6932C416.233 64.1534 414.878 64.3835 413.352 64.3835Z" fill="white"/>
<path d="M142.409 93V81.3636H146.341C147.254 81.3636 148 81.5284 148.58 81.858C149.163 82.1837 149.595 82.625 149.875 83.1818C150.155 83.7386 150.295 84.3598 150.295 85.0455C150.295 85.7311 150.155 86.3542 149.875 86.9148C149.598 87.4754 149.17 87.9223 148.591 88.2557C148.011 88.5852 147.269 88.75 146.364 88.75H143.545V87.5H146.318C146.943 87.5 147.445 87.392 147.824 87.1761C148.203 86.9602 148.477 86.6686 148.648 86.3011C148.822 85.9299 148.909 85.5114 148.909 85.0455C148.909 84.5795 148.822 84.1629 148.648 83.7955C148.477 83.428 148.201 83.1402 147.818 82.9318C147.436 82.7197 146.928 82.6136 146.295 82.6136H143.818V93H142.409ZM152.384 93V84.2727H153.679V85.5909H153.77C153.929 85.1591 154.217 84.8087 154.634 84.5398C155.05 84.2708 155.52 84.1364 156.043 84.1364C156.141 84.1364 156.264 84.1383 156.412 84.142C156.56 84.1458 156.671 84.1515 156.747 84.1591V85.5227C156.702 85.5114 156.598 85.4943 156.435 85.4716C156.276 85.4451 156.107 85.4318 155.929 85.4318C155.505 85.4318 155.126 85.5208 154.793 85.6989C154.463 85.8731 154.202 86.1155 154.009 86.4261C153.819 86.733 153.724 87.0833 153.724 87.4773V93H152.384ZM161.73 93.1818C160.889 93.1818 160.164 92.9962 159.554 92.625C158.948 92.25 158.48 91.7273 158.151 91.0568C157.825 90.3826 157.662 89.5985 157.662 88.7045C157.662 87.8106 157.825 87.0227 158.151 86.3409C158.48 85.6553 158.938 85.1212 159.526 84.7386C160.116 84.3523 160.806 84.1591 161.594 84.1591C162.048 84.1591 162.497 84.2348 162.94 84.3864C163.384 84.5379 163.787 84.7841 164.151 85.125C164.514 85.4621 164.804 85.9091 165.02 86.4659C165.236 87.0227 165.344 87.7083 165.344 88.5227V89.0909H158.616V87.9318H163.98C163.98 87.4394 163.882 87 163.685 86.6136C163.491 86.2273 163.215 85.9223 162.855 85.6989C162.499 85.4754 162.079 85.3636 161.594 85.3636C161.06 85.3636 160.598 85.4962 160.207 85.7614C159.821 86.0227 159.524 86.3636 159.315 86.7841C159.107 87.2045 159.003 87.6553 159.003 88.1364V88.9091C159.003 89.5682 159.116 90.1269 159.344 90.5852C159.575 91.0398 159.895 91.3864 160.304 91.625C160.713 91.8598 161.188 91.9773 161.73 91.9773C162.082 91.9773 162.401 91.928 162.685 91.8295C162.973 91.7273 163.221 91.5758 163.429 91.375C163.637 91.1705 163.798 90.9167 163.912 90.6136L165.207 90.9773C165.071 91.4167 164.842 91.803 164.52 92.1364C164.198 92.4659 163.8 92.7235 163.327 92.9091C162.853 93.0909 162.321 93.1818 161.73 93.1818ZM170.929 93.1818C170.111 93.1818 169.406 92.9886 168.815 92.6023C168.224 92.2159 167.77 91.6837 167.452 91.0057C167.134 90.3277 166.974 89.553 166.974 88.6818C166.974 87.7955 167.137 87.0133 167.463 86.3352C167.793 85.6534 168.251 85.1212 168.838 84.7386C169.429 84.3523 170.118 84.1591 170.906 84.1591C171.52 84.1591 172.073 84.2727 172.565 84.5C173.058 84.7273 173.461 85.0455 173.776 85.4545C174.09 85.8636 174.285 86.3409 174.361 86.8864H173.02C172.918 86.4886 172.69 86.1364 172.338 85.8295C171.99 85.5189 171.52 85.3636 170.929 85.3636C170.406 85.3636 169.948 85.5 169.554 85.7727C169.164 86.0417 168.859 86.4223 168.639 86.9148C168.423 87.4034 168.315 87.9773 168.315 88.6364C168.315 89.3106 168.421 89.8977 168.634 90.3977C168.849 90.8977 169.152 91.286 169.543 91.5625C169.937 91.839 170.399 91.9773 170.929 91.9773C171.277 91.9773 171.594 91.9167 171.878 91.7955C172.162 91.6742 172.402 91.5 172.599 91.2727C172.796 91.0455 172.937 90.7727 173.02 90.4545H174.361C174.285 90.9697 174.098 91.4337 173.798 91.8466C173.503 92.2557 173.111 92.5814 172.622 92.8239C172.137 93.0625 171.573 93.1818 170.929 93.1818ZM176.321 93V84.2727H177.662V93H176.321ZM177.003 82.8182C176.741 82.8182 176.516 82.7292 176.327 82.5511C176.141 82.3731 176.048 82.1591 176.048 81.9091C176.048 81.6591 176.141 81.4451 176.327 81.267C176.516 81.089 176.741 81 177.003 81C177.264 81 177.488 81.089 177.673 81.267C177.863 81.4451 177.957 81.6591 177.957 81.9091C177.957 82.1591 177.863 82.3731 177.673 82.5511C177.488 82.7292 177.264 82.8182 177.003 82.8182ZM186.3 86.2273L185.095 86.5682C185.019 86.3674 184.908 86.1723 184.76 85.983C184.616 85.7898 184.419 85.6307 184.169 85.5057C183.919 85.3807 183.599 85.3182 183.209 85.3182C182.675 85.3182 182.23 85.4413 181.874 85.6875C181.521 85.9299 181.345 86.2386 181.345 86.6136C181.345 86.947 181.466 87.2102 181.709 87.4034C181.951 87.5966 182.33 87.7576 182.845 87.8864L184.141 88.2045C184.921 88.3939 185.502 88.6837 185.885 89.0739C186.268 89.4602 186.459 89.9583 186.459 90.5682C186.459 91.0682 186.315 91.5152 186.027 91.9091C185.743 92.303 185.345 92.6136 184.834 92.8409C184.322 93.0682 183.728 93.1818 183.05 93.1818C182.16 93.1818 181.423 92.9886 180.839 92.6023C180.256 92.2159 179.887 91.6515 179.732 90.9091L181.004 90.5909C181.125 91.0606 181.355 91.4129 181.692 91.6477C182.033 91.8826 182.478 92 183.027 92C183.652 92 184.148 91.8674 184.516 91.6023C184.887 91.3333 185.072 91.0114 185.072 90.6364C185.072 90.3333 184.966 90.0795 184.754 89.875C184.542 89.6667 184.216 89.5114 183.777 89.4091L182.322 89.0682C181.523 88.8788 180.936 88.5852 180.561 88.1875C180.19 87.786 180.004 87.2841 180.004 86.6818C180.004 86.1894 180.143 85.7538 180.419 85.375C180.699 84.9962 181.08 84.6989 181.561 84.483C182.046 84.267 182.595 84.1591 183.209 84.1591C184.072 84.1591 184.75 84.3485 185.243 84.7273C185.739 85.1061 186.091 85.6061 186.3 86.2273ZM192.136 93.1818C191.295 93.1818 190.57 92.9962 189.96 92.625C189.354 92.25 188.886 91.7273 188.557 91.0568C188.231 90.3826 188.068 89.5985 188.068 88.7045C188.068 87.8106 188.231 87.0227 188.557 86.3409C188.886 85.6553 189.345 85.1212 189.932 84.7386C190.523 84.3523 191.212 84.1591 192 84.1591C192.455 84.1591 192.903 84.2348 193.347 84.3864C193.79 84.5379 194.193 84.7841 194.557 85.125C194.92 85.4621 195.21 85.9091 195.426 86.4659C195.642 87.0227 195.75 87.7083 195.75 88.5227V89.0909H189.023V87.9318H194.386C194.386 87.4394 194.288 87 194.091 86.6136C193.898 86.2273 193.621 85.9223 193.261 85.6989C192.905 85.4754 192.485 85.3636 192 85.3636C191.466 85.3636 191.004 85.4962 190.614 85.7614C190.227 86.0227 189.93 86.3636 189.722 86.7841C189.513 87.2045 189.409 87.6553 189.409 88.1364V88.9091C189.409 89.5682 189.523 90.1269 189.75 90.5852C189.981 91.0398 190.301 91.3864 190.71 91.625C191.119 91.8598 191.595 91.9773 192.136 91.9773C192.489 91.9773 192.807 91.928 193.091 91.8295C193.379 91.7273 193.627 91.5758 193.835 91.375C194.044 91.1705 194.205 90.9167 194.318 90.6136L195.614 90.9773C195.477 91.4167 195.248 91.803 194.926 92.1364C194.604 92.4659 194.206 92.7235 193.733 92.9091C193.259 93.0909 192.727 93.1818 192.136 93.1818ZM199.131 81.3636V93H197.79V81.3636H199.131ZM202.45 96.2727C202.223 96.2727 202.02 96.2538 201.842 96.2159C201.664 96.1818 201.541 96.1477 201.473 96.1136L201.814 94.9318C202.14 95.0152 202.428 95.0455 202.678 95.0227C202.928 95 203.149 94.8883 203.342 94.6875C203.539 94.4905 203.719 94.1705 203.882 93.7273L204.132 93.0455L200.905 84.2727H202.359L204.768 91.2273H204.859L207.268 84.2727H208.723L205.018 94.2727C204.852 94.7235 204.645 95.0966 204.399 95.392C204.153 95.6913 203.867 95.9129 203.541 96.0568C203.219 96.2008 202.856 96.2727 202.45 96.2727ZM217.561 93.2045C217.008 93.2045 216.506 93.1004 216.055 92.892C215.605 92.6799 215.247 92.375 214.982 91.9773C214.716 91.5758 214.584 91.0909 214.584 90.5227C214.584 90.0227 214.682 89.6174 214.879 89.3068C215.076 88.9924 215.339 88.7462 215.669 88.5682C215.999 88.3902 216.362 88.2576 216.76 88.1705C217.161 88.0795 217.565 88.0076 217.97 87.9545C218.5 87.8864 218.93 87.8352 219.26 87.8011C219.593 87.7633 219.836 87.7008 219.987 87.6136C220.143 87.5265 220.22 87.375 220.22 87.1591V87.1136C220.22 86.553 220.067 86.1174 219.76 85.8068C219.457 85.4962 218.997 85.3409 218.379 85.3409C217.739 85.3409 217.237 85.4811 216.874 85.7614C216.51 86.0417 216.254 86.3409 216.107 86.6591L214.834 86.2045C215.061 85.6742 215.364 85.2614 215.743 84.9659C216.125 84.6667 216.542 84.4583 216.993 84.3409C217.447 84.2197 217.894 84.1591 218.334 84.1591C218.614 84.1591 218.936 84.1932 219.3 84.2614C219.667 84.3258 220.021 84.4602 220.362 84.6648C220.707 84.8693 220.993 85.178 221.22 85.5909C221.447 86.0038 221.561 86.5568 221.561 87.25V93H220.22V91.8182H220.152C220.061 92.0076 219.91 92.2102 219.697 92.4261C219.485 92.642 219.203 92.8258 218.851 92.9773C218.499 93.1288 218.069 93.2045 217.561 93.2045ZM217.766 92C218.296 92 218.743 91.8958 219.107 91.6875C219.474 91.4792 219.75 91.2102 219.936 90.8807C220.125 90.5511 220.22 90.2045 220.22 89.8409V88.6136C220.163 88.6818 220.038 88.7443 219.845 88.8011C219.656 88.8542 219.436 88.9015 219.186 88.9432C218.94 88.9811 218.699 89.0152 218.464 89.0455C218.233 89.072 218.046 89.0947 217.902 89.1136C217.554 89.1591 217.228 89.233 216.925 89.3352C216.625 89.4337 216.383 89.5833 216.197 89.7841C216.016 89.9811 215.925 90.25 215.925 90.5909C215.925 91.0568 216.097 91.4091 216.442 91.6477C216.79 91.8826 217.232 92 217.766 92ZM225.349 81.3636V93H224.009V81.3636H225.349ZM231.464 93.1818C230.624 93.1818 229.898 92.9962 229.288 92.625C228.682 92.25 228.214 91.7273 227.885 91.0568C227.559 90.3826 227.396 89.5985 227.396 88.7045C227.396 87.8106 227.559 87.0227 227.885 86.3409C228.214 85.6553 228.673 85.1212 229.26 84.7386C229.851 84.3523 230.54 84.1591 231.328 84.1591C231.783 84.1591 232.232 84.2348 232.675 84.3864C233.118 84.5379 233.521 84.7841 233.885 85.125C234.249 85.4621 234.538 85.9091 234.754 86.4659C234.97 87.0227 235.078 87.7083 235.078 88.5227V89.0909H228.351V87.9318H233.714C233.714 87.4394 233.616 87 233.419 86.6136C233.226 86.2273 232.949 85.9223 232.589 85.6989C232.233 85.4754 231.813 85.3636 231.328 85.3636C230.794 85.3636 230.332 85.4962 229.942 85.7614C229.555 86.0227 229.258 86.3636 229.05 86.7841C228.841 87.2045 228.737 87.6553 228.737 88.1364V88.9091C228.737 89.5682 228.851 90.1269 229.078 90.5852C229.309 91.0398 229.629 91.3864 230.038 91.625C230.447 91.8598 230.923 91.9773 231.464 91.9773C231.817 91.9773 232.135 91.928 232.419 91.8295C232.707 91.7273 232.955 91.5758 233.163 91.375C233.372 91.1705 233.533 90.9167 233.646 90.6136L234.942 90.9773C234.805 91.4167 234.576 91.803 234.254 92.1364C233.932 92.4659 233.535 92.7235 233.061 92.9091C232.588 93.0909 232.055 93.1818 231.464 93.1818ZM237.118 93V84.2727H238.413V85.5909H238.504C238.663 85.1591 238.951 84.8087 239.368 84.5398C239.785 84.2708 240.254 84.1364 240.777 84.1364C240.875 84.1364 240.999 84.1383 241.146 84.142C241.294 84.1458 241.406 84.1515 241.482 84.1591V85.5227C241.436 85.5114 241.332 85.4943 241.169 85.4716C241.01 85.4451 240.841 85.4318 240.663 85.4318C240.239 85.4318 239.86 85.5208 239.527 85.6989C239.197 85.8731 238.936 86.1155 238.743 86.4261C238.554 86.733 238.459 87.0833 238.459 87.4773V93H237.118ZM247.413 84.2727V85.4091H242.891V84.2727H247.413ZM244.209 82.1818H245.55V90.5C245.55 90.8788 245.605 91.1629 245.714 91.3523C245.828 91.5379 245.972 91.6629 246.146 91.7273C246.324 91.7879 246.512 91.8182 246.709 91.8182C246.857 91.8182 246.978 91.8106 247.072 91.7955C247.167 91.7765 247.243 91.7614 247.3 91.75L247.572 92.9545C247.482 92.9886 247.355 93.0227 247.192 93.0568C247.029 93.0947 246.822 93.1136 246.572 93.1136C246.194 93.1136 245.822 93.0322 245.459 92.8693C245.099 92.7064 244.8 92.4583 244.561 92.125C244.326 91.7917 244.209 91.3712 244.209 90.8636V82.1818ZM255.456 86.2273L254.251 86.5682C254.176 86.3674 254.064 86.1723 253.916 85.983C253.772 85.7898 253.575 85.6307 253.325 85.5057C253.075 85.3807 252.755 85.3182 252.365 85.3182C251.831 85.3182 251.386 85.4413 251.03 85.6875C250.678 85.9299 250.501 86.2386 250.501 86.6136C250.501 86.947 250.623 87.2102 250.865 87.4034C251.107 87.5966 251.486 87.7576 252.001 87.8864L253.297 88.2045C254.077 88.3939 254.659 88.6837 255.041 89.0739C255.424 89.4602 255.615 89.9583 255.615 90.5682C255.615 91.0682 255.471 91.5152 255.183 91.9091C254.899 92.303 254.501 92.6136 253.99 92.8409C253.479 93.0682 252.884 93.1818 252.206 93.1818C251.316 93.1818 250.579 92.9886 249.996 92.6023C249.412 92.2159 249.043 91.6515 248.888 90.9091L250.161 90.5909C250.282 91.0606 250.511 91.4129 250.848 91.6477C251.189 91.8826 251.634 92 252.183 92C252.808 92 253.304 91.8674 253.672 91.6023C254.043 91.3333 254.229 91.0114 254.229 90.6364C254.229 90.3333 254.123 90.0795 253.911 89.875C253.698 89.6667 253.373 89.5114 252.933 89.4091L251.479 89.0682C250.679 88.8788 250.092 88.5852 249.717 88.1875C249.346 87.786 249.161 87.2841 249.161 86.6818C249.161 86.1894 249.299 85.7538 249.575 85.375C249.856 84.9962 250.236 84.6989 250.717 84.483C251.202 84.267 251.751 84.1591 252.365 84.1591C253.229 84.1591 253.907 84.3485 254.399 84.7273C254.895 85.1061 255.248 85.6061 255.456 86.2273ZM262.315 93V81.3636H263.656V85.6591H263.77C263.868 85.5076 264.005 85.3144 264.179 85.0795C264.357 84.8409 264.611 84.6288 264.94 84.4432C265.274 84.2538 265.724 84.1591 266.293 84.1591C267.027 84.1591 267.675 84.3428 268.236 84.7102C268.796 85.0777 269.234 85.5985 269.548 86.2727C269.863 86.947 270.02 87.7424 270.02 88.6591C270.02 89.5833 269.863 90.3845 269.548 91.0625C269.234 91.7367 268.798 92.2595 268.241 92.6307C267.685 92.9981 267.043 93.1818 266.315 93.1818C265.755 93.1818 265.306 93.089 264.969 92.9034C264.632 92.714 264.372 92.5 264.19 92.2614C264.009 92.0189 263.868 91.8182 263.77 91.6591H263.611V93H262.315ZM263.634 88.6364C263.634 89.2955 263.73 89.8769 263.923 90.3807C264.116 90.8807 264.399 91.2727 264.77 91.5568C265.141 91.8371 265.596 91.9773 266.134 91.9773C266.694 91.9773 267.162 91.8295 267.537 91.5341C267.916 91.2348 268.2 90.8333 268.389 90.3295C268.582 89.822 268.679 89.2576 268.679 88.6364C268.679 88.0227 268.584 87.4697 268.395 86.9773C268.209 86.4811 267.927 86.089 267.548 85.8011C267.173 85.5095 266.702 85.3636 266.134 85.3636C265.588 85.3636 265.13 85.5019 264.759 85.7784C264.387 86.0511 264.107 86.4337 263.918 86.9261C263.728 87.4148 263.634 87.9848 263.634 88.6364ZM274.639 93.2045C274.086 93.2045 273.584 93.1004 273.134 92.892C272.683 92.6799 272.325 92.375 272.06 91.9773C271.795 91.5758 271.662 91.0909 271.662 90.5227C271.662 90.0227 271.76 89.6174 271.957 89.3068C272.154 88.9924 272.418 88.7462 272.747 88.5682C273.077 88.3902 273.44 88.2576 273.838 88.1705C274.24 88.0795 274.643 88.0076 275.048 87.9545C275.579 87.8864 276.009 87.8352 276.338 87.8011C276.671 87.7633 276.914 87.7008 277.065 87.6136C277.221 87.5265 277.298 87.375 277.298 87.1591V87.1136C277.298 86.553 277.145 86.1174 276.838 85.8068C276.535 85.4962 276.075 85.3409 275.457 85.3409C274.817 85.3409 274.315 85.4811 273.952 85.7614C273.588 86.0417 273.332 86.3409 273.185 86.6591L271.912 86.2045C272.139 85.6742 272.442 85.2614 272.821 84.9659C273.204 84.6667 273.62 84.4583 274.071 84.3409C274.526 84.2197 274.973 84.1591 275.412 84.1591C275.692 84.1591 276.014 84.1932 276.378 84.2614C276.745 84.3258 277.099 84.4602 277.44 84.6648C277.785 84.8693 278.071 85.178 278.298 85.5909C278.526 86.0038 278.639 86.5568 278.639 87.25V93H277.298V91.8182H277.23C277.139 92.0076 276.988 92.2102 276.776 92.4261C276.563 92.642 276.281 92.8258 275.929 92.9773C275.577 93.1288 275.147 93.2045 274.639 93.2045ZM274.844 92C275.374 92 275.821 91.8958 276.185 91.6875C276.552 91.4792 276.829 91.2102 277.014 90.8807C277.204 90.5511 277.298 90.2045 277.298 89.8409V88.6136C277.241 88.6818 277.116 88.7443 276.923 88.8011C276.734 88.8542 276.514 88.9015 276.264 88.9432C276.018 88.9811 275.777 89.0152 275.543 89.0455C275.312 89.072 275.124 89.0947 274.98 89.1136C274.632 89.1591 274.306 89.233 274.003 89.3352C273.704 89.4337 273.461 89.5833 273.276 89.7841C273.094 89.9811 273.003 90.25 273.003 90.5909C273.003 91.0568 273.175 91.4091 273.52 91.6477C273.868 91.8826 274.31 92 274.844 92ZM287.268 86.2273L286.064 86.5682C285.988 86.3674 285.876 86.1723 285.729 85.983C285.585 85.7898 285.388 85.6307 285.138 85.5057C284.888 85.3807 284.568 85.3182 284.178 85.3182C283.643 85.3182 283.198 85.4413 282.842 85.6875C282.49 85.9299 282.314 86.2386 282.314 86.6136C282.314 86.947 282.435 87.2102 282.678 87.4034C282.92 87.5966 283.299 87.7576 283.814 87.8864L285.109 88.2045C285.89 88.3939 286.471 88.6837 286.854 89.0739C287.236 89.4602 287.428 89.9583 287.428 90.5682C287.428 91.0682 287.284 91.5152 286.996 91.9091C286.712 92.303 286.314 92.6136 285.803 92.8409C285.291 93.0682 284.696 93.1818 284.018 93.1818C283.128 93.1818 282.392 92.9886 281.808 92.6023C281.225 92.2159 280.856 91.6515 280.7 90.9091L281.973 90.5909C282.094 91.0606 282.323 91.4129 282.661 91.6477C283.001 91.8826 283.446 92 283.996 92C284.621 92 285.117 91.8674 285.484 91.6023C285.856 91.3333 286.041 91.0114 286.041 90.6364C286.041 90.3333 285.935 90.0795 285.723 89.875C285.511 89.6667 285.185 89.5114 284.746 89.4091L283.291 89.0682C282.492 88.8788 281.905 88.5852 281.53 88.1875C281.159 87.786 280.973 87.2841 280.973 86.6818C280.973 86.1894 281.111 85.7538 281.388 85.375C281.668 84.9962 282.049 84.6989 282.53 84.483C283.015 84.267 283.564 84.1591 284.178 84.1591C285.041 84.1591 285.719 84.3485 286.212 84.7273C286.708 85.1061 287.06 85.6061 287.268 86.2273ZM293.105 93.1818C292.264 93.1818 291.539 92.9962 290.929 92.625C290.323 92.25 289.855 91.7273 289.526 91.0568C289.2 90.3826 289.037 89.5985 289.037 88.7045C289.037 87.8106 289.2 87.0227 289.526 86.3409C289.855 85.6553 290.313 85.1212 290.901 84.7386C291.491 84.3523 292.181 84.1591 292.969 84.1591C293.423 84.1591 293.872 84.2348 294.315 84.3864C294.759 84.5379 295.162 84.7841 295.526 85.125C295.889 85.4621 296.179 85.9091 296.395 86.4659C296.611 87.0227 296.719 87.7083 296.719 88.5227V89.0909H289.991V87.9318H295.355C295.355 87.4394 295.257 87 295.06 86.6136C294.866 86.2273 294.59 85.9223 294.23 85.6989C293.874 85.4754 293.454 85.3636 292.969 85.3636C292.435 85.3636 291.973 85.4962 291.582 85.7614C291.196 86.0227 290.899 86.3636 290.69 86.7841C290.482 87.2045 290.378 87.6553 290.378 88.1364V88.9091C290.378 89.5682 290.491 90.1269 290.719 90.5852C290.95 91.0398 291.27 91.3864 291.679 91.625C292.088 91.8598 292.563 91.9773 293.105 91.9773C293.457 91.9773 293.776 91.928 294.06 91.8295C294.348 91.7273 294.596 91.5758 294.804 91.375C295.012 91.1705 295.173 90.9167 295.287 90.6136L296.582 90.9773C296.446 91.4167 296.217 91.803 295.895 92.1364C295.573 92.4659 295.175 92.7235 294.702 92.9091C294.228 93.0909 293.696 93.1818 293.105 93.1818ZM302.054 93.1818C301.327 93.1818 300.685 92.9981 300.128 92.6307C299.571 92.2595 299.135 91.7367 298.821 91.0625C298.507 90.3845 298.349 89.5833 298.349 88.6591C298.349 87.7424 298.507 86.947 298.821 86.2727C299.135 85.5985 299.573 85.0777 300.134 84.7102C300.694 84.3428 301.342 84.1591 302.077 84.1591C302.645 84.1591 303.094 84.2538 303.423 84.4432C303.757 84.6288 304.01 84.8409 304.185 85.0795C304.363 85.3144 304.501 85.5076 304.599 85.6591H304.713V81.3636H306.054V93H304.759V91.6591H304.599C304.501 91.8182 304.361 92.0189 304.179 92.2614C303.997 92.5 303.738 92.714 303.401 92.9034C303.063 93.089 302.615 93.1818 302.054 93.1818ZM302.236 91.9773C302.774 91.9773 303.228 91.8371 303.599 91.5568C303.971 91.2727 304.253 90.8807 304.446 90.3807C304.639 89.8769 304.736 89.2955 304.736 88.6364C304.736 87.9848 304.641 87.4148 304.452 86.9261C304.262 86.4337 303.982 86.0511 303.611 85.7784C303.24 85.5019 302.781 85.3636 302.236 85.3636C301.668 85.3636 301.194 85.5095 300.815 85.8011C300.44 86.089 300.158 86.4811 299.969 86.9773C299.783 87.4697 299.69 88.0227 299.69 88.6364C299.69 89.2576 299.785 89.822 299.974 90.3295C300.168 90.8333 300.452 91.2348 300.827 91.5341C301.205 91.8295 301.675 91.9773 302.236 91.9773ZM316.741 93.1818C315.954 93.1818 315.262 92.9943 314.668 92.6193C314.077 92.2443 313.615 91.7197 313.281 91.0455C312.952 90.3712 312.787 89.5833 312.787 88.6818C312.787 87.7727 312.952 86.9792 313.281 86.3011C313.615 85.6231 314.077 85.0966 314.668 84.7216C315.262 84.3466 315.954 84.1591 316.741 84.1591C317.529 84.1591 318.219 84.3466 318.81 84.7216C319.404 85.0966 319.866 85.6231 320.196 86.3011C320.529 86.9792 320.696 87.7727 320.696 88.6818C320.696 89.5833 320.529 90.3712 320.196 91.0455C319.866 91.7197 319.404 92.2443 318.81 92.6193C318.219 92.9943 317.529 93.1818 316.741 93.1818ZM316.741 91.9773C317.34 91.9773 317.832 91.8239 318.219 91.517C318.605 91.2102 318.891 90.8068 319.077 90.3068C319.262 89.8068 319.355 89.2652 319.355 88.6818C319.355 88.0985 319.262 87.5549 319.077 87.0511C318.891 86.5473 318.605 86.1402 318.219 85.8295C317.832 85.5189 317.34 85.3636 316.741 85.3636C316.143 85.3636 315.651 85.5189 315.264 85.8295C314.878 86.1402 314.592 86.5473 314.406 87.0511C314.221 87.5549 314.128 88.0985 314.128 88.6818C314.128 89.2652 314.221 89.8068 314.406 90.3068C314.592 90.8068 314.878 91.2102 315.264 91.517C315.651 91.8239 316.143 91.9773 316.741 91.9773ZM324.084 87.75V93H322.743V84.2727H324.038V85.6364H324.152C324.357 85.1932 324.667 84.8371 325.084 84.5682C325.5 84.2955 326.038 84.1591 326.697 84.1591C327.288 84.1591 327.805 84.2803 328.249 84.5227C328.692 84.7614 329.036 85.125 329.283 85.6136C329.529 86.0985 329.652 86.7121 329.652 87.4545V93H328.311V87.5455C328.311 86.8598 328.133 86.3258 327.777 85.9432C327.421 85.5568 326.932 85.3636 326.311 85.3636C325.883 85.3636 325.5 85.4564 325.163 85.642C324.83 85.8277 324.567 86.0985 324.374 86.4545C324.18 86.8106 324.084 87.2424 324.084 87.75ZM337.943 87.75V93H336.602V81.3636H337.943V85.6364H338.057C338.261 85.1856 338.568 84.8277 338.977 84.5625C339.39 84.2936 339.939 84.1591 340.625 84.1591C341.22 84.1591 341.741 84.2784 342.188 84.517C342.634 84.7519 342.981 85.1136 343.227 85.6023C343.477 86.0871 343.602 86.7045 343.602 87.4545V93H342.261V87.5455C342.261 86.8523 342.081 86.3163 341.722 85.9375C341.366 85.5549 340.871 85.3636 340.239 85.3636C339.799 85.3636 339.405 85.4564 339.057 85.642C338.712 85.8277 338.439 86.0985 338.239 86.4545C338.042 86.8106 337.943 87.2424 337.943 87.75ZM349.601 93.1818C348.813 93.1818 348.122 92.9943 347.527 92.6193C346.936 92.2443 346.474 91.7197 346.141 91.0455C345.811 90.3712 345.646 89.5833 345.646 88.6818C345.646 87.7727 345.811 86.9792 346.141 86.3011C346.474 85.6231 346.936 85.0966 347.527 84.7216C348.122 84.3466 348.813 84.1591 349.601 84.1591C350.389 84.1591 351.078 84.3466 351.669 84.7216C352.264 85.0966 352.726 85.6231 353.055 86.3011C353.389 86.9792 353.555 87.7727 353.555 88.6818C353.555 89.5833 353.389 90.3712 353.055 91.0455C352.726 91.7197 352.264 92.2443 351.669 92.6193C351.078 92.9943 350.389 93.1818 349.601 93.1818ZM349.601 91.9773C350.199 91.9773 350.692 91.8239 351.078 91.517C351.464 91.2102 351.75 90.8068 351.936 90.3068C352.122 89.8068 352.214 89.2652 352.214 88.6818C352.214 88.0985 352.122 87.5549 351.936 87.0511C351.75 86.5473 351.464 86.1402 351.078 85.8295C350.692 85.5189 350.199 85.3636 349.601 85.3636C349.002 85.3636 348.51 85.5189 348.124 85.8295C347.737 86.1402 347.451 86.5473 347.266 87.0511C347.08 87.5549 346.987 88.0985 346.987 88.6818C346.987 89.2652 347.08 89.8068 347.266 90.3068C347.451 90.8068 347.737 91.2102 348.124 91.517C348.51 91.8239 349.002 91.9773 349.601 91.9773ZM357.283 93L354.624 84.2727H356.033L357.919 90.9545H358.01L359.874 84.2727H361.305L363.146 90.9318H363.237L365.124 84.2727H366.533L363.874 93H362.555L360.646 86.2955H360.51L358.601 93H357.283ZM145.886 112.182C145.045 112.182 144.32 111.996 143.71 111.625C143.104 111.25 142.636 110.727 142.307 110.057C141.981 109.383 141.818 108.598 141.818 107.705C141.818 106.811 141.981 106.023 142.307 105.341C142.636 104.655 143.095 104.121 143.682 103.739C144.273 103.352 144.962 103.159 145.75 103.159C146.205 103.159 146.653 103.235 147.097 103.386C147.54 103.538 147.943 103.784 148.307 104.125C148.67 104.462 148.96 104.909 149.176 105.466C149.392 106.023 149.5 106.708 149.5 107.523V108.091H142.773V106.932H148.136C148.136 106.439 148.038 106 147.841 105.614C147.648 105.227 147.371 104.922 147.011 104.699C146.655 104.475 146.235 104.364 145.75 104.364C145.216 104.364 144.754 104.496 144.364 104.761C143.977 105.023 143.68 105.364 143.472 105.784C143.263 106.205 143.159 106.655 143.159 107.136V107.909C143.159 108.568 143.273 109.127 143.5 109.585C143.731 110.04 144.051 110.386 144.46 110.625C144.869 110.86 145.345 110.977 145.886 110.977C146.239 110.977 146.557 110.928 146.841 110.83C147.129 110.727 147.377 110.576 147.585 110.375C147.794 110.17 147.955 109.917 148.068 109.614L149.364 109.977C149.227 110.417 148.998 110.803 148.676 111.136C148.354 111.466 147.956 111.723 147.483 111.909C147.009 112.091 146.477 112.182 145.886 112.182ZM152.881 106.75V112H151.54V103.273H152.835V104.636H152.949C153.153 104.193 153.464 103.837 153.881 103.568C154.297 103.295 154.835 103.159 155.494 103.159C156.085 103.159 156.602 103.28 157.045 103.523C157.489 103.761 157.833 104.125 158.08 104.614C158.326 105.098 158.449 105.712 158.449 106.455V112H157.108V106.545C157.108 105.86 156.93 105.326 156.574 104.943C156.218 104.557 155.729 104.364 155.108 104.364C154.68 104.364 154.297 104.456 153.96 104.642C153.627 104.828 153.364 105.098 153.17 105.455C152.977 105.811 152.881 106.242 152.881 106.75ZM164.695 103.273V104.409H160.172V103.273H164.695ZM161.49 101.182H162.831V109.5C162.831 109.879 162.886 110.163 162.996 110.352C163.109 110.538 163.253 110.663 163.428 110.727C163.606 110.788 163.793 110.818 163.99 110.818C164.138 110.818 164.259 110.811 164.354 110.795C164.448 110.777 164.524 110.761 164.581 110.75L164.854 111.955C164.763 111.989 164.636 112.023 164.473 112.057C164.31 112.095 164.104 112.114 163.854 112.114C163.475 112.114 163.104 112.032 162.74 111.869C162.38 111.706 162.081 111.458 161.842 111.125C161.607 110.792 161.49 110.371 161.49 109.864V101.182ZM166.712 112V103.273H168.053V112H166.712ZM167.393 101.818C167.132 101.818 166.907 101.729 166.717 101.551C166.532 101.373 166.439 101.159 166.439 100.909C166.439 100.659 166.532 100.445 166.717 100.267C166.907 100.089 167.132 100 167.393 100C167.655 100 167.878 100.089 168.064 100.267C168.253 100.445 168.348 100.659 168.348 100.909C168.348 101.159 168.253 101.373 168.064 101.551C167.878 101.729 167.655 101.818 167.393 101.818ZM174.304 103.273V104.409H169.781V103.273H174.304ZM171.099 101.182H172.44V109.5C172.44 109.879 172.495 110.163 172.605 110.352C172.719 110.538 172.863 110.663 173.037 110.727C173.215 110.788 173.402 110.818 173.599 110.818C173.747 110.818 173.868 110.811 173.963 110.795C174.058 110.777 174.134 110.761 174.19 110.75L174.463 111.955C174.372 111.989 174.245 112.023 174.082 112.057C173.92 112.095 173.713 112.114 173.463 112.114C173.084 112.114 172.713 112.032 172.349 111.869C171.99 111.706 171.69 111.458 171.452 111.125C171.217 110.792 171.099 110.371 171.099 109.864V101.182ZM176.321 112V103.273H177.662V112H176.321ZM177.003 101.818C176.741 101.818 176.516 101.729 176.327 101.551C176.141 101.373 176.048 101.159 176.048 100.909C176.048 100.659 176.141 100.445 176.327 100.267C176.516 100.089 176.741 100 177.003 100C177.264 100 177.488 100.089 177.673 100.267C177.863 100.445 177.957 100.659 177.957 100.909C177.957 101.159 177.863 101.373 177.673 101.551C177.488 101.729 177.264 101.818 177.003 101.818ZM183.777 112.182C182.936 112.182 182.211 111.996 181.601 111.625C180.995 111.25 180.527 110.727 180.197 110.057C179.872 109.383 179.709 108.598 179.709 107.705C179.709 106.811 179.872 106.023 180.197 105.341C180.527 104.655 180.985 104.121 181.572 103.739C182.163 103.352 182.853 103.159 183.641 103.159C184.095 103.159 184.544 103.235 184.987 103.386C185.43 103.538 185.834 103.784 186.197 104.125C186.561 104.462 186.851 104.909 187.067 105.466C187.283 106.023 187.391 106.708 187.391 107.523V108.091H180.663V106.932H186.027C186.027 106.439 185.929 106 185.732 105.614C185.538 105.227 185.262 104.922 184.902 104.699C184.546 104.475 184.125 104.364 183.641 104.364C183.107 104.364 182.644 104.496 182.254 104.761C181.868 105.023 181.571 105.364 181.362 105.784C181.154 106.205 181.05 106.655 181.05 107.136V107.909C181.05 108.568 181.163 109.127 181.391 109.585C181.622 110.04 181.942 110.386 182.351 110.625C182.76 110.86 183.235 110.977 183.777 110.977C184.129 110.977 184.447 110.928 184.732 110.83C185.019 110.727 185.268 110.576 185.476 110.375C185.684 110.17 185.845 109.917 185.959 109.614L187.254 109.977C187.118 110.417 186.889 110.803 186.567 111.136C186.245 111.466 185.847 111.723 185.374 111.909C184.9 112.091 184.368 112.182 183.777 112.182ZM195.612 105.227L194.408 105.568C194.332 105.367 194.22 105.172 194.072 104.983C193.929 104.79 193.732 104.631 193.482 104.506C193.232 104.381 192.911 104.318 192.521 104.318C191.987 104.318 191.542 104.441 191.186 104.688C190.834 104.93 190.658 105.239 190.658 105.614C190.658 105.947 190.779 106.21 191.021 106.403C191.264 106.597 191.643 106.758 192.158 106.886L193.453 107.205C194.233 107.394 194.815 107.684 195.197 108.074C195.58 108.46 195.771 108.958 195.771 109.568C195.771 110.068 195.627 110.515 195.339 110.909C195.055 111.303 194.658 111.614 194.146 111.841C193.635 112.068 193.04 112.182 192.362 112.182C191.472 112.182 190.735 111.989 190.152 111.602C189.569 111.216 189.199 110.652 189.044 109.909L190.317 109.591C190.438 110.061 190.667 110.413 191.004 110.648C191.345 110.883 191.79 111 192.339 111C192.964 111 193.461 110.867 193.828 110.602C194.199 110.333 194.385 110.011 194.385 109.636C194.385 109.333 194.279 109.08 194.067 108.875C193.855 108.667 193.529 108.511 193.089 108.409L191.635 108.068C190.836 107.879 190.249 107.585 189.874 107.188C189.502 106.786 189.317 106.284 189.317 105.682C189.317 105.189 189.455 104.754 189.732 104.375C190.012 103.996 190.393 103.699 190.874 103.483C191.358 103.267 191.908 103.159 192.521 103.159C193.385 103.159 194.063 103.348 194.555 103.727C195.052 104.106 195.404 104.606 195.612 105.227ZM205.835 112.182C205.047 112.182 204.356 111.994 203.761 111.619C203.17 111.244 202.708 110.72 202.375 110.045C202.045 109.371 201.881 108.583 201.881 107.682C201.881 106.773 202.045 105.979 202.375 105.301C202.708 104.623 203.17 104.097 203.761 103.722C204.356 103.347 205.047 103.159 205.835 103.159C206.623 103.159 207.313 103.347 207.903 103.722C208.498 104.097 208.96 104.623 209.29 105.301C209.623 105.979 209.79 106.773 209.79 107.682C209.79 108.583 209.623 109.371 209.29 110.045C208.96 110.72 208.498 111.244 207.903 111.619C207.313 111.994 206.623 112.182 205.835 112.182ZM205.835 110.977C206.434 110.977 206.926 110.824 207.312 110.517C207.699 110.21 207.985 109.807 208.17 109.307C208.356 108.807 208.449 108.265 208.449 107.682C208.449 107.098 208.356 106.555 208.17 106.051C207.985 105.547 207.699 105.14 207.312 104.83C206.926 104.519 206.434 104.364 205.835 104.364C205.237 104.364 204.744 104.519 204.358 104.83C203.972 105.14 203.686 105.547 203.5 106.051C203.314 106.555 203.222 107.098 203.222 107.682C203.222 108.265 203.314 108.807 203.5 109.307C203.686 109.807 203.972 110.21 204.358 110.517C204.744 110.824 205.237 110.977 205.835 110.977ZM211.837 115.273V103.273H213.132V104.659H213.291C213.39 104.508 213.526 104.314 213.7 104.08C213.878 103.841 214.132 103.629 214.462 103.443C214.795 103.254 215.246 103.159 215.814 103.159C216.549 103.159 217.196 103.343 217.757 103.71C218.318 104.078 218.755 104.598 219.07 105.273C219.384 105.947 219.541 106.742 219.541 107.659C219.541 108.583 219.384 109.384 219.07 110.062C218.755 110.737 218.32 111.259 217.763 111.631C217.206 111.998 216.564 112.182 215.837 112.182C215.276 112.182 214.827 112.089 214.49 111.903C214.153 111.714 213.893 111.5 213.712 111.261C213.53 111.019 213.39 110.818 213.291 110.659H213.178V115.273H211.837ZM213.155 107.636C213.155 108.295 213.251 108.877 213.445 109.381C213.638 109.881 213.92 110.273 214.291 110.557C214.662 110.837 215.117 110.977 215.655 110.977C216.215 110.977 216.683 110.83 217.058 110.534C217.437 110.235 217.721 109.833 217.911 109.33C218.104 108.822 218.2 108.258 218.2 107.636C218.2 107.023 218.106 106.47 217.916 105.977C217.731 105.481 217.448 105.089 217.07 104.801C216.695 104.509 216.223 104.364 215.655 104.364C215.109 104.364 214.651 104.502 214.28 104.778C213.909 105.051 213.628 105.434 213.439 105.926C213.25 106.415 213.155 106.985 213.155 107.636ZM225.246 112.182C224.405 112.182 223.679 111.996 223.07 111.625C222.464 111.25 221.996 110.727 221.666 110.057C221.34 109.383 221.178 108.598 221.178 107.705C221.178 106.811 221.34 106.023 221.666 105.341C221.996 104.655 222.454 104.121 223.041 103.739C223.632 103.352 224.321 103.159 225.109 103.159C225.564 103.159 226.013 103.235 226.456 103.386C226.899 103.538 227.303 103.784 227.666 104.125C228.03 104.462 228.32 104.909 228.536 105.466C228.751 106.023 228.859 106.708 228.859 107.523V108.091H222.132V106.932H227.496C227.496 106.439 227.397 106 227.2 105.614C227.007 105.227 226.731 104.922 226.371 104.699C226.015 104.475 225.594 104.364 225.109 104.364C224.575 104.364 224.113 104.496 223.723 104.761C223.337 105.023 223.039 105.364 222.831 105.784C222.623 106.205 222.518 106.655 222.518 107.136V107.909C222.518 108.568 222.632 109.127 222.859 109.585C223.09 110.04 223.411 110.386 223.82 110.625C224.229 110.86 224.704 110.977 225.246 110.977C225.598 110.977 225.916 110.928 226.2 110.83C226.488 110.727 226.736 110.576 226.945 110.375C227.153 110.17 227.314 109.917 227.428 109.614L228.723 109.977C228.587 110.417 228.357 110.803 228.036 111.136C227.714 111.466 227.316 111.723 226.842 111.909C226.369 112.091 225.837 112.182 225.246 112.182ZM230.899 112V103.273H232.195V104.591H232.286C232.445 104.159 232.732 103.809 233.149 103.54C233.566 103.271 234.036 103.136 234.558 103.136C234.657 103.136 234.78 103.138 234.928 103.142C235.075 103.146 235.187 103.152 235.263 103.159V104.523C235.217 104.511 235.113 104.494 234.95 104.472C234.791 104.445 234.623 104.432 234.445 104.432C234.02 104.432 233.642 104.521 233.308 104.699C232.979 104.873 232.717 105.116 232.524 105.426C232.335 105.733 232.24 106.083 232.24 106.477V112H230.899ZM239.42 112.205C238.867 112.205 238.366 112.1 237.915 111.892C237.464 111.68 237.106 111.375 236.841 110.977C236.576 110.576 236.443 110.091 236.443 109.523C236.443 109.023 236.542 108.617 236.739 108.307C236.936 107.992 237.199 107.746 237.528 107.568C237.858 107.39 238.222 107.258 238.619 107.17C239.021 107.08 239.424 107.008 239.83 106.955C240.36 106.886 240.79 106.835 241.119 106.801C241.453 106.763 241.695 106.701 241.847 106.614C242.002 106.527 242.08 106.375 242.08 106.159V106.114C242.08 105.553 241.926 105.117 241.619 104.807C241.316 104.496 240.856 104.341 240.239 104.341C239.598 104.341 239.097 104.481 238.733 104.761C238.369 105.042 238.114 105.341 237.966 105.659L236.693 105.205C236.92 104.674 237.223 104.261 237.602 103.966C237.985 103.667 238.402 103.458 238.852 103.341C239.307 103.22 239.754 103.159 240.193 103.159C240.473 103.159 240.795 103.193 241.159 103.261C241.527 103.326 241.881 103.46 242.222 103.665C242.566 103.869 242.852 104.178 243.08 104.591C243.307 105.004 243.42 105.557 243.42 106.25V112H242.08V110.818H242.011C241.92 111.008 241.769 111.21 241.557 111.426C241.345 111.642 241.063 111.826 240.71 111.977C240.358 112.129 239.928 112.205 239.42 112.205ZM239.625 111C240.155 111 240.602 110.896 240.966 110.688C241.333 110.479 241.61 110.21 241.795 109.881C241.985 109.551 242.08 109.205 242.08 108.841V107.614C242.023 107.682 241.898 107.744 241.705 107.801C241.515 107.854 241.295 107.902 241.045 107.943C240.799 107.981 240.559 108.015 240.324 108.045C240.093 108.072 239.905 108.095 239.761 108.114C239.413 108.159 239.087 108.233 238.784 108.335C238.485 108.434 238.242 108.583 238.057 108.784C237.875 108.981 237.784 109.25 237.784 109.591C237.784 110.057 237.956 110.409 238.301 110.648C238.65 110.883 239.091 111 239.625 111ZM249.663 103.273V104.409H245.141V103.273H249.663ZM246.459 101.182H247.8V109.5C247.8 109.879 247.855 110.163 247.964 110.352C248.078 110.538 248.222 110.663 248.396 110.727C248.574 110.788 248.762 110.818 248.959 110.818C249.107 110.818 249.228 110.811 249.322 110.795C249.417 110.777 249.493 110.761 249.55 110.75L249.822 111.955C249.732 111.989 249.605 112.023 249.442 112.057C249.279 112.095 249.072 112.114 248.822 112.114C248.444 112.114 248.072 112.032 247.709 111.869C247.349 111.706 247.05 111.458 246.811 111.125C246.576 110.792 246.459 110.371 246.459 109.864V101.182ZM255.246 112.182C254.405 112.182 253.679 111.996 253.07 111.625C252.464 111.25 251.996 110.727 251.666 110.057C251.34 109.383 251.178 108.598 251.178 107.705C251.178 106.811 251.34 106.023 251.666 105.341C251.996 104.655 252.454 104.121 253.041 103.739C253.632 103.352 254.321 103.159 255.109 103.159C255.564 103.159 256.013 103.235 256.456 103.386C256.899 103.538 257.303 103.784 257.666 104.125C258.03 104.462 258.32 104.909 258.536 105.466C258.751 106.023 258.859 106.708 258.859 107.523V108.091H252.132V106.932H257.496C257.496 106.439 257.397 106 257.2 105.614C257.007 105.227 256.731 104.922 256.371 104.699C256.015 104.475 255.594 104.364 255.109 104.364C254.575 104.364 254.113 104.496 253.723 104.761C253.337 105.023 253.039 105.364 252.831 105.784C252.623 106.205 252.518 106.655 252.518 107.136V107.909C252.518 108.568 252.632 109.127 252.859 109.585C253.09 110.04 253.411 110.386 253.82 110.625C254.229 110.86 254.704 110.977 255.246 110.977C255.598 110.977 255.916 110.928 256.2 110.83C256.488 110.727 256.736 110.576 256.945 110.375C257.153 110.17 257.314 109.917 257.428 109.614L258.723 109.977C258.587 110.417 258.357 110.803 258.036 111.136C257.714 111.466 257.316 111.723 256.842 111.909C256.369 112.091 255.837 112.182 255.246 112.182ZM268.945 112.182C268.157 112.182 267.465 111.994 266.871 111.619C266.28 111.244 265.818 110.72 265.484 110.045C265.155 109.371 264.99 108.583 264.99 107.682C264.99 106.773 265.155 105.979 265.484 105.301C265.818 104.623 266.28 104.097 266.871 103.722C267.465 103.347 268.157 103.159 268.945 103.159C269.732 103.159 270.422 103.347 271.013 103.722C271.607 104.097 272.07 104.623 272.399 105.301C272.732 105.979 272.899 106.773 272.899 107.682C272.899 108.583 272.732 109.371 272.399 110.045C272.07 110.72 271.607 111.244 271.013 111.619C270.422 111.994 269.732 112.182 268.945 112.182ZM268.945 110.977C269.543 110.977 270.036 110.824 270.422 110.517C270.808 110.21 271.094 109.807 271.28 109.307C271.465 108.807 271.558 108.265 271.558 107.682C271.558 107.098 271.465 106.555 271.28 106.051C271.094 105.547 270.808 105.14 270.422 104.83C270.036 104.519 269.543 104.364 268.945 104.364C268.346 104.364 267.854 104.519 267.467 104.83C267.081 105.14 266.795 105.547 266.609 106.051C266.424 106.555 266.331 107.098 266.331 107.682C266.331 108.265 266.424 108.807 266.609 109.307C266.795 109.807 267.081 110.21 267.467 110.517C267.854 110.824 268.346 110.977 268.945 110.977ZM276.287 106.75V112H274.946V103.273H276.241V104.636H276.355C276.56 104.193 276.87 103.837 277.287 103.568C277.704 103.295 278.241 103.159 278.901 103.159C279.491 103.159 280.009 103.28 280.452 103.523C280.895 103.761 281.24 104.125 281.486 104.614C281.732 105.098 281.855 105.712 281.855 106.455V112H280.514V106.545C280.514 105.86 280.336 105.326 279.98 104.943C279.624 104.557 279.135 104.364 278.514 104.364C278.086 104.364 277.704 104.456 277.366 104.642C277.033 104.828 276.77 105.098 276.577 105.455C276.384 105.811 276.287 106.242 276.287 106.75ZM289.669 115.273C289.442 115.273 289.239 115.254 289.061 115.216C288.883 115.182 288.76 115.148 288.692 115.114L289.033 113.932C289.358 114.015 289.646 114.045 289.896 114.023C290.146 114 290.368 113.888 290.561 113.688C290.758 113.491 290.938 113.17 291.101 112.727L291.351 112.045L288.124 103.273H289.578L291.987 110.227H292.078L294.487 103.273H295.942L292.237 113.273C292.071 113.723 291.864 114.097 291.618 114.392C291.372 114.691 291.086 114.913 290.76 115.057C290.438 115.201 290.074 115.273 289.669 115.273ZM300.945 112.182C300.157 112.182 299.465 111.994 298.871 111.619C298.28 111.244 297.818 110.72 297.484 110.045C297.155 109.371 296.99 108.583 296.99 107.682C296.99 106.773 297.155 105.979 297.484 105.301C297.818 104.623 298.28 104.097 298.871 103.722C299.465 103.347 300.157 103.159 300.945 103.159C301.732 103.159 302.422 103.347 303.013 103.722C303.607 104.097 304.07 104.623 304.399 105.301C304.732 105.979 304.899 106.773 304.899 107.682C304.899 108.583 304.732 109.371 304.399 110.045C304.07 110.72 303.607 111.244 303.013 111.619C302.422 111.994 301.732 112.182 300.945 112.182ZM300.945 110.977C301.543 110.977 302.036 110.824 302.422 110.517C302.808 110.21 303.094 109.807 303.28 109.307C303.465 108.807 303.558 108.265 303.558 107.682C303.558 107.098 303.465 106.555 303.28 106.051C303.094 105.547 302.808 105.14 302.422 104.83C302.036 104.519 301.543 104.364 300.945 104.364C300.346 104.364 299.854 104.519 299.467 104.83C299.081 105.14 298.795 105.547 298.609 106.051C298.424 106.555 298.331 107.098 298.331 107.682C298.331 108.265 298.424 108.807 298.609 109.307C298.795 109.807 299.081 110.21 299.467 110.517C299.854 110.824 300.346 110.977 300.945 110.977ZM312.446 108.432V103.273H313.787V112H312.446V110.523H312.355C312.151 110.966 311.832 111.343 311.401 111.653C310.969 111.96 310.423 112.114 309.764 112.114C309.219 112.114 308.734 111.994 308.31 111.756C307.885 111.513 307.552 111.15 307.31 110.665C307.067 110.176 306.946 109.561 306.946 108.818V103.273H308.287V108.727C308.287 109.364 308.465 109.871 308.821 110.25C309.181 110.629 309.639 110.818 310.196 110.818C310.529 110.818 310.868 110.733 311.213 110.562C311.562 110.392 311.853 110.131 312.088 109.778C312.327 109.426 312.446 108.977 312.446 108.432ZM316.243 112V103.273H317.538V104.591H317.629C317.788 104.159 318.076 103.809 318.493 103.54C318.91 103.271 319.379 103.136 319.902 103.136C320 103.136 320.124 103.138 320.271 103.142C320.419 103.146 320.531 103.152 320.607 103.159V104.523C320.561 104.511 320.457 104.494 320.294 104.472C320.135 104.445 319.966 104.432 319.788 104.432C319.364 104.432 318.985 104.521 318.652 104.699C318.322 104.873 318.061 105.116 317.868 105.426C317.679 105.733 317.584 106.083 317.584 106.477V112H316.243ZM328.037 106.75V112H326.696V103.273H327.991V104.636H328.105C328.31 104.193 328.62 103.837 329.037 103.568C329.454 103.295 329.991 103.159 330.651 103.159C331.241 103.159 331.759 103.28 332.202 103.523C332.645 103.761 332.99 104.125 333.236 104.614C333.482 105.098 333.605 105.712 333.605 106.455V112H332.264V106.545C332.264 105.86 332.086 105.326 331.73 104.943C331.374 104.557 330.885 104.364 330.264 104.364C329.836 104.364 329.454 104.456 329.116 104.642C328.783 104.828 328.52 105.098 328.327 105.455C328.134 105.811 328.037 106.242 328.037 106.75ZM339.714 112.182C338.874 112.182 338.148 111.996 337.538 111.625C336.932 111.25 336.464 110.727 336.135 110.057C335.809 109.383 335.646 108.598 335.646 107.705C335.646 106.811 335.809 106.023 336.135 105.341C336.464 104.655 336.923 104.121 337.51 103.739C338.101 103.352 338.79 103.159 339.578 103.159C340.033 103.159 340.482 103.235 340.925 103.386C341.368 103.538 341.771 103.784 342.135 104.125C342.499 104.462 342.788 104.909 343.004 105.466C343.22 106.023 343.328 106.708 343.328 107.523V108.091H336.601V106.932H341.964C341.964 106.439 341.866 106 341.669 105.614C341.476 105.227 341.199 104.922 340.839 104.699C340.483 104.475 340.063 104.364 339.578 104.364C339.044 104.364 338.582 104.496 338.192 104.761C337.805 105.023 337.508 105.364 337.3 105.784C337.091 106.205 336.987 106.655 336.987 107.136V107.909C336.987 108.568 337.101 109.127 337.328 109.585C337.559 110.04 337.879 110.386 338.288 110.625C338.697 110.86 339.173 110.977 339.714 110.977C340.067 110.977 340.385 110.928 340.669 110.83C340.957 110.727 341.205 110.576 341.413 110.375C341.622 110.17 341.783 109.917 341.896 109.614L343.192 109.977C343.055 110.417 342.826 110.803 342.504 111.136C342.182 111.466 341.785 111.723 341.311 111.909C340.838 112.091 340.305 112.182 339.714 112.182ZM349.163 103.273V104.409H344.641V103.273H349.163ZM345.959 101.182H347.3V109.5C347.3 109.879 347.355 110.163 347.464 110.352C347.578 110.538 347.722 110.663 347.896 110.727C348.074 110.788 348.262 110.818 348.459 110.818C348.607 110.818 348.728 110.811 348.822 110.795C348.917 110.777 348.993 110.761 349.05 110.75L349.322 111.955C349.232 111.989 349.105 112.023 348.942 112.057C348.779 112.095 348.572 112.114 348.322 112.114C347.944 112.114 347.572 112.032 347.209 111.869C346.849 111.706 346.55 111.458 346.311 111.125C346.076 110.792 345.959 110.371 345.959 109.864V101.182ZM353.158 112L350.499 103.273H351.908L353.794 109.955H353.885L355.749 103.273H357.18L359.021 109.932H359.112L360.999 103.273H362.408L359.749 112H358.43L356.521 105.295H356.385L354.476 112H353.158ZM367.429 112.182C366.641 112.182 365.95 111.994 365.355 111.619C364.764 111.244 364.302 110.72 363.969 110.045C363.639 109.371 363.474 108.583 363.474 107.682C363.474 106.773 363.639 105.979 363.969 105.301C364.302 104.623 364.764 104.097 365.355 103.722C365.95 103.347 366.641 103.159 367.429 103.159C368.217 103.159 368.906 103.347 369.497 103.722C370.092 104.097 370.554 104.623 370.884 105.301C371.217 105.979 371.384 106.773 371.384 107.682C371.384 108.583 371.217 109.371 370.884 110.045C370.554 110.72 370.092 111.244 369.497 111.619C368.906 111.994 368.217 112.182 367.429 112.182ZM367.429 110.977C368.027 110.977 368.52 110.824 368.906 110.517C369.293 110.21 369.579 109.807 369.764 109.307C369.95 108.807 370.043 108.265 370.043 107.682C370.043 107.098 369.95 106.555 369.764 106.051C369.579 105.547 369.293 105.14 368.906 104.83C368.52 104.519 368.027 104.364 367.429 104.364C366.83 104.364 366.338 104.519 365.952 104.83C365.565 105.14 365.279 105.547 365.094 106.051C364.908 106.555 364.815 107.098 364.815 107.682C364.815 108.265 364.908 108.807 365.094 109.307C365.279 109.807 365.565 110.21 365.952 110.517C366.338 110.824 366.83 110.977 367.429 110.977ZM373.43 112V103.273H374.726V104.591H374.817C374.976 104.159 375.264 103.809 375.68 103.54C376.097 103.271 376.567 103.136 377.089 103.136C377.188 103.136 377.311 103.138 377.459 103.142C377.607 103.146 377.718 103.152 377.794 103.159V104.523C377.749 104.511 377.644 104.494 377.482 104.472C377.322 104.445 377.154 104.432 376.976 104.432C376.552 104.432 376.173 104.521 375.839 104.699C375.51 104.873 375.249 105.116 375.055 105.426C374.866 105.733 374.771 106.083 374.771 106.477V112H373.43ZM380.634 108.818L380.611 107.159H380.884L384.702 103.273H386.361L382.293 107.386H382.179L380.634 108.818ZM379.384 112V100.364H380.724V112H379.384ZM384.929 112L381.52 107.682L382.474 106.75L386.634 112H384.929Z" fill="white"/>
<circle cx="82" cy="74" r="43" fill="#2A2B2A"/>
<path fill-rule="evenodd" clip-rule="evenodd" d="M78.8526 51.3912C78.403 51.5347 77.8962 51.9043 77.5593 52.3342C77.036 53.0017 77.001 53.1569 76.9326 55.1207C76.8351 57.9169 76.827 57.944 75.9969 58.2392C73.8415 59.0064 72.0872 60.1169 70.4716 61.7373C69.5713 62.6403 68.8346 63.4469 68.8346 63.5296C68.8346 63.6125 68.6241 64.0246 68.3668 64.4454C68.1096 64.8662 67.8991 65.3426 67.8991 65.5041C67.8991 65.6656 67.8323 65.7978 67.7508 65.7978C67.6181 65.7978 67.4806 66.1967 66.9184 68.2128C66.4853 69.7663 66.2215 72.1381 66.2096 74.5884C66.1937 77.8017 65.7985 81.2538 65.4466 81.2538C65.3549 81.2538 65.2799 81.3781 65.2799 81.5299C65.2799 81.6816 65.1744 81.9208 65.0457 82.0612C64.9168 82.2015 64.645 82.6426 64.4418 83.041C64.2386 83.4395 64.013 83.7655 63.9404 83.7655C63.8678 83.7655 63.7612 83.9175 63.7032 84.1036C63.6454 84.2896 63.3445 84.7459 63.0349 85.1179C62.7253 85.4898 62.4244 85.9461 62.3666 86.1322C62.3086 86.318 62.1829 86.4703 62.0869 86.4703C61.991 86.4703 61.9124 86.5933 61.9124 86.744C61.9124 86.8945 61.8493 87.0466 61.7721 87.0821C61.5766 87.1718 60.7352 88.5553 60.3818 89.3683C60.0133 90.216 59.7996 91.6289 60.0189 91.7688C60.1098 91.8268 60.4677 91.6162 60.8144 91.3005C61.1611 90.985 61.5307 90.7255 61.6361 90.7238C61.7412 90.722 61.9906 90.3948 62.1902 89.9962C62.5103 89.3577 65.5589 84.7898 65.833 84.5383C65.891 84.4851 66.1059 84.0939 66.3108 83.6689C66.5154 83.2438 66.7295 82.8526 66.7863 82.7995C67.0045 82.5954 67.525 81.2747 67.525 80.9252C67.525 80.7233 67.6082 80.4723 67.71 80.3672C67.8118 80.2621 67.9747 78.0854 68.072 75.5297C68.2437 71.0264 68.5128 68.9354 69.1131 67.44C69.7365 65.8872 69.8703 65.6046 69.9825 65.6046C70.0491 65.6046 70.1587 65.378 70.2259 65.1011C70.3688 64.5136 72.7879 61.9705 73.6062 61.5478C73.9143 61.3884 74.2086 61.2106 74.26 61.1523C74.4436 60.9446 76.7226 60.0018 77.0412 60.0018C77.2197 60.0018 77.4455 59.9222 77.5434 59.825C77.641 59.7276 77.9316 59.619 78.1888 59.5835L78.6565 59.5188L78.7501 56.5653C78.8242 54.226 78.902 53.5738 79.1243 53.4287C79.2786 53.328 80.4361 53.2444 81.6967 53.2426C83.6104 53.2403 83.9885 53.2875 83.9885 53.5295C83.9885 53.6889 84.0727 53.8193 84.1756 53.8193C84.2917 53.8193 84.3627 54.8839 84.3627 56.6267C84.3627 58.7079 84.4231 59.4519 84.5965 59.502C84.7252 59.5392 85.2092 59.677 85.6722 59.8078C86.1353 59.9388 86.6825 60.1152 86.8883 60.1998C87.0941 60.2844 87.6621 60.5136 88.1504 60.7091C88.6389 60.9044 89.0387 61.1297 89.039 61.2093C89.0394 61.2889 89.1281 61.3542 89.2359 61.3542C89.8012 61.3542 92.3149 63.4025 93.0133 64.4322C93.2159 64.7305 93.4226 64.8316 93.6674 64.7514C94.0915 64.6125 94.8394 63.9251 94.8394 63.6745C94.8394 63.4494 92.2919 60.7746 92.0775 60.7746C91.989 60.7746 91.7527 60.6169 91.5523 60.4241C90.9355 59.8306 87.22 58.0698 86.5849 58.0698C86.2616 58.0698 86.2335 57.893 86.2335 55.8593C86.2335 54.5941 86.1534 53.5979 86.0464 53.5295C85.9435 53.4638 85.8593 53.2506 85.8593 53.0556C85.8593 52.5519 84.9441 51.6101 84.1945 51.3419C83.379 51.0504 79.8172 51.083 78.8526 51.3912ZM105.597 59.0381C105.391 59.1273 104.989 59.4146 104.703 59.6764C104.417 59.9382 103.892 60.3576 103.535 60.6084C103.178 60.8592 102.886 61.1297 102.885 61.2093C102.885 61.2889 102.803 61.3542 102.703 61.3542C102.604 61.3542 102.264 61.615 101.949 61.9338C101.633 62.2526 101.314 62.5136 101.241 62.5136C101.167 62.5138 100.882 62.7093 100.608 62.9483C99.8537 63.6053 99.5001 63.8998 98.5806 64.6359C98.1179 65.0062 97.6279 65.4191 97.4921 65.5536C97.3561 65.6879 97.1877 65.798 97.118 65.7982C97.048 65.7986 96.6963 66.0661 96.3361 66.393C95.976 66.7199 95.2183 67.3502 94.6524 67.7934C94.0866 68.2366 93.4552 68.757 93.2492 68.9501C93.0434 69.1431 92.6013 69.4761 92.267 69.6904C91.9327 69.9045 91.6571 70.1378 91.6549 70.2089C91.6526 70.2799 91.274 70.5988 90.8134 70.9176C90.3528 71.2364 89.9758 71.5625 89.9756 71.6421C89.9754 71.7217 89.856 71.787 89.7101 71.787C89.5644 71.787 89.4171 71.8529 89.3827 71.9333C89.3485 72.0138 88.9416 72.3811 88.4785 72.7495C88.0155 73.1178 87.5946 73.4655 87.5431 73.522C87.4917 73.5784 87.1128 73.8803 86.7012 74.1929C86.2896 74.5055 85.9108 74.8094 85.8593 74.8686C85.8079 74.9275 85.2607 75.3666 84.6433 75.8442C84.0259 76.3218 83.4787 76.761 83.4272 76.8199C83.3758 76.879 82.9986 77.1835 82.5891 77.4967C82.1796 77.8098 81.6744 78.2129 81.4666 78.3923C81.2587 78.572 80.9061 78.8763 80.6829 79.0686C80.4597 79.261 80.0544 79.5869 79.7824 79.7929C79.5102 79.9986 79.1117 80.3247 78.8968 80.5174C78.6816 80.7098 78.4474 80.8674 78.3759 80.8674C78.3046 80.8674 77.9428 81.1717 77.572 81.5436C77.2012 81.9156 76.8456 82.2199 76.7816 82.2199C76.7178 82.2199 76.5545 82.3284 76.4188 82.4614C76.2834 82.5943 75.9386 82.8767 75.6531 83.0893C75.3674 83.3018 75.0424 83.5638 74.9307 83.6716C74.819 83.7794 74.3489 84.17 73.8859 84.5396C73.4228 84.9092 73.0159 85.2774 72.9817 85.358C72.9473 85.4384 72.8 85.5043 72.6543 85.5043C72.5085 85.5043 72.389 85.5696 72.3888 85.6492C72.3886 85.7288 71.9677 86.0902 71.4534 86.4523C70.9391 86.8142 70.5178 87.1619 70.517 87.2251C70.5163 87.2881 70.2066 87.557 69.8289 87.8227C69.4512 88.0883 69.0519 88.3926 68.9416 88.4989C68.8312 88.6051 68.2359 89.0775 67.6185 89.5485C67.0011 90.0196 66.4539 90.4589 66.4024 90.5248C66.351 90.5907 65.9721 90.9002 65.5606 91.2128C65.149 91.5254 64.7701 91.8273 64.7187 91.8838C64.6672 91.9402 64.2463 92.2873 63.7832 92.6548C63.3202 93.0225 62.8501 93.4116 62.7384 93.5194C62.6267 93.6272 62.3017 93.8892 62.016 94.1017C61.7305 94.3142 61.3857 94.5969 61.2503 94.7296C61.1147 94.8625 60.9442 94.9711 60.8714 94.9711C60.7987 94.9711 60.5442 95.1884 60.3057 95.4541C60.0674 95.7198 59.8202 95.9371 59.7564 95.9371C59.6928 95.9371 59.5297 96.0459 59.394 96.1786C59.2586 96.3115 58.9224 96.5886 58.6472 96.7945C58.3722 97.0003 57.9711 97.3264 57.7561 97.519C57.5409 97.7115 57.3028 97.8691 57.2266 97.8691C56.8487 97.8691 56.9582 98.4474 57.4452 99.0235C58.0588 99.7491 58.2661 99.7119 59.423 98.6668C59.7516 98.3699 60.3194 97.9168 60.6845 97.6601C61.0497 97.4031 61.3491 97.1278 61.3498 97.048C61.3506 96.9682 61.4392 96.9031 61.5472 96.9031C61.655 96.9031 61.9287 96.7047 62.1552 96.462C62.3818 96.2196 62.8042 95.866 63.094 95.6765C63.3838 95.4869 63.7627 95.2118 63.9359 95.065C64.1091 94.9184 64.7552 94.3807 65.3712 93.8702C65.9873 93.36 66.6558 92.7904 66.8565 92.6044C67.0571 92.4185 67.2765 92.2663 67.344 92.2663C67.4116 92.2663 67.7113 92.0458 68.0103 91.7763C68.3094 91.507 69.0168 90.9201 69.5825 90.4722C70.1481 90.0244 70.8208 89.4626 71.0771 89.2234C71.3336 88.9844 71.6139 88.7887 71.7001 88.7887C71.7862 88.7887 72.0889 88.5489 72.3727 88.2558C72.6565 87.9627 73.1966 87.5064 73.5731 87.2415C73.9495 86.9766 74.258 86.6948 74.2587 86.6152C74.2595 86.5356 74.3794 86.4703 74.5251 86.4703C74.6709 86.4703 74.8181 86.405 74.8525 86.3254C74.8868 86.2458 75.3779 85.791 75.9438 85.3147C76.5097 84.8387 77.0008 84.3822 77.0351 84.3004C77.0695 84.2187 77.1965 84.1519 77.3178 84.1519C77.4388 84.1519 77.7649 83.9345 78.0423 83.6689C78.3196 83.4032 78.6275 83.1859 78.7263 83.1859C78.8251 83.1859 78.934 83.1175 78.9684 83.0338C79.0027 82.9501 79.4062 82.5807 79.8653 82.2127C80.3242 81.8447 80.8963 81.3481 81.1365 81.1089C81.3768 80.8698 81.6379 80.6742 81.7167 80.6742C81.7955 80.6742 82.0231 80.5212 82.2226 80.3344C82.4222 80.1476 82.9642 79.6916 83.4272 79.3215C83.8903 78.9513 84.2972 78.5827 84.3314 78.5021C84.3658 78.4217 84.4717 78.3558 84.5669 78.3558C84.6624 78.3558 85.0045 78.095 85.3274 77.7762C85.6505 77.4575 85.9836 77.1966 86.0677 77.1966C86.1517 77.1966 86.479 76.9358 86.7948 76.617C87.1106 76.2982 87.4432 76.0374 87.5339 76.0374C87.6247 76.0374 87.727 75.9686 87.7614 75.8846C87.7957 75.8004 88.1605 75.4758 88.5721 75.1632C89.7554 74.2644 91.1855 73.0563 91.2536 72.8979C91.288 72.8183 91.3991 72.753 91.5009 72.753C91.6025 72.753 91.7967 72.6444 91.9323 72.5115C92.0678 72.3788 92.4159 72.0961 92.7059 71.8836C92.9957 71.6711 93.3658 71.3668 93.528 71.2074C93.6902 71.048 94.1568 70.6614 94.565 70.3482C94.9732 70.0351 95.3492 69.7302 95.4007 69.6709C95.4521 69.6116 95.9573 69.201 96.5232 68.7586C97.0891 68.3162 97.7967 67.7298 98.0959 67.4556C98.3948 67.1813 98.6895 66.9568 98.7507 66.9566C98.8116 66.9562 99.1564 66.6956 99.5166 66.3774C99.8767 66.0592 100.223 65.7986 100.285 65.7982C100.348 65.798 100.691 65.5151 101.048 65.1699C101.405 64.8246 101.931 64.3681 102.218 64.1556C102.504 63.9431 102.85 63.6606 102.985 63.5277C103.121 63.3949 103.315 63.2862 103.416 63.2862C103.518 63.2862 103.629 63.2203 103.664 63.1399C103.698 63.0594 104.105 62.6921 104.568 62.3236C105.031 61.9554 105.452 61.6076 105.503 61.5512C105.555 61.4948 105.913 61.2056 106.298 60.9085C106.684 60.6115 107 60.2977 107 60.2114C107 60.1248 106.768 59.789 106.486 59.4651C106.083 59.0045 105.889 58.9113 105.597 59.0381ZM96.7103 72.3137C96.3502 72.601 96.0134 72.8958 95.962 72.9688C95.7468 73.2741 96.2778 79.3929 96.6815 81.2604C96.8508 82.0427 98.0652 84.6779 98.3703 84.9247C98.436 84.9778 98.8631 85.5429 99.3196 86.1805C99.7759 86.818 100.217 87.3686 100.301 87.404C100.384 87.4396 100.452 87.5543 100.452 87.6594C100.452 87.7643 100.557 87.9714 100.686 88.1196C101.234 88.7514 101.387 88.9761 101.387 89.1507C101.387 89.2527 101.45 89.365 101.528 89.4005C101.844 89.5456 102.323 90.7286 102.323 91.3642C102.323 91.9324 102.222 92.1019 101.715 92.3903C101.149 92.7116 100.05 92.7429 86.0339 92.8391L70.961 92.9425L70.5058 93.4444C70.2555 93.7205 69.8611 94.0495 69.6297 94.1757C69.3981 94.3019 69.2087 94.5354 69.2087 94.6946C69.2087 94.95 70.986 94.9752 84.3159 94.9087C94.2598 94.859 99.8705 94.7588 100.733 94.6158C103.219 94.2027 104.277 93.2466 104.25 91.4346C104.238 90.6137 103.763 89.0682 103.436 88.7887C103.374 88.7355 103.165 88.4094 102.97 88.0642C102.775 87.7189 102.55 87.4363 102.47 87.4363C102.389 87.4363 102.323 87.3267 102.323 87.1928C102.323 87.059 102.112 86.7149 101.855 86.4283C101.598 86.142 101.387 85.8541 101.387 85.7887C101.387 85.7234 101.282 85.5487 101.154 85.4005C100.651 84.8213 100.452 84.55 100.452 84.4417C100.452 84.3796 100.304 84.165 100.123 83.9648C99.6429 83.432 98.5812 81.289 98.5812 80.8516C98.5812 80.6449 98.5011 80.3247 98.403 80.1402C98.2648 79.8798 97.6386 73.1837 97.6444 72.0285C97.6463 71.6699 97.4373 71.7337 96.7103 72.3137ZM74.591 96.5542C74.4177 97.0905 75.3339 99.2312 76.0198 99.8935C77.651 101.468 79.7259 102.185 82.3137 102.068C83.9125 101.996 85.6167 101.657 85.8593 101.363C85.9108 101.301 86.1882 101.124 86.476 100.971C87.9487 100.187 89.414 98.1489 89.414 96.8853C89.414 96.3399 89.3866 96.3235 88.4785 96.3235C87.6054 96.3235 87.5431 96.3558 87.5431 96.8065C87.5431 97.0722 87.4589 97.2895 87.356 97.2895C87.2531 97.2895 87.1689 97.4023 87.1689 97.5401C87.1689 97.8533 85.8303 99.2215 85.5241 99.2215C85.3999 99.2215 85.2981 99.2905 85.2981 99.3749C85.2981 99.934 80.4653 100.516 80.1532 99.9943C80.0896 99.8881 79.908 99.8011 79.7495 99.8011C78.7447 99.8011 76.8231 98.1579 76.5507 97.0658C76.4007 96.4644 76.3307 96.416 75.5307 96.362C74.9526 96.3229 74.6452 96.3857 74.591 96.5542Z" fill="white"/>
</svg>
