<svg width="86" height="86" viewBox="0 0 86 86" fill="none" xmlns="http://www.w3.org/2000/svg">
<circle cx="43" cy="43" r="43" fill="#74883F"/>
<path fill-rule="evenodd" clip-rule="evenodd" d="M39.8526 20.3912C39.403 20.5347 38.8962 20.9043 38.5593 21.3342C38.036 22.0017 38.001 22.1569 37.9326 24.1207C37.8351 26.9169 37.827 26.944 36.9969 27.2392C34.8415 28.0064 33.0872 29.1169 31.4716 30.7373C30.5713 31.6403 29.8346 32.4469 29.8346 32.5296C29.8346 32.6125 29.6241 33.0246 29.3668 33.4454C29.1096 33.8662 28.8991 34.3426 28.8991 34.5041C28.8991 34.6656 28.8323 34.7978 28.7508 34.7978C28.6181 34.7978 28.4806 35.1967 27.9184 37.2128C27.4853 38.7663 27.2215 41.1381 27.2096 43.5884C27.1937 46.8017 26.7985 50.2538 26.4466 50.2538C26.3549 50.2538 26.2799 50.3781 26.2799 50.5299C26.2799 50.6816 26.1744 50.9208 26.0457 51.0612C25.9168 51.2015 25.645 51.6426 25.4418 52.041C25.2386 52.4395 25.013 52.7655 24.9404 52.7655C24.8678 52.7655 24.7612 52.9175 24.7032 53.1036C24.6454 53.2896 24.3445 53.7459 24.0349 54.1179C23.7253 54.4898 23.4244 54.9461 23.3666 55.1322C23.3086 55.318 23.1829 55.4703 23.0869 55.4703C22.991 55.4703 22.9124 55.5933 22.9124 55.744C22.9124 55.8945 22.8493 56.0466 22.7721 56.0821C22.5766 56.1718 21.7352 57.5553 21.3818 58.3683C21.0133 59.216 20.7996 60.6289 21.0189 60.7688C21.1098 60.8268 21.4677 60.6162 21.8144 60.3005C22.1611 59.985 22.5307 59.7255 22.6361 59.7238C22.7412 59.722 22.9906 59.3948 23.1902 58.9962C23.5103 58.3577 26.5589 53.7898 26.833 53.5383C26.891 53.4851 27.1059 53.0939 27.3108 52.6689C27.5154 52.2438 27.7295 51.8526 27.7863 51.7995C28.0045 51.5954 28.525 50.2747 28.525 49.9252C28.525 49.7233 28.6082 49.4723 28.71 49.3672C28.8118 49.2621 28.9747 47.0854 29.072 44.5297C29.2437 40.0264 29.5128 37.9354 30.1131 36.44C30.7365 34.8872 30.8703 34.6046 30.9825 34.6046C31.0491 34.6046 31.1587 34.378 31.2259 34.1011C31.3688 33.5136 33.7879 30.9705 34.6062 30.5478C34.9143 30.3884 35.2086 30.2106 35.26 30.1523C35.4436 29.9446 37.7226 29.0018 38.0412 29.0018C38.2197 29.0018 38.4455 28.9222 38.5434 28.825C38.641 28.7276 38.9316 28.619 39.1888 28.5835L39.6565 28.5188L39.7501 25.5653C39.8242 23.226 39.902 22.5738 40.1243 22.4287C40.2786 22.328 41.4361 22.2444 42.6967 22.2426C44.6104 22.2403 44.9885 22.2875 44.9885 22.5295C44.9885 22.6889 45.0727 22.8193 45.1756 22.8193C45.2917 22.8193 45.3627 23.8839 45.3627 25.6267C45.3627 27.7079 45.4231 28.4519 45.5965 28.502C45.7252 28.5392 46.2092 28.677 46.6722 28.8078C47.1353 28.9388 47.6825 29.1152 47.8883 29.1998C48.0941 29.2844 48.6621 29.5136 49.1504 29.7091C49.6389 29.9044 50.0387 30.1297 50.039 30.2093C50.0394 30.2889 50.1281 30.3542 50.2359 30.3542C50.8012 30.3542 53.3149 32.4025 54.0133 33.4322C54.2159 33.7305 54.4226 33.8316 54.6674 33.7514C55.0915 33.6125 55.8394 32.9251 55.8394 32.6745C55.8394 32.4494 53.2919 29.7746 53.0775 29.7746C52.989 29.7746 52.7527 29.6169 52.5523 29.4241C51.9355 28.8306 48.22 27.0698 47.5849 27.0698C47.2616 27.0698 47.2335 26.893 47.2335 24.8593C47.2335 23.5941 47.1534 22.5979 47.0464 22.5295C46.9435 22.4638 46.8593 22.2506 46.8593 22.0556C46.8593 21.5519 45.9441 20.6101 45.1945 20.3419C44.379 20.0504 40.8172 20.083 39.8526 20.3912ZM66.5969 28.0381C66.3911 28.1273 65.9888 28.4146 65.7031 28.6764C65.4173 28.9382 64.8918 29.3576 64.5352 29.6084C64.1784 29.8592 63.8862 30.1297 63.8854 30.2093C63.8847 30.2889 63.8029 30.3542 63.7034 30.3542C63.604 30.3542 63.2645 30.615 62.9487 30.9338C62.6329 31.2526 62.3143 31.5136 62.2408 31.5136C62.167 31.5138 61.8823 31.7093 61.608 31.9483C60.8537 32.6053 60.5001 32.8998 59.5806 33.6359C59.1179 34.0062 58.6279 34.4191 58.4921 34.5536C58.3561 34.6879 58.1877 34.798 58.118 34.7982C58.048 34.7986 57.6963 35.0661 57.3361 35.393C56.976 35.7199 56.2183 36.3502 55.6524 36.7934C55.0866 37.2366 54.4552 37.757 54.2492 37.9501C54.0434 38.1431 53.6013 38.4761 53.267 38.6904C52.9327 38.9045 52.6571 39.1378 52.6549 39.2089C52.6526 39.2799 52.274 39.5988 51.8134 39.9176C51.3528 40.2364 50.9758 40.5625 50.9756 40.6421C50.9754 40.7217 50.856 40.787 50.7101 40.787C50.5644 40.787 50.4171 40.8529 50.3827 40.9333C50.3485 41.0138 49.9416 41.3811 49.4785 41.7495C49.0155 42.1178 48.5946 42.4655 48.5431 42.522C48.4917 42.5784 48.1128 42.8803 47.7012 43.1929C47.2896 43.5055 46.9108 43.8094 46.8593 43.8686C46.8079 43.9275 46.2607 44.3666 45.6433 44.8442C45.0259 45.3218 44.4787 45.761 44.4272 45.8199C44.3758 45.879 43.9986 46.1835 43.5891 46.4967C43.1796 46.8098 42.6744 47.2129 42.4666 47.3923C42.2587 47.572 41.9061 47.8763 41.6829 48.0686C41.4597 48.261 41.0544 48.5869 40.7824 48.7929C40.5102 48.9986 40.1117 49.3247 39.8968 49.5174C39.6816 49.7098 39.4474 49.8674 39.3759 49.8674C39.3046 49.8674 38.9428 50.1717 38.572 50.5436C38.2012 50.9156 37.8456 51.2199 37.7816 51.2199C37.7178 51.2199 37.5545 51.3284 37.4188 51.4614C37.2834 51.5943 36.9386 51.8767 36.6531 52.0893C36.3674 52.3018 36.0424 52.5638 35.9307 52.6716C35.819 52.7794 35.3489 53.17 34.8859 53.5396C34.4228 53.9092 34.0159 54.2774 33.9817 54.358C33.9473 54.4384 33.8 54.5043 33.6543 54.5043C33.5085 54.5043 33.389 54.5696 33.3888 54.6492C33.3886 54.7288 32.9677 55.0902 32.4534 55.4523C31.9391 55.8142 31.5178 56.1619 31.517 56.2251C31.5163 56.2881 31.2066 56.557 30.8289 56.8227C30.4512 57.0883 30.0519 57.3926 29.9416 57.4989C29.8312 57.6051 29.2359 58.0775 28.6185 58.5485C28.0011 59.0196 27.4539 59.4589 27.4024 59.5248C27.351 59.5907 26.9721 59.9002 26.5606 60.2128C26.149 60.5254 25.7701 60.8273 25.7187 60.8838C25.6672 60.9402 25.2463 61.2873 24.7832 61.6548C24.3202 62.0225 23.8501 62.4116 23.7384 62.5194C23.6267 62.6272 23.3017 62.8892 23.016 63.1017C22.7305 63.3142 22.3857 63.5969 22.2503 63.7296C22.1147 63.8625 21.9442 63.9711 21.8714 63.9711C21.7987 63.9711 21.5442 64.1884 21.3057 64.4541C21.0674 64.7198 20.8202 64.9371 20.7564 64.9371C20.6928 64.9371 20.5297 65.0459 20.394 65.1786C20.2586 65.3115 19.9224 65.5886 19.6472 65.7945C19.3722 66.0003 18.9711 66.3264 18.7561 66.519C18.5409 66.7115 18.3028 66.8691 18.2266 66.8691C17.8487 66.8691 17.9582 67.4474 18.4452 68.0235C19.0588 68.7491 19.2661 68.7119 20.423 67.6668C20.7516 67.3699 21.3194 66.9168 21.6845 66.6601C22.0497 66.4031 22.3491 66.1278 22.3498 66.048C22.3506 65.9682 22.4392 65.9031 22.5472 65.9031C22.655 65.9031 22.9287 65.7047 23.1552 65.462C23.3818 65.2196 23.8042 64.866 24.094 64.6765C24.3838 64.4869 24.7627 64.2118 24.9359 64.065C25.1091 63.9184 25.7552 63.3807 26.3712 62.8702C26.9873 62.36 27.6558 61.7904 27.8565 61.6044C28.0571 61.4185 28.2765 61.2663 28.344 61.2663C28.4116 61.2663 28.7113 61.0458 29.0103 60.7763C29.3094 60.507 30.0168 59.9201 30.5825 59.4722C31.1481 59.0244 31.8208 58.4626 32.0771 58.2234C32.3336 57.9844 32.6139 57.7887 32.7001 57.7887C32.7862 57.7887 33.0889 57.5489 33.3727 57.2558C33.6565 56.9627 34.1966 56.5064 34.5731 56.2415C34.9495 55.9766 35.258 55.6948 35.2587 55.6152C35.2595 55.5356 35.3794 55.4703 35.5251 55.4703C35.6709 55.4703 35.8181 55.405 35.8525 55.3254C35.8868 55.2458 36.3779 54.791 36.9438 54.3147C37.5097 53.8387 38.0008 53.3822 38.0351 53.3004C38.0695 53.2187 38.1965 53.1519 38.3178 53.1519C38.4388 53.1519 38.7649 52.9345 39.0423 52.6689C39.3196 52.4032 39.6275 52.1859 39.7263 52.1859C39.8251 52.1859 39.934 52.1175 39.9684 52.0338C40.0027 51.9501 40.4062 51.5807 40.8653 51.2127C41.3242 50.8447 41.8963 50.3481 42.1365 50.1089C42.3768 49.8698 42.6379 49.6742 42.7167 49.6742C42.7955 49.6742 43.0231 49.5212 43.2226 49.3344C43.4222 49.1476 43.9642 48.6916 44.4272 48.3215C44.8903 47.9513 45.2972 47.5827 45.3314 47.5021C45.3658 47.4217 45.4717 47.3558 45.5669 47.3558C45.6624 47.3558 46.0045 47.095 46.3274 46.7762C46.6505 46.4575 46.9836 46.1966 47.0677 46.1966C47.1517 46.1966 47.479 45.9358 47.7948 45.617C48.1106 45.2982 48.4432 45.0374 48.5339 45.0374C48.6247 45.0374 48.727 44.9686 48.7614 44.8846C48.7957 44.8004 49.1605 44.4758 49.5721 44.1632C50.7554 43.2644 52.1855 42.0563 52.2536 41.8979C52.288 41.8183 52.3991 41.753 52.5009 41.753C52.6025 41.753 52.7967 41.6444 52.9323 41.5115C53.0678 41.3788 53.4159 41.0961 53.7059 40.8836C53.9957 40.6711 54.3658 40.3668 54.528 40.2074C54.6902 40.048 55.1568 39.6614 55.565 39.3482C55.9732 39.0351 56.3492 38.7302 56.4007 38.6709C56.4521 38.6116 56.9573 38.201 57.5232 37.7586C58.0891 37.3162 58.7967 36.7298 59.0959 36.4556C59.3948 36.1813 59.6895 35.9568 59.7507 35.9566C59.8116 35.9562 60.1564 35.6956 60.5166 35.3774C60.8767 35.0592 61.2228 34.7986 61.2855 34.7982C61.3484 34.798 61.6915 34.5151 62.0482 34.1699C62.4048 33.8246 62.9311 33.3681 63.2177 33.1556C63.5041 32.9431 63.8495 32.6606 63.985 32.5277C64.1206 32.3949 64.3148 32.2862 64.4164 32.2862C64.5182 32.2862 64.6293 32.2203 64.6637 32.1399C64.6979 32.0594 65.1049 31.6921 65.5679 31.3236C66.0309 30.9554 66.4519 30.6076 66.5033 30.5512C66.5548 30.4948 66.9127 30.2056 67.2984 29.9085C67.6844 29.6115 68 29.2977 68 29.2114C68 29.1248 67.7684 28.789 67.4855 28.4651C67.0835 28.0045 66.8893 27.9113 66.5969 28.0381ZM57.7103 41.3137C57.3502 41.601 57.0134 41.8958 56.962 41.9688C56.7468 42.2741 57.2778 48.3929 57.6815 50.2604C57.8508 51.0427 59.0652 53.6779 59.3703 53.9247C59.436 53.9778 59.8631 54.5429 60.3196 55.1805C60.7759 55.818 61.2174 56.3686 61.3007 56.404C61.3839 56.4396 61.452 56.5543 61.452 56.6594C61.452 56.7643 61.5573 56.9714 61.6859 57.1196C62.2344 57.7514 62.3874 57.9761 62.3874 58.1507C62.3874 58.2527 62.4505 58.365 62.5277 58.4005C62.8439 58.5456 63.3229 59.7286 63.3229 60.3642C63.3229 60.9324 63.2224 61.1019 62.7148 61.3903C62.1495 61.7116 61.0496 61.7429 47.0339 61.8391L31.961 61.9425L31.5058 62.4444C31.2555 62.7205 30.8611 63.0495 30.6297 63.1757C30.3981 63.3019 30.2087 63.5354 30.2087 63.6946C30.2087 63.95 31.986 63.9752 45.3159 63.9087C55.2598 63.859 60.8705 63.7588 61.7326 63.6158C64.2194 63.2027 65.2766 62.2466 65.2502 60.4346C65.2382 59.6137 64.7629 58.0682 64.4364 57.7887C64.3745 57.7355 64.1646 57.4094 63.97 57.0642C63.7754 56.7189 63.5504 56.4363 63.4695 56.4363C63.3889 56.4363 63.3229 56.3267 63.3229 56.1928C63.3229 56.059 63.1124 55.7149 62.8551 55.4283C62.5979 55.142 62.3874 54.8541 62.3874 54.7887C62.3874 54.7234 62.2823 54.5487 62.1536 54.4005C61.6505 53.8213 61.452 53.55 61.452 53.4417C61.452 53.3796 61.3042 53.165 61.1235 52.9648C60.6429 52.432 59.5812 50.289 59.5812 49.8516C59.5812 49.6449 59.5011 49.3247 59.403 49.1402C59.2648 48.8798 58.6386 42.1837 58.6444 41.0285C58.6463 40.6699 58.4373 40.7337 57.7103 41.3137ZM35.591 65.5542C35.4177 66.0905 36.3339 68.2312 37.0198 68.8935C38.651 70.4679 40.7259 71.1848 43.3137 71.0681C44.9125 70.9959 46.6167 70.657 46.8593 70.363C46.9108 70.3006 47.1882 70.1242 47.476 69.971C48.9487 69.1866 50.414 67.1489 50.414 65.8853C50.414 65.3399 50.3866 65.3235 49.4785 65.3235C48.6054 65.3235 48.5431 65.3558 48.5431 65.8065C48.5431 66.0722 48.4589 66.2895 48.356 66.2895C48.2531 66.2895 48.1689 66.4023 48.1689 66.5401C48.1689 66.8533 46.8303 68.2215 46.5241 68.2215C46.3999 68.2215 46.2981 68.2905 46.2981 68.3749C46.2981 68.934 41.4653 69.5158 41.1532 68.9943C41.0896 68.8881 40.908 68.8011 40.7495 68.8011C39.7447 68.8011 37.8231 67.1579 37.5507 66.0658C37.4007 65.4644 37.3307 65.416 36.5307 65.362C35.9526 65.3229 35.6452 65.3857 35.591 65.5542Z" fill="white"/>
</svg>
