<svg width="86" height="86" viewBox="0 0 86 86" fill="none" xmlns="http://www.w3.org/2000/svg">
<circle cx="43" cy="43" r="43" fill="#74883F"/>
<path d="M46.1203 10.7375C45.6836 10.4687 44.743 10.1328 44.0039 10.0321C43.0633 9.9313 42.2906 10.0657 41.4844 10.4687C40.8461 10.8047 40.0062 11.5437 39.6367 12.1147C38.9984 13.156 38.8641 13.1896 36.3109 13.324C33.657 13.4247 33.657 13.4247 32.4477 14.8355L31.2383 16.2464C23.982 16.28 22.9406 16.3807 22.5375 16.7838C22.0672 17.2205 22 20.2101 22 44.429C22 65.8599 22.0672 71.6376 22.4031 71.9735C22.7391 72.3094 27.2742 72.3765 43.5336 72.3765C59.625 72.3765 64.2945 72.2758 64.5969 71.9735C64.9328 71.6376 65 65.2553 65 44.429C65 20.7475 64.9328 17.2205 64.4961 16.7838C64.093 16.3807 63.0852 16.28 59.793 16.28C55.6609 16.28 55.5938 16.28 55.0898 15.4402C54.8211 14.9699 54.082 14.2981 53.5109 13.9286C52.7047 13.4583 51.7977 13.2568 50.2187 13.2568C48.1359 13.2568 48.0016 13.1896 47.4641 12.2491C47.1281 11.678 46.5234 11.0062 46.1203 10.7375Z" fill="white"/>
<path d="M44.5499 12.1645C44.1127 11.9967 43.5745 11.8288 43.3727 11.8624C43.1373 11.8624 42.6327 12.0302 42.2628 12.2317C41.8928 12.3996 41.4219 12.9032 41.1865 13.3062C40.9847 13.6755 40.7156 14.2799 40.6147 14.6157C40.4465 15.0858 39.9756 15.1865 37.6549 15.1865C35.4687 15.1529 34.6951 15.2872 34.1233 15.7573C33.7197 16.0931 33.2824 16.7646 33.1815 17.3019L33.0134 18.2084H53.8666C53.5975 16.7646 53.1603 16.0931 52.7567 15.7573C52.1849 15.2872 51.4113 15.1529 49.2587 15.1865C46.9043 15.1865 46.4334 15.0858 46.2652 14.6157C46.1643 14.2799 45.8953 13.6755 45.6935 13.2726C45.458 12.8361 44.9535 12.366 44.5499 12.1645Z" fill="#74883F"/>
<path d="M31.1635 20.0552L30.9953 18.2084C25.8829 18.2084 24.2685 18.3092 24.1003 18.4435C23.9321 18.5442 23.8312 30.2627 23.8648 44.4658L23.9321 70.2531H62.6115V18.2084H56.0528L55.5483 20.2231L31.1635 20.0552Z" fill="#74883F"/>
<path d="M35.8022 28.0765C35.6321 27.8098 35.326 27.5431 35.1219 27.4765C34.8838 27.4098 34.1355 28.0765 33.4212 28.9431C32.6729 29.8431 31.8226 30.9431 31.5165 31.3765L30.9382 32.2098C29.8498 30.7765 29.2375 30.3765 28.8634 30.3765C28.4892 30.3765 28.1151 30.6098 28.013 30.8765C27.911 31.1431 28.4212 32.2098 29.1015 33.2098C29.8158 34.2431 30.6321 35.0765 30.9042 35.0431C31.1763 35.0431 32.4689 33.5765 33.7614 31.8098C35.4281 29.4765 36.0063 28.4098 35.8022 28.0765Z" fill="white"/>
<path d="M58.9657 27.8765C58.8297 27.4431 57.4011 27.3765 48.9996 27.3765C43.5914 27.3765 39.0676 27.4765 38.8975 27.6098C38.7274 27.7098 38.6254 28.1098 38.6594 28.4431C38.6934 28.7765 38.9655 29.1098 39.2376 29.2098C39.5097 29.3098 43.9316 29.3765 48.9996 29.3765C56.9929 29.4098 58.3535 29.3431 58.6936 28.8765C58.9317 28.6098 59.0678 28.1431 58.9657 27.8765Z" fill="white"/>
<path d="M55.2242 33.8765C55.0881 33.4431 53.8636 33.3765 47.1289 33.3765C42.7411 33.3765 39.0676 33.4765 38.8975 33.6098C38.7274 33.7098 38.6254 34.1098 38.6594 34.4431C38.6934 34.7765 38.9655 35.1098 39.2376 35.2098C39.5097 35.3098 43.0132 35.3765 47.0268 35.3765C53.0473 35.3765 54.4079 35.2765 54.85 34.8765C55.1562 34.6098 55.3262 34.1431 55.2242 33.8765Z" fill="white"/>
<path d="M35.8022 42.0765C35.6321 41.8098 35.326 41.5431 35.1219 41.4765C34.8838 41.4098 34.1355 42.0765 33.4212 42.9431C32.6729 43.8431 31.8226 44.9431 31.5165 45.3765L30.9382 46.2098C29.8498 44.7765 29.2375 44.3765 28.8634 44.3765C28.4892 44.3765 28.1151 44.6098 28.013 44.8765C27.911 45.1431 28.4212 46.2098 29.1015 47.2098C29.8158 48.2431 30.6321 49.0765 30.9042 49.0431C31.1763 49.0431 32.4689 47.5765 33.7614 45.8098C35.4281 43.4765 36.0063 42.4098 35.8022 42.0765Z" fill="white"/>
<path d="M58.9657 41.8765C58.8297 41.4431 57.4011 41.3765 48.9996 41.3765C43.5914 41.3765 39.0676 41.4765 38.8975 41.6098C38.7274 41.7098 38.6254 42.1098 38.6594 42.4431C38.6934 42.7765 38.9655 43.1098 39.2376 43.2098C39.5097 43.3098 43.9316 43.3765 48.9996 43.3765C56.9929 43.4098 58.3535 43.3431 58.6936 42.8765C58.9317 42.6098 59.0678 42.1431 58.9657 41.8765Z" fill="white"/>
<path d="M55.2242 47.8765C55.0881 47.4431 53.8636 47.3765 47.1289 47.3765C42.7411 47.3765 39.0676 47.4765 38.8975 47.6098C38.7274 47.7098 38.6254 48.1098 38.6594 48.4431C38.6934 48.7765 38.9655 49.1098 39.2376 49.2098C39.5097 49.3098 43.0132 49.3765 47.0268 49.3765C53.0473 49.3765 54.4079 49.2765 54.85 48.8765C55.1562 48.6098 55.3262 48.1431 55.2242 47.8765Z" fill="white"/>
<path d="M35.8022 56.0765C35.6321 55.8098 35.326 55.5431 35.1219 55.4765C34.8838 55.4098 34.1355 56.0765 33.4212 56.9431C32.6729 57.8431 31.8226 58.9431 31.5165 59.3765L30.9382 60.2098C29.8498 58.7765 29.2375 58.3765 28.8634 58.3765C28.4892 58.3765 28.1151 58.6098 28.013 58.8765C27.911 59.1431 28.4212 60.2098 29.1015 61.2098C29.8158 62.2431 30.6321 63.0765 30.9042 63.0431C31.1763 63.0431 32.4689 61.5765 33.7614 59.8098C35.4281 57.4765 36.0063 56.4098 35.8022 56.0765Z" fill="white"/>
<path d="M58.9657 55.8765C58.8297 55.4431 57.4011 55.3765 48.9996 55.3765C43.5914 55.3765 39.0676 55.4765 38.8975 55.6098C38.7274 55.7098 38.6254 56.1098 38.6594 56.4431C38.6934 56.7765 38.9655 57.1098 39.2376 57.2098C39.5097 57.3098 43.9316 57.3765 48.9996 57.3765C56.9929 57.4098 58.3535 57.3431 58.6936 56.8765C58.9317 56.6098 59.0678 56.1431 58.9657 55.8765Z" fill="white"/>
<path d="M55.2242 61.8765C55.0881 61.4431 53.8636 61.3765 47.1289 61.3765C42.7411 61.3765 39.0676 61.4765 38.8975 61.6098C38.7274 61.7098 38.6254 62.1098 38.6594 62.4431C38.6934 62.7765 38.9655 63.1098 39.2376 63.2098C39.5097 63.3098 43.0132 63.3765 47.0268 63.3765C53.0473 63.3765 54.4079 63.2765 54.85 62.8765C55.1562 62.6098 55.3262 62.1431 55.2242 61.8765Z" fill="white"/>
</svg>
