<svg width="526" height="101" viewBox="0 0 526 101" fill="none" xmlns="http://www.w3.org/2000/svg">
<rect width="116" height="101" fill="#83984B"/>
<rect x="116" width="410" height="101" fill="white"/>
<path d="M136.818 43V19.7273H144.682C146.508 19.7273 148 20.0568 149.159 20.7159C150.326 21.3674 151.189 22.25 151.75 23.3636C152.311 24.4773 152.591 25.7197 152.591 27.0909C152.591 28.4621 152.311 29.7083 151.75 30.8295C151.197 31.9508 150.341 32.8447 149.182 33.5114C148.023 34.1705 146.538 34.5 144.727 34.5H139.091V32H144.636C145.886 32 146.89 31.7841 147.648 31.3523C148.405 30.9205 148.955 30.3371 149.295 29.6023C149.644 28.8598 149.818 28.0227 149.818 27.0909C149.818 26.1591 149.644 25.3258 149.295 24.5909C148.955 23.8561 148.402 23.2803 147.636 22.8636C146.871 22.4394 145.856 22.2273 144.591 22.2273H139.636V43H136.818ZM163.898 43.3636C162.216 43.3636 160.765 42.9924 159.545 42.25C158.333 41.5 157.398 40.4545 156.739 39.1136C156.087 37.7652 155.761 36.197 155.761 34.4091C155.761 32.6212 156.087 31.0455 156.739 29.6818C157.398 28.3106 158.314 27.2424 159.489 26.4773C160.67 25.7045 162.049 25.3182 163.625 25.3182C164.534 25.3182 165.432 25.4697 166.318 25.7727C167.205 26.0758 168.011 26.5682 168.739 27.25C169.466 27.9242 170.045 28.8182 170.477 29.9318C170.909 31.0455 171.125 32.4167 171.125 34.0455V35.1818H157.67V32.8636H168.398C168.398 31.8788 168.201 31 167.807 30.2273C167.42 29.4545 166.867 28.8447 166.148 28.3977C165.436 27.9508 164.595 27.7273 163.625 27.7273C162.557 27.7273 161.633 27.9924 160.852 28.5227C160.08 29.0455 159.485 29.7273 159.068 30.5682C158.652 31.4091 158.443 32.3106 158.443 33.2727V34.8182C158.443 36.1364 158.67 37.2538 159.125 38.1705C159.587 39.0795 160.227 39.7727 161.045 40.25C161.864 40.7197 162.814 40.9545 163.898 40.9545C164.602 40.9545 165.239 40.8561 165.807 40.6591C166.383 40.4545 166.879 40.1515 167.295 39.75C167.712 39.3409 168.034 38.8333 168.261 38.2273L170.852 38.9545C170.58 39.8333 170.121 40.6061 169.477 41.2727C168.833 41.9318 168.038 42.447 167.091 42.8182C166.144 43.1818 165.08 43.3636 163.898 43.3636ZM175.205 43V25.5455H177.795V28.1818H177.977C178.295 27.3182 178.871 26.6174 179.705 26.0795C180.538 25.5417 181.477 25.2727 182.523 25.2727C182.72 25.2727 182.966 25.2765 183.261 25.2841C183.557 25.2917 183.78 25.303 183.932 25.3182V28.0455C183.841 28.0227 183.633 27.9886 183.307 27.9432C182.989 27.8902 182.652 27.8636 182.295 27.8636C181.447 27.8636 180.689 28.0417 180.023 28.3977C179.364 28.7462 178.841 29.2311 178.455 29.8523C178.076 30.4659 177.886 31.1667 177.886 31.9545V43H175.205ZM199.474 29.4545L197.065 30.1364C196.914 29.7348 196.69 29.3447 196.395 28.9659C196.107 28.5795 195.713 28.2614 195.213 28.0114C194.713 27.7614 194.073 27.6364 193.293 27.6364C192.224 27.6364 191.334 27.8826 190.622 28.375C189.918 28.8598 189.565 29.4773 189.565 30.2273C189.565 30.8939 189.808 31.4205 190.293 31.8068C190.777 32.1932 191.535 32.5152 192.565 32.7727L195.156 33.4091C196.717 33.7879 197.88 34.3674 198.645 35.1477C199.41 35.9205 199.793 36.9167 199.793 38.1364C199.793 39.1364 199.505 40.0303 198.929 40.8182C198.361 41.6061 197.565 42.2273 196.543 42.6818C195.52 43.1364 194.33 43.3636 192.974 43.3636C191.194 43.3636 189.721 42.9773 188.554 42.2045C187.387 41.4318 186.649 40.303 186.338 38.8182L188.884 38.1818C189.126 39.1212 189.584 39.8258 190.259 40.2955C190.94 40.7652 191.83 41 192.929 41C194.179 41 195.171 40.7348 195.906 40.2045C196.649 39.6667 197.02 39.0227 197.02 38.2727C197.02 37.6667 196.808 37.1591 196.384 36.75C195.959 36.3333 195.308 36.0227 194.429 35.8182L191.52 35.1364C189.921 34.7576 188.747 34.1705 187.997 33.375C187.255 32.572 186.884 31.5682 186.884 30.3636C186.884 29.3788 187.16 28.5076 187.713 27.75C188.274 26.9924 189.035 26.3977 189.997 25.9659C190.967 25.5341 192.065 25.3182 193.293 25.3182C195.02 25.3182 196.376 25.697 197.361 26.4545C198.353 27.2121 199.058 28.2121 199.474 29.4545ZM210.92 43.3636C209.345 43.3636 207.962 42.9886 206.773 42.2386C205.591 41.4886 204.667 40.4394 204 39.0909C203.341 37.7424 203.011 36.1667 203.011 34.3636C203.011 32.5455 203.341 30.9583 204 29.6023C204.667 28.2462 205.591 27.1932 206.773 26.4432C207.962 25.6932 209.345 25.3182 210.92 25.3182C212.496 25.3182 213.875 25.6932 215.057 26.4432C216.246 27.1932 217.17 28.2462 217.83 29.6023C218.496 30.9583 218.83 32.5455 218.83 34.3636C218.83 36.1667 218.496 37.7424 217.83 39.0909C217.17 40.4394 216.246 41.4886 215.057 42.2386C213.875 42.9886 212.496 43.3636 210.92 43.3636ZM210.92 40.9545C212.117 40.9545 213.102 40.6477 213.875 40.0341C214.648 39.4205 215.22 38.6136 215.591 37.6136C215.962 36.6136 216.148 35.5303 216.148 34.3636C216.148 33.197 215.962 32.1098 215.591 31.1023C215.22 30.0947 214.648 29.2803 213.875 28.6591C213.102 28.0379 212.117 27.7273 210.92 27.7273C209.723 27.7273 208.739 28.0379 207.966 28.6591C207.193 29.2803 206.621 30.0947 206.25 31.1023C205.879 32.1098 205.693 33.197 205.693 34.3636C205.693 35.5303 205.879 36.6136 206.25 37.6136C206.621 38.6136 207.193 39.4205 207.966 40.0341C208.739 40.6477 209.723 40.9545 210.92 40.9545ZM225.605 32.5V43H222.923V25.5455H225.514V28.2727H225.741C226.151 27.3864 226.772 26.6742 227.605 26.1364C228.438 25.5909 229.514 25.3182 230.832 25.3182C232.014 25.3182 233.048 25.5606 233.935 26.0455C234.821 26.5227 235.51 27.25 236.003 28.2273C236.495 29.197 236.741 30.4242 236.741 31.9091V43H234.06V32.0909C234.06 30.7197 233.704 29.6515 232.991 28.8864C232.279 28.1136 231.302 27.7273 230.06 27.7273C229.204 27.7273 228.438 27.9129 227.764 28.2841C227.098 28.6553 226.571 29.197 226.185 29.9091C225.798 30.6212 225.605 31.4848 225.605 32.5ZM246.778 43.4091C245.672 43.4091 244.669 43.2008 243.767 42.7841C242.866 42.3598 242.15 41.75 241.619 40.9545C241.089 40.1515 240.824 39.1818 240.824 38.0455C240.824 37.0455 241.021 36.2348 241.415 35.6136C241.809 34.9848 242.335 34.4924 242.994 34.1364C243.653 33.7803 244.381 33.5152 245.176 33.3409C245.979 33.1591 246.786 33.0152 247.597 32.9091C248.657 32.7727 249.517 32.6705 250.176 32.6023C250.843 32.5265 251.328 32.4015 251.631 32.2273C251.941 32.053 252.097 31.75 252.097 31.3182V31.2273C252.097 30.1061 251.79 29.2348 251.176 28.6136C250.57 27.9924 249.65 27.6818 248.415 27.6818C247.134 27.6818 246.131 27.9621 245.403 28.5227C244.676 29.0833 244.165 29.6818 243.869 30.3182L241.324 29.4091C241.778 28.3485 242.384 27.5227 243.142 26.9318C243.907 26.3333 244.741 25.9167 245.642 25.6818C246.551 25.4394 247.445 25.3182 248.324 25.3182C248.884 25.3182 249.528 25.3864 250.256 25.5227C250.991 25.6515 251.699 25.9205 252.381 26.3295C253.07 26.7386 253.642 27.3561 254.097 28.1818C254.551 29.0076 254.778 30.1136 254.778 31.5V43H252.097V40.6364H251.96C251.778 41.0152 251.475 41.4205 251.051 41.8523C250.627 42.2841 250.063 42.6515 249.358 42.9545C248.653 43.2576 247.794 43.4091 246.778 43.4091ZM247.188 41C248.248 41 249.142 40.7917 249.869 40.375C250.604 39.9583 251.157 39.4205 251.528 38.7614C251.907 38.1023 252.097 37.4091 252.097 36.6818V34.2273C251.983 34.3636 251.733 34.4886 251.347 34.6023C250.968 34.7083 250.528 34.803 250.028 34.8864C249.536 34.9621 249.055 35.0303 248.585 35.0909C248.123 35.1439 247.748 35.1894 247.46 35.2273C246.763 35.3182 246.112 35.4659 245.506 35.6705C244.907 35.8674 244.422 36.1667 244.051 36.5682C243.688 36.9621 243.506 37.5 243.506 38.1818C243.506 39.1136 243.85 39.8182 244.54 40.2955C245.237 40.7652 246.119 41 247.188 41ZM259.673 43V25.5455H262.264V28.2727H262.491C262.855 27.3409 263.442 26.6174 264.253 26.1023C265.063 25.5795 266.037 25.3182 267.173 25.3182C268.325 25.3182 269.283 25.5795 270.048 26.1023C270.821 26.6174 271.423 27.3409 271.855 28.2727H272.037C272.484 27.3712 273.154 26.6553 274.048 26.125C274.942 25.5871 276.014 25.3182 277.264 25.3182C278.825 25.3182 280.101 25.8068 281.094 26.7841C282.086 27.7538 282.582 29.2652 282.582 31.3182V43H279.901V31.3182C279.901 30.0303 279.548 29.1098 278.844 28.5568C278.139 28.0038 277.31 27.7273 276.355 27.7273C275.128 27.7273 274.177 28.0985 273.503 28.8409C272.829 29.5758 272.491 30.5076 272.491 31.6364V43H269.764V31.0455C269.764 30.053 269.442 29.2538 268.798 28.6477C268.154 28.0341 267.325 27.7273 266.31 27.7273C265.613 27.7273 264.961 27.9129 264.355 28.2841C263.757 28.6553 263.272 29.1705 262.901 29.8295C262.537 30.4811 262.355 31.2348 262.355 32.0909V43H259.673ZM289.849 19.7273V21.7727C289.849 22.3939 289.736 23.0568 289.509 23.7614C289.289 24.4583 288.963 25.1364 288.531 25.7955C288.107 26.447 287.592 27.0152 286.986 27.5L285.531 26.3182C286.009 25.6364 286.421 24.928 286.77 24.1932C287.126 23.4508 287.304 22.6591 287.304 21.8182V19.7273H289.849ZM303.287 29.4545L300.878 30.1364C300.726 29.7348 300.503 29.3447 300.207 28.9659C299.92 28.5795 299.526 28.2614 299.026 28.0114C298.526 27.7614 297.885 27.6364 297.105 27.6364C296.037 27.6364 295.147 27.8826 294.435 28.375C293.73 28.8598 293.378 29.4773 293.378 30.2273C293.378 30.8939 293.62 31.4205 294.105 31.8068C294.59 32.1932 295.348 32.5152 296.378 32.7727L298.969 33.4091C300.529 33.7879 301.692 34.3674 302.457 35.1477C303.223 35.9205 303.605 36.9167 303.605 38.1364C303.605 39.1364 303.317 40.0303 302.741 40.8182C302.173 41.6061 301.378 42.2273 300.355 42.6818C299.332 43.1364 298.143 43.3636 296.787 43.3636C295.007 43.3636 293.533 42.9773 292.366 42.2045C291.2 41.4318 290.461 40.303 290.151 38.8182L292.696 38.1818C292.938 39.1212 293.397 39.8258 294.071 40.2955C294.753 40.7652 295.643 41 296.741 41C297.991 41 298.984 40.7348 299.719 40.2045C300.461 39.6667 300.832 39.0227 300.832 38.2727C300.832 37.6667 300.62 37.1591 300.196 36.75C299.772 36.3333 299.12 36.0227 298.241 35.8182L295.332 35.1364C293.734 34.7576 292.56 34.1705 291.81 33.375C291.067 32.572 290.696 31.5682 290.696 30.3636C290.696 29.3788 290.973 28.5076 291.526 27.75C292.086 26.9924 292.848 26.3977 293.81 25.9659C294.779 25.5341 295.878 25.3182 297.105 25.3182C298.832 25.3182 300.188 25.697 301.173 26.4545C302.166 27.2121 302.87 28.2121 303.287 29.4545ZM317.96 43H315.006L323.551 19.7273H326.46L335.006 43H332.051L325.097 23.4091H324.915L317.96 43ZM319.051 33.9091H330.96V36.4091H319.051V33.9091ZM349.267 35.8636V25.5455H351.949V43H349.267V40.0455H349.085C348.676 40.9318 348.04 41.6856 347.176 42.3068C346.313 42.9205 345.222 43.2273 343.903 43.2273C342.812 43.2273 341.843 42.9886 340.994 42.5114C340.146 42.0265 339.479 41.2992 338.994 40.3295C338.509 39.3523 338.267 38.1212 338.267 36.6364V25.5455H340.949V36.4545C340.949 37.7273 341.305 38.7424 342.017 39.5C342.737 40.2576 343.653 40.6364 344.767 40.6364C345.434 40.6364 346.112 40.4659 346.801 40.125C347.498 39.7841 348.081 39.2614 348.551 38.5568C349.028 37.8523 349.267 36.9545 349.267 35.8636ZM364.452 25.5455V27.8182H355.406V25.5455H364.452ZM358.043 21.3636H360.724V38C360.724 38.7576 360.834 39.3258 361.054 39.7045C361.281 40.0758 361.569 40.3258 361.918 40.4545C362.274 40.5758 362.649 40.6364 363.043 40.6364C363.338 40.6364 363.58 40.6212 363.77 40.5909C363.959 40.553 364.111 40.5227 364.224 40.5L364.77 42.9091C364.588 42.9773 364.334 43.0455 364.009 43.1136C363.683 43.1894 363.27 43.2273 362.77 43.2273C362.012 43.2273 361.27 43.0644 360.543 42.7386C359.823 42.4129 359.224 41.9167 358.747 41.25C358.277 40.5833 358.043 39.7424 358.043 38.7273V21.3636ZM375.389 43.3636C373.813 43.3636 372.431 42.9886 371.241 42.2386C370.06 41.4886 369.135 40.4394 368.469 39.0909C367.81 37.7424 367.48 36.1667 367.48 34.3636C367.48 32.5455 367.81 30.9583 368.469 29.6023C369.135 28.2462 370.06 27.1932 371.241 26.4432C372.431 25.6932 373.813 25.3182 375.389 25.3182C376.965 25.3182 378.344 25.6932 379.526 26.4432C380.715 27.1932 381.639 28.2462 382.298 29.6023C382.965 30.9583 383.298 32.5455 383.298 34.3636C383.298 36.1667 382.965 37.7424 382.298 39.0909C381.639 40.4394 380.715 41.4886 379.526 42.2386C378.344 42.9886 376.965 43.3636 375.389 43.3636ZM375.389 40.9545C376.586 40.9545 377.571 40.6477 378.344 40.0341C379.116 39.4205 379.688 38.6136 380.06 37.6136C380.431 36.6136 380.616 35.5303 380.616 34.3636C380.616 33.197 380.431 32.1098 380.06 31.1023C379.688 30.0947 379.116 29.2803 378.344 28.6591C377.571 28.0379 376.586 27.7273 375.389 27.7273C374.192 27.7273 373.207 28.0379 372.435 28.6591C371.662 29.2803 371.09 30.0947 370.719 31.1023C370.348 32.1098 370.162 33.197 370.162 34.3636C370.162 35.5303 370.348 36.6136 370.719 37.6136C371.09 38.6136 371.662 39.4205 372.435 40.0341C373.207 40.6477 374.192 40.9545 375.389 40.9545ZM390.074 32.5V43H387.392V25.5455H389.983V28.2727H390.21C390.619 27.3864 391.241 26.6742 392.074 26.1364C392.907 25.5909 393.983 25.3182 395.301 25.3182C396.483 25.3182 397.517 25.5606 398.403 26.0455C399.29 26.5227 399.979 27.25 400.472 28.2273C400.964 29.197 401.21 30.4242 401.21 31.9091V43H398.528V32.0909C398.528 30.7197 398.172 29.6515 397.46 28.8864C396.748 28.1136 395.771 27.7273 394.528 27.7273C393.672 27.7273 392.907 27.9129 392.233 28.2841C391.566 28.6553 391.04 29.197 390.653 29.9091C390.267 30.6212 390.074 31.4848 390.074 32.5ZM413.202 43.3636C411.626 43.3636 410.243 42.9886 409.054 42.2386C407.872 41.4886 406.948 40.4394 406.281 39.0909C405.622 37.7424 405.293 36.1667 405.293 34.3636C405.293 32.5455 405.622 30.9583 406.281 29.6023C406.948 28.2462 407.872 27.1932 409.054 26.4432C410.243 25.6932 411.626 25.3182 413.202 25.3182C414.777 25.3182 416.156 25.6932 417.338 26.4432C418.527 27.1932 419.452 28.2462 420.111 29.6023C420.777 30.9583 421.111 32.5455 421.111 34.3636C421.111 36.1667 420.777 37.7424 420.111 39.0909C419.452 40.4394 418.527 41.4886 417.338 42.2386C416.156 42.9886 414.777 43.3636 413.202 43.3636ZM413.202 40.9545C414.399 40.9545 415.384 40.6477 416.156 40.0341C416.929 39.4205 417.501 38.6136 417.872 37.6136C418.243 36.6136 418.429 35.5303 418.429 34.3636C418.429 33.197 418.243 32.1098 417.872 31.1023C417.501 30.0947 416.929 29.2803 416.156 28.6591C415.384 28.0379 414.399 27.7273 413.202 27.7273C412.005 27.7273 411.02 28.0379 410.247 28.6591C409.474 29.2803 408.902 30.0947 408.531 31.1023C408.16 32.1098 407.974 33.197 407.974 34.3636C407.974 35.5303 408.16 36.6136 408.531 37.6136C408.902 38.6136 409.474 39.4205 410.247 40.0341C411.02 40.6477 412.005 40.9545 413.202 40.9545ZM425.205 43V25.5455H427.795V28.2727H428.023C428.386 27.3409 428.973 26.6174 429.784 26.1023C430.595 25.5795 431.568 25.3182 432.705 25.3182C433.856 25.3182 434.814 25.5795 435.58 26.1023C436.352 26.6174 436.955 27.3409 437.386 28.2727H437.568C438.015 27.3712 438.686 26.6553 439.58 26.125C440.473 25.5871 441.545 25.3182 442.795 25.3182C444.356 25.3182 445.633 25.8068 446.625 26.7841C447.617 27.7538 448.114 29.2652 448.114 31.3182V43H445.432V31.3182C445.432 30.0303 445.08 29.1098 444.375 28.5568C443.67 28.0038 442.841 27.7273 441.886 27.7273C440.659 27.7273 439.708 28.0985 439.034 28.8409C438.36 29.5758 438.023 30.5076 438.023 31.6364V43H435.295V31.0455C435.295 30.053 434.973 29.2538 434.33 28.6477C433.686 28.0341 432.856 27.7273 431.841 27.7273C431.144 27.7273 430.492 27.9129 429.886 28.2841C429.288 28.6553 428.803 29.1705 428.432 29.8295C428.068 30.4811 427.886 31.2348 427.886 32.0909V43H425.205ZM460.108 43.3636C458.532 43.3636 457.15 42.9886 455.96 42.2386C454.778 41.4886 453.854 40.4394 453.188 39.0909C452.528 37.7424 452.199 36.1667 452.199 34.3636C452.199 32.5455 452.528 30.9583 453.188 29.6023C453.854 28.2462 454.778 27.1932 455.96 26.4432C457.15 25.6932 458.532 25.3182 460.108 25.3182C461.684 25.3182 463.063 25.6932 464.244 26.4432C465.434 27.1932 466.358 28.2462 467.017 29.6023C467.684 30.9583 468.017 32.5455 468.017 34.3636C468.017 36.1667 467.684 37.7424 467.017 39.0909C466.358 40.4394 465.434 41.4886 464.244 42.2386C463.063 42.9886 461.684 43.3636 460.108 43.3636ZM460.108 40.9545C461.305 40.9545 462.29 40.6477 463.062 40.0341C463.835 39.4205 464.407 38.6136 464.778 37.6136C465.15 36.6136 465.335 35.5303 465.335 34.3636C465.335 33.197 465.15 32.1098 464.778 31.1023C464.407 30.0947 463.835 29.2803 463.062 28.6591C462.29 28.0379 461.305 27.7273 460.108 27.7273C458.911 27.7273 457.926 28.0379 457.153 28.6591C456.381 29.2803 455.809 30.0947 455.438 31.1023C455.066 32.1098 454.881 33.197 454.881 34.3636C454.881 35.5303 455.066 36.6136 455.438 37.6136C455.809 38.6136 456.381 39.4205 457.153 40.0341C457.926 40.6477 458.911 40.9545 460.108 40.9545ZM483.111 35.8636V25.5455H485.793V43H483.111V40.0455H482.929C482.52 40.9318 481.884 41.6856 481.02 42.3068C480.156 42.9205 479.065 43.2273 477.747 43.2273C476.656 43.2273 475.687 42.9886 474.838 42.5114C473.99 42.0265 473.323 41.2992 472.838 40.3295C472.353 39.3523 472.111 38.1212 472.111 36.6364V25.5455H474.793V36.4545C474.793 37.7273 475.149 38.7424 475.861 39.5C476.58 40.2576 477.497 40.6364 478.611 40.6364C479.277 40.6364 479.955 40.4659 480.645 40.125C481.342 39.7841 481.925 39.2614 482.395 38.5568C482.872 37.8523 483.111 36.9545 483.111 35.8636ZM503.068 29.4545L500.659 30.1364C500.508 29.7348 500.284 29.3447 499.989 28.9659C499.701 28.5795 499.307 28.2614 498.807 28.0114C498.307 27.7614 497.667 27.6364 496.886 27.6364C495.818 27.6364 494.928 27.8826 494.216 28.375C493.511 28.8598 493.159 29.4773 493.159 30.2273C493.159 30.8939 493.402 31.4205 493.886 31.8068C494.371 32.1932 495.129 32.5152 496.159 32.7727L498.75 33.4091C500.311 33.7879 501.473 34.3674 502.239 35.1477C503.004 35.9205 503.386 36.9167 503.386 38.1364C503.386 39.1364 503.098 40.0303 502.523 40.8182C501.955 41.6061 501.159 42.2273 500.136 42.6818C499.114 43.1364 497.924 43.3636 496.568 43.3636C494.788 43.3636 493.314 42.9773 492.148 42.2045C490.981 41.4318 490.242 40.303 489.932 38.8182L492.477 38.1818C492.72 39.1212 493.178 39.8258 493.852 40.2955C494.534 40.7652 495.424 41 496.523 41C497.773 41 498.765 40.7348 499.5 40.2045C500.242 39.6667 500.614 39.0227 500.614 38.2727C500.614 37.6667 500.402 37.1591 499.977 36.75C499.553 36.3333 498.902 36.0227 498.023 35.8182L495.114 35.1364C493.515 34.7576 492.341 34.1705 491.591 33.375C490.848 32.572 490.477 31.5682 490.477 30.3636C490.477 29.3788 490.754 28.5076 491.307 27.75C491.867 26.9924 492.629 26.3977 493.591 25.9659C494.561 25.5341 495.659 25.3182 496.886 25.3182C498.614 25.3182 499.97 25.697 500.955 26.4545C501.947 27.2121 502.652 28.2121 503.068 29.4545ZM135.545 61.2273V58.7273H153V61.2273H145.682V82H142.864V61.2273H135.545ZM159.668 71.5V82H156.986V58.7273H159.668V67.2727H159.895C160.304 66.3712 160.918 65.6553 161.736 65.125C162.562 64.5871 163.66 64.3182 165.031 64.3182C166.221 64.3182 167.262 64.5568 168.156 65.0341C169.05 65.5038 169.743 66.2273 170.236 67.2045C170.736 68.1742 170.986 69.4091 170.986 70.9091V82H168.304V71.0909C168.304 69.7045 167.944 68.6326 167.224 67.875C166.512 67.1098 165.524 66.7273 164.259 66.7273C163.38 66.7273 162.592 66.9129 161.895 67.2841C161.205 67.6553 160.66 68.197 160.259 68.9091C159.865 69.6212 159.668 70.4848 159.668 71.5ZM175.892 82V64.5455H178.483V67.1818H178.665C178.983 66.3182 179.559 65.6174 180.392 65.0795C181.225 64.5417 182.165 64.2727 183.21 64.2727C183.407 64.2727 183.653 64.2765 183.949 64.2841C184.244 64.2917 184.468 64.303 184.619 64.3182V67.0455C184.528 67.0227 184.32 66.9886 183.994 66.9432C183.676 66.8902 183.339 66.8636 182.983 66.8636C182.134 66.8636 181.377 67.0417 180.71 67.3977C180.051 67.7462 179.528 68.2311 179.142 68.8523C178.763 69.4659 178.574 70.1667 178.574 70.9545V82H175.892ZM194.585 82.3636C192.903 82.3636 191.453 81.9924 190.233 81.25C189.021 80.5 188.085 79.4545 187.426 78.1136C186.775 76.7652 186.449 75.197 186.449 73.4091C186.449 71.6212 186.775 70.0455 187.426 68.6818C188.085 67.3106 189.002 66.2424 190.176 65.4773C191.358 64.7045 192.737 64.3182 194.312 64.3182C195.222 64.3182 196.119 64.4697 197.006 64.7727C197.892 65.0758 198.699 65.5682 199.426 66.25C200.153 66.9242 200.733 67.8182 201.165 68.9318C201.597 70.0455 201.812 71.4167 201.812 73.0455V74.1818H188.358V71.8636H199.085C199.085 70.8788 198.888 70 198.494 69.2273C198.108 68.4545 197.555 67.8447 196.835 67.3977C196.123 66.9508 195.282 66.7273 194.312 66.7273C193.244 66.7273 192.32 66.9924 191.54 67.5227C190.767 68.0455 190.172 68.7273 189.756 69.5682C189.339 70.4091 189.131 71.3106 189.131 72.2727V73.8182C189.131 75.1364 189.358 76.2538 189.812 77.1705C190.275 78.0795 190.915 78.7727 191.733 79.25C192.551 79.7197 193.502 79.9545 194.585 79.9545C195.29 79.9545 195.926 79.8561 196.494 79.6591C197.07 79.4545 197.566 79.1515 197.983 78.75C198.4 78.3409 198.722 77.8333 198.949 77.2273L201.54 77.9545C201.267 78.8333 200.809 79.6061 200.165 80.2727C199.521 80.9318 198.725 81.447 197.778 81.8182C196.831 82.1818 195.767 82.3636 194.585 82.3636ZM211.028 82.4091C209.922 82.4091 208.919 82.2008 208.017 81.7841C207.116 81.3598 206.4 80.75 205.869 79.9545C205.339 79.1515 205.074 78.1818 205.074 77.0455C205.074 76.0455 205.271 75.2348 205.665 74.6136C206.059 73.9848 206.585 73.4924 207.244 73.1364C207.903 72.7803 208.631 72.5152 209.426 72.3409C210.229 72.1591 211.036 72.0152 211.847 71.9091C212.907 71.7727 213.767 71.6705 214.426 71.6023C215.093 71.5265 215.578 71.4015 215.881 71.2273C216.191 71.053 216.347 70.75 216.347 70.3182V70.2273C216.347 69.1061 216.04 68.2348 215.426 67.6136C214.82 66.9924 213.9 66.6818 212.665 66.6818C211.384 66.6818 210.381 66.9621 209.653 67.5227C208.926 68.0833 208.415 68.6818 208.119 69.3182L205.574 68.4091C206.028 67.3485 206.634 66.5227 207.392 65.9318C208.157 65.3333 208.991 64.9167 209.892 64.6818C210.801 64.4394 211.695 64.3182 212.574 64.3182C213.134 64.3182 213.778 64.3864 214.506 64.5227C215.241 64.6515 215.949 64.9205 216.631 65.3295C217.32 65.7386 217.892 66.3561 218.347 67.1818C218.801 68.0076 219.028 69.1136 219.028 70.5V82H216.347V79.6364H216.21C216.028 80.0152 215.725 80.4205 215.301 80.8523C214.877 81.2841 214.313 81.6515 213.608 81.9545C212.903 82.2576 212.044 82.4091 211.028 82.4091ZM211.438 80C212.498 80 213.392 79.7917 214.119 79.375C214.854 78.9583 215.407 78.4205 215.778 77.7614C216.157 77.1023 216.347 76.4091 216.347 75.6818V73.2273C216.233 73.3636 215.983 73.4886 215.597 73.6023C215.218 73.7083 214.778 73.803 214.278 73.8864C213.786 73.9621 213.305 74.0303 212.835 74.0909C212.373 74.1439 211.998 74.1894 211.71 74.2273C211.013 74.3182 210.362 74.4659 209.756 74.6705C209.157 74.8674 208.672 75.1667 208.301 75.5682C207.938 75.9621 207.756 76.5 207.756 77.1818C207.756 78.1136 208.1 78.8182 208.79 79.2955C209.487 79.7652 210.369 80 211.438 80ZM231.514 64.5455V66.8182H222.469V64.5455H231.514ZM225.105 60.3636H227.787V77C227.787 77.7576 227.897 78.3258 228.116 78.7045C228.344 79.0758 228.632 79.3258 228.98 79.4545C229.336 79.5758 229.711 79.6364 230.105 79.6364C230.401 79.6364 230.643 79.6212 230.832 79.5909C231.022 79.553 231.173 79.5227 231.287 79.5L231.832 81.9091C231.651 81.9773 231.397 82.0455 231.071 82.1136C230.745 82.1894 230.332 82.2273 229.832 82.2273C229.075 82.2273 228.332 82.0644 227.605 81.7386C226.885 81.4129 226.287 80.9167 225.81 80.25C225.34 79.5833 225.105 78.7424 225.105 77.7273V60.3636ZM252.094 82H244.912V58.7273H252.412C254.67 58.7273 256.601 59.1932 258.207 60.125C259.813 61.0492 261.045 62.3788 261.901 64.1136C262.757 65.8409 263.185 67.9091 263.185 70.3182C263.185 72.7424 262.753 74.8295 261.889 76.5795C261.026 78.322 259.768 79.6629 258.116 80.6023C256.465 81.5341 254.457 82 252.094 82ZM247.73 79.5H251.912C253.836 79.5 255.431 79.1288 256.696 78.3864C257.961 77.6439 258.904 76.5871 259.526 75.2159C260.147 73.8447 260.457 72.2121 260.457 70.3182C260.457 68.4394 260.151 66.822 259.537 65.4659C258.923 64.1023 258.007 63.0568 256.787 62.3295C255.567 61.5947 254.048 61.2273 252.23 61.2273H247.73V79.5ZM274.866 82.3636C273.185 82.3636 271.734 81.9924 270.514 81.25C269.302 80.5 268.366 79.4545 267.707 78.1136C267.056 76.7652 266.73 75.197 266.73 73.4091C266.73 71.6212 267.056 70.0455 267.707 68.6818C268.366 67.3106 269.283 66.2424 270.457 65.4773C271.639 64.7045 273.018 64.3182 274.594 64.3182C275.503 64.3182 276.401 64.4697 277.287 64.7727C278.173 65.0758 278.98 65.5682 279.707 66.25C280.435 66.9242 281.014 67.8182 281.446 68.9318C281.878 70.0455 282.094 71.4167 282.094 73.0455V74.1818H268.639V71.8636H279.366C279.366 70.8788 279.17 70 278.776 69.2273C278.389 68.4545 277.836 67.8447 277.116 67.3977C276.404 66.9508 275.563 66.7273 274.594 66.7273C273.526 66.7273 272.601 66.9924 271.821 67.5227C271.048 68.0455 270.454 68.7273 270.037 69.5682C269.62 70.4091 269.412 71.3106 269.412 72.2727V73.8182C269.412 75.1364 269.639 76.2538 270.094 77.1705C270.556 78.0795 271.196 78.7727 272.014 79.25C272.832 79.7197 273.783 79.9545 274.866 79.9545C275.571 79.9545 276.207 79.8561 276.776 79.6591C277.351 79.4545 277.848 79.1515 278.264 78.75C278.681 78.3409 279.003 77.8333 279.23 77.2273L281.821 77.9545C281.548 78.8333 281.09 79.6061 280.446 80.2727C279.802 80.9318 279.007 81.447 278.06 81.8182C277.113 82.1818 276.048 82.3636 274.866 82.3636ZM293.764 64.5455V66.8182H284.719V64.5455H293.764ZM287.355 60.3636H290.037V77C290.037 77.7576 290.147 78.3258 290.366 78.7045C290.594 79.0758 290.882 79.3258 291.23 79.4545C291.586 79.5758 291.961 79.6364 292.355 79.6364C292.651 79.6364 292.893 79.6212 293.082 79.5909C293.272 79.553 293.423 79.5227 293.537 79.5L294.082 81.9091C293.901 81.9773 293.647 82.0455 293.321 82.1136C292.995 82.1894 292.582 82.2273 292.082 82.2273C291.325 82.2273 290.582 82.0644 289.855 81.7386C289.135 81.4129 288.537 80.9167 288.06 80.25C287.59 79.5833 287.355 78.7424 287.355 77.7273V60.3636ZM304.929 82.3636C303.247 82.3636 301.796 81.9924 300.577 81.25C299.365 80.5 298.429 79.4545 297.77 78.1136C297.118 76.7652 296.793 75.197 296.793 73.4091C296.793 71.6212 297.118 70.0455 297.77 68.6818C298.429 67.3106 299.346 66.2424 300.52 65.4773C301.702 64.7045 303.08 64.3182 304.656 64.3182C305.565 64.3182 306.463 64.4697 307.349 64.7727C308.236 65.0758 309.043 65.5682 309.77 66.25C310.497 66.9242 311.077 67.8182 311.509 68.9318C311.94 70.0455 312.156 71.4167 312.156 73.0455V74.1818H298.702V71.8636H309.429C309.429 70.8788 309.232 70 308.838 69.2273C308.452 68.4545 307.899 67.8447 307.179 67.3977C306.467 66.9508 305.626 66.7273 304.656 66.7273C303.588 66.7273 302.664 66.9924 301.884 67.5227C301.111 68.0455 300.516 68.7273 300.099 69.5682C299.683 70.4091 299.474 71.3106 299.474 72.2727V73.8182C299.474 75.1364 299.702 76.2538 300.156 77.1705C300.618 78.0795 301.259 78.7727 302.077 79.25C302.895 79.7197 303.846 79.9545 304.929 79.9545C305.634 79.9545 306.27 79.8561 306.838 79.6591C307.414 79.4545 307.91 79.1515 308.327 78.75C308.743 78.3409 309.065 77.8333 309.293 77.2273L311.884 77.9545C311.611 78.8333 311.152 79.6061 310.509 80.2727C309.865 80.9318 309.069 81.447 308.122 81.8182C307.175 82.1818 306.111 82.3636 304.929 82.3636ZM323.327 82.3636C321.69 82.3636 320.281 81.9773 319.099 81.2045C317.918 80.4318 317.009 79.3674 316.372 78.0114C315.736 76.6553 315.418 75.1061 315.418 73.3636C315.418 71.5909 315.743 70.0265 316.395 68.6705C317.054 67.3068 317.971 66.2424 319.145 65.4773C320.327 64.7045 321.705 64.3182 323.281 64.3182C324.509 64.3182 325.615 64.5455 326.599 65C327.584 65.4545 328.391 66.0909 329.02 66.9091C329.649 67.7273 330.039 68.6818 330.19 69.7727H327.509C327.304 68.9773 326.849 68.2727 326.145 67.6591C325.448 67.0379 324.509 66.7273 323.327 66.7273C322.281 66.7273 321.365 67 320.577 67.5455C319.796 68.0833 319.187 68.8447 318.747 69.8295C318.315 70.8068 318.099 71.9545 318.099 73.2727C318.099 74.6212 318.312 75.7955 318.736 76.7955C319.168 77.7955 319.774 78.572 320.554 79.125C321.342 79.678 322.266 79.9545 323.327 79.9545C324.024 79.9545 324.656 79.8333 325.224 79.5909C325.793 79.3485 326.274 79 326.668 78.5455C327.062 78.0909 327.342 77.5455 327.509 76.9091H330.19C330.039 77.9394 329.664 78.8674 329.065 79.6932C328.474 80.5114 327.69 81.1629 326.713 81.6477C325.743 82.125 324.615 82.3636 323.327 82.3636ZM341.702 64.5455V66.8182H332.656V64.5455H341.702ZM335.293 60.3636H337.974V77C337.974 77.7576 338.084 78.3258 338.304 78.7045C338.531 79.0758 338.819 79.3258 339.168 79.4545C339.524 79.5758 339.899 79.6364 340.293 79.6364C340.588 79.6364 340.83 79.6212 341.02 79.5909C341.209 79.553 341.361 79.5227 341.474 79.5L342.02 81.9091C341.838 81.9773 341.584 82.0455 341.259 82.1136C340.933 82.1894 340.52 82.2273 340.02 82.2273C339.262 82.2273 338.52 82.0644 337.793 81.7386C337.073 81.4129 336.474 80.9167 335.997 80.25C335.527 79.5833 335.293 78.7424 335.293 77.7273V60.3636ZM345.736 82V64.5455H348.418V82H345.736ZM347.099 61.6364C346.577 61.6364 346.126 61.4583 345.747 61.1023C345.376 60.7462 345.19 60.3182 345.19 59.8182C345.19 59.3182 345.376 58.8902 345.747 58.5341C346.126 58.178 346.577 58 347.099 58C347.622 58 348.069 58.178 348.44 58.5341C348.819 58.8902 349.009 59.3182 349.009 59.8182C349.009 60.3182 348.819 60.7462 348.44 61.1023C348.069 61.4583 347.622 61.6364 347.099 61.6364ZM360.42 82.3636C358.845 82.3636 357.462 81.9886 356.273 81.2386C355.091 80.4886 354.167 79.4394 353.5 78.0909C352.841 76.7424 352.511 75.1667 352.511 73.3636C352.511 71.5455 352.841 69.9583 353.5 68.6023C354.167 67.2462 355.091 66.1932 356.273 65.4432C357.462 64.6932 358.845 64.3182 360.42 64.3182C361.996 64.3182 363.375 64.6932 364.557 65.4432C365.746 66.1932 366.67 67.2462 367.33 68.6023C367.996 69.9583 368.33 71.5455 368.33 73.3636C368.33 75.1667 367.996 76.7424 367.33 78.0909C366.67 79.4394 365.746 80.4886 364.557 81.2386C363.375 81.9886 361.996 82.3636 360.42 82.3636ZM360.42 79.9545C361.617 79.9545 362.602 79.6477 363.375 79.0341C364.148 78.4205 364.72 77.6136 365.091 76.6136C365.462 75.6136 365.648 74.5303 365.648 73.3636C365.648 72.197 365.462 71.1098 365.091 70.1023C364.72 69.0947 364.148 68.2803 363.375 67.6591C362.602 67.0379 361.617 66.7273 360.42 66.7273C359.223 66.7273 358.239 67.0379 357.466 67.6591C356.693 68.2803 356.121 69.0947 355.75 70.1023C355.379 71.1098 355.193 72.197 355.193 73.3636C355.193 74.5303 355.379 75.6136 355.75 76.6136C356.121 77.6136 356.693 78.4205 357.466 79.0341C358.239 79.6477 359.223 79.9545 360.42 79.9545ZM375.105 71.5V82H372.423V64.5455H375.014V67.2727H375.241C375.651 66.3864 376.272 65.6742 377.105 65.1364C377.938 64.5909 379.014 64.3182 380.332 64.3182C381.514 64.3182 382.548 64.5606 383.435 65.0455C384.321 65.5227 385.01 66.25 385.503 67.2273C385.995 68.197 386.241 69.4242 386.241 70.9091V82H383.56V71.0909C383.56 69.7197 383.204 68.6515 382.491 67.8864C381.779 67.1136 380.802 66.7273 379.56 66.7273C378.704 66.7273 377.938 66.9129 377.264 67.2841C376.598 67.6553 376.071 68.197 375.685 68.9091C375.298 69.6212 375.105 70.4848 375.105 71.5Z" fill="#232323"/>
</svg>
