<svg width="417" height="147" viewBox="0 0 417 147" fill="none" xmlns="http://www.w3.org/2000/svg">
<path d="M0 34C0 15.2223 15.2223 0 34 0H383C401.778 0 417 15.2223 417 34V113C417 131.778 401.778 147 383 147H34C15.2223 147 0 131.778 0 113V34Z" fill="#83984B"/>
<path d="M0 34C0 15.2223 15.2223 0 34 0H383C401.778 0 417 15.2223 417 34V113C417 131.778 401.778 147 383 147H34C15.2223 147 0 131.778 0 113V34Z" stroke="#83984B"/>
<path d="M140.098 33.8182V60H135.879L123.543 42.1662H123.325V60H118.582V33.8182H122.827L135.151 51.6648H135.381V33.8182H140.098ZM153.627 60.3835C151.709 60.3835 150.047 59.9616 148.641 59.1179C147.235 58.2741 146.144 57.0937 145.368 55.5767C144.601 54.0597 144.218 52.2869 144.218 50.2585C144.218 48.2301 144.601 46.4531 145.368 44.9276C146.144 43.402 147.235 42.2173 148.641 41.3736C150.047 40.5298 151.709 40.108 153.627 40.108C155.544 40.108 157.206 40.5298 158.613 41.3736C160.019 42.2173 161.105 43.402 161.873 44.9276C162.648 46.4531 163.036 48.2301 163.036 50.2585C163.036 52.2869 162.648 54.0597 161.873 55.5767C161.105 57.0937 160.019 58.2741 158.613 59.1179C157.206 59.9616 155.544 60.3835 153.627 60.3835ZM153.652 56.6761C154.692 56.6761 155.561 56.3906 156.26 55.8196C156.959 55.2401 157.479 54.4645 157.82 53.4929C158.169 52.5213 158.344 51.4389 158.344 50.2457C158.344 49.044 158.169 47.9574 157.82 46.9858C157.479 46.0057 156.959 45.2259 156.26 44.6463C155.561 44.0668 154.692 43.777 153.652 43.777C152.587 43.777 151.701 44.0668 150.993 44.6463C150.294 45.2259 149.77 46.0057 149.421 46.9858C149.08 47.9574 148.909 49.044 148.909 50.2457C148.909 51.4389 149.08 52.5213 149.421 53.4929C149.77 54.4645 150.294 55.2401 150.993 55.8196C151.701 56.3906 152.587 56.6761 153.652 56.6761ZM179.46 60H174.398L183.615 33.8182H189.47L198.7 60H193.638L186.645 39.1875H186.44L179.46 60ZM179.626 49.7344H193.433V53.544H179.626V49.7344ZM206.572 33.8182V60H201.944V33.8182H206.572ZM220.024 60.3835C218.055 60.3835 216.355 59.9744 214.923 59.1562C213.5 58.3295 212.405 57.1619 211.638 55.6534C210.871 54.1364 210.487 52.3509 210.487 50.2969C210.487 48.277 210.871 46.5043 211.638 44.9787C212.413 43.4446 213.496 42.2514 214.885 41.3991C216.274 40.5384 217.906 40.108 219.781 40.108C220.991 40.108 222.134 40.304 223.207 40.696C224.29 41.0795 225.244 41.6761 226.071 42.4858C226.906 43.2955 227.563 44.3267 228.04 45.5795C228.517 46.8239 228.756 48.3068 228.756 50.0284V51.4474H212.661V48.3281H224.32C224.311 47.4418 224.119 46.6534 223.744 45.9631C223.369 45.2642 222.845 44.7145 222.172 44.3139C221.507 43.9134 220.732 43.7131 219.845 43.7131C218.899 43.7131 218.068 43.9432 217.352 44.4034C216.636 44.8551 216.078 45.4517 215.678 46.1932C215.286 46.9261 215.085 47.7315 215.077 48.6094V51.3324C215.077 52.4744 215.286 53.4545 215.703 54.2727C216.121 55.0824 216.705 55.7045 217.455 56.1392C218.205 56.5653 219.082 56.7784 220.088 56.7784C220.761 56.7784 221.371 56.6847 221.916 56.4972C222.462 56.3011 222.935 56.0156 223.335 55.6406C223.736 55.2656 224.038 54.8011 224.243 54.2472L228.564 54.733C228.291 55.875 227.771 56.8722 227.004 57.7244C226.246 58.5682 225.274 59.2244 224.089 59.6932C222.905 60.1534 221.55 60.3835 220.024 60.3835ZM232.671 60V40.3636H237.158V43.6364H237.363C237.721 42.5028 238.334 41.6293 239.203 41.0156C240.081 40.3935 241.083 40.0824 242.208 40.0824C242.463 40.0824 242.749 40.0952 243.064 40.1207C243.388 40.1378 243.657 40.1676 243.87 40.2102V44.4673C243.674 44.3991 243.363 44.3395 242.936 44.2884C242.519 44.2287 242.114 44.1989 241.722 44.1989C240.878 44.1989 240.12 44.3821 239.446 44.7486C238.782 45.1065 238.257 45.6051 237.874 46.2443C237.49 46.8835 237.299 47.6207 237.299 48.456V60H232.671ZM257.804 40.3636V43.9432H246.516V40.3636H257.804ZM249.303 35.6591H253.931V54.0938C253.931 54.7159 254.025 55.1932 254.212 55.5256C254.408 55.8494 254.664 56.071 254.979 56.1903C255.294 56.3097 255.644 56.3693 256.027 56.3693C256.317 56.3693 256.581 56.348 256.82 56.3054C257.067 56.2628 257.255 56.2244 257.382 56.1903L258.162 59.8082C257.915 59.8935 257.561 59.9872 257.101 60.0895C256.65 60.1918 256.096 60.2514 255.439 60.2685C254.28 60.3026 253.236 60.1278 252.307 59.7443C251.378 59.3523 250.641 58.7472 250.096 57.929C249.559 57.1108 249.294 56.0881 249.303 54.8608V35.6591ZM270.809 60V33.8182H287.582V37.794H275.552V44.902H286.431V48.8778H275.552V60H270.809ZM297.173 60.3963C295.929 60.3963 294.808 60.1747 293.811 59.7315C292.822 59.2798 292.038 58.6151 291.458 57.7372C290.887 56.8594 290.602 55.777 290.602 54.4901C290.602 53.3821 290.806 52.4659 291.216 51.7415C291.625 51.017 292.183 50.4375 292.89 50.0028C293.598 49.5682 294.395 49.2401 295.281 49.0185C296.176 48.7884 297.1 48.6222 298.055 48.5199C299.206 48.4006 300.139 48.294 300.855 48.2003C301.571 48.098 302.091 47.9446 302.414 47.7401C302.747 47.527 302.913 47.1989 302.913 46.7557V46.679C302.913 45.7159 302.627 44.9702 302.056 44.4418C301.485 43.9134 300.663 43.6491 299.589 43.6491C298.456 43.6491 297.556 43.8963 296.892 44.3906C296.235 44.8849 295.792 45.4687 295.562 46.142L291.241 45.5284C291.582 44.3352 292.145 43.3381 292.929 42.5369C293.713 41.7273 294.672 41.1222 295.805 40.7216C296.939 40.3125 298.191 40.108 299.564 40.108C300.51 40.108 301.451 40.2188 302.389 40.4403C303.326 40.6619 304.183 41.0284 304.958 41.5398C305.734 42.0426 306.356 42.7287 306.825 43.598C307.302 44.4673 307.541 45.554 307.541 46.858V60H303.092V57.3026H302.939C302.657 57.848 302.261 58.3594 301.75 58.8366C301.247 59.3054 300.612 59.6847 299.845 59.9744C299.086 60.2557 298.196 60.3963 297.173 60.3963ZM298.375 56.9957C299.304 56.9957 300.109 56.8125 300.791 56.446C301.473 56.071 301.997 55.5767 302.363 54.9631C302.738 54.3494 302.926 53.6804 302.926 52.956V50.642C302.781 50.7614 302.534 50.8722 302.184 50.9744C301.843 51.0767 301.46 51.1662 301.034 51.2429C300.608 51.3196 300.186 51.3878 299.768 51.4474C299.35 51.5071 298.988 51.5582 298.681 51.6009C297.991 51.6946 297.373 51.848 296.828 52.0611C296.282 52.2741 295.852 52.5724 295.537 52.956C295.221 53.331 295.064 53.8168 295.064 54.4134C295.064 55.2656 295.375 55.9091 295.997 56.3438C296.619 56.7784 297.412 56.9957 298.375 56.9957ZM322 40.3636V43.9432H310.711V40.3636H322ZM313.498 35.6591H318.126V54.0938C318.126 54.7159 318.22 55.1932 318.407 55.5256C318.603 55.8494 318.859 56.071 319.174 56.1903C319.49 56.3097 319.839 56.3693 320.223 56.3693C320.512 56.3693 320.777 56.348 321.015 56.3054C321.262 56.2628 321.45 56.2244 321.578 56.1903L322.358 59.8082C322.11 59.8935 321.757 59.9872 321.297 60.0895C320.845 60.1918 320.291 60.2514 319.635 60.2685C318.475 60.3026 317.431 60.1278 316.502 59.7443C315.574 59.3523 314.836 58.7472 314.291 57.929C313.754 57.1108 313.49 56.0881 313.498 54.8608V35.6591ZM325.87 60V40.3636H330.498V60H325.87ZM328.197 37.5767C327.464 37.5767 326.833 37.3338 326.305 36.848C325.776 36.3537 325.512 35.7614 325.512 35.071C325.512 34.3722 325.776 33.7798 326.305 33.294C326.833 32.7997 327.464 32.5526 328.197 32.5526C328.938 32.5526 329.569 32.7997 330.089 33.294C330.617 33.7798 330.881 34.3722 330.881 35.071C330.881 35.7614 330.617 36.3537 330.089 36.848C329.569 37.3338 328.938 37.5767 328.197 37.5767ZM343.797 67.7727C342.135 67.7727 340.707 67.5469 339.514 67.0952C338.321 66.652 337.362 66.0554 336.637 65.3054C335.913 64.5554 335.41 63.7244 335.129 62.8125L339.297 61.8026C339.484 62.1861 339.757 62.5653 340.115 62.9403C340.473 63.3239 340.954 63.6392 341.559 63.8864C342.173 64.142 342.944 64.2699 343.873 64.2699C345.186 64.2699 346.272 63.9503 347.133 63.3111C347.994 62.6804 348.424 61.6406 348.424 60.1918V56.4716H348.194C347.956 56.9489 347.606 57.4389 347.146 57.9418C346.694 58.4446 346.093 58.8665 345.343 59.2074C344.602 59.5483 343.669 59.7188 342.544 59.7188C341.035 59.7188 339.667 59.3651 338.44 58.6577C337.221 57.9418 336.25 56.8764 335.525 55.4616C334.809 54.0384 334.451 52.2571 334.451 50.1179C334.451 47.9616 334.809 46.142 335.525 44.6591C336.25 43.1676 337.225 42.0384 338.453 41.2713C339.68 40.4957 341.048 40.108 342.556 40.108C343.707 40.108 344.653 40.304 345.395 40.696C346.145 41.0795 346.741 41.544 347.184 42.0895C347.627 42.6264 347.964 43.1335 348.194 43.6108H348.45V40.3636H353.014V60.3196C353.014 61.9986 352.613 63.3878 351.812 64.4872C351.011 65.5866 349.916 66.4091 348.527 66.9545C347.137 67.5 345.561 67.7727 343.797 67.7727ZM343.835 56.0881C344.815 56.0881 345.65 55.8494 346.341 55.3722C347.031 54.8949 347.555 54.2088 347.913 53.3139C348.271 52.419 348.45 51.3452 348.45 50.0923C348.45 48.8565 348.271 47.7741 347.913 46.8452C347.564 45.9162 347.044 45.196 346.353 44.6847C345.672 44.1648 344.832 43.9048 343.835 43.9048C342.804 43.9048 341.943 44.1733 341.252 44.7102C340.562 45.2472 340.042 45.9844 339.693 46.9219C339.343 47.8509 339.169 48.9077 339.169 50.0923C339.169 51.294 339.343 52.3466 339.693 53.25C340.051 54.1449 340.575 54.8437 341.265 55.3466C341.964 55.8409 342.821 56.0881 343.835 56.0881ZM370.272 51.7415V40.3636H374.9V60H370.413V56.5099H370.208C369.765 57.6094 369.037 58.5085 368.022 59.2074C367.017 59.9062 365.777 60.2557 364.302 60.2557C363.015 60.2557 361.877 59.9702 360.889 59.3991C359.909 58.8196 359.142 57.9801 358.588 56.8807C358.034 55.7727 357.757 54.4347 357.757 52.8665V40.3636H362.385V52.1506C362.385 53.3949 362.725 54.3835 363.407 55.1165C364.089 55.8494 364.984 56.2159 366.092 56.2159C366.774 56.2159 367.434 56.0497 368.074 55.7173C368.713 55.3849 369.237 54.8906 369.646 54.2344C370.064 53.5696 370.272 52.7386 370.272 51.7415ZM388.352 60.3835C386.384 60.3835 384.683 59.9744 383.251 59.1562C381.828 58.3295 380.733 57.1619 379.966 55.6534C379.199 54.1364 378.815 52.3509 378.815 50.2969C378.815 48.277 379.199 46.5043 379.966 44.9787C380.741 43.4446 381.824 42.2514 383.213 41.3991C384.602 40.5384 386.234 40.108 388.109 40.108C389.32 40.108 390.462 40.304 391.536 40.696C392.618 41.0795 393.572 41.6761 394.399 42.4858C395.234 43.2955 395.891 44.3267 396.368 45.5795C396.845 46.8239 397.084 48.3068 397.084 50.0284V51.4474H380.989V48.3281H392.648C392.639 47.4418 392.447 46.6534 392.072 45.9631C391.697 45.2642 391.173 44.7145 390.5 44.3139C389.835 43.9134 389.06 43.7131 388.173 43.7131C387.227 43.7131 386.396 43.9432 385.68 44.4034C384.964 44.8551 384.406 45.4517 384.006 46.1932C383.614 46.9261 383.413 47.7315 383.405 48.6094V51.3324C383.405 52.4744 383.614 53.4545 384.031 54.2727C384.449 55.0824 385.033 55.7045 385.783 56.1392C386.533 56.5653 387.411 56.7784 388.416 56.7784C389.089 56.7784 389.699 56.6847 390.244 56.4972C390.79 56.3011 391.263 56.0156 391.663 55.6406C392.064 55.2656 392.366 54.8011 392.571 54.2472L396.892 54.733C396.619 55.875 396.099 56.8722 395.332 57.7244C394.574 58.5682 393.602 59.2244 392.418 59.6932C391.233 60.1534 389.878 60.3835 388.352 60.3835Z" fill="white"/>
<path d="M117.409 89V77.3636H121.341C122.254 77.3636 123 77.5284 123.58 77.858C124.163 78.1837 124.595 78.625 124.875 79.1818C125.155 79.7386 125.295 80.3598 125.295 81.0455C125.295 81.7311 125.155 82.3542 124.875 82.9148C124.598 83.4754 124.17 83.9223 123.591 84.2557C123.011 84.5852 122.269 84.75 121.364 84.75H118.545V83.5H121.318C121.943 83.5 122.445 83.392 122.824 83.1761C123.203 82.9602 123.477 82.6686 123.648 82.3011C123.822 81.9299 123.909 81.5114 123.909 81.0455C123.909 80.5795 123.822 80.1629 123.648 79.7955C123.477 79.428 123.201 79.1402 122.818 78.9318C122.436 78.7197 121.928 78.6136 121.295 78.6136H118.818V89H117.409ZM127.384 89V80.2727H128.679V81.5909H128.77C128.929 81.1591 129.217 80.8087 129.634 80.5398C130.05 80.2708 130.52 80.1364 131.043 80.1364C131.141 80.1364 131.264 80.1383 131.412 80.142C131.56 80.1458 131.671 80.1515 131.747 80.1591V81.5227C131.702 81.5114 131.598 81.4943 131.435 81.4716C131.276 81.4451 131.107 81.4318 130.929 81.4318C130.505 81.4318 130.126 81.5208 129.793 81.6989C129.463 81.8731 129.202 82.1155 129.009 82.4261C128.819 82.733 128.724 83.0833 128.724 83.4773V89H127.384ZM136.73 89.1818C135.889 89.1818 135.164 88.9962 134.554 88.625C133.948 88.25 133.48 87.7273 133.151 87.0568C132.825 86.3826 132.662 85.5985 132.662 84.7045C132.662 83.8106 132.825 83.0227 133.151 82.3409C133.48 81.6553 133.938 81.1212 134.526 80.7386C135.116 80.3523 135.806 80.1591 136.594 80.1591C137.048 80.1591 137.497 80.2348 137.94 80.3864C138.384 80.5379 138.787 80.7841 139.151 81.125C139.514 81.4621 139.804 81.9091 140.02 82.4659C140.236 83.0227 140.344 83.7083 140.344 84.5227V85.0909H133.616V83.9318H138.98C138.98 83.4394 138.882 83 138.685 82.6136C138.491 82.2273 138.215 81.9223 137.855 81.6989C137.499 81.4754 137.079 81.3636 136.594 81.3636C136.06 81.3636 135.598 81.4962 135.207 81.7614C134.821 82.0227 134.524 82.3636 134.315 82.7841C134.107 83.2045 134.003 83.6553 134.003 84.1364V84.9091C134.003 85.5682 134.116 86.1269 134.344 86.5852C134.575 87.0398 134.895 87.3864 135.304 87.625C135.713 87.8598 136.188 87.9773 136.73 87.9773C137.082 87.9773 137.401 87.928 137.685 87.8295C137.973 87.7273 138.221 87.5758 138.429 87.375C138.637 87.1705 138.798 86.9167 138.912 86.6136L140.207 86.9773C140.071 87.4167 139.842 87.803 139.52 88.1364C139.198 88.4659 138.8 88.7235 138.327 88.9091C137.853 89.0909 137.321 89.1818 136.73 89.1818ZM145.929 89.1818C145.111 89.1818 144.406 88.9886 143.815 88.6023C143.224 88.2159 142.77 87.6837 142.452 87.0057C142.134 86.3277 141.974 85.553 141.974 84.6818C141.974 83.7955 142.137 83.0133 142.463 82.3352C142.793 81.6534 143.251 81.1212 143.838 80.7386C144.429 80.3523 145.118 80.1591 145.906 80.1591C146.52 80.1591 147.073 80.2727 147.565 80.5C148.058 80.7273 148.461 81.0455 148.776 81.4545C149.09 81.8636 149.285 82.3409 149.361 82.8864H148.02C147.918 82.4886 147.69 82.1364 147.338 81.8295C146.99 81.5189 146.52 81.3636 145.929 81.3636C145.406 81.3636 144.948 81.5 144.554 81.7727C144.164 82.0417 143.859 82.4223 143.639 82.9148C143.423 83.4034 143.315 83.9773 143.315 84.6364C143.315 85.3106 143.421 85.8977 143.634 86.3977C143.849 86.8977 144.152 87.286 144.543 87.5625C144.937 87.839 145.399 87.9773 145.929 87.9773C146.277 87.9773 146.594 87.9167 146.878 87.7955C147.162 87.6742 147.402 87.5 147.599 87.2727C147.796 87.0455 147.937 86.7727 148.02 86.4545H149.361C149.285 86.9697 149.098 87.4337 148.798 87.8466C148.503 88.2557 148.111 88.5814 147.622 88.8239C147.137 89.0625 146.573 89.1818 145.929 89.1818ZM151.321 89V80.2727H152.662V89H151.321ZM152.003 78.8182C151.741 78.8182 151.516 78.7292 151.327 78.5511C151.141 78.3731 151.048 78.1591 151.048 77.9091C151.048 77.6591 151.141 77.4451 151.327 77.267C151.516 77.089 151.741 77 152.003 77C152.264 77 152.488 77.089 152.673 77.267C152.863 77.4451 152.957 77.6591 152.957 77.9091C152.957 78.1591 152.863 78.3731 152.673 78.5511C152.488 78.7292 152.264 78.8182 152.003 78.8182ZM161.3 82.2273L160.095 82.5682C160.019 82.3674 159.908 82.1723 159.76 81.983C159.616 81.7898 159.419 81.6307 159.169 81.5057C158.919 81.3807 158.599 81.3182 158.209 81.3182C157.675 81.3182 157.23 81.4413 156.874 81.6875C156.521 81.9299 156.345 82.2386 156.345 82.6136C156.345 82.947 156.466 83.2102 156.709 83.4034C156.951 83.5966 157.33 83.7576 157.845 83.8864L159.141 84.2045C159.921 84.3939 160.502 84.6837 160.885 85.0739C161.268 85.4602 161.459 85.9583 161.459 86.5682C161.459 87.0682 161.315 87.5152 161.027 87.9091C160.743 88.303 160.345 88.6136 159.834 88.8409C159.322 89.0682 158.728 89.1818 158.05 89.1818C157.16 89.1818 156.423 88.9886 155.839 88.6023C155.256 88.2159 154.887 87.6515 154.732 86.9091L156.004 86.5909C156.125 87.0606 156.355 87.4129 156.692 87.6477C157.033 87.8826 157.478 88 158.027 88C158.652 88 159.148 87.8674 159.516 87.6023C159.887 87.3333 160.072 87.0114 160.072 86.6364C160.072 86.3333 159.966 86.0795 159.754 85.875C159.542 85.6667 159.216 85.5114 158.777 85.4091L157.322 85.0682C156.523 84.8788 155.936 84.5852 155.561 84.1875C155.19 83.786 155.004 83.2841 155.004 82.6818C155.004 82.1894 155.143 81.7538 155.419 81.375C155.699 80.9962 156.08 80.6989 156.561 80.483C157.046 80.267 157.595 80.1591 158.209 80.1591C159.072 80.1591 159.75 80.3485 160.243 80.7273C160.739 81.1061 161.091 81.6061 161.3 82.2273ZM167.136 89.1818C166.295 89.1818 165.57 88.9962 164.96 88.625C164.354 88.25 163.886 87.7273 163.557 87.0568C163.231 86.3826 163.068 85.5985 163.068 84.7045C163.068 83.8106 163.231 83.0227 163.557 82.3409C163.886 81.6553 164.345 81.1212 164.932 80.7386C165.523 80.3523 166.212 80.1591 167 80.1591C167.455 80.1591 167.903 80.2348 168.347 80.3864C168.79 80.5379 169.193 80.7841 169.557 81.125C169.92 81.4621 170.21 81.9091 170.426 82.4659C170.642 83.0227 170.75 83.7083 170.75 84.5227V85.0909H164.023V83.9318H169.386C169.386 83.4394 169.288 83 169.091 82.6136C168.898 82.2273 168.621 81.9223 168.261 81.6989C167.905 81.4754 167.485 81.3636 167 81.3636C166.466 81.3636 166.004 81.4962 165.614 81.7614C165.227 82.0227 164.93 82.3636 164.722 82.7841C164.513 83.2045 164.409 83.6553 164.409 84.1364V84.9091C164.409 85.5682 164.523 86.1269 164.75 86.5852C164.981 87.0398 165.301 87.3864 165.71 87.625C166.119 87.8598 166.595 87.9773 167.136 87.9773C167.489 87.9773 167.807 87.928 168.091 87.8295C168.379 87.7273 168.627 87.5758 168.835 87.375C169.044 87.1705 169.205 86.9167 169.318 86.6136L170.614 86.9773C170.477 87.4167 170.248 87.803 169.926 88.1364C169.604 88.4659 169.206 88.7235 168.733 88.9091C168.259 89.0909 167.727 89.1818 167.136 89.1818ZM174.131 77.3636V89H172.79V77.3636H174.131ZM177.45 92.2727C177.223 92.2727 177.02 92.2538 176.842 92.2159C176.664 92.1818 176.541 92.1477 176.473 92.1136L176.814 90.9318C177.14 91.0152 177.428 91.0455 177.678 91.0227C177.928 91 178.149 90.8883 178.342 90.6875C178.539 90.4905 178.719 90.1705 178.882 89.7273L179.132 89.0455L175.905 80.2727H177.359L179.768 87.2273H179.859L182.268 80.2727H183.723L180.018 90.2727C179.852 90.7235 179.645 91.0966 179.399 91.392C179.153 91.6913 178.867 91.9129 178.541 92.0568C178.219 92.2008 177.856 92.2727 177.45 92.2727ZM192.561 89.2045C192.008 89.2045 191.506 89.1004 191.055 88.892C190.605 88.6799 190.247 88.375 189.982 87.9773C189.716 87.5758 189.584 87.0909 189.584 86.5227C189.584 86.0227 189.682 85.6174 189.879 85.3068C190.076 84.9924 190.339 84.7462 190.669 84.5682C190.999 84.3902 191.362 84.2576 191.76 84.1705C192.161 84.0795 192.565 84.0076 192.97 83.9545C193.5 83.8864 193.93 83.8352 194.26 83.8011C194.593 83.7633 194.836 83.7008 194.987 83.6136C195.143 83.5265 195.22 83.375 195.22 83.1591V83.1136C195.22 82.553 195.067 82.1174 194.76 81.8068C194.457 81.4962 193.997 81.3409 193.379 81.3409C192.739 81.3409 192.237 81.4811 191.874 81.7614C191.51 82.0417 191.254 82.3409 191.107 82.6591L189.834 82.2045C190.061 81.6742 190.364 81.2614 190.743 80.9659C191.125 80.6667 191.542 80.4583 191.993 80.3409C192.447 80.2197 192.894 80.1591 193.334 80.1591C193.614 80.1591 193.936 80.1932 194.3 80.2614C194.667 80.3258 195.021 80.4602 195.362 80.6648C195.707 80.8693 195.993 81.178 196.22 81.5909C196.447 82.0038 196.561 82.5568 196.561 83.25V89H195.22V87.8182H195.152C195.061 88.0076 194.91 88.2102 194.697 88.4261C194.485 88.642 194.203 88.8258 193.851 88.9773C193.499 89.1288 193.069 89.2045 192.561 89.2045ZM192.766 88C193.296 88 193.743 87.8958 194.107 87.6875C194.474 87.4792 194.75 87.2102 194.936 86.8807C195.125 86.5511 195.22 86.2045 195.22 85.8409V84.6136C195.163 84.6818 195.038 84.7443 194.845 84.8011C194.656 84.8542 194.436 84.9015 194.186 84.9432C193.94 84.9811 193.699 85.0152 193.464 85.0455C193.233 85.072 193.046 85.0947 192.902 85.1136C192.554 85.1591 192.228 85.233 191.925 85.3352C191.625 85.4337 191.383 85.5833 191.197 85.7841C191.016 85.9811 190.925 86.25 190.925 86.5909C190.925 87.0568 191.097 87.4091 191.442 87.6477C191.79 87.8826 192.232 88 192.766 88ZM200.349 77.3636V89H199.009V77.3636H200.349ZM206.464 89.1818C205.624 89.1818 204.898 88.9962 204.288 88.625C203.682 88.25 203.214 87.7273 202.885 87.0568C202.559 86.3826 202.396 85.5985 202.396 84.7045C202.396 83.8106 202.559 83.0227 202.885 82.3409C203.214 81.6553 203.673 81.1212 204.26 80.7386C204.851 80.3523 205.54 80.1591 206.328 80.1591C206.783 80.1591 207.232 80.2348 207.675 80.3864C208.118 80.5379 208.521 80.7841 208.885 81.125C209.249 81.4621 209.538 81.9091 209.754 82.4659C209.97 83.0227 210.078 83.7083 210.078 84.5227V85.0909H203.351V83.9318H208.714C208.714 83.4394 208.616 83 208.419 82.6136C208.226 82.2273 207.949 81.9223 207.589 81.6989C207.233 81.4754 206.813 81.3636 206.328 81.3636C205.794 81.3636 205.332 81.4962 204.942 81.7614C204.555 82.0227 204.258 82.3636 204.05 82.7841C203.841 83.2045 203.737 83.6553 203.737 84.1364V84.9091C203.737 85.5682 203.851 86.1269 204.078 86.5852C204.309 87.0398 204.629 87.3864 205.038 87.625C205.447 87.8598 205.923 87.9773 206.464 87.9773C206.817 87.9773 207.135 87.928 207.419 87.8295C207.707 87.7273 207.955 87.5758 208.163 87.375C208.372 87.1705 208.533 86.9167 208.646 86.6136L209.942 86.9773C209.805 87.4167 209.576 87.803 209.254 88.1364C208.932 88.4659 208.535 88.7235 208.061 88.9091C207.588 89.0909 207.055 89.1818 206.464 89.1818ZM212.118 89V80.2727H213.413V81.5909H213.504C213.663 81.1591 213.951 80.8087 214.368 80.5398C214.785 80.2708 215.254 80.1364 215.777 80.1364C215.875 80.1364 215.999 80.1383 216.146 80.142C216.294 80.1458 216.406 80.1515 216.482 80.1591V81.5227C216.436 81.5114 216.332 81.4943 216.169 81.4716C216.01 81.4451 215.841 81.4318 215.663 81.4318C215.239 81.4318 214.86 81.5208 214.527 81.6989C214.197 81.8731 213.936 82.1155 213.743 82.4261C213.554 82.733 213.459 83.0833 213.459 83.4773V89H212.118ZM222.413 80.2727V81.4091H217.891V80.2727H222.413ZM219.209 78.1818H220.55V86.5C220.55 86.8788 220.605 87.1629 220.714 87.3523C220.828 87.5379 220.972 87.6629 221.146 87.7273C221.324 87.7879 221.512 87.8182 221.709 87.8182C221.857 87.8182 221.978 87.8106 222.072 87.7955C222.167 87.7765 222.243 87.7614 222.3 87.75L222.572 88.9545C222.482 88.9886 222.355 89.0227 222.192 89.0568C222.029 89.0947 221.822 89.1136 221.572 89.1136C221.194 89.1136 220.822 89.0322 220.459 88.8693C220.099 88.7064 219.8 88.4583 219.561 88.125C219.326 87.7917 219.209 87.3712 219.209 86.8636V78.1818ZM230.456 82.2273L229.251 82.5682C229.176 82.3674 229.064 82.1723 228.916 81.983C228.772 81.7898 228.575 81.6307 228.325 81.5057C228.075 81.3807 227.755 81.3182 227.365 81.3182C226.831 81.3182 226.386 81.4413 226.03 81.6875C225.678 81.9299 225.501 82.2386 225.501 82.6136C225.501 82.947 225.623 83.2102 225.865 83.4034C226.107 83.5966 226.486 83.7576 227.001 83.8864L228.297 84.2045C229.077 84.3939 229.659 84.6837 230.041 85.0739C230.424 85.4602 230.615 85.9583 230.615 86.5682C230.615 87.0682 230.471 87.5152 230.183 87.9091C229.899 88.303 229.501 88.6136 228.99 88.8409C228.479 89.0682 227.884 89.1818 227.206 89.1818C226.316 89.1818 225.579 88.9886 224.996 88.6023C224.412 88.2159 224.043 87.6515 223.888 86.9091L225.161 86.5909C225.282 87.0606 225.511 87.4129 225.848 87.6477C226.189 87.8826 226.634 88 227.183 88C227.808 88 228.304 87.8674 228.672 87.6023C229.043 87.3333 229.229 87.0114 229.229 86.6364C229.229 86.3333 229.123 86.0795 228.911 85.875C228.698 85.6667 228.373 85.5114 227.933 85.4091L226.479 85.0682C225.679 84.8788 225.092 84.5852 224.717 84.1875C224.346 83.786 224.161 83.2841 224.161 82.6818C224.161 82.1894 224.299 81.7538 224.575 81.375C224.856 80.9962 225.236 80.6989 225.717 80.483C226.202 80.267 226.751 80.1591 227.365 80.1591C228.229 80.1591 228.907 80.3485 229.399 80.7273C229.895 81.1061 230.248 81.6061 230.456 82.2273ZM237.315 89V77.3636H238.656V81.6591H238.77C238.868 81.5076 239.005 81.3144 239.179 81.0795C239.357 80.8409 239.611 80.6288 239.94 80.4432C240.274 80.2538 240.724 80.1591 241.293 80.1591C242.027 80.1591 242.675 80.3428 243.236 80.7102C243.796 81.0777 244.234 81.5985 244.548 82.2727C244.863 82.947 245.02 83.7424 245.02 84.6591C245.02 85.5833 244.863 86.3845 244.548 87.0625C244.234 87.7367 243.798 88.2595 243.241 88.6307C242.685 88.9981 242.043 89.1818 241.315 89.1818C240.755 89.1818 240.306 89.089 239.969 88.9034C239.632 88.714 239.372 88.5 239.19 88.2614C239.009 88.0189 238.868 87.8182 238.77 87.6591H238.611V89H237.315ZM238.634 84.6364C238.634 85.2955 238.73 85.8769 238.923 86.3807C239.116 86.8807 239.399 87.2727 239.77 87.5568C240.141 87.8371 240.596 87.9773 241.134 87.9773C241.694 87.9773 242.162 87.8295 242.537 87.5341C242.916 87.2348 243.2 86.8333 243.389 86.3295C243.582 85.822 243.679 85.2576 243.679 84.6364C243.679 84.0227 243.584 83.4697 243.395 82.9773C243.209 82.4811 242.927 82.089 242.548 81.8011C242.173 81.5095 241.702 81.3636 241.134 81.3636C240.588 81.3636 240.13 81.5019 239.759 81.7784C239.387 82.0511 239.107 82.4337 238.918 82.9261C238.728 83.4148 238.634 83.9848 238.634 84.6364ZM249.639 89.2045C249.086 89.2045 248.584 89.1004 248.134 88.892C247.683 88.6799 247.325 88.375 247.06 87.9773C246.795 87.5758 246.662 87.0909 246.662 86.5227C246.662 86.0227 246.76 85.6174 246.957 85.3068C247.154 84.9924 247.418 84.7462 247.747 84.5682C248.077 84.3902 248.44 84.2576 248.838 84.1705C249.24 84.0795 249.643 84.0076 250.048 83.9545C250.579 83.8864 251.009 83.8352 251.338 83.8011C251.671 83.7633 251.914 83.7008 252.065 83.6136C252.221 83.5265 252.298 83.375 252.298 83.1591V83.1136C252.298 82.553 252.145 82.1174 251.838 81.8068C251.535 81.4962 251.075 81.3409 250.457 81.3409C249.817 81.3409 249.315 81.4811 248.952 81.7614C248.588 82.0417 248.332 82.3409 248.185 82.6591L246.912 82.2045C247.139 81.6742 247.442 81.2614 247.821 80.9659C248.204 80.6667 248.62 80.4583 249.071 80.3409C249.526 80.2197 249.973 80.1591 250.412 80.1591C250.692 80.1591 251.014 80.1932 251.378 80.2614C251.745 80.3258 252.099 80.4602 252.44 80.6648C252.785 80.8693 253.071 81.178 253.298 81.5909C253.526 82.0038 253.639 82.5568 253.639 83.25V89H252.298V87.8182H252.23C252.139 88.0076 251.988 88.2102 251.776 88.4261C251.563 88.642 251.281 88.8258 250.929 88.9773C250.577 89.1288 250.147 89.2045 249.639 89.2045ZM249.844 88C250.374 88 250.821 87.8958 251.185 87.6875C251.552 87.4792 251.829 87.2102 252.014 86.8807C252.204 86.5511 252.298 86.2045 252.298 85.8409V84.6136C252.241 84.6818 252.116 84.7443 251.923 84.8011C251.734 84.8542 251.514 84.9015 251.264 84.9432C251.018 84.9811 250.777 85.0152 250.543 85.0455C250.312 85.072 250.124 85.0947 249.98 85.1136C249.632 85.1591 249.306 85.233 249.003 85.3352C248.704 85.4337 248.461 85.5833 248.276 85.7841C248.094 85.9811 248.003 86.25 248.003 86.5909C248.003 87.0568 248.175 87.4091 248.52 87.6477C248.868 87.8826 249.31 88 249.844 88ZM262.268 82.2273L261.064 82.5682C260.988 82.3674 260.876 82.1723 260.729 81.983C260.585 81.7898 260.388 81.6307 260.138 81.5057C259.888 81.3807 259.568 81.3182 259.178 81.3182C258.643 81.3182 258.198 81.4413 257.842 81.6875C257.49 81.9299 257.314 82.2386 257.314 82.6136C257.314 82.947 257.435 83.2102 257.678 83.4034C257.92 83.5966 258.299 83.7576 258.814 83.8864L260.109 84.2045C260.89 84.3939 261.471 84.6837 261.854 85.0739C262.236 85.4602 262.428 85.9583 262.428 86.5682C262.428 87.0682 262.284 87.5152 261.996 87.9091C261.712 88.303 261.314 88.6136 260.803 88.8409C260.291 89.0682 259.696 89.1818 259.018 89.1818C258.128 89.1818 257.392 88.9886 256.808 88.6023C256.225 88.2159 255.856 87.6515 255.7 86.9091L256.973 86.5909C257.094 87.0606 257.323 87.4129 257.661 87.6477C258.001 87.8826 258.446 88 258.996 88C259.621 88 260.117 87.8674 260.484 87.6023C260.856 87.3333 261.041 87.0114 261.041 86.6364C261.041 86.3333 260.935 86.0795 260.723 85.875C260.511 85.6667 260.185 85.5114 259.746 85.4091L258.291 85.0682C257.492 84.8788 256.905 84.5852 256.53 84.1875C256.159 83.786 255.973 83.2841 255.973 82.6818C255.973 82.1894 256.111 81.7538 256.388 81.375C256.668 80.9962 257.049 80.6989 257.53 80.483C258.015 80.267 258.564 80.1591 259.178 80.1591C260.041 80.1591 260.719 80.3485 261.212 80.7273C261.708 81.1061 262.06 81.6061 262.268 82.2273ZM268.105 89.1818C267.264 89.1818 266.539 88.9962 265.929 88.625C265.323 88.25 264.855 87.7273 264.526 87.0568C264.2 86.3826 264.037 85.5985 264.037 84.7045C264.037 83.8106 264.2 83.0227 264.526 82.3409C264.855 81.6553 265.313 81.1212 265.901 80.7386C266.491 80.3523 267.181 80.1591 267.969 80.1591C268.423 80.1591 268.872 80.2348 269.315 80.3864C269.759 80.5379 270.162 80.7841 270.526 81.125C270.889 81.4621 271.179 81.9091 271.395 82.4659C271.611 83.0227 271.719 83.7083 271.719 84.5227V85.0909H264.991V83.9318H270.355C270.355 83.4394 270.257 83 270.06 82.6136C269.866 82.2273 269.59 81.9223 269.23 81.6989C268.874 81.4754 268.454 81.3636 267.969 81.3636C267.435 81.3636 266.973 81.4962 266.582 81.7614C266.196 82.0227 265.899 82.3636 265.69 82.7841C265.482 83.2045 265.378 83.6553 265.378 84.1364V84.9091C265.378 85.5682 265.491 86.1269 265.719 86.5852C265.95 87.0398 266.27 87.3864 266.679 87.625C267.088 87.8598 267.563 87.9773 268.105 87.9773C268.457 87.9773 268.776 87.928 269.06 87.8295C269.348 87.7273 269.596 87.5758 269.804 87.375C270.012 87.1705 270.173 86.9167 270.287 86.6136L271.582 86.9773C271.446 87.4167 271.217 87.803 270.895 88.1364C270.573 88.4659 270.175 88.7235 269.702 88.9091C269.228 89.0909 268.696 89.1818 268.105 89.1818ZM277.054 89.1818C276.327 89.1818 275.685 88.9981 275.128 88.6307C274.571 88.2595 274.135 87.7367 273.821 87.0625C273.507 86.3845 273.349 85.5833 273.349 84.6591C273.349 83.7424 273.507 82.947 273.821 82.2727C274.135 81.5985 274.573 81.0777 275.134 80.7102C275.694 80.3428 276.342 80.1591 277.077 80.1591C277.645 80.1591 278.094 80.2538 278.423 80.4432C278.757 80.6288 279.01 80.8409 279.185 81.0795C279.363 81.3144 279.501 81.5076 279.599 81.6591H279.713V77.3636H281.054V89H279.759V87.6591H279.599C279.501 87.8182 279.361 88.0189 279.179 88.2614C278.997 88.5 278.738 88.714 278.401 88.9034C278.063 89.089 277.615 89.1818 277.054 89.1818ZM277.236 87.9773C277.774 87.9773 278.228 87.8371 278.599 87.5568C278.971 87.2727 279.253 86.8807 279.446 86.3807C279.639 85.8769 279.736 85.2955 279.736 84.6364C279.736 83.9848 279.641 83.4148 279.452 82.9261C279.262 82.4337 278.982 82.0511 278.611 81.7784C278.24 81.5019 277.781 81.3636 277.236 81.3636C276.668 81.3636 276.194 81.5095 275.815 81.8011C275.44 82.089 275.158 82.4811 274.969 82.9773C274.783 83.4697 274.69 84.0227 274.69 84.6364C274.69 85.2576 274.785 85.822 274.974 86.3295C275.168 86.8333 275.452 87.2348 275.827 87.5341C276.205 87.8295 276.675 87.9773 277.236 87.9773ZM291.741 89.1818C290.954 89.1818 290.262 88.9943 289.668 88.6193C289.077 88.2443 288.615 87.7197 288.281 87.0455C287.952 86.3712 287.787 85.5833 287.787 84.6818C287.787 83.7727 287.952 82.9792 288.281 82.3011C288.615 81.6231 289.077 81.0966 289.668 80.7216C290.262 80.3466 290.954 80.1591 291.741 80.1591C292.529 80.1591 293.219 80.3466 293.81 80.7216C294.404 81.0966 294.866 81.6231 295.196 82.3011C295.529 82.9792 295.696 83.7727 295.696 84.6818C295.696 85.5833 295.529 86.3712 295.196 87.0455C294.866 87.7197 294.404 88.2443 293.81 88.6193C293.219 88.9943 292.529 89.1818 291.741 89.1818ZM291.741 87.9773C292.34 87.9773 292.832 87.8239 293.219 87.517C293.605 87.2102 293.891 86.8068 294.077 86.3068C294.262 85.8068 294.355 85.2652 294.355 84.6818C294.355 84.0985 294.262 83.5549 294.077 83.0511C293.891 82.5473 293.605 82.1402 293.219 81.8295C292.832 81.5189 292.34 81.3636 291.741 81.3636C291.143 81.3636 290.651 81.5189 290.264 81.8295C289.878 82.1402 289.592 82.5473 289.406 83.0511C289.221 83.5549 289.128 84.0985 289.128 84.6818C289.128 85.2652 289.221 85.8068 289.406 86.3068C289.592 86.8068 289.878 87.2102 290.264 87.517C290.651 87.8239 291.143 87.9773 291.741 87.9773ZM299.084 83.75V89H297.743V80.2727H299.038V81.6364H299.152C299.357 81.1932 299.667 80.8371 300.084 80.5682C300.5 80.2955 301.038 80.1591 301.697 80.1591C302.288 80.1591 302.805 80.2803 303.249 80.5227C303.692 80.7614 304.036 81.125 304.283 81.6136C304.529 82.0985 304.652 82.7121 304.652 83.4545V89H303.311V83.5455C303.311 82.8598 303.133 82.3258 302.777 81.9432C302.421 81.5568 301.932 81.3636 301.311 81.3636C300.883 81.3636 300.5 81.4564 300.163 81.642C299.83 81.8277 299.567 82.0985 299.374 82.4545C299.18 82.8106 299.084 83.2424 299.084 83.75ZM312.943 83.75V89H311.602V77.3636H312.943V81.6364H313.057C313.261 81.1856 313.568 80.8277 313.977 80.5625C314.39 80.2936 314.939 80.1591 315.625 80.1591C316.22 80.1591 316.741 80.2784 317.188 80.517C317.634 80.7519 317.981 81.1136 318.227 81.6023C318.477 82.0871 318.602 82.7045 318.602 83.4545V89H317.261V83.5455C317.261 82.8523 317.081 82.3163 316.722 81.9375C316.366 81.5549 315.871 81.3636 315.239 81.3636C314.799 81.3636 314.405 81.4564 314.057 81.642C313.712 81.8277 313.439 82.0985 313.239 82.4545C313.042 82.8106 312.943 83.2424 312.943 83.75ZM324.601 89.1818C323.813 89.1818 323.122 88.9943 322.527 88.6193C321.936 88.2443 321.474 87.7197 321.141 87.0455C320.811 86.3712 320.646 85.5833 320.646 84.6818C320.646 83.7727 320.811 82.9792 321.141 82.3011C321.474 81.6231 321.936 81.0966 322.527 80.7216C323.122 80.3466 323.813 80.1591 324.601 80.1591C325.389 80.1591 326.078 80.3466 326.669 80.7216C327.264 81.0966 327.726 81.6231 328.055 82.3011C328.389 82.9792 328.555 83.7727 328.555 84.6818C328.555 85.5833 328.389 86.3712 328.055 87.0455C327.726 87.7197 327.264 88.2443 326.669 88.6193C326.078 88.9943 325.389 89.1818 324.601 89.1818ZM324.601 87.9773C325.199 87.9773 325.692 87.8239 326.078 87.517C326.464 87.2102 326.75 86.8068 326.936 86.3068C327.122 85.8068 327.214 85.2652 327.214 84.6818C327.214 84.0985 327.122 83.5549 326.936 83.0511C326.75 82.5473 326.464 82.1402 326.078 81.8295C325.692 81.5189 325.199 81.3636 324.601 81.3636C324.002 81.3636 323.51 81.5189 323.124 81.8295C322.737 82.1402 322.451 82.5473 322.266 83.0511C322.08 83.5549 321.987 84.0985 321.987 84.6818C321.987 85.2652 322.08 85.8068 322.266 86.3068C322.451 86.8068 322.737 87.2102 323.124 87.517C323.51 87.8239 324.002 87.9773 324.601 87.9773ZM332.283 89L329.624 80.2727H331.033L332.919 86.9545H333.01L334.874 80.2727H336.305L338.146 86.9318H338.237L340.124 80.2727H341.533L338.874 89H337.555L335.646 82.2955H335.51L333.601 89H332.283ZM120.886 108.182C120.045 108.182 119.32 107.996 118.71 107.625C118.104 107.25 117.636 106.727 117.307 106.057C116.981 105.383 116.818 104.598 116.818 103.705C116.818 102.811 116.981 102.023 117.307 101.341C117.636 100.655 118.095 100.121 118.682 99.7386C119.273 99.3523 119.962 99.1591 120.75 99.1591C121.205 99.1591 121.653 99.2348 122.097 99.3864C122.54 99.5379 122.943 99.7841 123.307 100.125C123.67 100.462 123.96 100.909 124.176 101.466C124.392 102.023 124.5 102.708 124.5 103.523V104.091H117.773V102.932H123.136C123.136 102.439 123.038 102 122.841 101.614C122.648 101.227 122.371 100.922 122.011 100.699C121.655 100.475 121.235 100.364 120.75 100.364C120.216 100.364 119.754 100.496 119.364 100.761C118.977 101.023 118.68 101.364 118.472 101.784C118.263 102.205 118.159 102.655 118.159 103.136V103.909C118.159 104.568 118.273 105.127 118.5 105.585C118.731 106.04 119.051 106.386 119.46 106.625C119.869 106.86 120.345 106.977 120.886 106.977C121.239 106.977 121.557 106.928 121.841 106.83C122.129 106.727 122.377 106.576 122.585 106.375C122.794 106.17 122.955 105.917 123.068 105.614L124.364 105.977C124.227 106.417 123.998 106.803 123.676 107.136C123.354 107.466 122.956 107.723 122.483 107.909C122.009 108.091 121.477 108.182 120.886 108.182ZM127.881 102.75V108H126.54V99.2727H127.835V100.636H127.949C128.153 100.193 128.464 99.8371 128.881 99.5682C129.297 99.2955 129.835 99.1591 130.494 99.1591C131.085 99.1591 131.602 99.2803 132.045 99.5227C132.489 99.7614 132.833 100.125 133.08 100.614C133.326 101.098 133.449 101.712 133.449 102.455V108H132.108V102.545C132.108 101.86 131.93 101.326 131.574 100.943C131.218 100.557 130.729 100.364 130.108 100.364C129.68 100.364 129.297 100.456 128.96 100.642C128.627 100.828 128.364 101.098 128.17 101.455C127.977 101.811 127.881 102.242 127.881 102.75ZM139.695 99.2727V100.409H135.172V99.2727H139.695ZM136.49 97.1818H137.831V105.5C137.831 105.879 137.886 106.163 137.996 106.352C138.109 106.538 138.253 106.663 138.428 106.727C138.606 106.788 138.793 106.818 138.99 106.818C139.138 106.818 139.259 106.811 139.354 106.795C139.448 106.777 139.524 106.761 139.581 106.75L139.854 107.955C139.763 107.989 139.636 108.023 139.473 108.057C139.31 108.095 139.104 108.114 138.854 108.114C138.475 108.114 138.104 108.032 137.74 107.869C137.38 107.706 137.081 107.458 136.842 107.125C136.607 106.792 136.49 106.371 136.49 105.864V97.1818ZM141.712 108V99.2727H143.053V108H141.712ZM142.393 97.8182C142.132 97.8182 141.907 97.7292 141.717 97.5511C141.532 97.3731 141.439 97.1591 141.439 96.9091C141.439 96.6591 141.532 96.4451 141.717 96.267C141.907 96.089 142.132 96 142.393 96C142.655 96 142.878 96.089 143.064 96.267C143.253 96.4451 143.348 96.6591 143.348 96.9091C143.348 97.1591 143.253 97.3731 143.064 97.5511C142.878 97.7292 142.655 97.8182 142.393 97.8182ZM149.304 99.2727V100.409H144.781V99.2727H149.304ZM146.099 97.1818H147.44V105.5C147.44 105.879 147.495 106.163 147.605 106.352C147.719 106.538 147.863 106.663 148.037 106.727C148.215 106.788 148.402 106.818 148.599 106.818C148.747 106.818 148.868 106.811 148.963 106.795C149.058 106.777 149.134 106.761 149.19 106.75L149.463 107.955C149.372 107.989 149.245 108.023 149.082 108.057C148.92 108.095 148.713 108.114 148.463 108.114C148.084 108.114 147.713 108.032 147.349 107.869C146.99 107.706 146.69 107.458 146.452 107.125C146.217 106.792 146.099 106.371 146.099 105.864V97.1818ZM151.321 108V99.2727H152.662V108H151.321ZM152.003 97.8182C151.741 97.8182 151.516 97.7292 151.327 97.5511C151.141 97.3731 151.048 97.1591 151.048 96.9091C151.048 96.6591 151.141 96.4451 151.327 96.267C151.516 96.089 151.741 96 152.003 96C152.264 96 152.488 96.089 152.673 96.267C152.863 96.4451 152.957 96.6591 152.957 96.9091C152.957 97.1591 152.863 97.3731 152.673 97.5511C152.488 97.7292 152.264 97.8182 152.003 97.8182ZM158.777 108.182C157.936 108.182 157.211 107.996 156.601 107.625C155.995 107.25 155.527 106.727 155.197 106.057C154.872 105.383 154.709 104.598 154.709 103.705C154.709 102.811 154.872 102.023 155.197 101.341C155.527 100.655 155.985 100.121 156.572 99.7386C157.163 99.3523 157.853 99.1591 158.641 99.1591C159.095 99.1591 159.544 99.2348 159.987 99.3864C160.43 99.5379 160.834 99.7841 161.197 100.125C161.561 100.462 161.851 100.909 162.067 101.466C162.283 102.023 162.391 102.708 162.391 103.523V104.091H155.663V102.932H161.027C161.027 102.439 160.929 102 160.732 101.614C160.538 101.227 160.262 100.922 159.902 100.699C159.546 100.475 159.125 100.364 158.641 100.364C158.107 100.364 157.644 100.496 157.254 100.761C156.868 101.023 156.571 101.364 156.362 101.784C156.154 102.205 156.05 102.655 156.05 103.136V103.909C156.05 104.568 156.163 105.127 156.391 105.585C156.622 106.04 156.942 106.386 157.351 106.625C157.76 106.86 158.235 106.977 158.777 106.977C159.129 106.977 159.447 106.928 159.732 106.83C160.019 106.727 160.268 106.576 160.476 106.375C160.684 106.17 160.845 105.917 160.959 105.614L162.254 105.977C162.118 106.417 161.889 106.803 161.567 107.136C161.245 107.466 160.847 107.723 160.374 107.909C159.9 108.091 159.368 108.182 158.777 108.182ZM170.612 101.227L169.408 101.568C169.332 101.367 169.22 101.172 169.072 100.983C168.929 100.79 168.732 100.631 168.482 100.506C168.232 100.381 167.911 100.318 167.521 100.318C166.987 100.318 166.542 100.441 166.186 100.688C165.834 100.93 165.658 101.239 165.658 101.614C165.658 101.947 165.779 102.21 166.021 102.403C166.264 102.597 166.643 102.758 167.158 102.886L168.453 103.205C169.233 103.394 169.815 103.684 170.197 104.074C170.58 104.46 170.771 104.958 170.771 105.568C170.771 106.068 170.627 106.515 170.339 106.909C170.055 107.303 169.658 107.614 169.146 107.841C168.635 108.068 168.04 108.182 167.362 108.182C166.472 108.182 165.735 107.989 165.152 107.602C164.569 107.216 164.199 106.652 164.044 105.909L165.317 105.591C165.438 106.061 165.667 106.413 166.004 106.648C166.345 106.883 166.79 107 167.339 107C167.964 107 168.461 106.867 168.828 106.602C169.199 106.333 169.385 106.011 169.385 105.636C169.385 105.333 169.279 105.08 169.067 104.875C168.855 104.667 168.529 104.511 168.089 104.409L166.635 104.068C165.836 103.879 165.249 103.585 164.874 103.188C164.502 102.786 164.317 102.284 164.317 101.682C164.317 101.189 164.455 100.754 164.732 100.375C165.012 99.9962 165.393 99.6989 165.874 99.483C166.358 99.267 166.908 99.1591 167.521 99.1591C168.385 99.1591 169.063 99.3485 169.555 99.7273C170.052 100.106 170.404 100.606 170.612 101.227ZM180.835 108.182C180.047 108.182 179.356 107.994 178.761 107.619C178.17 107.244 177.708 106.72 177.375 106.045C177.045 105.371 176.881 104.583 176.881 103.682C176.881 102.773 177.045 101.979 177.375 101.301C177.708 100.623 178.17 100.097 178.761 99.7216C179.356 99.3466 180.047 99.1591 180.835 99.1591C181.623 99.1591 182.313 99.3466 182.903 99.7216C183.498 100.097 183.96 100.623 184.29 101.301C184.623 101.979 184.79 102.773 184.79 103.682C184.79 104.583 184.623 105.371 184.29 106.045C183.96 106.72 183.498 107.244 182.903 107.619C182.313 107.994 181.623 108.182 180.835 108.182ZM180.835 106.977C181.434 106.977 181.926 106.824 182.312 106.517C182.699 106.21 182.985 105.807 183.17 105.307C183.356 104.807 183.449 104.265 183.449 103.682C183.449 103.098 183.356 102.555 183.17 102.051C182.985 101.547 182.699 101.14 182.312 100.83C181.926 100.519 181.434 100.364 180.835 100.364C180.237 100.364 179.744 100.519 179.358 100.83C178.972 101.14 178.686 101.547 178.5 102.051C178.314 102.555 178.222 103.098 178.222 103.682C178.222 104.265 178.314 104.807 178.5 105.307C178.686 105.807 178.972 106.21 179.358 106.517C179.744 106.824 180.237 106.977 180.835 106.977ZM186.837 111.273V99.2727H188.132V100.659H188.291C188.39 100.508 188.526 100.314 188.7 100.08C188.878 99.8409 189.132 99.6288 189.462 99.4432C189.795 99.2538 190.246 99.1591 190.814 99.1591C191.549 99.1591 192.196 99.3428 192.757 99.7102C193.318 100.078 193.755 100.598 194.07 101.273C194.384 101.947 194.541 102.742 194.541 103.659C194.541 104.583 194.384 105.384 194.07 106.062C193.755 106.737 193.32 107.259 192.763 107.631C192.206 107.998 191.564 108.182 190.837 108.182C190.276 108.182 189.827 108.089 189.49 107.903C189.153 107.714 188.893 107.5 188.712 107.261C188.53 107.019 188.39 106.818 188.291 106.659H188.178V111.273H186.837ZM188.155 103.636C188.155 104.295 188.251 104.877 188.445 105.381C188.638 105.881 188.92 106.273 189.291 106.557C189.662 106.837 190.117 106.977 190.655 106.977C191.215 106.977 191.683 106.83 192.058 106.534C192.437 106.235 192.721 105.833 192.911 105.33C193.104 104.822 193.2 104.258 193.2 103.636C193.2 103.023 193.106 102.47 192.916 101.977C192.731 101.481 192.448 101.089 192.07 100.801C191.695 100.509 191.223 100.364 190.655 100.364C190.109 100.364 189.651 100.502 189.28 100.778C188.909 101.051 188.628 101.434 188.439 101.926C188.25 102.415 188.155 102.985 188.155 103.636ZM200.246 108.182C199.405 108.182 198.679 107.996 198.07 107.625C197.464 107.25 196.996 106.727 196.666 106.057C196.34 105.383 196.178 104.598 196.178 103.705C196.178 102.811 196.34 102.023 196.666 101.341C196.996 100.655 197.454 100.121 198.041 99.7386C198.632 99.3523 199.321 99.1591 200.109 99.1591C200.564 99.1591 201.013 99.2348 201.456 99.3864C201.899 99.5379 202.303 99.7841 202.666 100.125C203.03 100.462 203.32 100.909 203.536 101.466C203.751 102.023 203.859 102.708 203.859 103.523V104.091H197.132V102.932H202.496C202.496 102.439 202.397 102 202.2 101.614C202.007 101.227 201.731 100.922 201.371 100.699C201.015 100.475 200.594 100.364 200.109 100.364C199.575 100.364 199.113 100.496 198.723 100.761C198.337 101.023 198.039 101.364 197.831 101.784C197.623 102.205 197.518 102.655 197.518 103.136V103.909C197.518 104.568 197.632 105.127 197.859 105.585C198.09 106.04 198.411 106.386 198.82 106.625C199.229 106.86 199.704 106.977 200.246 106.977C200.598 106.977 200.916 106.928 201.2 106.83C201.488 106.727 201.736 106.576 201.945 106.375C202.153 106.17 202.314 105.917 202.428 105.614L203.723 105.977C203.587 106.417 203.357 106.803 203.036 107.136C202.714 107.466 202.316 107.723 201.842 107.909C201.369 108.091 200.837 108.182 200.246 108.182ZM205.899 108V99.2727H207.195V100.591H207.286C207.445 100.159 207.732 99.8087 208.149 99.5398C208.566 99.2708 209.036 99.1364 209.558 99.1364C209.657 99.1364 209.78 99.1383 209.928 99.142C210.075 99.1458 210.187 99.1515 210.263 99.1591V100.523C210.217 100.511 210.113 100.494 209.95 100.472C209.791 100.445 209.623 100.432 209.445 100.432C209.02 100.432 208.642 100.521 208.308 100.699C207.979 100.873 207.717 101.116 207.524 101.426C207.335 101.733 207.24 102.083 207.24 102.477V108H205.899ZM214.42 108.205C213.867 108.205 213.366 108.1 212.915 107.892C212.464 107.68 212.106 107.375 211.841 106.977C211.576 106.576 211.443 106.091 211.443 105.523C211.443 105.023 211.542 104.617 211.739 104.307C211.936 103.992 212.199 103.746 212.528 103.568C212.858 103.39 213.222 103.258 213.619 103.17C214.021 103.08 214.424 103.008 214.83 102.955C215.36 102.886 215.79 102.835 216.119 102.801C216.453 102.763 216.695 102.701 216.847 102.614C217.002 102.527 217.08 102.375 217.08 102.159V102.114C217.08 101.553 216.926 101.117 216.619 100.807C216.316 100.496 215.856 100.341 215.239 100.341C214.598 100.341 214.097 100.481 213.733 100.761C213.369 101.042 213.114 101.341 212.966 101.659L211.693 101.205C211.92 100.674 212.223 100.261 212.602 99.9659C212.985 99.6667 213.402 99.4583 213.852 99.3409C214.307 99.2197 214.754 99.1591 215.193 99.1591C215.473 99.1591 215.795 99.1932 216.159 99.2614C216.527 99.3258 216.881 99.4602 217.222 99.6648C217.566 99.8693 217.852 100.178 218.08 100.591C218.307 101.004 218.42 101.557 218.42 102.25V108H217.08V106.818H217.011C216.92 107.008 216.769 107.21 216.557 107.426C216.345 107.642 216.063 107.826 215.71 107.977C215.358 108.129 214.928 108.205 214.42 108.205ZM214.625 107C215.155 107 215.602 106.896 215.966 106.688C216.333 106.479 216.61 106.21 216.795 105.881C216.985 105.551 217.08 105.205 217.08 104.841V103.614C217.023 103.682 216.898 103.744 216.705 103.801C216.515 103.854 216.295 103.902 216.045 103.943C215.799 103.981 215.559 104.015 215.324 104.045C215.093 104.072 214.905 104.095 214.761 104.114C214.413 104.159 214.087 104.233 213.784 104.335C213.485 104.434 213.242 104.583 213.057 104.784C212.875 104.981 212.784 105.25 212.784 105.591C212.784 106.057 212.956 106.409 213.301 106.648C213.65 106.883 214.091 107 214.625 107ZM224.663 99.2727V100.409H220.141V99.2727H224.663ZM221.459 97.1818H222.8V105.5C222.8 105.879 222.855 106.163 222.964 106.352C223.078 106.538 223.222 106.663 223.396 106.727C223.574 106.788 223.762 106.818 223.959 106.818C224.107 106.818 224.228 106.811 224.322 106.795C224.417 106.777 224.493 106.761 224.55 106.75L224.822 107.955C224.732 107.989 224.605 108.023 224.442 108.057C224.279 108.095 224.072 108.114 223.822 108.114C223.444 108.114 223.072 108.032 222.709 107.869C222.349 107.706 222.05 107.458 221.811 107.125C221.576 106.792 221.459 106.371 221.459 105.864V97.1818ZM230.246 108.182C229.405 108.182 228.679 107.996 228.07 107.625C227.464 107.25 226.996 106.727 226.666 106.057C226.34 105.383 226.178 104.598 226.178 103.705C226.178 102.811 226.34 102.023 226.666 101.341C226.996 100.655 227.454 100.121 228.041 99.7386C228.632 99.3523 229.321 99.1591 230.109 99.1591C230.564 99.1591 231.013 99.2348 231.456 99.3864C231.899 99.5379 232.303 99.7841 232.666 100.125C233.03 100.462 233.32 100.909 233.536 101.466C233.751 102.023 233.859 102.708 233.859 103.523V104.091H227.132V102.932H232.496C232.496 102.439 232.397 102 232.2 101.614C232.007 101.227 231.731 100.922 231.371 100.699C231.015 100.475 230.594 100.364 230.109 100.364C229.575 100.364 229.113 100.496 228.723 100.761C228.337 101.023 228.039 101.364 227.831 101.784C227.623 102.205 227.518 102.655 227.518 103.136V103.909C227.518 104.568 227.632 105.127 227.859 105.585C228.09 106.04 228.411 106.386 228.82 106.625C229.229 106.86 229.704 106.977 230.246 106.977C230.598 106.977 230.916 106.928 231.2 106.83C231.488 106.727 231.736 106.576 231.945 106.375C232.153 106.17 232.314 105.917 232.428 105.614L233.723 105.977C233.587 106.417 233.357 106.803 233.036 107.136C232.714 107.466 232.316 107.723 231.842 107.909C231.369 108.091 230.837 108.182 230.246 108.182ZM243.945 108.182C243.157 108.182 242.465 107.994 241.871 107.619C241.28 107.244 240.818 106.72 240.484 106.045C240.155 105.371 239.99 104.583 239.99 103.682C239.99 102.773 240.155 101.979 240.484 101.301C240.818 100.623 241.28 100.097 241.871 99.7216C242.465 99.3466 243.157 99.1591 243.945 99.1591C244.732 99.1591 245.422 99.3466 246.013 99.7216C246.607 100.097 247.07 100.623 247.399 101.301C247.732 101.979 247.899 102.773 247.899 103.682C247.899 104.583 247.732 105.371 247.399 106.045C247.07 106.72 246.607 107.244 246.013 107.619C245.422 107.994 244.732 108.182 243.945 108.182ZM243.945 106.977C244.543 106.977 245.036 106.824 245.422 106.517C245.808 106.21 246.094 105.807 246.28 105.307C246.465 104.807 246.558 104.265 246.558 103.682C246.558 103.098 246.465 102.555 246.28 102.051C246.094 101.547 245.808 101.14 245.422 100.83C245.036 100.519 244.543 100.364 243.945 100.364C243.346 100.364 242.854 100.519 242.467 100.83C242.081 101.14 241.795 101.547 241.609 102.051C241.424 102.555 241.331 103.098 241.331 103.682C241.331 104.265 241.424 104.807 241.609 105.307C241.795 105.807 242.081 106.21 242.467 106.517C242.854 106.824 243.346 106.977 243.945 106.977ZM251.287 102.75V108H249.946V99.2727H251.241V100.636H251.355C251.56 100.193 251.87 99.8371 252.287 99.5682C252.704 99.2955 253.241 99.1591 253.901 99.1591C254.491 99.1591 255.009 99.2803 255.452 99.5227C255.895 99.7614 256.24 100.125 256.486 100.614C256.732 101.098 256.855 101.712 256.855 102.455V108H255.514V102.545C255.514 101.86 255.336 101.326 254.98 100.943C254.624 100.557 254.135 100.364 253.514 100.364C253.086 100.364 252.704 100.456 252.366 100.642C252.033 100.828 251.77 101.098 251.577 101.455C251.384 101.811 251.287 102.242 251.287 102.75ZM264.669 111.273C264.442 111.273 264.239 111.254 264.061 111.216C263.883 111.182 263.76 111.148 263.692 111.114L264.033 109.932C264.358 110.015 264.646 110.045 264.896 110.023C265.146 110 265.368 109.888 265.561 109.688C265.758 109.491 265.938 109.17 266.101 108.727L266.351 108.045L263.124 99.2727H264.578L266.987 106.227H267.078L269.487 99.2727H270.942L267.237 109.273C267.071 109.723 266.864 110.097 266.618 110.392C266.372 110.691 266.086 110.913 265.76 111.057C265.438 111.201 265.074 111.273 264.669 111.273ZM275.945 108.182C275.157 108.182 274.465 107.994 273.871 107.619C273.28 107.244 272.818 106.72 272.484 106.045C272.155 105.371 271.99 104.583 271.99 103.682C271.99 102.773 272.155 101.979 272.484 101.301C272.818 100.623 273.28 100.097 273.871 99.7216C274.465 99.3466 275.157 99.1591 275.945 99.1591C276.732 99.1591 277.422 99.3466 278.013 99.7216C278.607 100.097 279.07 100.623 279.399 101.301C279.732 101.979 279.899 102.773 279.899 103.682C279.899 104.583 279.732 105.371 279.399 106.045C279.07 106.72 278.607 107.244 278.013 107.619C277.422 107.994 276.732 108.182 275.945 108.182ZM275.945 106.977C276.543 106.977 277.036 106.824 277.422 106.517C277.808 106.21 278.094 105.807 278.28 105.307C278.465 104.807 278.558 104.265 278.558 103.682C278.558 103.098 278.465 102.555 278.28 102.051C278.094 101.547 277.808 101.14 277.422 100.83C277.036 100.519 276.543 100.364 275.945 100.364C275.346 100.364 274.854 100.519 274.467 100.83C274.081 101.14 273.795 101.547 273.609 102.051C273.424 102.555 273.331 103.098 273.331 103.682C273.331 104.265 273.424 104.807 273.609 105.307C273.795 105.807 274.081 106.21 274.467 106.517C274.854 106.824 275.346 106.977 275.945 106.977ZM287.446 104.432V99.2727H288.787V108H287.446V106.523H287.355C287.151 106.966 286.832 107.343 286.401 107.653C285.969 107.96 285.423 108.114 284.764 108.114C284.219 108.114 283.734 107.994 283.31 107.756C282.885 107.513 282.552 107.15 282.31 106.665C282.067 106.176 281.946 105.561 281.946 104.818V99.2727H283.287V104.727C283.287 105.364 283.465 105.871 283.821 106.25C284.181 106.629 284.639 106.818 285.196 106.818C285.529 106.818 285.868 106.733 286.213 106.562C286.562 106.392 286.853 106.131 287.088 105.778C287.327 105.426 287.446 104.977 287.446 104.432ZM291.243 108V99.2727H292.538V100.591H292.629C292.788 100.159 293.076 99.8087 293.493 99.5398C293.91 99.2708 294.379 99.1364 294.902 99.1364C295 99.1364 295.124 99.1383 295.271 99.142C295.419 99.1458 295.531 99.1515 295.607 99.1591V100.523C295.561 100.511 295.457 100.494 295.294 100.472C295.135 100.445 294.966 100.432 294.788 100.432C294.364 100.432 293.985 100.521 293.652 100.699C293.322 100.873 293.061 101.116 292.868 101.426C292.679 101.733 292.584 102.083 292.584 102.477V108H291.243ZM303.037 102.75V108H301.696V99.2727H302.991V100.636H303.105C303.31 100.193 303.62 99.8371 304.037 99.5682C304.454 99.2955 304.991 99.1591 305.651 99.1591C306.241 99.1591 306.759 99.2803 307.202 99.5227C307.645 99.7614 307.99 100.125 308.236 100.614C308.482 101.098 308.605 101.712 308.605 102.455V108H307.264V102.545C307.264 101.86 307.086 101.326 306.73 100.943C306.374 100.557 305.885 100.364 305.264 100.364C304.836 100.364 304.454 100.456 304.116 100.642C303.783 100.828 303.52 101.098 303.327 101.455C303.134 101.811 303.037 102.242 303.037 102.75ZM314.714 108.182C313.874 108.182 313.148 107.996 312.538 107.625C311.932 107.25 311.464 106.727 311.135 106.057C310.809 105.383 310.646 104.598 310.646 103.705C310.646 102.811 310.809 102.023 311.135 101.341C311.464 100.655 311.923 100.121 312.51 99.7386C313.101 99.3523 313.79 99.1591 314.578 99.1591C315.033 99.1591 315.482 99.2348 315.925 99.3864C316.368 99.5379 316.771 99.7841 317.135 100.125C317.499 100.462 317.788 100.909 318.004 101.466C318.22 102.023 318.328 102.708 318.328 103.523V104.091H311.601V102.932H316.964C316.964 102.439 316.866 102 316.669 101.614C316.476 101.227 316.199 100.922 315.839 100.699C315.483 100.475 315.063 100.364 314.578 100.364C314.044 100.364 313.582 100.496 313.192 100.761C312.805 101.023 312.508 101.364 312.3 101.784C312.091 102.205 311.987 102.655 311.987 103.136V103.909C311.987 104.568 312.101 105.127 312.328 105.585C312.559 106.04 312.879 106.386 313.288 106.625C313.697 106.86 314.173 106.977 314.714 106.977C315.067 106.977 315.385 106.928 315.669 106.83C315.957 106.727 316.205 106.576 316.413 106.375C316.622 106.17 316.783 105.917 316.896 105.614L318.192 105.977C318.055 106.417 317.826 106.803 317.504 107.136C317.182 107.466 316.785 107.723 316.311 107.909C315.838 108.091 315.305 108.182 314.714 108.182ZM324.163 99.2727V100.409H319.641V99.2727H324.163ZM320.959 97.1818H322.3V105.5C322.3 105.879 322.355 106.163 322.464 106.352C322.578 106.538 322.722 106.663 322.896 106.727C323.074 106.788 323.262 106.818 323.459 106.818C323.607 106.818 323.728 106.811 323.822 106.795C323.917 106.777 323.993 106.761 324.05 106.75L324.322 107.955C324.232 107.989 324.105 108.023 323.942 108.057C323.779 108.095 323.572 108.114 323.322 108.114C322.944 108.114 322.572 108.032 322.209 107.869C321.849 107.706 321.55 107.458 321.311 107.125C321.076 106.792 320.959 106.371 320.959 105.864V97.1818ZM328.158 108L325.499 99.2727H326.908L328.794 105.955H328.885L330.749 99.2727H332.18L334.021 105.932H334.112L335.999 99.2727H337.408L334.749 108H333.43L331.521 101.295H331.385L329.476 108H328.158ZM342.429 108.182C341.641 108.182 340.95 107.994 340.355 107.619C339.764 107.244 339.302 106.72 338.969 106.045C338.639 105.371 338.474 104.583 338.474 103.682C338.474 102.773 338.639 101.979 338.969 101.301C339.302 100.623 339.764 100.097 340.355 99.7216C340.95 99.3466 341.641 99.1591 342.429 99.1591C343.217 99.1591 343.906 99.3466 344.497 99.7216C345.092 100.097 345.554 100.623 345.884 101.301C346.217 101.979 346.384 102.773 346.384 103.682C346.384 104.583 346.217 105.371 345.884 106.045C345.554 106.72 345.092 107.244 344.497 107.619C343.906 107.994 343.217 108.182 342.429 108.182ZM342.429 106.977C343.027 106.977 343.52 106.824 343.906 106.517C344.293 106.21 344.579 105.807 344.764 105.307C344.95 104.807 345.043 104.265 345.043 103.682C345.043 103.098 344.95 102.555 344.764 102.051C344.579 101.547 344.293 101.14 343.906 100.83C343.52 100.519 343.027 100.364 342.429 100.364C341.83 100.364 341.338 100.519 340.952 100.83C340.565 101.14 340.279 101.547 340.094 102.051C339.908 102.555 339.815 103.098 339.815 103.682C339.815 104.265 339.908 104.807 340.094 105.307C340.279 105.807 340.565 106.21 340.952 106.517C341.338 106.824 341.83 106.977 342.429 106.977ZM348.43 108V99.2727H349.726V100.591H349.817C349.976 100.159 350.264 99.8087 350.68 99.5398C351.097 99.2708 351.567 99.1364 352.089 99.1364C352.188 99.1364 352.311 99.1383 352.459 99.142C352.607 99.1458 352.718 99.1515 352.794 99.1591V100.523C352.749 100.511 352.644 100.494 352.482 100.472C352.322 100.445 352.154 100.432 351.976 100.432C351.552 100.432 351.173 100.521 350.839 100.699C350.51 100.873 350.249 101.116 350.055 101.426C349.866 101.733 349.771 102.083 349.771 102.477V108H348.43ZM355.634 104.818L355.611 103.159H355.884L359.702 99.2727H361.361L357.293 103.386H357.179L355.634 104.818ZM354.384 108V96.3636H355.724V108H354.384ZM359.929 108L356.52 103.682L357.474 102.75L361.634 108H359.929Z" fill="white"/>
<circle cx="57" cy="70" r="43" fill="#74883F"/>
<path fill-rule="evenodd" clip-rule="evenodd" d="M53.8526 44.2661C53.403 44.4185 52.8962 44.8109 52.5593 45.2674C52.036 45.9762 52.001 46.1409 51.9326 48.2263C51.8351 51.1954 51.827 51.2241 50.9969 51.5376C48.8415 52.3523 47.0872 53.5315 45.4716 55.2521C44.5713 56.2109 43.8346 57.0674 43.8346 57.1553C43.8346 57.2433 43.6241 57.6808 43.3668 58.1277C43.1096 58.5745 42.8991 59.0804 42.8991 59.2519C42.8991 59.4234 42.8323 59.5637 42.7508 59.5637C42.6181 59.5637 42.4806 59.9874 41.9184 62.1281C41.4853 63.7777 41.2215 66.2961 41.2096 68.8981C41.1937 72.3101 40.7985 75.9757 40.4466 75.9757C40.3549 75.9757 40.2799 76.1077 40.2799 76.2689C40.2799 76.4299 40.1744 76.6839 40.0457 76.8331C39.9168 76.982 39.645 77.4504 39.4418 77.8734C39.2386 78.2966 39.013 78.6427 38.9404 78.6427C38.8678 78.6427 38.7612 78.8042 38.7032 79.0017C38.6454 79.1993 38.3445 79.6838 38.0349 80.0788C37.7253 80.4737 37.4244 80.9582 37.3666 81.1558C37.3086 81.3531 37.1829 81.5148 37.0869 81.5148C36.991 81.5148 36.9124 81.6455 36.9124 81.8055C36.9124 81.9653 36.8493 82.1268 36.7721 82.1645C36.5766 82.2597 35.7352 83.7288 35.3818 84.5921C35.0133 85.4923 34.7996 86.9925 35.0189 87.1411C35.1098 87.2026 35.4677 86.979 35.8144 86.6438C36.1611 86.3088 36.5307 86.0332 36.6361 86.0314C36.7412 86.0295 36.9906 85.682 37.1902 85.2588C37.5103 84.5808 40.5589 79.7304 40.833 79.4633C40.891 79.4069 41.1059 78.9915 41.3108 78.5401C41.5154 78.0888 41.7295 77.6734 41.7863 77.6169C42.0045 77.4003 42.525 75.9979 42.525 75.6268C42.525 75.4124 42.6082 75.1459 42.71 75.0343C42.8118 74.9227 42.9747 72.6113 43.072 69.8975C43.2437 65.1157 43.5128 62.8954 44.1131 61.3075C44.7365 59.6587 44.8703 59.3586 44.9825 59.3586C45.0491 59.3586 45.1587 59.1179 45.2259 58.8239C45.3688 58.2001 47.7879 55.4997 48.6062 55.0508C48.9143 54.8816 49.2086 54.6928 49.26 54.6309C49.4436 54.4103 51.7226 53.4092 52.0412 53.4092C52.2197 53.4092 52.4455 53.3247 52.5434 53.2215C52.641 53.1181 52.9316 53.0028 53.1888 52.9651L53.6565 52.8963L53.7501 49.7602C53.8242 47.2762 53.902 46.5836 54.1243 46.4296C54.2786 46.3227 55.4361 46.2339 56.6967 46.232C58.6104 46.2296 58.9885 46.2796 58.9885 46.5367C58.9885 46.7059 59.0727 46.8444 59.1756 46.8444C59.2917 46.8444 59.3627 47.9748 59.3627 49.8254C59.3627 52.0353 59.4231 52.8253 59.5965 52.8785C59.7252 52.9181 60.2092 53.0643 60.6722 53.2032C61.1353 53.3423 61.6825 53.5296 61.8883 53.6195C62.0941 53.7093 62.6621 53.9526 63.1504 54.1603C63.6389 54.3677 64.0387 54.6069 64.039 54.6914C64.0394 54.7759 64.1281 54.8453 64.2359 54.8453C64.8012 54.8453 67.3149 57.0203 68.0133 58.1137C68.2159 58.4305 68.4226 58.5378 68.6674 58.4526C69.0915 58.3051 69.8394 57.5752 69.8394 57.3091C69.8394 57.0701 67.2919 54.2298 67.0775 54.2298C66.989 54.2298 66.7527 54.0624 66.5523 53.8577C65.9355 53.2274 62.22 51.3577 61.5849 51.3577C61.2616 51.3577 61.2335 51.17 61.2335 49.0106C61.2335 47.667 61.1534 46.6093 61.0464 46.5367C60.9435 46.4669 60.8593 46.2404 60.8593 46.0334C60.8593 45.4986 59.9441 44.4985 59.1945 44.2138C58.379 43.9042 54.8172 43.9388 53.8526 44.2661ZM80.5969 52.3859C80.3911 52.4807 79.9888 52.7858 79.7031 53.0637C79.4173 53.3417 78.8918 53.7871 78.5352 54.0534C78.1784 54.3197 77.8862 54.6069 77.8854 54.6914C77.8847 54.7759 77.8029 54.8453 77.7034 54.8453C77.604 54.8453 77.2645 55.1222 76.9487 55.4607C76.6329 55.7992 76.3143 56.0764 76.2408 56.0764C76.167 56.0766 75.8823 56.2842 75.608 56.538C74.8537 57.2357 74.5001 57.5483 73.5806 58.3299C73.1179 58.7232 72.6279 59.1616 72.4921 59.3044C72.3561 59.447 72.1877 59.5639 72.118 59.5641C72.048 59.5645 71.6963 59.8487 71.3361 60.1958C70.976 60.5429 70.2183 61.2121 69.6524 61.6827C69.0866 62.1533 68.4552 62.706 68.2492 62.9109C68.0434 63.1159 67.6013 63.4696 67.267 63.6971C66.9327 63.9244 66.6571 64.1722 66.6549 64.2477C66.6526 64.323 66.274 64.6617 65.8134 65.0002C65.3528 65.3387 64.9758 65.685 64.9756 65.7695C64.9754 65.854 64.856 65.9234 64.7101 65.9234C64.5644 65.9234 64.4171 65.9933 64.3827 66.0787C64.3485 66.1642 63.9416 66.5542 63.4785 66.9454C63.0155 67.3365 62.5946 67.7057 62.5431 67.7656C62.4917 67.8255 62.1128 68.1462 61.7012 68.4781C61.2896 68.81 60.9108 69.1327 60.8593 69.1955C60.8079 69.2581 60.2607 69.7244 59.6433 70.2315C59.0259 70.7387 58.4787 71.205 58.4272 71.2675C58.3758 71.3303 57.9986 71.6536 57.5891 71.9862C57.1796 72.3187 56.6744 72.7467 56.4666 72.9373C56.2587 73.1281 55.9061 73.4512 55.6829 73.6553C55.4597 73.8596 55.0544 74.2057 54.7824 74.4244C54.5102 74.6429 54.1117 74.9892 53.8968 75.1937C53.6816 75.398 53.4474 75.5654 53.3759 75.5654C53.3046 75.5654 52.9428 75.8886 52.572 76.2835C52.2012 76.6784 51.8456 77.0015 51.7816 77.0015C51.7178 77.0015 51.5545 77.1168 51.4188 77.2579C51.2834 77.3991 50.9386 77.699 50.6531 77.9247C50.3674 78.1503 50.0424 78.4285 49.9307 78.543C49.819 78.6575 49.3489 79.0723 48.8859 79.4647C48.4228 79.8572 48.0159 80.2482 47.9817 80.3338C47.9473 80.4191 47.8 80.4891 47.6543 80.4891C47.5085 80.4891 47.389 80.5584 47.3888 80.6429C47.3886 80.7274 46.9677 81.1113 46.4534 81.4957C45.9391 81.88 45.5178 82.2492 45.517 82.3163C45.5163 82.3832 45.2066 82.6688 44.8289 82.9509C44.4512 83.2329 44.0519 83.556 43.9416 83.6689C43.8312 83.7817 43.2359 84.2833 42.6185 84.7835C42.0011 85.2836 41.4539 85.7501 41.4024 85.8201C41.351 85.89 40.9721 86.2187 40.5606 86.5506C40.149 86.8826 39.7701 87.2032 39.7187 87.2631C39.6672 87.323 39.2463 87.6917 38.7832 88.0819C38.3202 88.4723 37.8501 88.8854 37.7384 88.9999C37.6267 89.1144 37.3017 89.3926 37.016 89.6182C36.7305 89.8439 36.3857 90.144 36.2503 90.285C36.1147 90.4261 35.9442 90.5414 35.8714 90.5414C35.7987 90.5414 35.5442 90.7722 35.3057 91.0543C35.0674 91.3364 34.8202 91.5672 34.7564 91.5672C34.6928 91.5672 34.5297 91.6827 34.394 91.8236C34.2586 91.9648 33.9224 92.2589 33.6472 92.4776C33.3722 92.6961 32.9711 93.0424 32.7561 93.2469C32.5409 93.4513 32.3028 93.6187 32.2266 93.6187C31.8487 93.6187 31.9582 94.2327 32.4452 94.8445C33.0588 95.615 33.2661 95.5754 34.423 94.4657C34.7516 94.1504 35.3194 93.6693 35.6845 93.3967C36.0497 93.1239 36.3491 92.8315 36.3498 92.7468C36.3506 92.6621 36.4392 92.5929 36.5472 92.5929C36.655 92.5929 36.9287 92.3822 37.1552 92.1246C37.3818 91.8671 37.8042 91.4917 38.094 91.2904C38.3838 91.0892 38.7627 90.797 38.9359 90.6411C39.1091 90.4854 39.7552 89.9145 40.3712 89.3725C40.9873 88.8307 41.6558 88.2259 41.8565 88.0283C42.0571 87.831 42.2765 87.6693 42.344 87.6693C42.4116 87.6693 42.7113 87.4352 43.0103 87.1491C43.3094 86.8631 44.0168 86.2398 44.5825 85.7643C45.1481 85.2887 45.8208 84.6922 46.0771 84.4382C46.3336 84.1844 46.6139 83.9766 46.7001 83.9766C46.7862 83.9766 47.0889 83.722 47.3727 83.4108C47.6565 83.0996 48.1966 82.615 48.5731 82.3338C48.9495 82.0525 49.258 81.7532 49.2587 81.6687C49.2595 81.5841 49.3794 81.5148 49.5251 81.5148C49.6709 81.5148 49.8181 81.4455 49.8525 81.3609C49.8868 81.2764 50.3779 80.7935 50.9438 80.2878C51.5097 79.7823 52.0008 79.2975 52.0351 79.2108C52.0695 79.124 52.1965 79.053 52.3178 79.053C52.4388 79.053 52.7649 78.8222 53.0423 78.5401C53.3196 78.258 53.6275 78.0272 53.7263 78.0272C53.8251 78.0272 53.934 77.9546 53.9684 77.8658C54.0027 77.777 54.4062 77.3847 54.8653 76.9939C55.3242 76.6031 55.8963 76.0759 56.1365 75.8219C56.3768 75.5679 56.6379 75.3603 56.7167 75.3603C56.7955 75.3603 57.0231 75.1978 57.2226 74.9994C57.4222 74.8011 57.9642 74.3169 58.4272 73.9238C58.8903 73.5308 59.2972 73.1393 59.3314 73.0538C59.3658 72.9684 59.4717 72.8985 59.5669 72.8985C59.6624 72.8985 60.0045 72.6215 60.3274 72.283C60.6505 71.9445 60.9836 71.6676 61.0677 71.6676C61.1517 71.6676 61.479 71.3906 61.7948 71.0521C62.1106 70.7136 62.4432 70.4367 62.5339 70.4367C62.6247 70.4367 62.727 70.3637 62.7614 70.2744C62.7957 70.185 63.1605 69.8403 63.5721 69.5084C64.7554 68.554 66.1855 67.2712 66.2536 67.103C66.288 67.0185 66.3991 66.9491 66.5009 66.9491C66.6025 66.9491 66.7967 66.8338 66.9323 66.6927C67.0678 66.5518 67.4159 66.2516 67.7059 66.026C67.9957 65.8003 68.3658 65.4772 68.528 65.3079C68.6902 65.1387 69.1568 64.7282 69.565 64.3956C69.9732 64.0631 70.3492 63.7393 70.4007 63.6764C70.4521 63.6134 70.9573 63.1774 71.5232 62.7076C72.0891 62.2379 72.7967 61.6152 73.0959 61.3241C73.3948 61.0328 73.6895 60.7944 73.7507 60.7942C73.8116 60.7938 74.1564 60.517 74.5166 60.1792C74.8767 59.8413 75.2228 59.5645 75.2855 59.5641C75.3484 59.5639 75.6915 59.2636 76.0482 58.897C76.4048 58.5304 76.9311 58.0456 77.2177 57.8199C77.5041 57.5943 77.8495 57.2943 77.985 57.1532C78.1206 57.0123 78.3148 56.8968 78.4164 56.8968C78.5182 56.8968 78.6293 56.8268 78.6637 56.7415C78.6979 56.6559 79.1049 56.2659 79.5679 55.8747C80.0309 55.4837 80.4519 55.1144 80.5033 55.0545C80.5548 54.9946 80.9127 54.6875 81.2984 54.372C81.6844 54.0567 82 53.7235 82 53.6318C82 53.5399 81.7684 53.1833 81.4855 52.8393C81.0835 52.3502 80.8893 52.2513 80.5969 52.3859ZM71.7103 66.4826C71.3502 66.7877 71.0134 67.1007 70.962 67.1783C70.7468 67.5024 71.2778 73.9997 71.6815 75.9827C71.8508 76.8134 73.0652 79.6116 73.3703 79.8736C73.436 79.93 73.8631 80.5301 74.3196 81.2071C74.7759 81.8841 75.2174 82.4688 75.3007 82.5063C75.3839 82.544 75.452 82.6659 75.452 82.7775C75.452 82.8889 75.5573 83.1088 75.6859 83.2662C76.2344 83.937 76.3874 84.1756 76.3874 84.3611C76.3874 84.4694 76.4505 84.5886 76.5277 84.6263C76.8439 84.7804 77.3229 86.0365 77.3229 86.7115C77.3229 87.3148 77.2224 87.4947 76.7148 87.801C76.1495 88.1422 75.0496 88.1754 61.0339 88.2776L45.961 88.3873L45.5058 88.9203C45.2555 89.2135 44.8611 89.5629 44.6297 89.6968C44.3981 89.8308 44.2087 90.0788 44.2087 90.2478C44.2087 90.5191 45.986 90.5457 59.3159 90.4752C69.2598 90.4224 74.8705 90.316 75.7326 90.1642C78.2194 89.7255 79.2766 88.7103 79.2502 86.7861C79.2382 85.9145 78.7629 84.2735 78.4364 83.9766C78.3745 83.9202 78.1646 83.5739 77.97 83.2073C77.7754 82.8407 77.5504 82.5406 77.4695 82.5406C77.3889 82.5406 77.3229 82.4242 77.3229 82.2821C77.3229 82.1399 77.1124 81.7745 76.8551 81.4703C76.5979 81.1663 76.3874 80.8606 76.3874 80.791C76.3874 80.7217 76.2823 80.5362 76.1536 80.3789C75.6505 79.7638 75.452 79.4758 75.452 79.3607C75.452 79.2949 75.3042 79.0669 75.1235 78.8544C74.6429 78.2886 73.5812 76.0131 73.5812 75.5486C73.5812 75.3291 73.5011 74.9892 73.403 74.7933C73.2648 74.5167 72.6386 67.4064 72.6444 66.1798C72.6463 65.7991 72.4373 65.8668 71.7103 66.4826ZM49.591 92.2224C49.4177 92.7919 50.3339 95.065 51.0198 95.7682C52.651 97.44 54.7259 98.2013 57.3137 98.0774C58.9125 98.0007 60.6167 97.6409 60.8593 97.3286C60.9108 97.2624 61.1882 97.0751 61.476 96.9124C62.9487 96.0795 64.414 93.9157 64.414 92.574C64.414 91.9949 64.3866 91.9775 63.4785 91.9775C62.6054 91.9775 62.5431 92.0117 62.5431 92.4903C62.5431 92.7724 62.4589 93.0032 62.356 93.0032C62.2531 93.0032 62.1689 93.123 62.1689 93.2693C62.1689 93.6019 60.8303 95.0547 60.5241 95.0547C60.3999 95.0547 60.2981 95.128 60.2981 95.2176C60.2981 95.8113 55.4653 96.429 55.1532 95.8753C55.0896 95.7625 54.908 95.6702 54.7495 95.6702C53.7447 95.6702 51.8231 93.9254 51.5507 92.7657C51.4007 92.127 51.3307 92.0757 50.5307 92.0183C49.9526 91.9769 49.6452 92.0435 49.591 92.2224Z" fill="white"/>
</svg>
