<svg width="416" height="147" viewBox="0 0 416 147" fill="none" xmlns="http://www.w3.org/2000/svg">
<path d="M0 34C0 15.2223 15.2223 0 34 0H382C400.778 0 416 15.2223 416 34V113C416 131.778 400.778 147 382 147H34C15.2223 147 0 131.778 0 113V34Z" fill="#83984B"/>
<path d="M0 34C0 15.2223 15.2223 0 34 0H382C400.778 0 416 15.2223 416 34V113C416 131.778 400.778 147 382 147H34C15.2223 147 0 131.778 0 113V34Z" stroke="#83984B"/>
<path d="M157.098 35.8182V62H152.879L140.543 44.1662H140.325V62H135.582V35.8182H139.827L152.151 53.6648H152.381V35.8182H157.098ZM170.627 62.3835C168.709 62.3835 167.047 61.9616 165.641 61.1179C164.235 60.2741 163.144 59.0937 162.368 57.5767C161.601 56.0597 161.218 54.2869 161.218 52.2585C161.218 50.2301 161.601 48.4531 162.368 46.9276C163.144 45.402 164.235 44.2173 165.641 43.3736C167.047 42.5298 168.709 42.108 170.627 42.108C172.544 42.108 174.206 42.5298 175.613 43.3736C177.019 44.2173 178.105 45.402 178.873 46.9276C179.648 48.4531 180.036 50.2301 180.036 52.2585C180.036 54.2869 179.648 56.0597 178.873 57.5767C178.105 59.0937 177.019 60.2741 175.613 61.1179C174.206 61.9616 172.544 62.3835 170.627 62.3835ZM170.652 58.6761C171.692 58.6761 172.561 58.3906 173.26 57.8196C173.959 57.2401 174.479 56.4645 174.82 55.4929C175.169 54.5213 175.344 53.4389 175.344 52.2457C175.344 51.044 175.169 49.9574 174.82 48.9858C174.479 48.0057 173.959 47.2259 173.26 46.6463C172.561 46.0668 171.692 45.777 170.652 45.777C169.587 45.777 168.701 46.0668 167.993 46.6463C167.294 47.2259 166.77 48.0057 166.421 48.9858C166.08 49.9574 165.909 51.044 165.909 52.2457C165.909 53.4389 166.08 54.5213 166.421 55.4929C166.77 56.4645 167.294 57.2401 167.993 57.8196C168.701 58.3906 169.587 58.6761 170.652 58.6761ZM193.098 62V35.8182H202.916C204.928 35.8182 206.615 36.1676 207.979 36.8665C209.351 37.5653 210.386 38.5455 211.085 39.8068C211.793 41.0597 212.146 42.5213 212.146 44.1918C212.146 45.8707 211.788 47.3281 211.072 48.5639C210.365 49.7912 209.321 50.7415 207.94 51.4148C206.56 52.0795 204.864 52.4119 202.852 52.4119H195.859V48.4744H202.213C203.389 48.4744 204.352 48.3125 205.102 47.9886C205.852 47.6562 206.406 47.1747 206.764 46.544C207.131 45.9048 207.314 45.1207 207.314 44.1918C207.314 43.2628 207.131 42.4702 206.764 41.8139C206.398 41.1491 205.839 40.6463 205.089 40.3054C204.339 39.956 203.372 39.7812 202.188 39.7812H197.841V62H193.098ZM206.624 50.1364L213.105 62H207.812L201.446 50.1364H206.624ZM228.823 53.7415V42.3636H233.451V62H228.964V58.5099H228.759C228.316 59.6094 227.587 60.5085 226.573 61.2074C225.567 61.9062 224.327 62.2557 222.853 62.2557C221.566 62.2557 220.428 61.9702 219.44 61.3991C218.46 60.8196 217.692 59.9801 217.138 58.8807C216.585 57.7727 216.308 56.4347 216.308 54.8665V42.3636H220.935V54.1506C220.935 55.3949 221.276 56.3835 221.958 57.1165C222.64 57.8494 223.535 58.2159 224.643 58.2159C225.325 58.2159 225.985 58.0497 226.624 57.7173C227.263 57.3849 227.788 56.8906 228.197 56.2344C228.614 55.5696 228.823 54.7386 228.823 53.7415ZM242.838 35.8182V62H238.21V35.8182H242.838ZM256.29 62.3835C254.321 62.3835 252.621 61.9744 251.189 61.1562C249.766 60.3295 248.67 59.1619 247.903 57.6534C247.136 56.1364 246.753 54.3509 246.753 52.2969C246.753 50.277 247.136 48.5043 247.903 46.9787C248.679 45.4446 249.761 44.2514 251.151 43.3991C252.54 42.5384 254.172 42.108 256.047 42.108C257.257 42.108 258.399 42.304 259.473 42.696C260.555 43.0795 261.51 43.6761 262.337 44.4858C263.172 45.2955 263.828 46.3267 264.305 47.5795C264.783 48.8239 265.021 50.3068 265.021 52.0284V53.4474H248.926V50.3281H260.585C260.577 49.4418 260.385 48.6534 260.01 47.9631C259.635 47.2642 259.111 46.7145 258.438 46.3139C257.773 45.9134 256.997 45.7131 256.111 45.7131C255.165 45.7131 254.334 45.9432 253.618 46.4034C252.902 46.8551 252.344 47.4517 251.943 48.1932C251.551 48.9261 251.351 49.7315 251.342 50.6094V53.3324C251.342 54.4744 251.551 55.4545 251.969 56.2727C252.386 57.0824 252.97 57.7045 253.72 58.1392C254.47 58.5653 255.348 58.7784 256.354 58.7784C257.027 58.7784 257.636 58.6847 258.182 58.4972C258.727 58.3011 259.2 58.0156 259.601 57.6406C260.001 57.2656 260.304 56.8011 260.509 56.2472L264.83 56.733C264.557 57.875 264.037 58.8722 263.27 59.7244C262.511 60.5682 261.54 61.2244 260.355 61.6932C259.17 62.1534 257.815 62.3835 256.29 62.3835ZM284.456 47.554L280.238 48.0142C280.118 47.5881 279.909 47.1875 279.611 46.8125C279.321 46.4375 278.929 46.1349 278.435 45.9048C277.941 45.6747 277.336 45.5597 276.62 45.5597C275.657 45.5597 274.847 45.7685 274.191 46.1861C273.543 46.6037 273.223 47.1449 273.232 47.8097C273.223 48.3807 273.432 48.8452 273.858 49.2031C274.293 49.5611 275.009 49.8551 276.006 50.0852L279.355 50.8011C281.213 51.2017 282.594 51.8366 283.498 52.706C284.409 53.5753 284.87 54.7131 284.878 56.1193C284.87 57.3551 284.507 58.446 283.792 59.392C283.084 60.3295 282.1 61.0625 280.838 61.5909C279.577 62.1193 278.128 62.3835 276.492 62.3835C274.088 62.3835 272.154 61.8807 270.688 60.875C269.222 59.8608 268.348 58.4503 268.067 56.6435L272.58 56.2088C272.784 57.0952 273.219 57.7642 273.884 58.2159C274.549 58.6676 275.414 58.8935 276.479 58.8935C277.578 58.8935 278.461 58.6676 279.125 58.2159C279.799 57.7642 280.135 57.206 280.135 56.5412C280.135 55.9787 279.918 55.5142 279.483 55.1477C279.057 54.7812 278.392 54.5 277.489 54.304L274.14 53.6009C272.256 53.2088 270.863 52.5483 269.959 51.6193C269.056 50.6818 268.608 49.4972 268.617 48.0653C268.608 46.8551 268.936 45.8068 269.601 44.9205C270.275 44.0256 271.208 43.3352 272.401 42.8494C273.603 42.3551 274.988 42.108 276.556 42.108C278.857 42.108 280.668 42.598 281.989 43.5781C283.319 44.5582 284.141 45.8835 284.456 47.554ZM297.387 62.3835C295.419 62.3835 293.718 61.9744 292.287 61.1562C290.863 60.3295 289.768 59.1619 289.001 57.6534C288.234 56.1364 287.85 54.3509 287.85 52.2969C287.85 50.277 288.234 48.5043 289.001 46.9787C289.777 45.4446 290.859 44.2514 292.248 43.3991C293.637 42.5384 295.27 42.108 297.145 42.108C298.355 42.108 299.497 42.304 300.571 42.696C301.653 43.0795 302.608 43.6761 303.434 44.4858C304.27 45.2955 304.926 46.3267 305.403 47.5795C305.88 48.8239 306.119 50.3068 306.119 52.0284V53.4474H290.024V50.3281H301.683C301.674 49.4418 301.483 48.6534 301.108 47.9631C300.733 47.2642 300.208 46.7145 299.535 46.3139C298.87 45.9134 298.095 45.7131 297.208 45.7131C296.262 45.7131 295.431 45.9432 294.716 46.4034C294 46.8551 293.441 47.4517 293.041 48.1932C292.649 48.9261 292.449 49.7315 292.44 50.6094V53.3324C292.44 54.4744 292.649 55.4545 293.066 56.2727C293.484 57.0824 294.068 57.7045 294.818 58.1392C295.568 58.5653 296.446 58.7784 297.451 58.7784C298.125 58.7784 298.734 58.6847 299.279 58.4972C299.825 58.3011 300.298 58.0156 300.699 57.6406C301.099 57.2656 301.402 56.8011 301.606 56.2472L305.927 56.733C305.654 57.875 305.135 58.8722 304.368 59.7244C303.609 60.5682 302.637 61.2244 301.453 61.6932C300.268 62.1534 298.913 62.3835 297.387 62.3835ZM319.839 42.3636V45.9432H308.551V42.3636H319.839ZM311.338 37.6591H315.966V56.0938C315.966 56.7159 316.06 57.1932 316.247 57.5256C316.443 57.8494 316.699 58.071 317.014 58.1903C317.33 58.3097 317.679 58.3693 318.062 58.3693C318.352 58.3693 318.616 58.348 318.855 58.3054C319.102 58.2628 319.29 58.2244 319.418 58.1903L320.197 61.8082C319.95 61.8935 319.597 61.9872 319.136 62.0895C318.685 62.1918 318.131 62.2514 317.474 62.2685C316.315 62.3026 315.271 62.1278 314.342 61.7443C313.413 61.3523 312.676 60.7472 312.131 59.929C311.594 59.1108 311.33 58.0881 311.338 56.8608V37.6591ZM338.949 47.554L334.73 48.0142C334.61 47.5881 334.402 47.1875 334.103 46.8125C333.814 46.4375 333.422 46.1349 332.927 45.9048C332.433 45.6747 331.828 45.5597 331.112 45.5597C330.149 45.5597 329.339 45.7685 328.683 46.1861C328.035 46.6037 327.716 47.1449 327.724 47.8097C327.716 48.3807 327.924 48.8452 328.35 49.2031C328.785 49.5611 329.501 49.8551 330.498 50.0852L333.848 50.8011C335.706 51.2017 337.086 51.8366 337.99 52.706C338.902 53.5753 339.362 54.7131 339.37 56.1193C339.362 57.3551 339 58.446 338.284 59.392C337.576 60.3295 336.592 61.0625 335.331 61.5909C334.069 62.1193 332.62 62.3835 330.984 62.3835C328.581 62.3835 326.646 61.8807 325.18 60.875C323.714 59.8608 322.841 58.4503 322.559 56.6435L327.072 56.2088C327.277 57.0952 327.711 57.7642 328.376 58.2159C329.041 58.6676 329.906 58.8935 330.971 58.8935C332.071 58.8935 332.953 58.6676 333.618 58.2159C334.291 57.7642 334.627 57.206 334.627 56.5412C334.627 55.9787 334.41 55.5142 333.975 55.1477C333.549 54.7812 332.885 54.5 331.981 54.304L328.632 53.6009C326.748 53.2088 325.355 52.5483 324.451 51.6193C323.548 50.6818 323.1 49.4972 323.109 48.0653C323.1 46.8551 323.429 45.8068 324.093 44.9205C324.767 44.0256 325.7 43.3352 326.893 42.8494C328.095 42.3551 329.48 42.108 331.048 42.108C333.349 42.108 335.16 42.598 336.481 43.5781C337.811 44.5582 338.633 45.8835 338.949 47.554Z" fill="white"/>
<path d="M140.773 78.2727C140.705 77.697 140.428 77.25 139.943 76.9318C139.458 76.6136 138.864 76.4545 138.159 76.4545C137.644 76.4545 137.193 76.5379 136.807 76.7045C136.424 76.8712 136.125 77.1004 135.909 77.392C135.697 77.6837 135.591 78.0152 135.591 78.3864C135.591 78.697 135.665 78.964 135.812 79.1875C135.964 79.4072 136.157 79.5909 136.392 79.7386C136.627 79.8826 136.873 80.0019 137.131 80.0966C137.388 80.1875 137.625 80.2614 137.841 80.3182L139.023 80.6364C139.326 80.7159 139.663 80.8258 140.034 80.9659C140.409 81.1061 140.767 81.2973 141.108 81.5398C141.453 81.7784 141.737 82.0852 141.96 82.4602C142.184 82.8352 142.295 83.2955 142.295 83.8409C142.295 84.4697 142.131 85.0379 141.801 85.5455C141.475 86.053 140.998 86.4564 140.369 86.7557C139.744 87.0549 138.985 87.2045 138.091 87.2045C137.258 87.2045 136.536 87.0701 135.926 86.8011C135.32 86.5322 134.843 86.1572 134.494 85.6761C134.15 85.1951 133.955 84.6364 133.909 84H135.364C135.402 84.4394 135.549 84.803 135.807 85.0909C136.068 85.375 136.398 85.5871 136.795 85.7273C137.197 85.8636 137.629 85.9318 138.091 85.9318C138.629 85.9318 139.112 85.8447 139.54 85.6705C139.968 85.4924 140.307 85.2462 140.557 84.9318C140.807 84.6136 140.932 84.2424 140.932 83.8182C140.932 83.4318 140.824 83.1174 140.608 82.875C140.392 82.6326 140.108 82.4356 139.756 82.2841C139.403 82.1326 139.023 82 138.614 81.8864L137.182 81.4773C136.273 81.2159 135.553 80.8428 135.023 80.358C134.492 79.8731 134.227 79.2386 134.227 78.4545C134.227 77.803 134.403 77.2348 134.756 76.75C135.112 76.2614 135.589 75.8826 136.188 75.6136C136.79 75.3409 137.462 75.2045 138.205 75.2045C138.955 75.2045 139.621 75.339 140.205 75.608C140.788 75.8731 141.25 76.2367 141.591 76.6989C141.936 77.161 142.117 77.6856 142.136 78.2727H140.773ZM148.089 87.1818C147.249 87.1818 146.523 86.9962 145.913 86.625C145.307 86.25 144.839 85.7273 144.51 85.0568C144.184 84.3826 144.021 83.5985 144.021 82.7045C144.021 81.8106 144.184 81.0227 144.51 80.3409C144.839 79.6553 145.298 79.1212 145.885 78.7386C146.476 78.3523 147.165 78.1591 147.953 78.1591C148.408 78.1591 148.857 78.2348 149.3 78.3864C149.743 78.5379 150.146 78.7841 150.51 79.125C150.874 79.4621 151.163 79.9091 151.379 80.4659C151.595 81.0227 151.703 81.7083 151.703 82.5227V83.0909H144.976V81.9318H150.339C150.339 81.4394 150.241 81 150.044 80.6136C149.851 80.2273 149.574 79.9223 149.214 79.6989C148.858 79.4754 148.438 79.3636 147.953 79.3636C147.419 79.3636 146.957 79.4962 146.567 79.7614C146.18 80.0227 145.883 80.3636 145.675 80.7841C145.466 81.2045 145.362 81.6553 145.362 82.1364V82.9091C145.362 83.5682 145.476 84.1269 145.703 84.5852C145.934 85.0398 146.254 85.3864 146.663 85.625C147.072 85.8598 147.548 85.9773 148.089 85.9773C148.442 85.9773 148.76 85.928 149.044 85.8295C149.332 85.7273 149.58 85.5758 149.788 85.375C149.997 85.1705 150.158 84.9167 150.271 84.6136L151.567 84.9773C151.43 85.4167 151.201 85.803 150.879 86.1364C150.557 86.4659 150.16 86.7235 149.686 86.9091C149.213 87.0909 148.68 87.1818 148.089 87.1818ZM155.084 75.3636V87H153.743V75.3636H155.084ZM161.426 78.2727V79.4091H156.722V78.2727H161.426ZM158.131 87V77.0682C158.131 76.5682 158.248 76.1515 158.483 75.8182C158.718 75.4848 159.023 75.2348 159.398 75.0682C159.773 74.9015 160.169 74.8182 160.585 74.8182C160.915 74.8182 161.184 74.8447 161.392 74.8977C161.6 74.9508 161.756 75 161.858 75.0455L161.472 76.2045C161.403 76.1818 161.309 76.1534 161.188 76.1193C161.07 76.0852 160.915 76.0682 160.722 76.0682C160.278 76.0682 159.958 76.1799 159.761 76.4034C159.568 76.6269 159.472 76.9545 159.472 77.3864V87H158.131ZM167.852 81.3864V82.6364H162.761V81.3864H167.852ZM174.007 78.2727V79.4091H169.484V78.2727H174.007ZM170.803 76.1818H172.143V84.5C172.143 84.8788 172.198 85.1629 172.308 85.3523C172.422 85.5379 172.566 85.6629 172.74 85.7273C172.918 85.7879 173.106 85.8182 173.303 85.8182C173.45 85.8182 173.571 85.8106 173.666 85.7955C173.761 85.7765 173.837 85.7614 173.893 85.75L174.166 86.9545C174.075 86.9886 173.948 87.0227 173.786 87.0568C173.623 87.0947 173.416 87.1136 173.166 87.1136C172.787 87.1136 172.416 87.0322 172.053 86.8693C171.693 86.7064 171.393 86.4583 171.155 86.125C170.92 85.7917 170.803 85.3712 170.803 84.8636V76.1818ZM181.524 83.4318V78.2727H182.865V87H181.524V85.5227H181.433C181.229 85.9659 180.911 86.3428 180.479 86.6534C180.047 86.9602 179.501 87.1136 178.842 87.1136C178.297 87.1136 177.812 86.9943 177.388 86.7557C176.964 86.5133 176.63 86.1496 176.388 85.6648C176.145 85.1761 176.024 84.5606 176.024 83.8182V78.2727H177.365V83.7273C177.365 84.3636 177.543 84.8712 177.899 85.25C178.259 85.6288 178.717 85.8182 179.274 85.8182C179.607 85.8182 179.946 85.733 180.291 85.5625C180.64 85.392 180.931 85.1307 181.166 84.7784C181.405 84.4261 181.524 83.9773 181.524 83.4318ZM186.662 81.75V87H185.321V78.2727H186.616V79.6364H186.73C186.935 79.1932 187.245 78.8371 187.662 78.5682C188.079 78.2955 188.616 78.1591 189.276 78.1591C189.866 78.1591 190.384 78.2803 190.827 78.5227C191.27 78.7614 191.615 79.125 191.861 79.6136C192.107 80.0985 192.23 80.7121 192.23 81.4545V87H190.889V81.5455C190.889 80.8598 190.711 80.3258 190.355 79.9432C189.999 79.5568 189.51 79.3636 188.889 79.3636C188.461 79.3636 188.079 79.4564 187.741 79.642C187.408 79.8277 187.145 80.0985 186.952 80.4545C186.759 80.8106 186.662 81.2424 186.662 81.75ZM194.68 87V78.2727H196.021V87H194.68ZM195.362 76.8182C195.101 76.8182 194.875 76.7292 194.686 76.5511C194.5 76.3731 194.408 76.1591 194.408 75.9091C194.408 75.6591 194.5 75.4451 194.686 75.267C194.875 75.089 195.101 75 195.362 75C195.624 75 195.847 75.089 196.033 75.267C196.222 75.4451 196.317 75.6591 196.317 75.9091C196.317 76.1591 196.222 76.3731 196.033 76.5511C195.847 76.7292 195.624 76.8182 195.362 76.8182ZM199.818 81.75V87H198.477V78.2727H199.773V79.6364H199.886C200.091 79.1932 200.402 78.8371 200.818 78.5682C201.235 78.2955 201.773 78.1591 202.432 78.1591C203.023 78.1591 203.54 78.2803 203.983 78.5227C204.426 78.7614 204.771 79.125 205.017 79.6136C205.263 80.0985 205.386 80.7121 205.386 81.4545V87H204.045V81.5455C204.045 80.8598 203.867 80.3258 203.511 79.9432C203.155 79.5568 202.667 79.3636 202.045 79.3636C201.617 79.3636 201.235 79.4564 200.898 79.642C200.564 79.8277 200.301 80.0985 200.108 80.4545C199.915 80.8106 199.818 81.2424 199.818 81.75ZM211.359 90.4545C210.712 90.4545 210.155 90.3712 209.689 90.2045C209.223 90.0417 208.835 89.8258 208.524 89.5568C208.217 89.2917 207.973 89.0076 207.791 88.7045L208.859 87.9545C208.981 88.1136 209.134 88.2955 209.32 88.5C209.505 88.7083 209.759 88.8883 210.081 89.0398C210.407 89.1951 210.833 89.2727 211.359 89.2727C212.064 89.2727 212.645 89.1023 213.104 88.7614C213.562 88.4205 213.791 87.8864 213.791 87.1591V85.3864H213.678C213.579 85.5455 213.439 85.7424 213.257 85.9773C213.079 86.2083 212.821 86.4148 212.484 86.5966C212.151 86.7746 211.7 86.8636 211.132 86.8636C210.428 86.8636 209.795 86.697 209.234 86.3636C208.678 86.0303 208.236 85.5455 207.911 84.9091C207.589 84.2727 207.428 83.5 207.428 82.5909C207.428 81.697 207.585 80.9186 207.899 80.2557C208.214 79.589 208.651 79.0739 209.212 78.7102C209.772 78.3428 210.42 78.1591 211.155 78.1591C211.723 78.1591 212.174 78.2538 212.507 78.4432C212.844 78.6288 213.102 78.8409 213.28 79.0795C213.462 79.3144 213.602 79.5076 213.7 79.6591H213.837V78.2727H215.132V87.25C215.132 88 214.962 88.6098 214.621 89.0795C214.284 89.553 213.829 89.8996 213.257 90.1193C212.689 90.3428 212.056 90.4545 211.359 90.4545ZM211.314 85.6591C211.852 85.6591 212.306 85.536 212.678 85.2898C213.049 85.0436 213.331 84.6894 213.524 84.2273C213.717 83.7652 213.814 83.2121 213.814 82.5682C213.814 81.9394 213.719 81.3845 213.53 80.9034C213.34 80.4223 213.06 80.0455 212.689 79.7727C212.318 79.5 211.859 79.3636 211.314 79.3636C210.746 79.3636 210.272 79.5076 209.893 79.7955C209.518 80.0833 209.236 80.4697 209.047 80.9545C208.861 81.4394 208.768 81.9773 208.768 82.5682C208.768 83.1742 208.863 83.7102 209.053 84.1761C209.246 84.6383 209.53 85.0019 209.905 85.267C210.284 85.5284 210.753 85.6591 211.314 85.6591ZM227.587 83.4318V78.2727H228.928V87H227.587V85.5227H227.496C227.291 85.9659 226.973 86.3428 226.541 86.6534C226.109 86.9602 225.564 87.1136 224.905 87.1136C224.359 87.1136 223.875 86.9943 223.45 86.7557C223.026 86.5133 222.693 86.1496 222.45 85.6648C222.208 85.1761 222.087 84.5606 222.087 83.8182V78.2727H223.428V83.7273C223.428 84.3636 223.606 84.8712 223.962 85.25C224.321 85.6288 224.78 85.8182 225.337 85.8182C225.67 85.8182 226.009 85.733 226.354 85.5625C226.702 85.392 226.994 85.1307 227.229 84.7784C227.467 84.4261 227.587 83.9773 227.587 83.4318ZM232.724 81.75V87H231.384V78.2727H232.679V79.6364H232.793C232.997 79.1932 233.308 78.8371 233.724 78.5682C234.141 78.2955 234.679 78.1591 235.338 78.1591C235.929 78.1591 236.446 78.2803 236.889 78.5227C237.332 78.7614 237.677 79.125 237.923 79.6136C238.17 80.0985 238.293 80.7121 238.293 81.4545V87H236.952V81.5455C236.952 80.8598 236.774 80.3258 236.418 79.9432C236.062 79.5568 235.573 79.3636 234.952 79.3636C234.524 79.3636 234.141 79.4564 233.804 79.642C233.471 79.8277 233.207 80.0985 233.014 80.4545C232.821 80.8106 232.724 81.2424 232.724 81.75ZM246.925 80.2273L245.72 80.5682C245.644 80.3674 245.533 80.1723 245.385 79.983C245.241 79.7898 245.044 79.6307 244.794 79.5057C244.544 79.3807 244.224 79.3182 243.834 79.3182C243.3 79.3182 242.855 79.4413 242.499 79.6875C242.146 79.9299 241.97 80.2386 241.97 80.6136C241.97 80.947 242.091 81.2102 242.334 81.4034C242.576 81.5966 242.955 81.7576 243.47 81.8864L244.766 82.2045C245.546 82.3939 246.127 82.6837 246.51 83.0739C246.893 83.4602 247.084 83.9583 247.084 84.5682C247.084 85.0682 246.94 85.5152 246.652 85.9091C246.368 86.303 245.97 86.6136 245.459 86.8409C244.947 87.0682 244.353 87.1818 243.675 87.1818C242.785 87.1818 242.048 86.9886 241.464 86.6023C240.881 86.2159 240.512 85.6515 240.357 84.9091L241.629 84.5909C241.75 85.0606 241.98 85.4129 242.317 85.6477C242.658 85.8826 243.103 86 243.652 86C244.277 86 244.773 85.8674 245.141 85.6023C245.512 85.3333 245.697 85.0114 245.697 84.6364C245.697 84.3333 245.591 84.0795 245.379 83.875C245.167 83.6667 244.841 83.5114 244.402 83.4091L242.947 83.0682C242.148 82.8788 241.561 82.5852 241.186 82.1875C240.815 81.786 240.629 81.2841 240.629 80.6818C240.629 80.1894 240.768 79.7538 241.044 79.375C241.324 78.9962 241.705 78.6989 242.186 78.483C242.671 78.267 243.22 78.1591 243.834 78.1591C244.697 78.1591 245.375 78.3485 245.868 78.7273C246.364 79.1061 246.716 79.6061 246.925 80.2273ZM254.602 83.4318V78.2727H255.943V87H254.602V85.5227H254.511C254.307 85.9659 253.989 86.3428 253.557 86.6534C253.125 86.9602 252.58 87.1136 251.92 87.1136C251.375 87.1136 250.89 86.9943 250.466 86.7557C250.042 86.5133 249.708 86.1496 249.466 85.6648C249.223 85.1761 249.102 84.5606 249.102 83.8182V78.2727H250.443V83.7273C250.443 84.3636 250.621 84.8712 250.977 85.25C251.337 85.6288 251.795 85.8182 252.352 85.8182C252.686 85.8182 253.025 85.733 253.369 85.5625C253.718 85.392 254.009 85.1307 254.244 84.7784C254.483 84.4261 254.602 83.9773 254.602 83.4318ZM258.399 90.2727V78.2727H259.695V79.6591H259.854C259.952 79.5076 260.089 79.3144 260.263 79.0795C260.441 78.8409 260.695 78.6288 261.024 78.4432C261.357 78.2538 261.808 78.1591 262.376 78.1591C263.111 78.1591 263.759 78.3428 264.32 78.7102C264.88 79.0777 265.318 79.5985 265.632 80.2727C265.946 80.947 266.104 81.7424 266.104 82.6591C266.104 83.5833 265.946 84.3845 265.632 85.0625C265.318 85.7367 264.882 86.2595 264.325 86.6307C263.768 86.9981 263.126 87.1818 262.399 87.1818C261.839 87.1818 261.39 87.089 261.053 86.9034C260.715 86.714 260.456 86.5 260.274 86.2614C260.092 86.0189 259.952 85.8182 259.854 85.6591H259.74V90.2727H258.399ZM259.717 82.6364C259.717 83.2955 259.814 83.8769 260.007 84.3807C260.2 84.8807 260.482 85.2727 260.854 85.5568C261.225 85.8371 261.679 85.9773 262.217 85.9773C262.778 85.9773 263.246 85.8295 263.621 85.5341C264 85.2348 264.284 84.8333 264.473 84.3295C264.666 83.822 264.763 83.2576 264.763 82.6364C264.763 82.0227 264.668 81.4697 264.479 80.9773C264.293 80.4811 264.011 80.089 263.632 79.8011C263.257 79.5095 262.786 79.3636 262.217 79.3636C261.672 79.3636 261.214 79.5019 260.842 79.7784C260.471 80.0511 260.191 80.4337 260.001 80.9261C259.812 81.4148 259.717 81.9848 259.717 82.6364ZM271.808 87.1818C270.967 87.1818 270.242 86.9962 269.632 86.625C269.026 86.25 268.558 85.7273 268.229 85.0568C267.903 84.3826 267.74 83.5985 267.74 82.7045C267.74 81.8106 267.903 81.0227 268.229 80.3409C268.558 79.6553 269.017 79.1212 269.604 78.7386C270.195 78.3523 270.884 78.1591 271.672 78.1591C272.126 78.1591 272.575 78.2348 273.018 78.3864C273.462 78.5379 273.865 78.7841 274.229 79.125C274.592 79.4621 274.882 79.9091 275.098 80.4659C275.314 81.0227 275.422 81.7083 275.422 82.5227V83.0909H268.695V81.9318H274.058C274.058 81.4394 273.96 81 273.763 80.6136C273.57 80.2273 273.293 79.9223 272.933 79.6989C272.577 79.4754 272.157 79.3636 271.672 79.3636C271.138 79.3636 270.676 79.4962 270.286 79.7614C269.899 80.0227 269.602 80.3636 269.393 80.7841C269.185 81.2045 269.081 81.6553 269.081 82.1364V82.9091C269.081 83.5682 269.195 84.1269 269.422 84.5852C269.653 85.0398 269.973 85.3864 270.382 85.625C270.791 85.8598 271.267 85.9773 271.808 85.9773C272.161 85.9773 272.479 85.928 272.763 85.8295C273.051 85.7273 273.299 85.5758 273.507 85.375C273.715 85.1705 273.876 84.9167 273.99 84.6136L275.286 84.9773C275.149 85.4167 274.92 85.803 274.598 86.1364C274.276 86.4659 273.878 86.7235 273.405 86.9091C272.931 87.0909 272.399 87.1818 271.808 87.1818ZM277.462 87V78.2727H278.757V79.5909H278.848C279.007 79.1591 279.295 78.8087 279.712 78.5398C280.128 78.2708 280.598 78.1364 281.121 78.1364C281.219 78.1364 281.342 78.1383 281.49 78.142C281.638 78.1458 281.75 78.1515 281.825 78.1591V79.5227C281.78 79.5114 281.676 79.4943 281.513 79.4716C281.354 79.4451 281.185 79.4318 281.007 79.4318C280.583 79.4318 280.204 79.5208 279.871 79.6989C279.541 79.8731 279.28 80.1155 279.087 80.4261C278.897 80.733 278.803 81.0833 278.803 81.4773V87H277.462ZM290.817 78.2727L287.589 87H286.226L282.999 78.2727H284.453L286.862 85.2273H286.953L289.362 78.2727H290.817ZM292.587 87V78.2727H293.928V87H292.587ZM293.268 76.8182C293.007 76.8182 292.782 76.7292 292.592 76.5511C292.407 76.3731 292.314 76.1591 292.314 75.9091C292.314 75.6591 292.407 75.4451 292.592 75.267C292.782 75.089 293.007 75 293.268 75C293.53 75 293.753 75.089 293.939 75.267C294.128 75.4451 294.223 75.6591 294.223 75.9091C294.223 76.1591 294.128 76.3731 293.939 76.5511C293.753 76.7292 293.53 76.8182 293.268 76.8182ZM302.565 80.2273L301.361 80.5682C301.285 80.3674 301.173 80.1723 301.026 79.983C300.882 79.7898 300.685 79.6307 300.435 79.5057C300.185 79.3807 299.865 79.3182 299.474 79.3182C298.94 79.3182 298.495 79.4413 298.139 79.6875C297.787 79.9299 297.611 80.2386 297.611 80.6136C297.611 80.947 297.732 81.2102 297.974 81.4034C298.217 81.5966 298.596 81.7576 299.111 81.8864L300.406 82.2045C301.187 82.3939 301.768 82.6837 302.151 83.0739C302.533 83.4602 302.724 83.9583 302.724 84.5682C302.724 85.0682 302.58 85.5152 302.293 85.9091C302.009 86.303 301.611 86.6136 301.099 86.8409C300.588 87.0682 299.993 87.1818 299.315 87.1818C298.425 87.1818 297.688 86.9886 297.105 86.6023C296.522 86.2159 296.152 85.6515 295.997 84.9091L297.27 84.5909C297.391 85.0606 297.62 85.4129 297.957 85.6477C298.298 85.8826 298.743 86 299.293 86C299.918 86 300.414 85.8674 300.781 85.6023C301.152 85.3333 301.338 85.0114 301.338 84.6364C301.338 84.3333 301.232 84.0795 301.02 83.875C300.808 83.6667 300.482 83.5114 300.043 83.4091L298.588 83.0682C297.789 82.8788 297.202 82.5852 296.827 82.1875C296.455 81.786 296.27 81.2841 296.27 80.6818C296.27 80.1894 296.408 79.7538 296.685 79.375C296.965 78.9962 297.346 78.6989 297.827 78.483C298.312 78.267 298.861 78.1591 299.474 78.1591C300.338 78.1591 301.016 78.3485 301.509 78.7273C302.005 79.1061 302.357 79.6061 302.565 80.2273ZM308.402 87.1818C307.561 87.1818 306.836 86.9962 306.226 86.625C305.62 86.25 305.152 85.7273 304.822 85.0568C304.497 84.3826 304.334 83.5985 304.334 82.7045C304.334 81.8106 304.497 81.0227 304.822 80.3409C305.152 79.6553 305.61 79.1212 306.197 78.7386C306.788 78.3523 307.478 78.1591 308.266 78.1591C308.72 78.1591 309.169 78.2348 309.612 78.3864C310.055 78.5379 310.459 78.7841 310.822 79.125C311.186 79.4621 311.476 79.9091 311.692 80.4659C311.908 81.0227 312.016 81.7083 312.016 82.5227V83.0909H305.288V81.9318H310.652C310.652 81.4394 310.554 81 310.357 80.6136C310.163 80.2273 309.887 79.9223 309.527 79.6989C309.171 79.4754 308.75 79.3636 308.266 79.3636C307.732 79.3636 307.269 79.4962 306.879 79.7614C306.493 80.0227 306.196 80.3636 305.987 80.7841C305.779 81.2045 305.675 81.6553 305.675 82.1364V82.9091C305.675 83.5682 305.788 84.1269 306.016 84.5852C306.247 85.0398 306.567 85.3864 306.976 85.625C307.385 85.8598 307.86 85.9773 308.402 85.9773C308.754 85.9773 309.072 85.928 309.357 85.8295C309.644 85.7273 309.893 85.5758 310.101 85.375C310.309 85.1705 310.47 84.9167 310.584 84.6136L311.879 84.9773C311.743 85.4167 311.514 85.803 311.192 86.1364C310.87 86.4659 310.472 86.7235 309.999 86.9091C309.525 87.0909 308.993 87.1818 308.402 87.1818ZM317.351 87.1818C316.624 87.1818 315.982 86.9981 315.425 86.6307C314.868 86.2595 314.432 85.7367 314.118 85.0625C313.804 84.3845 313.646 83.5833 313.646 82.6591C313.646 81.7424 313.804 80.947 314.118 80.2727C314.432 79.5985 314.87 79.0777 315.43 78.7102C315.991 78.3428 316.639 78.1591 317.374 78.1591C317.942 78.1591 318.391 78.2538 318.72 78.4432C319.054 78.6288 319.307 78.8409 319.482 79.0795C319.66 79.3144 319.798 79.5076 319.896 79.6591H320.01V75.3636H321.351V87H320.055V85.6591H319.896C319.798 85.8182 319.658 86.0189 319.476 86.2614C319.294 86.5 319.035 86.714 318.697 86.9034C318.36 87.089 317.911 87.1818 317.351 87.1818ZM317.533 85.9773C318.071 85.9773 318.525 85.8371 318.896 85.5568C319.268 85.2727 319.55 84.8807 319.743 84.3807C319.936 83.8769 320.033 83.2955 320.033 82.6364C320.033 81.9848 319.938 81.4148 319.749 80.9261C319.559 80.4337 319.279 80.0511 318.908 79.7784C318.536 79.5019 318.078 79.3636 317.533 79.3636C316.964 79.3636 316.491 79.5095 316.112 79.8011C315.737 80.089 315.455 80.4811 315.266 80.9773C315.08 81.4697 314.987 82.0227 314.987 82.6364C314.987 83.2576 315.082 83.822 315.271 84.3295C315.464 84.8333 315.749 85.2348 316.124 85.5341C316.502 85.8295 316.972 85.9773 317.533 85.9773ZM329.152 87H327.675L331.947 75.3636H333.402L337.675 87H336.197L332.72 77.2045H332.629L329.152 87ZM329.697 82.4545H335.652V83.7045H329.697V82.4545ZM340.896 75.3636V87H339.487V75.3636H340.896ZM348.54 81.3864V82.6364H343.449V81.3864H348.54ZM134.227 109.273V97.2727H135.523V98.6591H135.682C135.78 98.5076 135.917 98.3144 136.091 98.0795C136.269 97.8409 136.523 97.6288 136.852 97.4432C137.186 97.2538 137.636 97.1591 138.205 97.1591C138.939 97.1591 139.587 97.3428 140.148 97.7102C140.708 98.0777 141.146 98.5985 141.46 99.2727C141.775 99.947 141.932 100.742 141.932 101.659C141.932 102.583 141.775 103.384 141.46 104.062C141.146 104.737 140.71 105.259 140.153 105.631C139.597 105.998 138.955 106.182 138.227 106.182C137.667 106.182 137.218 106.089 136.881 105.903C136.544 105.714 136.284 105.5 136.102 105.261C135.92 105.019 135.78 104.818 135.682 104.659H135.568V109.273H134.227ZM135.545 101.636C135.545 102.295 135.642 102.877 135.835 103.381C136.028 103.881 136.311 104.273 136.682 104.557C137.053 104.837 137.508 104.977 138.045 104.977C138.606 104.977 139.074 104.83 139.449 104.534C139.828 104.235 140.112 103.833 140.301 103.33C140.494 102.822 140.591 102.258 140.591 101.636C140.591 101.023 140.496 100.47 140.307 99.9773C140.121 99.4811 139.839 99.089 139.46 98.8011C139.085 98.5095 138.614 98.3636 138.045 98.3636C137.5 98.3636 137.042 98.5019 136.67 98.7784C136.299 99.0511 136.019 99.4337 135.83 99.9261C135.64 100.415 135.545 100.985 135.545 101.636ZM147.523 106.182C146.735 106.182 146.044 105.994 145.449 105.619C144.858 105.244 144.396 104.72 144.062 104.045C143.733 103.371 143.568 102.583 143.568 101.682C143.568 100.773 143.733 99.9792 144.062 99.3011C144.396 98.6231 144.858 98.0966 145.449 97.7216C146.044 97.3466 146.735 97.1591 147.523 97.1591C148.311 97.1591 149 97.3466 149.591 97.7216C150.186 98.0966 150.648 98.6231 150.977 99.3011C151.311 99.9792 151.477 100.773 151.477 101.682C151.477 102.583 151.311 103.371 150.977 104.045C150.648 104.72 150.186 105.244 149.591 105.619C149 105.994 148.311 106.182 147.523 106.182ZM147.523 104.977C148.121 104.977 148.614 104.824 149 104.517C149.386 104.21 149.672 103.807 149.858 103.307C150.044 102.807 150.136 102.265 150.136 101.682C150.136 101.098 150.044 100.555 149.858 100.051C149.672 99.5473 149.386 99.1402 149 98.8295C148.614 98.5189 148.121 98.3636 147.523 98.3636C146.924 98.3636 146.432 98.5189 146.045 98.8295C145.659 99.1402 145.373 99.5473 145.188 100.051C145.002 100.555 144.909 101.098 144.909 101.682C144.909 102.265 145.002 102.807 145.188 103.307C145.373 103.807 145.659 104.21 146.045 104.517C146.432 104.824 146.924 104.977 147.523 104.977ZM155.205 106L152.545 97.2727H153.955L155.841 103.955H155.932L157.795 97.2727H159.227L161.068 103.932H161.159L163.045 97.2727H164.455L161.795 106H160.477L158.568 99.2955H158.432L156.523 106H155.205ZM169.589 106.182C168.749 106.182 168.023 105.996 167.413 105.625C166.807 105.25 166.339 104.727 166.01 104.057C165.684 103.383 165.521 102.598 165.521 101.705C165.521 100.811 165.684 100.023 166.01 99.3409C166.339 98.6553 166.798 98.1212 167.385 97.7386C167.976 97.3523 168.665 97.1591 169.453 97.1591C169.908 97.1591 170.357 97.2348 170.8 97.3864C171.243 97.5379 171.646 97.7841 172.01 98.125C172.374 98.4621 172.663 98.9091 172.879 99.4659C173.095 100.023 173.203 100.708 173.203 101.523V102.091H166.476V100.932H171.839C171.839 100.439 171.741 100 171.544 99.6136C171.351 99.2273 171.074 98.9223 170.714 98.6989C170.358 98.4754 169.938 98.3636 169.453 98.3636C168.919 98.3636 168.457 98.4962 168.067 98.7614C167.68 99.0227 167.383 99.3636 167.175 99.7841C166.966 100.205 166.862 100.655 166.862 101.136V101.909C166.862 102.568 166.976 103.127 167.203 103.585C167.434 104.04 167.754 104.386 168.163 104.625C168.572 104.86 169.048 104.977 169.589 104.977C169.942 104.977 170.26 104.928 170.544 104.83C170.832 104.727 171.08 104.576 171.288 104.375C171.497 104.17 171.658 103.917 171.771 103.614L173.067 103.977C172.93 104.417 172.701 104.803 172.379 105.136C172.057 105.466 171.66 105.723 171.186 105.909C170.713 106.091 170.18 106.182 169.589 106.182ZM175.243 106V97.2727H176.538V98.5909H176.629C176.788 98.1591 177.076 97.8087 177.493 97.5398C177.91 97.2708 178.379 97.1364 178.902 97.1364C179 97.1364 179.124 97.1383 179.271 97.142C179.419 97.1458 179.531 97.1515 179.607 97.1591V98.5227C179.561 98.5114 179.457 98.4943 179.294 98.4716C179.135 98.4451 178.966 98.4318 178.788 98.4318C178.364 98.4318 177.985 98.5208 177.652 98.6989C177.322 98.8731 177.061 99.1155 176.868 99.4261C176.679 99.733 176.584 100.083 176.584 100.477V106H175.243ZM184.589 106.182C183.749 106.182 183.023 105.996 182.413 105.625C181.807 105.25 181.339 104.727 181.01 104.057C180.684 103.383 180.521 102.598 180.521 101.705C180.521 100.811 180.684 100.023 181.01 99.3409C181.339 98.6553 181.798 98.1212 182.385 97.7386C182.976 97.3523 183.665 97.1591 184.453 97.1591C184.908 97.1591 185.357 97.2348 185.8 97.3864C186.243 97.5379 186.646 97.7841 187.01 98.125C187.374 98.4621 187.663 98.9091 187.879 99.4659C188.095 100.023 188.203 100.708 188.203 101.523V102.091H181.476V100.932H186.839C186.839 100.439 186.741 100 186.544 99.6136C186.351 99.2273 186.074 98.9223 185.714 98.6989C185.358 98.4754 184.938 98.3636 184.453 98.3636C183.919 98.3636 183.457 98.4962 183.067 98.7614C182.68 99.0227 182.383 99.3636 182.175 99.7841C181.966 100.205 181.862 100.655 181.862 101.136V101.909C181.862 102.568 181.976 103.127 182.203 103.585C182.434 104.04 182.754 104.386 183.163 104.625C183.572 104.86 184.048 104.977 184.589 104.977C184.942 104.977 185.26 104.928 185.544 104.83C185.832 104.727 186.08 104.576 186.288 104.375C186.497 104.17 186.658 103.917 186.771 103.614L188.067 103.977C187.93 104.417 187.701 104.803 187.379 105.136C187.057 105.466 186.66 105.723 186.186 105.909C185.713 106.091 185.18 106.182 184.589 106.182ZM193.538 106.182C192.811 106.182 192.169 105.998 191.612 105.631C191.055 105.259 190.62 104.737 190.305 104.062C189.991 103.384 189.834 102.583 189.834 101.659C189.834 100.742 189.991 99.947 190.305 99.2727C190.62 98.5985 191.057 98.0777 191.618 97.7102C192.179 97.3428 192.826 97.1591 193.561 97.1591C194.129 97.1591 194.578 97.2538 194.908 97.4432C195.241 97.6288 195.495 97.8409 195.669 98.0795C195.847 98.3144 195.985 98.5076 196.084 98.6591H196.197V94.3636H197.538V106H196.243V104.659H196.084C195.985 104.818 195.845 105.019 195.663 105.261C195.482 105.5 195.222 105.714 194.885 105.903C194.548 106.089 194.099 106.182 193.538 106.182ZM193.72 104.977C194.258 104.977 194.713 104.837 195.084 104.557C195.455 104.273 195.737 103.881 195.93 103.381C196.124 102.877 196.22 102.295 196.22 101.636C196.22 100.985 196.125 100.415 195.936 99.9261C195.747 99.4337 195.466 99.0511 195.095 98.7784C194.724 98.5019 194.266 98.3636 193.72 98.3636C193.152 98.3636 192.679 98.5095 192.3 98.8011C191.925 99.089 191.643 99.4811 191.453 99.9773C191.268 100.47 191.175 101.023 191.175 101.636C191.175 102.258 191.269 102.822 191.459 103.33C191.652 103.833 191.936 104.235 192.311 104.534C192.69 104.83 193.16 104.977 193.72 104.977ZM208.476 97.2727V98.4091H203.953V97.2727H208.476ZM205.271 95.1818H206.612V103.5C206.612 103.879 206.667 104.163 206.777 104.352C206.891 104.538 207.035 104.663 207.209 104.727C207.387 104.788 207.574 104.818 207.771 104.818C207.919 104.818 208.04 104.811 208.135 104.795C208.23 104.777 208.305 104.761 208.362 104.75L208.635 105.955C208.544 105.989 208.417 106.023 208.254 106.057C208.091 106.095 207.885 106.114 207.635 106.114C207.256 106.114 206.885 106.032 206.521 105.869C206.161 105.706 205.862 105.458 205.624 105.125C205.389 104.792 205.271 104.371 205.271 103.864V95.1818ZM212.021 100.75V106H210.68V94.3636H212.021V98.6364H212.135C212.339 98.1856 212.646 97.8277 213.055 97.5625C213.468 97.2936 214.018 97.1591 214.703 97.1591C215.298 97.1591 215.819 97.2784 216.266 97.517C216.713 97.7519 217.059 98.1136 217.305 98.6023C217.555 99.0871 217.68 99.7045 217.68 100.455V106H216.339V100.545C216.339 99.8523 216.16 99.3163 215.8 98.9375C215.444 98.5549 214.949 98.3636 214.317 98.3636C213.877 98.3636 213.483 98.4564 213.135 98.642C212.79 98.8277 212.518 99.0985 212.317 99.4545C212.12 99.8106 212.021 100.242 212.021 100.75ZM220.134 106V97.2727H221.429V98.5909H221.52C221.679 98.1591 221.967 97.8087 222.384 97.5398C222.8 97.2708 223.27 97.1364 223.793 97.1364C223.891 97.1364 224.014 97.1383 224.162 97.142C224.31 97.1458 224.421 97.1515 224.497 97.1591V98.5227C224.452 98.5114 224.348 98.4943 224.185 98.4716C224.026 98.4451 223.857 98.4318 223.679 98.4318C223.255 98.4318 222.876 98.5208 222.543 98.6989C222.213 98.8731 221.952 99.1155 221.759 99.4261C221.569 99.733 221.474 100.083 221.474 100.477V106H220.134ZM229.48 106.182C228.639 106.182 227.914 105.996 227.304 105.625C226.698 105.25 226.23 104.727 225.901 104.057C225.575 103.383 225.412 102.598 225.412 101.705C225.412 100.811 225.575 100.023 225.901 99.3409C226.23 98.6553 226.688 98.1212 227.276 97.7386C227.866 97.3523 228.556 97.1591 229.344 97.1591C229.798 97.1591 230.247 97.2348 230.69 97.3864C231.134 97.5379 231.537 97.7841 231.901 98.125C232.264 98.4621 232.554 98.9091 232.77 99.4659C232.986 100.023 233.094 100.708 233.094 101.523V102.091H226.366V100.932H231.73C231.73 100.439 231.632 100 231.435 99.6136C231.241 99.2273 230.965 98.9223 230.605 98.6989C230.249 98.4754 229.829 98.3636 229.344 98.3636C228.81 98.3636 228.348 98.4962 227.957 98.7614C227.571 99.0227 227.274 99.3636 227.065 99.7841C226.857 100.205 226.753 100.655 226.753 101.136V101.909C226.753 102.568 226.866 103.127 227.094 103.585C227.325 104.04 227.645 104.386 228.054 104.625C228.463 104.86 228.938 104.977 229.48 104.977C229.832 104.977 230.151 104.928 230.435 104.83C230.723 104.727 230.971 104.576 231.179 104.375C231.387 104.17 231.548 103.917 231.662 103.614L232.957 103.977C232.821 104.417 232.592 104.803 232.27 105.136C231.948 105.466 231.55 105.723 231.077 105.909C230.603 106.091 230.071 106.182 229.48 106.182ZM237.702 106.205C237.149 106.205 236.647 106.1 236.196 105.892C235.745 105.68 235.387 105.375 235.122 104.977C234.857 104.576 234.724 104.091 234.724 103.523C234.724 103.023 234.823 102.617 235.02 102.307C235.217 101.992 235.48 101.746 235.81 101.568C236.139 101.39 236.503 101.258 236.901 101.17C237.302 101.08 237.705 101.008 238.111 100.955C238.641 100.886 239.071 100.835 239.401 100.801C239.734 100.763 239.976 100.701 240.128 100.614C240.283 100.527 240.361 100.375 240.361 100.159V100.114C240.361 99.553 240.207 99.1174 239.901 98.8068C239.598 98.4962 239.137 98.3409 238.52 98.3409C237.88 98.3409 237.378 98.4811 237.014 98.7614C236.651 99.0417 236.395 99.3409 236.247 99.6591L234.974 99.2045C235.202 98.6742 235.505 98.2614 235.884 97.9659C236.266 97.6667 236.683 97.4583 237.134 97.3409C237.588 97.2197 238.035 97.1591 238.474 97.1591C238.755 97.1591 239.077 97.1932 239.44 97.2614C239.808 97.3258 240.162 97.4602 240.503 97.6648C240.848 97.8693 241.134 98.178 241.361 98.5909C241.588 99.0038 241.702 99.5568 241.702 100.25V106H240.361V104.818H240.293C240.202 105.008 240.05 105.21 239.838 105.426C239.626 105.642 239.344 105.826 238.991 105.977C238.639 106.129 238.209 106.205 237.702 106.205ZM237.906 105C238.437 105 238.884 104.896 239.247 104.688C239.615 104.479 239.891 104.21 240.077 103.881C240.266 103.551 240.361 103.205 240.361 102.841V101.614C240.304 101.682 240.179 101.744 239.986 101.801C239.796 101.854 239.577 101.902 239.327 101.943C239.08 101.981 238.84 102.015 238.605 102.045C238.374 102.072 238.187 102.095 238.043 102.114C237.694 102.159 237.368 102.233 237.065 102.335C236.766 102.434 236.524 102.583 236.338 102.784C236.156 102.981 236.065 103.25 236.065 103.591C236.065 104.057 236.238 104.409 236.582 104.648C236.931 104.883 237.372 105 237.906 105ZM247.945 97.2727V98.4091H243.422V97.2727H247.945ZM244.74 95.1818H246.081V103.5C246.081 103.879 246.136 104.163 246.246 104.352C246.359 104.538 246.503 104.663 246.678 104.727C246.856 104.788 247.043 104.818 247.24 104.818C247.388 104.818 247.509 104.811 247.604 104.795C247.698 104.777 247.774 104.761 247.831 104.75L248.104 105.955C248.013 105.989 247.886 106.023 247.723 106.057C247.56 106.095 247.354 106.114 247.104 106.114C246.725 106.114 246.354 106.032 245.99 105.869C245.63 105.706 245.331 105.458 245.092 105.125C244.857 104.792 244.74 104.371 244.74 103.864V95.1818ZM257.757 106.182C257.03 106.182 256.388 105.998 255.831 105.631C255.274 105.259 254.839 104.737 254.524 104.062C254.21 103.384 254.053 102.583 254.053 101.659C254.053 100.742 254.21 99.947 254.524 99.2727C254.839 98.5985 255.276 98.0777 255.837 97.7102C256.397 97.3428 257.045 97.1591 257.78 97.1591C258.348 97.1591 258.797 97.2538 259.126 97.4432C259.46 97.6288 259.714 97.8409 259.888 98.0795C260.066 98.3144 260.204 98.5076 260.303 98.6591H260.416V94.3636H261.757V106H260.462V104.659H260.303C260.204 104.818 260.064 105.019 259.882 105.261C259.7 105.5 259.441 105.714 259.104 105.903C258.767 106.089 258.318 106.182 257.757 106.182ZM257.939 104.977C258.477 104.977 258.931 104.837 259.303 104.557C259.674 104.273 259.956 103.881 260.149 103.381C260.342 102.877 260.439 102.295 260.439 101.636C260.439 100.985 260.344 100.415 260.155 99.9261C259.965 99.4337 259.685 99.0511 259.314 98.7784C258.943 98.5019 258.484 98.3636 257.939 98.3636C257.371 98.3636 256.897 98.5095 256.518 98.8011C256.143 99.089 255.861 99.4811 255.672 99.9773C255.486 100.47 255.393 101.023 255.393 101.636C255.393 102.258 255.488 102.822 255.678 103.33C255.871 103.833 256.155 104.235 256.53 104.534C256.909 104.83 257.378 104.977 257.939 104.977ZM268.058 106.182C267.217 106.182 266.492 105.996 265.882 105.625C265.276 105.25 264.808 104.727 264.479 104.057C264.153 103.383 263.99 102.598 263.99 101.705C263.99 100.811 264.153 100.023 264.479 99.3409C264.808 98.6553 265.267 98.1212 265.854 97.7386C266.445 97.3523 267.134 97.1591 267.922 97.1591C268.376 97.1591 268.825 97.2348 269.268 97.3864C269.712 97.5379 270.115 97.7841 270.479 98.125C270.842 98.4621 271.132 98.9091 271.348 99.4659C271.564 100.023 271.672 100.708 271.672 101.523V102.091H264.945V100.932H270.308C270.308 100.439 270.21 100 270.013 99.6136C269.82 99.2273 269.543 98.9223 269.183 98.6989C268.827 98.4754 268.407 98.3636 267.922 98.3636C267.388 98.3636 266.926 98.4962 266.536 98.7614C266.149 99.0227 265.852 99.3636 265.643 99.7841C265.435 100.205 265.331 100.655 265.331 101.136V101.909C265.331 102.568 265.445 103.127 265.672 103.585C265.903 104.04 266.223 104.386 266.632 104.625C267.041 104.86 267.517 104.977 268.058 104.977C268.411 104.977 268.729 104.928 269.013 104.83C269.301 104.727 269.549 104.576 269.757 104.375C269.965 104.17 270.126 103.917 270.24 103.614L271.536 103.977C271.399 104.417 271.17 104.803 270.848 105.136C270.526 105.466 270.128 105.723 269.655 105.909C269.181 106.091 268.649 106.182 268.058 106.182ZM277.507 97.2727V98.4091H272.984V97.2727H277.507ZM274.303 95.1818H275.643V103.5C275.643 103.879 275.698 104.163 275.808 104.352C275.922 104.538 276.066 104.663 276.24 104.727C276.418 104.788 276.606 104.818 276.803 104.818C276.95 104.818 277.071 104.811 277.166 104.795C277.261 104.777 277.337 104.761 277.393 104.75L277.666 105.955C277.575 105.989 277.448 106.023 277.286 106.057C277.123 106.095 276.916 106.114 276.666 106.114C276.287 106.114 275.916 106.032 275.553 105.869C275.193 105.706 274.893 105.458 274.655 105.125C274.42 104.792 274.303 104.371 274.303 103.864V95.1818ZM283.089 106.182C282.249 106.182 281.523 105.996 280.913 105.625C280.307 105.25 279.839 104.727 279.51 104.057C279.184 103.383 279.021 102.598 279.021 101.705C279.021 100.811 279.184 100.023 279.51 99.3409C279.839 98.6553 280.298 98.1212 280.885 97.7386C281.476 97.3523 282.165 97.1591 282.953 97.1591C283.408 97.1591 283.857 97.2348 284.3 97.3864C284.743 97.5379 285.146 97.7841 285.51 98.125C285.874 98.4621 286.163 98.9091 286.379 99.4659C286.595 100.023 286.703 100.708 286.703 101.523V102.091H279.976V100.932H285.339C285.339 100.439 285.241 100 285.044 99.6136C284.851 99.2273 284.574 98.9223 284.214 98.6989C283.858 98.4754 283.438 98.3636 282.953 98.3636C282.419 98.3636 281.957 98.4962 281.567 98.7614C281.18 99.0227 280.883 99.3636 280.675 99.7841C280.466 100.205 280.362 100.655 280.362 101.136V101.909C280.362 102.568 280.476 103.127 280.703 103.585C280.934 104.04 281.254 104.386 281.663 104.625C282.072 104.86 282.548 104.977 283.089 104.977C283.442 104.977 283.76 104.928 284.044 104.83C284.332 104.727 284.58 104.576 284.788 104.375C284.997 104.17 285.158 103.917 285.271 103.614L286.567 103.977C286.43 104.417 286.201 104.803 285.879 105.136C285.557 105.466 285.16 105.723 284.686 105.909C284.213 106.091 283.68 106.182 283.089 106.182ZM292.288 106.182C291.47 106.182 290.766 105.989 290.175 105.602C289.584 105.216 289.129 104.684 288.811 104.006C288.493 103.328 288.334 102.553 288.334 101.682C288.334 100.795 288.497 100.013 288.822 99.3352C289.152 98.6534 289.61 98.1212 290.197 97.7386C290.788 97.3523 291.478 97.1591 292.266 97.1591C292.879 97.1591 293.432 97.2727 293.925 97.5C294.417 97.7273 294.821 98.0455 295.135 98.4545C295.449 98.8636 295.644 99.3409 295.72 99.8864H294.379C294.277 99.4886 294.05 99.1364 293.697 98.8295C293.349 98.5189 292.879 98.3636 292.288 98.3636C291.766 98.3636 291.307 98.5 290.913 98.7727C290.523 99.0417 290.218 99.4223 289.999 99.9148C289.783 100.403 289.675 100.977 289.675 101.636C289.675 102.311 289.781 102.898 289.993 103.398C290.209 103.898 290.512 104.286 290.902 104.562C291.296 104.839 291.758 104.977 292.288 104.977C292.637 104.977 292.953 104.917 293.237 104.795C293.521 104.674 293.762 104.5 293.959 104.273C294.156 104.045 294.296 103.773 294.379 103.455H295.72C295.644 103.97 295.457 104.434 295.158 104.847C294.862 105.256 294.47 105.581 293.982 105.824C293.497 106.062 292.932 106.182 292.288 106.182ZM301.476 97.2727V98.4091H296.953V97.2727H301.476ZM298.271 95.1818H299.612V103.5C299.612 103.879 299.667 104.163 299.777 104.352C299.891 104.538 300.035 104.663 300.209 104.727C300.387 104.788 300.574 104.818 300.771 104.818C300.919 104.818 301.04 104.811 301.135 104.795C301.23 104.777 301.305 104.761 301.362 104.75L301.635 105.955C301.544 105.989 301.417 106.023 301.254 106.057C301.091 106.095 300.885 106.114 300.635 106.114C300.256 106.114 299.885 106.032 299.521 105.869C299.161 105.706 298.862 105.458 298.624 105.125C298.389 104.792 298.271 104.371 298.271 103.864V95.1818ZM303.493 106V97.2727H304.834V106H303.493ZM304.175 95.8182C303.913 95.8182 303.688 95.7292 303.499 95.5511C303.313 95.3731 303.22 95.1591 303.22 94.9091C303.22 94.6591 303.313 94.4451 303.499 94.267C303.688 94.089 303.913 94 304.175 94C304.436 94 304.66 94.089 304.845 94.267C305.035 94.4451 305.129 94.6591 305.129 94.9091C305.129 95.1591 305.035 95.3731 304.845 95.5511C304.66 95.7292 304.436 95.8182 304.175 95.8182ZM310.835 106.182C310.047 106.182 309.356 105.994 308.761 105.619C308.17 105.244 307.708 104.72 307.375 104.045C307.045 103.371 306.881 102.583 306.881 101.682C306.881 100.773 307.045 99.9792 307.375 99.3011C307.708 98.6231 308.17 98.0966 308.761 97.7216C309.356 97.3466 310.047 97.1591 310.835 97.1591C311.623 97.1591 312.313 97.3466 312.903 97.7216C313.498 98.0966 313.96 98.6231 314.29 99.3011C314.623 99.9792 314.79 100.773 314.79 101.682C314.79 102.583 314.623 103.371 314.29 104.045C313.96 104.72 313.498 105.244 312.903 105.619C312.313 105.994 311.623 106.182 310.835 106.182ZM310.835 104.977C311.434 104.977 311.926 104.824 312.312 104.517C312.699 104.21 312.985 103.807 313.17 103.307C313.356 102.807 313.449 102.265 313.449 101.682C313.449 101.098 313.356 100.555 313.17 100.051C312.985 99.5473 312.699 99.1402 312.312 98.8295C311.926 98.5189 311.434 98.3636 310.835 98.3636C310.237 98.3636 309.744 98.5189 309.358 98.8295C308.972 99.1402 308.686 99.5473 308.5 100.051C308.314 100.555 308.222 101.098 308.222 101.682C308.222 102.265 308.314 102.807 308.5 103.307C308.686 103.807 308.972 104.21 309.358 104.517C309.744 104.824 310.237 104.977 310.835 104.977ZM318.178 100.75V106H316.837V97.2727H318.132V98.6364H318.246C318.45 98.1932 318.761 97.8371 319.178 97.5682C319.594 97.2955 320.132 97.1591 320.791 97.1591C321.382 97.1591 321.899 97.2803 322.342 97.5227C322.786 97.7614 323.13 98.125 323.376 98.6136C323.623 99.0985 323.746 99.7121 323.746 100.455V106H322.405V100.545C322.405 99.8598 322.227 99.3258 321.871 98.9432C321.515 98.5568 321.026 98.3636 320.405 98.3636C319.977 98.3636 319.594 98.4564 319.257 98.642C318.924 98.8277 318.661 99.0985 318.467 99.4545C318.274 99.8106 318.178 100.242 318.178 100.75ZM330.696 109.273V97.2727H331.991V98.6591H332.151C332.249 98.5076 332.385 98.3144 332.56 98.0795C332.738 97.8409 332.991 97.6288 333.321 97.4432C333.654 97.2538 334.105 97.1591 334.673 97.1591C335.408 97.1591 336.056 97.3428 336.616 97.7102C337.177 98.0777 337.615 98.5985 337.929 99.2727C338.243 99.947 338.401 100.742 338.401 101.659C338.401 102.583 338.243 103.384 337.929 104.062C337.615 104.737 337.179 105.259 336.622 105.631C336.065 105.998 335.423 106.182 334.696 106.182C334.135 106.182 333.687 106.089 333.349 105.903C333.012 105.714 332.753 105.5 332.571 105.261C332.389 105.019 332.249 104.818 332.151 104.659H332.037V109.273H330.696ZM332.014 101.636C332.014 102.295 332.111 102.877 332.304 103.381C332.497 103.881 332.779 104.273 333.151 104.557C333.522 104.837 333.976 104.977 334.514 104.977C335.075 104.977 335.543 104.83 335.918 104.534C336.296 104.235 336.58 103.833 336.77 103.33C336.963 102.822 337.06 102.258 337.06 101.636C337.06 101.023 336.965 100.47 336.776 99.9773C336.59 99.4811 336.308 99.089 335.929 98.8011C335.554 98.5095 335.082 98.3636 334.514 98.3636C333.969 98.3636 333.51 98.5019 333.139 98.7784C332.768 99.0511 332.488 99.4337 332.298 99.9261C332.109 100.415 332.014 100.985 332.014 101.636ZM341.787 94.3636V106H340.446V94.3636H341.787ZM346.811 106.205C346.258 106.205 345.756 106.1 345.305 105.892C344.855 105.68 344.497 105.375 344.232 104.977C343.966 104.576 343.834 104.091 343.834 103.523C343.834 103.023 343.932 102.617 344.129 102.307C344.326 101.992 344.589 101.746 344.919 101.568C345.249 101.39 345.612 101.258 346.01 101.17C346.411 101.08 346.815 101.008 347.22 100.955C347.75 100.886 348.18 100.835 348.51 100.801C348.843 100.763 349.086 100.701 349.237 100.614C349.393 100.527 349.47 100.375 349.47 100.159V100.114C349.47 99.553 349.317 99.1174 349.01 98.8068C348.707 98.4962 348.247 98.3409 347.629 98.3409C346.989 98.3409 346.487 98.4811 346.124 98.7614C345.76 99.0417 345.504 99.3409 345.357 99.6591L344.084 99.2045C344.311 98.6742 344.614 98.2614 344.993 97.9659C345.375 97.6667 345.792 97.4583 346.243 97.3409C346.697 97.2197 347.144 97.1591 347.584 97.1591C347.864 97.1591 348.186 97.1932 348.55 97.2614C348.917 97.3258 349.271 97.4602 349.612 97.6648C349.957 97.8693 350.243 98.178 350.47 98.5909C350.697 99.0038 350.811 99.5568 350.811 100.25V106H349.47V104.818H349.402C349.311 105.008 349.16 105.21 348.947 105.426C348.735 105.642 348.453 105.826 348.101 105.977C347.749 106.129 347.319 106.205 346.811 106.205ZM347.016 105C347.546 105 347.993 104.896 348.357 104.688C348.724 104.479 349 104.21 349.186 103.881C349.375 103.551 349.47 103.205 349.47 102.841V101.614C349.413 101.682 349.288 101.744 349.095 101.801C348.906 101.854 348.686 101.902 348.436 101.943C348.19 101.981 347.949 102.015 347.714 102.045C347.483 102.072 347.296 102.095 347.152 102.114C346.804 102.159 346.478 102.233 346.175 102.335C345.875 102.434 345.633 102.583 345.447 102.784C345.266 102.981 345.175 103.25 345.175 103.591C345.175 104.057 345.347 104.409 345.692 104.648C346.04 104.883 346.482 105 347.016 105ZM357.054 97.2727V98.4091H352.531V97.2727H357.054ZM353.849 95.1818H355.19V103.5C355.19 103.879 355.245 104.163 355.355 104.352C355.469 104.538 355.613 104.663 355.787 104.727C355.965 104.788 356.152 104.818 356.349 104.818C356.497 104.818 356.618 104.811 356.713 104.795C356.808 104.777 356.884 104.761 356.94 104.75L357.213 105.955C357.122 105.989 356.995 106.023 356.832 106.057C356.67 106.095 356.463 106.114 356.213 106.114C355.834 106.114 355.463 106.032 355.099 105.869C354.74 105.706 354.44 105.458 354.202 105.125C353.967 104.792 353.849 104.371 353.849 103.864V95.1818ZM362.957 97.2727V98.4091H358.253V97.2727H362.957ZM359.662 106V96.0682C359.662 95.5682 359.779 95.1515 360.014 94.8182C360.249 94.4848 360.554 94.2348 360.929 94.0682C361.304 93.9015 361.7 93.8182 362.116 93.8182C362.446 93.8182 362.715 93.8447 362.923 93.8977C363.132 93.9508 363.287 94 363.389 94.0455L363.003 95.2045C362.935 95.1818 362.84 95.1534 362.719 95.1193C362.601 95.0852 362.446 95.0682 362.253 95.0682C361.81 95.0682 361.49 95.1799 361.293 95.4034C361.099 95.6269 361.003 95.9545 361.003 96.3864V106H359.662ZM368.023 106.182C367.235 106.182 366.544 105.994 365.949 105.619C365.358 105.244 364.896 104.72 364.562 104.045C364.233 103.371 364.068 102.583 364.068 101.682C364.068 100.773 364.233 99.9792 364.562 99.3011C364.896 98.6231 365.358 98.0966 365.949 97.7216C366.544 97.3466 367.235 97.1591 368.023 97.1591C368.811 97.1591 369.5 97.3466 370.091 97.7216C370.686 98.0966 371.148 98.6231 371.477 99.3011C371.811 99.9792 371.977 100.773 371.977 101.682C371.977 102.583 371.811 103.371 371.477 104.045C371.148 104.72 370.686 105.244 370.091 105.619C369.5 105.994 368.811 106.182 368.023 106.182ZM368.023 104.977C368.621 104.977 369.114 104.824 369.5 104.517C369.886 104.21 370.172 103.807 370.358 103.307C370.544 102.807 370.636 102.265 370.636 101.682C370.636 101.098 370.544 100.555 370.358 100.051C370.172 99.5473 369.886 99.1402 369.5 98.8295C369.114 98.5189 368.621 98.3636 368.023 98.3636C367.424 98.3636 366.932 98.5189 366.545 98.8295C366.159 99.1402 365.873 99.5473 365.688 100.051C365.502 100.555 365.409 101.098 365.409 101.682C365.409 102.265 365.502 102.807 365.688 103.307C365.873 103.807 366.159 104.21 366.545 104.517C366.932 104.824 367.424 104.977 368.023 104.977ZM374.024 106V97.2727H375.32V98.5909H375.411C375.57 98.1591 375.857 97.8087 376.274 97.5398C376.691 97.2708 377.161 97.1364 377.683 97.1364C377.782 97.1364 377.905 97.1383 378.053 97.142C378.2 97.1458 378.312 97.1515 378.388 97.1591V98.5227C378.342 98.5114 378.238 98.4943 378.075 98.4716C377.916 98.4451 377.748 98.4318 377.57 98.4318C377.145 98.4318 376.767 98.5208 376.433 98.6989C376.104 98.8731 375.842 99.1155 375.649 99.4261C375.46 99.733 375.365 100.083 375.365 100.477V106H374.024ZM379.977 106V97.2727H381.273V98.6364H381.386C381.568 98.1705 381.862 97.8087 382.267 97.5511C382.672 97.2898 383.159 97.1591 383.727 97.1591C384.303 97.1591 384.782 97.2898 385.165 97.5511C385.551 97.8087 385.852 98.1705 386.068 98.6364H386.159C386.383 98.1856 386.718 97.8277 387.165 97.5625C387.612 97.2936 388.148 97.1591 388.773 97.1591C389.553 97.1591 390.191 97.4034 390.688 97.892C391.184 98.3769 391.432 99.1326 391.432 100.159V106H390.091V100.159C390.091 99.5152 389.915 99.0549 389.562 98.7784C389.21 98.5019 388.795 98.3636 388.318 98.3636C387.705 98.3636 387.229 98.5492 386.892 98.9205C386.555 99.2879 386.386 99.7538 386.386 100.318V106H385.023V100.023C385.023 99.5265 384.862 99.1269 384.54 98.8239C384.218 98.517 383.803 98.3636 383.295 98.3636C382.947 98.3636 382.621 98.4564 382.318 98.642C382.019 98.8277 381.777 99.0852 381.591 99.4148C381.409 99.7405 381.318 100.117 381.318 100.545V106H379.977Z" fill="white"/>
<circle cx="74" cy="74" r="43" fill="#74883F"/>
<path fill-rule="evenodd" clip-rule="evenodd" d="M75.0039 41.0321C75.743 41.1328 76.6836 41.4687 77.1203 41.7375C77.5234 42.0062 78.1281 42.678 78.4641 43.2491C79.0016 44.1896 79.1359 44.2568 81.2187 44.2568C82.7977 44.2568 83.7047 44.4583 84.5109 44.9286C85.082 45.2981 85.8211 45.9699 86.0898 46.4402C86.5938 47.28 86.6609 47.28 90.793 47.28C94.0852 47.28 95.093 47.3807 95.4961 47.7838C95.9328 48.2205 96 51.7475 96 75.429C96 96.2553 95.9328 102.638 95.5969 102.973C95.2945 103.276 90.625 103.377 74.5336 103.377C58.2742 103.377 53.7391 103.309 53.4031 102.973C53.0672 102.638 53 96.8599 53 75.429C53 51.2101 53.0672 48.2205 53.5375 47.7838C53.9406 47.3807 54.982 47.28 62.2383 47.2464L63.4477 45.8355C63.96 45.2379 64.2553 44.8934 64.6272 44.6872C65.1333 44.4067 65.7813 44.382 67.3109 44.324C69.8641 44.1896 69.9984 44.156 70.6367 43.1147C71.0062 42.5437 71.8461 41.8047 72.4844 41.4687C73.2906 41.0657 74.0633 40.9313 75.0039 41.0321ZM74.3723 42.8623C74.5741 42.8288 75.1123 42.9967 75.5495 43.1645C75.9531 43.366 76.4576 43.8361 76.6931 44.2726C76.8949 44.6755 77.164 45.2799 77.2649 45.6157C77.433 46.0858 77.9039 46.1865 80.2583 46.1865C82.4109 46.1529 83.1845 46.2872 83.7563 46.7573C84.1599 47.0931 84.5971 47.7646 84.8662 49.2084H64.013L64.1812 48.3019C64.2821 47.7646 64.7193 47.0931 65.1229 46.7573C65.6947 46.2872 66.4683 46.1529 68.6545 46.1865C70.9753 46.1865 71.4461 46.0858 71.6143 45.6157C71.7152 45.2799 71.9843 44.6755 72.1861 44.3062C72.4215 43.9032 72.8924 43.3996 73.2624 43.2317C73.6324 43.0302 74.1369 42.8623 74.3723 42.8623ZM61.9949 49.2084L62.1631 51.0552L86.5479 51.2231L87.0524 49.2084H93.6111V101.253H54.9317L54.8645 75.4658C54.8308 61.2626 54.9317 49.5442 55.0999 49.4435C55.2681 49.3092 56.8825 49.2084 61.9949 49.2084Z" fill="white"/>
<path d="M66.8022 59.0765C66.6321 58.8098 66.326 58.5431 66.1219 58.4765C65.8838 58.4098 65.1355 59.0765 64.4212 59.9431C63.6729 60.8431 62.8226 61.9431 62.5165 62.3765L61.9382 63.2098C60.8498 61.7765 60.2375 61.3765 59.8634 61.3765C59.4892 61.3765 59.1151 61.6098 59.013 61.8765C58.911 62.1431 59.4212 63.2098 60.1015 64.2098C60.8158 65.2431 61.6321 66.0765 61.9042 66.0431C62.1763 66.0431 63.4689 64.5765 64.7614 62.8098C66.4281 60.4765 67.0063 59.4098 66.8022 59.0765Z" fill="white"/>
<path d="M89.9657 58.8765C89.8297 58.4431 88.4011 58.3765 79.9996 58.3765C74.5914 58.3765 70.0676 58.4765 69.8975 58.6098C69.7274 58.7098 69.6254 59.1098 69.6594 59.4431C69.6934 59.7765 69.9655 60.1098 70.2376 60.2098C70.5097 60.3098 74.9316 60.3765 79.9996 60.3765C87.9929 60.4098 89.3535 60.3431 89.6936 59.8765C89.9317 59.6098 90.0678 59.1431 89.9657 58.8765Z" fill="white"/>
<path d="M86.2242 64.8765C86.0881 64.4431 84.8636 64.3765 78.1289 64.3765C73.7411 64.3765 70.0676 64.4765 69.8975 64.6098C69.7274 64.7098 69.6254 65.1098 69.6594 65.4431C69.6934 65.7765 69.9655 66.1098 70.2376 66.2098C70.5097 66.3098 74.0132 66.3765 78.0268 66.3765C84.0473 66.3765 85.4079 66.2765 85.85 65.8765C86.1562 65.6098 86.3262 65.1431 86.2242 64.8765Z" fill="white"/>
<path d="M66.8022 73.0765C66.6321 72.8098 66.326 72.5431 66.1219 72.4765C65.8838 72.4098 65.1355 73.0765 64.4212 73.9431C63.6729 74.8431 62.8226 75.9431 62.5165 76.3765L61.9382 77.2098C60.8498 75.7765 60.2375 75.3765 59.8634 75.3765C59.4892 75.3765 59.1151 75.6098 59.013 75.8765C58.911 76.1431 59.4212 77.2098 60.1015 78.2098C60.8158 79.2431 61.6321 80.0765 61.9042 80.0431C62.1763 80.0431 63.4689 78.5765 64.7614 76.8098C66.4281 74.4765 67.0063 73.4098 66.8022 73.0765Z" fill="white"/>
<path d="M89.9657 72.8765C89.8297 72.4431 88.4011 72.3765 79.9996 72.3765C74.5914 72.3765 70.0676 72.4765 69.8975 72.6098C69.7274 72.7098 69.6254 73.1098 69.6594 73.4431C69.6934 73.7765 69.9655 74.1098 70.2376 74.2098C70.5097 74.3098 74.9316 74.3765 79.9996 74.3765C87.9929 74.4098 89.3535 74.3431 89.6936 73.8765C89.9317 73.6098 90.0678 73.1431 89.9657 72.8765Z" fill="white"/>
<path d="M86.2242 78.8765C86.0881 78.4431 84.8636 78.3765 78.1289 78.3765C73.7411 78.3765 70.0676 78.4765 69.8975 78.6098C69.7274 78.7098 69.6254 79.1098 69.6594 79.4431C69.6934 79.7765 69.9655 80.1098 70.2376 80.2098C70.5097 80.3098 74.0132 80.3765 78.0268 80.3765C84.0473 80.3765 85.4079 80.2765 85.85 79.8765C86.1562 79.6098 86.3262 79.1431 86.2242 78.8765Z" fill="white"/>
<path d="M66.8022 87.0765C66.6321 86.8098 66.326 86.5431 66.1219 86.4765C65.8838 86.4098 65.1355 87.0765 64.4212 87.9431C63.6729 88.8431 62.8226 89.9431 62.5165 90.3765L61.9382 91.2098C60.8498 89.7765 60.2375 89.3765 59.8634 89.3765C59.4892 89.3765 59.1151 89.6098 59.013 89.8765C58.911 90.1431 59.4212 91.2098 60.1015 92.2098C60.8158 93.2431 61.6321 94.0765 61.9042 94.0431C62.1763 94.0431 63.4689 92.5765 64.7614 90.8098C66.4281 88.4765 67.0063 87.4098 66.8022 87.0765Z" fill="white"/>
<path d="M89.9657 86.8765C89.8297 86.4431 88.4011 86.3765 79.9996 86.3765C74.5914 86.3765 70.0676 86.4765 69.8975 86.6098C69.7274 86.7098 69.6254 87.1098 69.6594 87.4431C69.6934 87.7765 69.9655 88.1098 70.2376 88.2098C70.5097 88.3098 74.9316 88.3765 79.9996 88.3765C87.9929 88.4098 89.3535 88.3431 89.6936 87.8765C89.9317 87.6098 90.0678 87.1431 89.9657 86.8765Z" fill="white"/>
<path d="M86.2242 92.8765C86.0881 92.4431 84.8636 92.3765 78.1289 92.3765C73.7411 92.3765 70.0676 92.4765 69.8975 92.6098C69.7274 92.7098 69.6254 93.1098 69.6594 93.4431C69.6934 93.7765 69.9655 94.1098 70.2376 94.2098C70.5097 94.3098 74.0132 94.3765 78.0268 94.3765C84.0473 94.3765 85.4079 94.2765 85.85 93.8765C86.1562 93.6098 86.3262 93.1431 86.2242 92.8765Z" fill="white"/>
</svg>
