<svg width="416" height="147" viewBox="0 0 416 147" fill="none" xmlns="http://www.w3.org/2000/svg">
<path d="M0 34C0 15.2223 15.2223 0 34 0H382C400.778 0 416 15.2223 416 34V113C416 131.778 400.778 147 382 147H34C15.2223 147 0 131.778 0 113V34Z" fill="#83984B"/>
<path d="M0 34C0 15.2223 15.2223 0 34 0H382C400.778 0 416 15.2223 416 34V113C416 131.778 400.778 147 382 147H34C15.2223 147 0 131.778 0 113V34Z" stroke="#83984B"/>
<path d="M164.098 33.8182V60H159.879L147.543 42.1662H147.325V60H142.582V33.8182H146.827L159.151 51.6648H159.381V33.8182H164.098ZM177.627 60.3835C175.709 60.3835 174.047 59.9616 172.641 59.1179C171.235 58.2741 170.144 57.0937 169.368 55.5767C168.601 54.0597 168.218 52.2869 168.218 50.2585C168.218 48.2301 168.601 46.4531 169.368 44.9276C170.144 43.402 171.235 42.2173 172.641 41.3736C174.047 40.5298 175.709 40.108 177.627 40.108C179.544 40.108 181.206 40.5298 182.613 41.3736C184.019 42.2173 185.105 43.402 185.873 44.9276C186.648 46.4531 187.036 48.2301 187.036 50.2585C187.036 52.2869 186.648 54.0597 185.873 55.5767C185.105 57.0937 184.019 58.2741 182.613 59.1179C181.206 59.9616 179.544 60.3835 177.627 60.3835ZM177.652 56.6761C178.692 56.6761 179.561 56.3906 180.26 55.8196C180.959 55.2401 181.479 54.4645 181.82 53.4929C182.169 52.5213 182.344 51.4389 182.344 50.2457C182.344 49.044 182.169 47.9574 181.82 46.9858C181.479 46.0057 180.959 45.2259 180.26 44.6463C179.561 44.0668 178.692 43.777 177.652 43.777C176.587 43.777 175.701 44.0668 174.993 44.6463C174.294 45.2259 173.77 46.0057 173.421 46.9858C173.08 47.9574 172.909 49.044 172.909 50.2457C172.909 51.4389 173.08 52.5213 173.421 53.4929C173.77 54.4645 174.294 55.2401 174.993 55.8196C175.701 56.3906 176.587 56.6761 177.652 56.6761ZM214.327 41.0156C214.207 39.8991 213.705 39.0298 212.818 38.4077C211.94 37.7855 210.798 37.4744 209.392 37.4744C208.403 37.4744 207.555 37.6236 206.848 37.9219C206.141 38.2202 205.599 38.625 205.224 39.1364C204.849 39.6477 204.658 40.2315 204.649 40.8878C204.649 41.4332 204.773 41.9062 205.02 42.3068C205.276 42.7074 205.621 43.0483 206.055 43.3295C206.49 43.6023 206.972 43.8324 207.5 44.0199C208.028 44.2074 208.561 44.3651 209.098 44.4929L211.553 45.1065C212.541 45.3366 213.491 45.6477 214.403 46.0398C215.324 46.4318 216.146 46.9261 216.871 47.5227C217.604 48.1193 218.183 48.8395 218.609 49.6832C219.036 50.527 219.249 51.5156 219.249 52.6491C219.249 54.1832 218.857 55.5341 218.072 56.7017C217.288 57.8608 216.155 58.7685 214.672 59.4247C213.197 60.0724 211.412 60.3963 209.315 60.3963C207.278 60.3963 205.51 60.081 204.01 59.4503C202.518 58.8196 201.351 57.8991 200.507 56.6889C199.672 55.4787 199.22 54.0043 199.152 52.2656H203.818C203.886 53.1776 204.168 53.9361 204.662 54.5412C205.156 55.1463 205.8 55.598 206.592 55.8963C207.393 56.1946 208.288 56.3438 209.277 56.3438C210.308 56.3438 211.212 56.1903 211.987 55.8835C212.771 55.5682 213.385 55.1335 213.828 54.5795C214.271 54.017 214.497 53.3608 214.506 52.6108C214.497 51.929 214.297 51.3665 213.905 50.9233C213.513 50.4716 212.963 50.0966 212.256 49.7983C211.557 49.4915 210.739 49.2187 209.801 48.9801L206.822 48.2131C204.666 47.6591 202.962 46.8196 201.709 45.6946C200.464 44.5611 199.842 43.0568 199.842 41.1818C199.842 39.6392 200.26 38.2884 201.095 37.1293C201.939 35.9702 203.085 35.071 204.534 34.4318C205.983 33.7841 207.624 33.4602 209.456 33.4602C211.314 33.4602 212.942 33.7841 214.339 34.4318C215.746 35.071 216.849 35.9616 217.651 37.1037C218.452 38.2372 218.865 39.5412 218.891 41.0156H214.327ZM223.272 60V40.3636H227.9V60H223.272ZM225.599 37.5767C224.866 37.5767 224.235 37.3338 223.707 36.848C223.179 36.3537 222.914 35.7614 222.914 35.071C222.914 34.3722 223.179 33.7798 223.707 33.294C224.235 32.7997 224.866 32.5526 225.599 32.5526C226.341 32.5526 226.971 32.7997 227.491 33.294C228.02 33.7798 228.284 34.3722 228.284 35.071C228.284 35.7614 228.02 36.3537 227.491 36.848C226.971 37.3338 226.341 37.5767 225.599 37.5767ZM241.199 67.7727C239.537 67.7727 238.109 67.5469 236.916 67.0952C235.723 66.652 234.764 66.0554 234.04 65.3054C233.315 64.5554 232.812 63.7244 232.531 62.8125L236.699 61.8026C236.886 62.1861 237.159 62.5653 237.517 62.9403C237.875 63.3239 238.357 63.6392 238.962 63.8864C239.575 64.142 240.347 64.2699 241.276 64.2699C242.588 64.2699 243.675 63.9503 244.536 63.3111C245.396 62.6804 245.827 61.6406 245.827 60.1918V56.4716H245.597C245.358 56.9489 245.009 57.4389 244.548 57.9418C244.097 58.4446 243.496 58.8665 242.746 59.2074C242.004 59.5483 241.071 59.7188 239.946 59.7188C238.438 59.7188 237.07 59.3651 235.842 58.6577C234.624 57.9418 233.652 56.8764 232.928 55.4616C232.212 54.0384 231.854 52.2571 231.854 50.1179C231.854 47.9616 232.212 46.142 232.928 44.6591C233.652 43.1676 234.628 42.0384 235.855 41.2713C237.082 40.4957 238.45 40.108 239.959 40.108C241.109 40.108 242.055 40.304 242.797 40.696C243.547 41.0795 244.143 41.544 244.587 42.0895C245.03 42.6264 245.366 43.1335 245.597 43.6108H245.852V40.3636H250.416V60.3196C250.416 61.9986 250.016 63.3878 249.214 64.4872C248.413 65.5866 247.318 66.4091 245.929 66.9545C244.54 67.5 242.963 67.7727 241.199 67.7727ZM241.237 56.0881C242.217 56.0881 243.053 55.8494 243.743 55.3722C244.433 54.8949 244.957 54.2088 245.315 53.3139C245.673 52.419 245.852 51.3452 245.852 50.0923C245.852 48.8565 245.673 47.7741 245.315 46.8452C244.966 45.9162 244.446 45.196 243.756 44.6847C243.074 44.1648 242.234 43.9048 241.237 43.9048C240.206 43.9048 239.345 44.1733 238.655 44.7102C237.964 45.2472 237.445 45.9844 237.095 46.9219C236.746 47.8509 236.571 48.9077 236.571 50.0923C236.571 51.294 236.746 52.3466 237.095 53.25C237.453 54.1449 237.977 54.8437 238.668 55.3466C239.366 55.8409 240.223 56.0881 241.237 56.0881ZM259.787 48.4943V60H255.159V40.3636H259.582V43.7003H259.812C260.264 42.6009 260.984 41.7273 261.973 41.0795C262.97 40.4318 264.202 40.108 265.668 40.108C267.023 40.108 268.203 40.3977 269.209 40.9773C270.223 41.5568 271.007 42.3963 271.561 43.4957C272.124 44.5952 272.401 45.929 272.392 47.4972V60H267.764V48.2131C267.764 46.9006 267.423 45.8736 266.741 45.1321C266.068 44.3906 265.135 44.0199 263.942 44.0199C263.132 44.0199 262.412 44.1989 261.781 44.5568C261.159 44.9062 260.669 45.4134 260.311 46.0781C259.962 46.7429 259.787 47.5483 259.787 48.4943ZM282.747 60.3963C281.503 60.3963 280.382 60.1747 279.385 59.7315C278.396 59.2798 277.612 58.6151 277.033 57.7372C276.462 56.8594 276.176 55.777 276.176 54.4901C276.176 53.3821 276.381 52.4659 276.79 51.7415C277.199 51.017 277.757 50.4375 278.464 50.0028C279.172 49.5682 279.969 49.2401 280.855 49.0185C281.75 48.7884 282.675 48.6222 283.629 48.5199C284.78 48.4006 285.713 48.294 286.429 48.2003C287.145 48.098 287.665 47.9446 287.989 47.7401C288.321 47.527 288.487 47.1989 288.487 46.7557V46.679C288.487 45.7159 288.202 44.9702 287.631 44.4418C287.06 43.9134 286.237 43.6491 285.163 43.6491C284.03 43.6491 283.131 43.8963 282.466 44.3906C281.81 44.8849 281.366 45.4687 281.136 46.142L276.815 45.5284C277.156 44.3352 277.719 43.3381 278.503 42.5369C279.287 41.7273 280.246 41.1222 281.379 40.7216C282.513 40.3125 283.766 40.108 285.138 40.108C286.084 40.108 287.026 40.2188 287.963 40.4403C288.901 40.6619 289.757 41.0284 290.533 41.5398C291.308 42.0426 291.93 42.7287 292.399 43.598C292.876 44.4673 293.115 45.554 293.115 46.858V60H288.666V57.3026H288.513C288.232 57.848 287.835 58.3594 287.324 58.8366C286.821 59.3054 286.186 59.6847 285.419 59.9744C284.661 60.2557 283.77 60.3963 282.747 60.3963ZM283.949 56.9957C284.878 56.9957 285.683 56.8125 286.365 56.446C287.047 56.071 287.571 55.5767 287.938 54.9631C288.312 54.3494 288.5 53.6804 288.5 52.956V50.642C288.355 50.7614 288.108 50.8722 287.759 50.9744C287.418 51.0767 287.034 51.1662 286.608 51.2429C286.182 51.3196 285.76 51.3878 285.342 51.4474C284.925 51.5071 284.563 51.5582 284.256 51.6009C283.565 51.6946 282.947 51.848 282.402 52.0611C281.857 52.2741 281.426 52.5724 281.111 52.956C280.795 53.331 280.638 53.8168 280.638 54.4134C280.638 55.2656 280.949 55.9091 281.571 56.3438C282.193 56.7784 282.986 56.9957 283.949 56.9957ZM307.574 40.3636V43.9432H296.286V40.3636H307.574ZM299.072 35.6591H303.7V54.0938C303.7 54.7159 303.794 55.1932 303.982 55.5256C304.178 55.8494 304.433 56.071 304.749 56.1903C305.064 56.3097 305.413 56.3693 305.797 56.3693C306.087 56.3693 306.351 56.348 306.589 56.3054C306.837 56.2628 307.024 56.2244 307.152 56.1903L307.932 59.8082C307.685 59.8935 307.331 59.9872 306.871 60.0895C306.419 60.1918 305.865 60.2514 305.209 60.2685C304.05 60.3026 303.006 60.1278 302.077 59.7443C301.148 59.3523 300.411 58.7472 299.865 57.929C299.328 57.1108 299.064 56.0881 299.072 54.8608V35.6591ZM323.96 51.7415V40.3636H328.588V60H324.1V56.5099H323.896C323.453 57.6094 322.724 58.5085 321.71 59.2074C320.704 59.9062 319.464 60.2557 317.99 60.2557C316.703 60.2557 315.565 59.9702 314.576 59.3991C313.596 58.8196 312.829 57.9801 312.275 56.8807C311.721 55.7727 311.444 54.4347 311.444 52.8665V40.3636H316.072V52.1506C316.072 53.3949 316.413 54.3835 317.095 55.1165C317.777 55.8494 318.672 56.2159 319.779 56.2159C320.461 56.2159 321.122 56.0497 321.761 55.7173C322.4 55.3849 322.924 54.8906 323.333 54.2344C323.751 53.5696 323.96 52.7386 323.96 51.7415ZM333.347 60V40.3636H337.834V43.6364H338.038C338.396 42.5028 339.01 41.6293 339.879 41.0156C340.757 40.3935 341.759 40.0824 342.884 40.0824C343.139 40.0824 343.425 40.0952 343.74 40.1207C344.064 40.1378 344.332 40.1676 344.545 40.2102V44.4673C344.349 44.3991 344.038 44.3395 343.612 44.2884C343.195 44.2287 342.79 44.1989 342.398 44.1989C341.554 44.1989 340.795 44.3821 340.122 44.7486C339.457 45.1065 338.933 45.6051 338.55 46.2443C338.166 46.8835 337.974 47.6207 337.974 48.456V60H333.347ZM355.505 60.3835C353.536 60.3835 351.836 59.9744 350.404 59.1562C348.98 58.3295 347.885 57.1619 347.118 55.6534C346.351 54.1364 345.968 52.3509 345.968 50.2969C345.968 48.277 346.351 46.5043 347.118 44.9787C347.894 43.4446 348.976 42.2514 350.365 41.3991C351.755 40.5384 353.387 40.108 355.262 40.108C356.472 40.108 357.614 40.304 358.688 40.696C359.77 41.0795 360.725 41.6761 361.551 42.4858C362.387 43.2955 363.043 44.3267 363.52 45.5795C363.998 46.8239 364.236 48.3068 364.236 50.0284V51.4474H348.141V48.3281H359.8C359.792 47.4418 359.6 46.6534 359.225 45.9631C358.85 45.2642 358.326 44.7145 357.652 44.3139C356.988 43.9134 356.212 43.7131 355.326 43.7131C354.38 43.7131 353.549 43.9432 352.833 44.4034C352.117 44.8551 351.559 45.4517 351.158 46.1932C350.766 46.9261 350.566 47.7315 350.557 48.6094V51.3324C350.557 52.4744 350.766 53.4545 351.184 54.2727C351.601 55.0824 352.185 55.7045 352.935 56.1392C353.685 56.5653 354.563 56.7784 355.569 56.7784C356.242 56.7784 356.851 56.6847 357.397 56.4972C357.942 56.3011 358.415 56.0156 358.816 55.6406C359.216 55.2656 359.519 54.8011 359.723 54.2472L364.044 54.733C363.772 55.875 363.252 56.8722 362.485 57.7244C361.726 58.5682 360.755 59.2244 359.57 59.6932C358.385 60.1534 357.03 60.3835 355.505 60.3835ZM383.671 45.554L379.452 46.0142C379.333 45.5881 379.124 45.1875 378.826 44.8125C378.536 44.4375 378.144 44.1349 377.65 43.9048C377.156 43.6747 376.55 43.5597 375.835 43.5597C374.871 43.5597 374.062 43.7685 373.406 44.1861C372.758 44.6037 372.438 45.1449 372.447 45.8097C372.438 46.3807 372.647 46.8452 373.073 47.2031C373.508 47.5611 374.224 47.8551 375.221 48.0852L378.57 48.8011C380.428 49.2017 381.809 49.8366 382.712 50.706C383.624 51.5753 384.085 52.7131 384.093 54.1193C384.085 55.3551 383.722 56.446 383.006 57.392C382.299 58.3295 381.315 59.0625 380.053 59.5909C378.792 60.1193 377.343 60.3835 375.707 60.3835C373.303 60.3835 371.369 59.8807 369.903 58.875C368.437 57.8608 367.563 56.4503 367.282 54.6435L371.795 54.2088C371.999 55.0952 372.434 55.7642 373.099 56.2159C373.763 56.6676 374.629 56.8935 375.694 56.8935C376.793 56.8935 377.675 56.6676 378.34 56.2159C379.013 55.7642 379.35 55.206 379.35 54.5412C379.35 53.9787 379.133 53.5142 378.698 53.1477C378.272 52.7812 377.607 52.5 376.704 52.304L373.354 51.6009C371.471 51.2088 370.077 50.5483 369.174 49.6193C368.271 48.6818 367.823 47.4972 367.832 46.0653C367.823 44.8551 368.151 43.8068 368.816 42.9205C369.489 42.0256 370.423 41.3352 371.616 40.8494C372.817 40.3551 374.202 40.108 375.771 40.108C378.072 40.108 379.883 40.598 381.204 41.5781C382.533 42.5582 383.356 43.8835 383.671 45.554Z" fill="white"/>
<path d="M145 89H141.409V77.3636H145.159C146.288 77.3636 147.254 77.5966 148.057 78.0625C148.86 78.5246 149.475 79.1894 149.903 80.0568C150.331 80.9205 150.545 81.9545 150.545 83.1591C150.545 84.3712 150.33 85.4148 149.898 86.2898C149.466 87.161 148.837 87.8314 148.011 88.3011C147.186 88.767 146.182 89 145 89ZM142.818 87.75H144.909C145.871 87.75 146.669 87.5644 147.301 87.1932C147.934 86.822 148.405 86.2936 148.716 85.608C149.027 84.9223 149.182 84.1061 149.182 83.1591C149.182 82.2197 149.028 81.411 148.722 80.733C148.415 80.0511 147.956 79.5284 147.347 79.1648C146.737 78.7973 145.977 78.6136 145.068 78.6136H142.818V87.75ZM156.386 89.1818C155.545 89.1818 154.82 88.9962 154.21 88.625C153.604 88.25 153.136 87.7273 152.807 87.0568C152.481 86.3826 152.318 85.5985 152.318 84.7045C152.318 83.8106 152.481 83.0227 152.807 82.3409C153.136 81.6553 153.595 81.1212 154.182 80.7386C154.773 80.3523 155.462 80.1591 156.25 80.1591C156.705 80.1591 157.153 80.2348 157.597 80.3864C158.04 80.5379 158.443 80.7841 158.807 81.125C159.17 81.4621 159.46 81.9091 159.676 82.4659C159.892 83.0227 160 83.7083 160 84.5227V85.0909H153.273V83.9318H158.636C158.636 83.4394 158.538 83 158.341 82.6136C158.148 82.2273 157.871 81.9223 157.511 81.6989C157.155 81.4754 156.735 81.3636 156.25 81.3636C155.716 81.3636 155.254 81.4962 154.864 81.7614C154.477 82.0227 154.18 82.3636 153.972 82.7841C153.763 83.2045 153.659 83.6553 153.659 84.1364V84.9091C153.659 85.5682 153.773 86.1269 154 86.5852C154.231 87.0398 154.551 87.3864 154.96 87.625C155.369 87.8598 155.845 87.9773 156.386 87.9773C156.739 87.9773 157.057 87.928 157.341 87.8295C157.629 87.7273 157.877 87.5758 158.085 87.375C158.294 87.1705 158.455 86.9167 158.568 86.6136L159.864 86.9773C159.727 87.4167 159.498 87.803 159.176 88.1364C158.854 88.4659 158.456 88.7235 157.983 88.9091C157.509 89.0909 156.977 89.1818 156.386 89.1818ZM165.835 80.2727V81.4091H161.312V80.2727H165.835ZM162.631 78.1818H163.972V86.5C163.972 86.8788 164.027 87.1629 164.136 87.3523C164.25 87.5379 164.394 87.6629 164.568 87.7273C164.746 87.7879 164.934 87.8182 165.131 87.8182C165.278 87.8182 165.4 87.8106 165.494 87.7955C165.589 87.7765 165.665 87.7614 165.722 87.75L165.994 88.9545C165.903 88.9886 165.777 89.0227 165.614 89.0568C165.451 89.0947 165.244 89.1136 164.994 89.1136C164.616 89.1136 164.244 89.0322 163.881 88.8693C163.521 88.7064 163.222 88.4583 162.983 88.125C162.748 87.7917 162.631 87.3712 162.631 86.8636V78.1818ZM171.418 89.1818C170.577 89.1818 169.851 88.9962 169.241 88.625C168.635 88.25 168.168 87.7273 167.838 87.0568C167.512 86.3826 167.349 85.5985 167.349 84.7045C167.349 83.8106 167.512 83.0227 167.838 82.3409C168.168 81.6553 168.626 81.1212 169.213 80.7386C169.804 80.3523 170.493 80.1591 171.281 80.1591C171.736 80.1591 172.185 80.2348 172.628 80.3864C173.071 80.5379 173.474 80.7841 173.838 81.125C174.202 81.4621 174.491 81.9091 174.707 82.4659C174.923 83.0227 175.031 83.7083 175.031 84.5227V85.0909H168.304V83.9318H173.668C173.668 83.4394 173.569 83 173.372 82.6136C173.179 82.2273 172.902 81.9223 172.543 81.6989C172.187 81.4754 171.766 81.3636 171.281 81.3636C170.747 81.3636 170.285 81.4962 169.895 81.7614C169.509 82.0227 169.211 82.3636 169.003 82.7841C168.795 83.2045 168.69 83.6553 168.69 84.1364V84.9091C168.69 85.5682 168.804 86.1269 169.031 86.5852C169.262 87.0398 169.582 87.3864 169.991 87.625C170.401 87.8598 170.876 87.9773 171.418 87.9773C171.77 87.9773 172.088 87.928 172.372 87.8295C172.66 87.7273 172.908 87.5758 173.116 87.375C173.325 87.1705 173.486 86.9167 173.599 86.6136L174.895 86.9773C174.759 87.4167 174.529 87.803 174.207 88.1364C173.885 88.4659 173.488 88.7235 173.014 88.9091C172.541 89.0909 172.009 89.1818 171.418 89.1818ZM180.616 89.1818C179.798 89.1818 179.094 88.9886 178.503 88.6023C177.912 88.2159 177.457 87.6837 177.139 87.0057C176.821 86.3277 176.662 85.553 176.662 84.6818C176.662 83.7955 176.825 83.0133 177.151 82.3352C177.48 81.6534 177.938 81.1212 178.526 80.7386C179.116 80.3523 179.806 80.1591 180.594 80.1591C181.207 80.1591 181.76 80.2727 182.253 80.5C182.745 80.7273 183.149 81.0455 183.463 81.4545C183.777 81.8636 183.973 82.3409 184.048 82.8864H182.707C182.605 82.4886 182.378 82.1364 182.026 81.8295C181.677 81.5189 181.207 81.3636 180.616 81.3636C180.094 81.3636 179.635 81.5 179.241 81.7727C178.851 82.0417 178.546 82.4223 178.327 82.9148C178.111 83.4034 178.003 83.9773 178.003 84.6364C178.003 85.3106 178.109 85.8977 178.321 86.3977C178.537 86.8977 178.84 87.286 179.23 87.5625C179.624 87.839 180.086 87.9773 180.616 87.9773C180.965 87.9773 181.281 87.9167 181.565 87.7955C181.849 87.6742 182.09 87.5 182.287 87.2727C182.484 87.0455 182.624 86.7727 182.707 86.4545H184.048C183.973 86.9697 183.785 87.4337 183.486 87.8466C183.19 88.2557 182.798 88.5814 182.31 88.8239C181.825 89.0625 181.26 89.1818 180.616 89.1818ZM189.804 80.2727V81.4091H185.281V80.2727H189.804ZM186.599 78.1818H187.94V86.5C187.94 86.8788 187.995 87.1629 188.105 87.3523C188.219 87.5379 188.363 87.6629 188.537 87.7273C188.715 87.7879 188.902 87.8182 189.099 87.8182C189.247 87.8182 189.368 87.8106 189.463 87.7955C189.558 87.7765 189.634 87.7614 189.69 87.75L189.963 88.9545C189.872 88.9886 189.745 89.0227 189.582 89.0568C189.42 89.0947 189.213 89.1136 188.963 89.1136C188.584 89.1136 188.213 89.0322 187.849 88.8693C187.49 88.7064 187.19 88.4583 186.952 88.125C186.717 87.7917 186.599 87.3712 186.599 86.8636V78.1818ZM197.847 82.2273L196.642 82.5682C196.566 82.3674 196.455 82.1723 196.307 81.983C196.163 81.7898 195.966 81.6307 195.716 81.5057C195.466 81.3807 195.146 81.3182 194.756 81.3182C194.222 81.3182 193.777 81.4413 193.42 81.6875C193.068 81.9299 192.892 82.2386 192.892 82.6136C192.892 82.947 193.013 83.2102 193.256 83.4034C193.498 83.5966 193.877 83.7576 194.392 83.8864L195.688 84.2045C196.468 84.3939 197.049 84.6837 197.432 85.0739C197.814 85.4602 198.006 85.9583 198.006 86.5682C198.006 87.0682 197.862 87.5152 197.574 87.9091C197.29 88.303 196.892 88.6136 196.381 88.8409C195.869 89.0682 195.275 89.1818 194.597 89.1818C193.706 89.1818 192.97 88.9886 192.386 88.6023C191.803 88.2159 191.434 87.6515 191.278 86.9091L192.551 86.5909C192.672 87.0606 192.902 87.4129 193.239 87.6477C193.58 87.8826 194.025 88 194.574 88C195.199 88 195.695 87.8674 196.062 87.6023C196.434 87.3333 196.619 87.0114 196.619 86.6364C196.619 86.3333 196.513 86.0795 196.301 85.875C196.089 85.6667 195.763 85.5114 195.324 85.4091L193.869 85.0682C193.07 84.8788 192.483 84.5852 192.108 84.1875C191.737 83.786 191.551 83.2841 191.551 82.6818C191.551 82.1894 191.689 81.7538 191.966 81.375C192.246 80.9962 192.627 80.6989 193.108 80.483C193.593 80.267 194.142 80.1591 194.756 80.1591C195.619 80.1591 196.297 80.3485 196.79 80.7273C197.286 81.1061 197.638 81.6061 197.847 82.2273ZM208.32 80.2727V81.4091H203.797V80.2727H208.32ZM205.115 78.1818H206.456V86.5C206.456 86.8788 206.511 87.1629 206.621 87.3523C206.734 87.5379 206.878 87.6629 207.053 87.7273C207.231 87.7879 207.418 87.8182 207.615 87.8182C207.763 87.8182 207.884 87.8106 207.979 87.7955C208.073 87.7765 208.149 87.7614 208.206 87.75L208.479 88.9545C208.388 88.9886 208.261 89.0227 208.098 89.0568C207.935 89.0947 207.729 89.1136 207.479 89.1136C207.1 89.1136 206.729 89.0322 206.365 88.8693C206.005 88.7064 205.706 88.4583 205.467 88.125C205.232 87.7917 205.115 87.3712 205.115 86.8636V78.1818ZM211.865 83.75V89H210.524V77.3636H211.865V81.6364H211.979C212.183 81.1856 212.49 80.8277 212.899 80.5625C213.312 80.2936 213.861 80.1591 214.547 80.1591C215.142 80.1591 215.662 80.2784 216.109 80.517C216.556 80.7519 216.903 81.1136 217.149 81.6023C217.399 82.0871 217.524 82.7045 217.524 83.4545V89H216.183V83.5455C216.183 82.8523 216.003 82.3163 215.643 81.9375C215.287 81.5549 214.793 81.3636 214.161 81.3636C213.721 81.3636 213.327 81.4564 212.979 81.642C212.634 81.8277 212.361 82.0985 212.161 82.4545C211.964 82.8106 211.865 83.2424 211.865 83.75ZM219.977 89V80.2727H221.273V81.5909H221.364C221.523 81.1591 221.811 80.8087 222.227 80.5398C222.644 80.2708 223.114 80.1364 223.636 80.1364C223.735 80.1364 223.858 80.1383 224.006 80.142C224.153 80.1458 224.265 80.1515 224.341 80.1591V81.5227C224.295 81.5114 224.191 81.4943 224.028 81.4716C223.869 81.4451 223.701 81.4318 223.523 81.4318C223.098 81.4318 222.72 81.5208 222.386 81.6989C222.057 81.8731 221.795 82.1155 221.602 82.4261C221.413 82.733 221.318 83.0833 221.318 83.4773V89H219.977ZM229.324 89.1818C228.483 89.1818 227.758 88.9962 227.148 88.625C226.542 88.25 226.074 87.7273 225.744 87.0568C225.419 86.3826 225.256 85.5985 225.256 84.7045C225.256 83.8106 225.419 83.0227 225.744 82.3409C226.074 81.6553 226.532 81.1212 227.119 80.7386C227.71 80.3523 228.4 80.1591 229.188 80.1591C229.642 80.1591 230.091 80.2348 230.534 80.3864C230.977 80.5379 231.381 80.7841 231.744 81.125C232.108 81.4621 232.398 81.9091 232.614 82.4659C232.83 83.0227 232.938 83.7083 232.938 84.5227V85.0909H226.21V83.9318H231.574C231.574 83.4394 231.475 83 231.278 82.6136C231.085 82.2273 230.809 81.9223 230.449 81.6989C230.093 81.4754 229.672 81.3636 229.188 81.3636C228.653 81.3636 228.191 81.4962 227.801 81.7614C227.415 82.0227 227.117 82.3636 226.909 82.7841C226.701 83.2045 226.597 83.6553 226.597 84.1364V84.9091C226.597 85.5682 226.71 86.1269 226.938 86.5852C227.169 87.0398 227.489 87.3864 227.898 87.625C228.307 87.8598 228.782 87.9773 229.324 87.9773C229.676 87.9773 229.994 87.928 230.278 87.8295C230.566 87.7273 230.814 87.5758 231.023 87.375C231.231 87.1705 231.392 86.9167 231.506 86.6136L232.801 86.9773C232.665 87.4167 232.436 87.803 232.114 88.1364C231.792 88.4659 231.394 88.7235 230.92 88.9091C230.447 89.0909 229.915 89.1818 229.324 89.1818ZM237.545 89.2045C236.992 89.2045 236.491 89.1004 236.04 88.892C235.589 88.6799 235.231 88.375 234.966 87.9773C234.701 87.5758 234.568 87.0909 234.568 86.5227C234.568 86.0227 234.667 85.6174 234.864 85.3068C235.061 84.9924 235.324 84.7462 235.653 84.5682C235.983 84.3902 236.347 84.2576 236.744 84.1705C237.146 84.0795 237.549 84.0076 237.955 83.9545C238.485 83.8864 238.915 83.8352 239.244 83.8011C239.578 83.7633 239.82 83.7008 239.972 83.6136C240.127 83.5265 240.205 83.375 240.205 83.1591V83.1136C240.205 82.553 240.051 82.1174 239.744 81.8068C239.441 81.4962 238.981 81.3409 238.364 81.3409C237.723 81.3409 237.222 81.4811 236.858 81.7614C236.494 82.0417 236.239 82.3409 236.091 82.6591L234.818 82.2045C235.045 81.6742 235.348 81.2614 235.727 80.9659C236.11 80.6667 236.527 80.4583 236.977 80.3409C237.432 80.2197 237.879 80.1591 238.318 80.1591C238.598 80.1591 238.92 80.1932 239.284 80.2614C239.652 80.3258 240.006 80.4602 240.347 80.6648C240.691 80.8693 240.977 81.178 241.205 81.5909C241.432 82.0038 241.545 82.5568 241.545 83.25V89H240.205V87.8182H240.136C240.045 88.0076 239.894 88.2102 239.682 88.4261C239.47 88.642 239.188 88.8258 238.835 88.9773C238.483 89.1288 238.053 89.2045 237.545 89.2045ZM237.75 88C238.28 88 238.727 87.8958 239.091 87.6875C239.458 87.4792 239.735 87.2102 239.92 86.8807C240.11 86.5511 240.205 86.2045 240.205 85.8409V84.6136C240.148 84.6818 240.023 84.7443 239.83 84.8011C239.64 84.8542 239.42 84.9015 239.17 84.9432C238.924 84.9811 238.684 85.0152 238.449 85.0455C238.218 85.072 238.03 85.0947 237.886 85.1136C237.538 85.1591 237.212 85.233 236.909 85.3352C236.61 85.4337 236.367 85.5833 236.182 85.7841C236 85.9811 235.909 86.25 235.909 86.5909C235.909 87.0568 236.081 87.4091 236.426 87.6477C236.775 87.8826 237.216 88 237.75 88ZM247.788 80.2727V81.4091H243.266V80.2727H247.788ZM244.584 78.1818H245.925V86.5C245.925 86.8788 245.98 87.1629 246.089 87.3523C246.203 87.5379 246.347 87.6629 246.521 87.7273C246.699 87.7879 246.887 87.8182 247.084 87.8182C247.232 87.8182 247.353 87.8106 247.447 87.7955C247.542 87.7765 247.618 87.7614 247.675 87.75L247.947 88.9545C247.857 88.9886 247.73 89.0227 247.567 89.0568C247.404 89.0947 247.197 89.1136 246.947 89.1136C246.569 89.1136 246.197 89.0322 245.834 88.8693C245.474 88.7064 245.175 88.4583 244.936 88.125C244.701 87.7917 244.584 87.3712 244.584 86.8636V78.1818ZM255.831 82.2273L254.626 82.5682C254.551 82.3674 254.439 82.1723 254.291 81.983C254.147 81.7898 253.95 81.6307 253.7 81.5057C253.45 81.3807 253.13 81.3182 252.74 81.3182C252.206 81.3182 251.761 81.4413 251.405 81.6875C251.053 81.9299 250.876 82.2386 250.876 82.6136C250.876 82.947 250.998 83.2102 251.24 83.4034C251.482 83.5966 251.861 83.7576 252.376 83.8864L253.672 84.2045C254.452 84.3939 255.034 84.6837 255.416 85.0739C255.799 85.4602 255.99 85.9583 255.99 86.5682C255.99 87.0682 255.846 87.5152 255.558 87.9091C255.274 88.303 254.876 88.6136 254.365 88.8409C253.854 89.0682 253.259 89.1818 252.581 89.1818C251.691 89.1818 250.954 88.9886 250.371 88.6023C249.787 88.2159 249.418 87.6515 249.263 86.9091L250.536 86.5909C250.657 87.0606 250.886 87.4129 251.223 87.6477C251.564 87.8826 252.009 88 252.558 88C253.183 88 253.679 87.8674 254.047 87.6023C254.418 87.3333 254.604 87.0114 254.604 86.6364C254.604 86.3333 254.498 86.0795 254.286 85.875C254.073 85.6667 253.748 85.5114 253.308 85.4091L251.854 85.0682C251.054 84.8788 250.467 84.5852 250.092 84.1875C249.721 83.786 249.536 83.2841 249.536 82.6818C249.536 82.1894 249.674 81.7538 249.95 81.375C250.231 80.9962 250.611 80.6989 251.092 80.483C251.577 80.267 252.126 80.1591 252.74 80.1591C253.604 80.1591 254.282 80.3485 254.774 80.7273C255.27 81.1061 255.623 81.6061 255.831 82.2273ZM262.69 89V77.3636H264.031V81.6591H264.145C264.243 81.5076 264.38 81.3144 264.554 81.0795C264.732 80.8409 264.986 80.6288 265.315 80.4432C265.649 80.2538 266.099 80.1591 266.668 80.1591C267.402 80.1591 268.05 80.3428 268.611 80.7102C269.171 81.0777 269.609 81.5985 269.923 82.2727C270.238 82.947 270.395 83.7424 270.395 84.6591C270.395 85.5833 270.238 86.3845 269.923 87.0625C269.609 87.7367 269.173 88.2595 268.616 88.6307C268.06 88.9981 267.418 89.1818 266.69 89.1818C266.13 89.1818 265.681 89.089 265.344 88.9034C265.007 88.714 264.747 88.5 264.565 88.2614C264.384 88.0189 264.243 87.8182 264.145 87.6591H263.986V89H262.69ZM264.009 84.6364C264.009 85.2955 264.105 85.8769 264.298 86.3807C264.491 86.8807 264.774 87.2727 265.145 87.5568C265.516 87.8371 265.971 87.9773 266.509 87.9773C267.069 87.9773 267.537 87.8295 267.912 87.5341C268.291 87.2348 268.575 86.8333 268.764 86.3295C268.957 85.822 269.054 85.2576 269.054 84.6364C269.054 84.0227 268.959 83.4697 268.77 82.9773C268.584 82.4811 268.302 82.089 267.923 81.8011C267.548 81.5095 267.077 81.3636 266.509 81.3636C265.963 81.3636 265.505 81.5019 265.134 81.7784C264.762 82.0511 264.482 82.4337 264.293 82.9261C264.103 83.4148 264.009 83.9848 264.009 84.6364ZM275.014 89.2045C274.461 89.2045 273.959 89.1004 273.509 88.892C273.058 88.6799 272.7 88.375 272.435 87.9773C272.17 87.5758 272.037 87.0909 272.037 86.5227C272.037 86.0227 272.135 85.6174 272.332 85.3068C272.529 84.9924 272.793 84.7462 273.122 84.5682C273.452 84.3902 273.815 84.2576 274.213 84.1705C274.615 84.0795 275.018 84.0076 275.423 83.9545C275.954 83.8864 276.384 83.8352 276.713 83.8011C277.046 83.7633 277.289 83.7008 277.44 83.6136C277.596 83.5265 277.673 83.375 277.673 83.1591V83.1136C277.673 82.553 277.52 82.1174 277.213 81.8068C276.91 81.4962 276.45 81.3409 275.832 81.3409C275.192 81.3409 274.69 81.4811 274.327 81.7614C273.963 82.0417 273.707 82.3409 273.56 82.6591L272.287 82.2045C272.514 81.6742 272.817 81.2614 273.196 80.9659C273.579 80.6667 273.995 80.4583 274.446 80.3409C274.901 80.2197 275.348 80.1591 275.787 80.1591C276.067 80.1591 276.389 80.1932 276.753 80.2614C277.12 80.3258 277.474 80.4602 277.815 80.6648C278.16 80.8693 278.446 81.178 278.673 81.5909C278.901 82.0038 279.014 82.5568 279.014 83.25V89H277.673V87.8182H277.605C277.514 88.0076 277.363 88.2102 277.151 88.4261C276.938 88.642 276.656 88.8258 276.304 88.9773C275.952 89.1288 275.522 89.2045 275.014 89.2045ZM275.219 88C275.749 88 276.196 87.8958 276.56 87.6875C276.927 87.4792 277.204 87.2102 277.389 86.8807C277.579 86.5511 277.673 86.2045 277.673 85.8409V84.6136C277.616 84.6818 277.491 84.7443 277.298 84.8011C277.109 84.8542 276.889 84.9015 276.639 84.9432C276.393 84.9811 276.152 85.0152 275.918 85.0455C275.687 85.072 275.499 85.0947 275.355 85.1136C275.007 85.1591 274.681 85.233 274.378 85.3352C274.079 85.4337 273.836 85.5833 273.651 85.7841C273.469 85.9811 273.378 86.25 273.378 86.5909C273.378 87.0568 273.55 87.4091 273.895 87.6477C274.243 87.8826 274.685 88 275.219 88ZM287.643 82.2273L286.439 82.5682C286.363 82.3674 286.251 82.1723 286.104 81.983C285.96 81.7898 285.763 81.6307 285.513 81.5057C285.263 81.3807 284.943 81.3182 284.553 81.3182C284.018 81.3182 283.573 81.4413 283.217 81.6875C282.865 81.9299 282.689 82.2386 282.689 82.6136C282.689 82.947 282.81 83.2102 283.053 83.4034C283.295 83.5966 283.674 83.7576 284.189 83.8864L285.484 84.2045C286.265 84.3939 286.846 84.6837 287.229 85.0739C287.611 85.4602 287.803 85.9583 287.803 86.5682C287.803 87.0682 287.659 87.5152 287.371 87.9091C287.087 88.303 286.689 88.6136 286.178 88.8409C285.666 89.0682 285.071 89.1818 284.393 89.1818C283.503 89.1818 282.767 88.9886 282.183 88.6023C281.6 88.2159 281.231 87.6515 281.075 86.9091L282.348 86.5909C282.469 87.0606 282.698 87.4129 283.036 87.6477C283.376 87.8826 283.821 88 284.371 88C284.996 88 285.492 87.8674 285.859 87.6023C286.231 87.3333 286.416 87.0114 286.416 86.6364C286.416 86.3333 286.31 86.0795 286.098 85.875C285.886 85.6667 285.56 85.5114 285.121 85.4091L283.666 85.0682C282.867 84.8788 282.28 84.5852 281.905 84.1875C281.534 83.786 281.348 83.2841 281.348 82.6818C281.348 82.1894 281.486 81.7538 281.763 81.375C282.043 80.9962 282.424 80.6989 282.905 80.483C283.39 80.267 283.939 80.1591 284.553 80.1591C285.416 80.1591 286.094 80.3485 286.587 80.7273C287.083 81.1061 287.435 81.6061 287.643 82.2273ZM293.48 89.1818C292.639 89.1818 291.914 88.9962 291.304 88.625C290.698 88.25 290.23 87.7273 289.901 87.0568C289.575 86.3826 289.412 85.5985 289.412 84.7045C289.412 83.8106 289.575 83.0227 289.901 82.3409C290.23 81.6553 290.688 81.1212 291.276 80.7386C291.866 80.3523 292.556 80.1591 293.344 80.1591C293.798 80.1591 294.247 80.2348 294.69 80.3864C295.134 80.5379 295.537 80.7841 295.901 81.125C296.264 81.4621 296.554 81.9091 296.77 82.4659C296.986 83.0227 297.094 83.7083 297.094 84.5227V85.0909H290.366V83.9318H295.73C295.73 83.4394 295.632 83 295.435 82.6136C295.241 82.2273 294.965 81.9223 294.605 81.6989C294.249 81.4754 293.829 81.3636 293.344 81.3636C292.81 81.3636 292.348 81.4962 291.957 81.7614C291.571 82.0227 291.274 82.3636 291.065 82.7841C290.857 83.2045 290.753 83.6553 290.753 84.1364V84.9091C290.753 85.5682 290.866 86.1269 291.094 86.5852C291.325 87.0398 291.645 87.3864 292.054 87.625C292.463 87.8598 292.938 87.9773 293.48 87.9773C293.832 87.9773 294.151 87.928 294.435 87.8295C294.723 87.7273 294.971 87.5758 295.179 87.375C295.387 87.1705 295.548 86.9167 295.662 86.6136L296.957 86.9773C296.821 87.4167 296.592 87.803 296.27 88.1364C295.948 88.4659 295.55 88.7235 295.077 88.9091C294.603 89.0909 294.071 89.1818 293.48 89.1818ZM302.429 89.1818C301.702 89.1818 301.06 88.9981 300.503 88.6307C299.946 88.2595 299.51 87.7367 299.196 87.0625C298.882 86.3845 298.724 85.5833 298.724 84.6591C298.724 83.7424 298.882 82.947 299.196 82.2727C299.51 81.5985 299.948 81.0777 300.509 80.7102C301.069 80.3428 301.717 80.1591 302.452 80.1591C303.02 80.1591 303.469 80.2538 303.798 80.4432C304.132 80.6288 304.385 80.8409 304.56 81.0795C304.738 81.3144 304.876 81.5076 304.974 81.6591H305.088V77.3636H306.429V89H305.134V87.6591H304.974C304.876 87.8182 304.736 88.0189 304.554 88.2614C304.372 88.5 304.113 88.714 303.776 88.9034C303.438 89.089 302.99 89.1818 302.429 89.1818ZM302.611 87.9773C303.149 87.9773 303.603 87.8371 303.974 87.5568C304.346 87.2727 304.628 86.8807 304.821 86.3807C305.014 85.8769 305.111 85.2955 305.111 84.6364C305.111 83.9848 305.016 83.4148 304.827 82.9261C304.637 82.4337 304.357 82.0511 303.986 81.7784C303.615 81.5019 303.156 81.3636 302.611 81.3636C302.043 81.3636 301.569 81.5095 301.19 81.8011C300.815 82.089 300.533 82.4811 300.344 82.9773C300.158 83.4697 300.065 84.0227 300.065 84.6364C300.065 85.2576 300.16 85.822 300.349 86.3295C300.543 86.8333 300.827 87.2348 301.202 87.5341C301.58 87.8295 302.05 87.9773 302.611 87.9773ZM317.116 89.1818C316.329 89.1818 315.637 88.9943 315.043 88.6193C314.452 88.2443 313.99 87.7197 313.656 87.0455C313.327 86.3712 313.162 85.5833 313.162 84.6818C313.162 83.7727 313.327 82.9792 313.656 82.3011C313.99 81.6231 314.452 81.0966 315.043 80.7216C315.637 80.3466 316.329 80.1591 317.116 80.1591C317.904 80.1591 318.594 80.3466 319.185 80.7216C319.779 81.0966 320.241 81.6231 320.571 82.3011C320.904 82.9792 321.071 83.7727 321.071 84.6818C321.071 85.5833 320.904 86.3712 320.571 87.0455C320.241 87.7197 319.779 88.2443 319.185 88.6193C318.594 88.9943 317.904 89.1818 317.116 89.1818ZM317.116 87.9773C317.715 87.9773 318.207 87.8239 318.594 87.517C318.98 87.2102 319.266 86.8068 319.452 86.3068C319.637 85.8068 319.73 85.2652 319.73 84.6818C319.73 84.0985 319.637 83.5549 319.452 83.0511C319.266 82.5473 318.98 82.1402 318.594 81.8295C318.207 81.5189 317.715 81.3636 317.116 81.3636C316.518 81.3636 316.026 81.5189 315.639 81.8295C315.253 82.1402 314.967 82.5473 314.781 83.0511C314.596 83.5549 314.503 84.0985 314.503 84.6818C314.503 85.2652 314.596 85.8068 314.781 86.3068C314.967 86.8068 315.253 87.2102 315.639 87.517C316.026 87.8239 316.518 87.9773 317.116 87.9773ZM324.459 83.75V89H323.118V80.2727H324.413V81.6364H324.527C324.732 81.1932 325.042 80.8371 325.459 80.5682C325.875 80.2955 326.413 80.1591 327.072 80.1591C327.663 80.1591 328.18 80.2803 328.624 80.5227C329.067 80.7614 329.411 81.125 329.658 81.6136C329.904 82.0985 330.027 82.7121 330.027 83.4545V89H328.686V83.5455C328.686 82.8598 328.508 82.3258 328.152 81.9432C327.796 81.5568 327.307 81.3636 326.686 81.3636C326.258 81.3636 325.875 81.4564 325.538 81.642C325.205 81.8277 324.942 82.0985 324.749 82.4545C324.555 82.8106 324.459 83.2424 324.459 83.75ZM338.318 83.75V89H336.977V77.3636H338.318V81.6364H338.432C338.636 81.1856 338.943 80.8277 339.352 80.5625C339.765 80.2936 340.314 80.1591 341 80.1591C341.595 80.1591 342.116 80.2784 342.562 80.517C343.009 80.7519 343.356 81.1136 343.602 81.6023C343.852 82.0871 343.977 82.7045 343.977 83.4545V89H342.636V83.5455C342.636 82.8523 342.456 82.3163 342.097 81.9375C341.741 81.5549 341.246 81.3636 340.614 81.3636C340.174 81.3636 339.78 81.4564 339.432 81.642C339.087 81.8277 338.814 82.0985 338.614 82.4545C338.417 82.8106 338.318 83.2424 338.318 83.75ZM349.976 89.1818C349.188 89.1818 348.497 88.9943 347.902 88.6193C347.311 88.2443 346.849 87.7197 346.516 87.0455C346.186 86.3712 346.021 85.5833 346.021 84.6818C346.021 83.7727 346.186 82.9792 346.516 82.3011C346.849 81.6231 347.311 81.0966 347.902 80.7216C348.497 80.3466 349.188 80.1591 349.976 80.1591C350.764 80.1591 351.453 80.3466 352.044 80.7216C352.639 81.0966 353.101 81.6231 353.43 82.3011C353.764 82.9792 353.93 83.7727 353.93 84.6818C353.93 85.5833 353.764 86.3712 353.43 87.0455C353.101 87.7197 352.639 88.2443 352.044 88.6193C351.453 88.9943 350.764 89.1818 349.976 89.1818ZM349.976 87.9773C350.574 87.9773 351.067 87.8239 351.453 87.517C351.839 87.2102 352.125 86.8068 352.311 86.3068C352.497 85.8068 352.589 85.2652 352.589 84.6818C352.589 84.0985 352.497 83.5549 352.311 83.0511C352.125 82.5473 351.839 82.1402 351.453 81.8295C351.067 81.5189 350.574 81.3636 349.976 81.3636C349.377 81.3636 348.885 81.5189 348.499 81.8295C348.112 82.1402 347.826 82.5473 347.641 83.0511C347.455 83.5549 347.362 84.0985 347.362 84.6818C347.362 85.2652 347.455 85.8068 347.641 86.3068C347.826 86.8068 348.112 87.2102 348.499 87.517C348.885 87.8239 349.377 87.9773 349.976 87.9773ZM357.658 89L354.999 80.2727H356.408L358.294 86.9545H358.385L360.249 80.2727H361.68L363.521 86.9318H363.612L365.499 80.2727H366.908L364.249 89H362.93L361.021 82.2955H360.885L358.976 89H357.658ZM145.023 99.2727V100.409H140.5V99.2727H145.023ZM141.818 97.1818H143.159V105.5C143.159 105.879 143.214 106.163 143.324 106.352C143.438 106.538 143.581 106.663 143.756 106.727C143.934 106.788 144.121 106.818 144.318 106.818C144.466 106.818 144.587 106.811 144.682 106.795C144.777 106.777 144.852 106.761 144.909 106.75L145.182 107.955C145.091 107.989 144.964 108.023 144.801 108.057C144.638 108.095 144.432 108.114 144.182 108.114C143.803 108.114 143.432 108.032 143.068 107.869C142.708 107.706 142.409 107.458 142.17 107.125C141.936 106.792 141.818 106.371 141.818 105.864V97.1818ZM148.568 102.75V108H147.227V96.3636H148.568V100.636H148.682C148.886 100.186 149.193 99.8277 149.602 99.5625C150.015 99.2936 150.564 99.1591 151.25 99.1591C151.845 99.1591 152.366 99.2784 152.812 99.517C153.259 99.7519 153.606 100.114 153.852 100.602C154.102 101.087 154.227 101.705 154.227 102.455V108H152.886V102.545C152.886 101.852 152.706 101.316 152.347 100.938C151.991 100.555 151.496 100.364 150.864 100.364C150.424 100.364 150.03 100.456 149.682 100.642C149.337 100.828 149.064 101.098 148.864 101.455C148.667 101.811 148.568 102.242 148.568 102.75ZM160.339 108.182C159.499 108.182 158.773 107.996 158.163 107.625C157.557 107.25 157.089 106.727 156.76 106.057C156.434 105.383 156.271 104.598 156.271 103.705C156.271 102.811 156.434 102.023 156.76 101.341C157.089 100.655 157.548 100.121 158.135 99.7386C158.726 99.3523 159.415 99.1591 160.203 99.1591C160.658 99.1591 161.107 99.2348 161.55 99.3864C161.993 99.5379 162.396 99.7841 162.76 100.125C163.124 100.462 163.413 100.909 163.629 101.466C163.845 102.023 163.953 102.708 163.953 103.523V104.091H157.226V102.932H162.589C162.589 102.439 162.491 102 162.294 101.614C162.101 101.227 161.824 100.922 161.464 100.699C161.108 100.475 160.688 100.364 160.203 100.364C159.669 100.364 159.207 100.496 158.817 100.761C158.43 101.023 158.133 101.364 157.925 101.784C157.716 102.205 157.612 102.655 157.612 103.136V103.909C157.612 104.568 157.726 105.127 157.953 105.585C158.184 106.04 158.504 106.386 158.913 106.625C159.322 106.86 159.798 106.977 160.339 106.977C160.692 106.977 161.01 106.928 161.294 106.83C161.582 106.727 161.83 106.576 162.038 106.375C162.247 106.17 162.408 105.917 162.521 105.614L163.817 105.977C163.68 106.417 163.451 106.803 163.129 107.136C162.807 107.466 162.41 107.723 161.936 107.909C161.463 108.091 160.93 108.182 160.339 108.182ZM166.591 111.273C166.364 111.273 166.161 111.254 165.983 111.216C165.805 111.182 165.682 111.148 165.614 111.114L165.955 109.932C166.28 110.015 166.568 110.045 166.818 110.023C167.068 110 167.29 109.888 167.483 109.688C167.68 109.491 167.86 109.17 168.023 108.727L168.273 108.045L165.045 99.2727H166.5L168.909 106.227H169L171.409 99.2727H172.864L169.159 109.273C168.992 109.723 168.786 110.097 168.54 110.392C168.294 110.691 168.008 110.913 167.682 111.057C167.36 111.201 166.996 111.273 166.591 111.273ZM182.679 108.182C181.891 108.182 181.2 107.994 180.605 107.619C180.014 107.244 179.552 106.72 179.219 106.045C178.889 105.371 178.724 104.583 178.724 103.682C178.724 102.773 178.889 101.979 179.219 101.301C179.552 100.623 180.014 100.097 180.605 99.7216C181.2 99.3466 181.891 99.1591 182.679 99.1591C183.467 99.1591 184.156 99.3466 184.747 99.7216C185.342 100.097 185.804 100.623 186.134 101.301C186.467 101.979 186.634 102.773 186.634 103.682C186.634 104.583 186.467 105.371 186.134 106.045C185.804 106.72 185.342 107.244 184.747 107.619C184.156 107.994 183.467 108.182 182.679 108.182ZM182.679 106.977C183.277 106.977 183.77 106.824 184.156 106.517C184.543 106.21 184.829 105.807 185.014 105.307C185.2 104.807 185.293 104.265 185.293 103.682C185.293 103.098 185.2 102.555 185.014 102.051C184.829 101.547 184.543 101.14 184.156 100.83C183.77 100.519 183.277 100.364 182.679 100.364C182.08 100.364 181.588 100.519 181.202 100.83C180.815 101.14 180.529 101.547 180.344 102.051C180.158 102.555 180.065 103.098 180.065 103.682C180.065 104.265 180.158 104.807 180.344 105.307C180.529 105.807 180.815 106.21 181.202 106.517C181.588 106.824 182.08 106.977 182.679 106.977ZM188.68 111.273V99.2727H189.976V100.659H190.135C190.233 100.508 190.37 100.314 190.544 100.08C190.722 99.8409 190.976 99.6288 191.305 99.4432C191.639 99.2538 192.089 99.1591 192.658 99.1591C193.393 99.1591 194.04 99.3428 194.601 99.7102C195.161 100.078 195.599 100.598 195.913 101.273C196.228 101.947 196.385 102.742 196.385 103.659C196.385 104.583 196.228 105.384 195.913 106.062C195.599 106.737 195.163 107.259 194.607 107.631C194.05 107.998 193.408 108.182 192.68 108.182C192.12 108.182 191.671 108.089 191.334 107.903C190.997 107.714 190.737 107.5 190.555 107.261C190.374 107.019 190.233 106.818 190.135 106.659H190.021V111.273H188.68ZM189.999 103.636C189.999 104.295 190.095 104.877 190.288 105.381C190.482 105.881 190.764 106.273 191.135 106.557C191.506 106.837 191.961 106.977 192.499 106.977C193.059 106.977 193.527 106.83 193.902 106.534C194.281 106.235 194.565 105.833 194.754 105.33C194.947 104.822 195.044 104.258 195.044 103.636C195.044 103.023 194.949 102.47 194.76 101.977C194.574 101.481 194.292 101.089 193.913 100.801C193.538 100.509 193.067 100.364 192.499 100.364C191.953 100.364 191.495 100.502 191.124 100.778C190.752 101.051 190.472 101.434 190.283 101.926C190.093 102.415 189.999 102.985 189.999 103.636ZM202.089 108.182C201.249 108.182 200.523 107.996 199.913 107.625C199.307 107.25 198.839 106.727 198.51 106.057C198.184 105.383 198.021 104.598 198.021 103.705C198.021 102.811 198.184 102.023 198.51 101.341C198.839 100.655 199.298 100.121 199.885 99.7386C200.476 99.3523 201.165 99.1591 201.953 99.1591C202.408 99.1591 202.857 99.2348 203.3 99.3864C203.743 99.5379 204.146 99.7841 204.51 100.125C204.874 100.462 205.163 100.909 205.379 101.466C205.595 102.023 205.703 102.708 205.703 103.523V104.091H198.976V102.932H204.339C204.339 102.439 204.241 102 204.044 101.614C203.851 101.227 203.574 100.922 203.214 100.699C202.858 100.475 202.438 100.364 201.953 100.364C201.419 100.364 200.957 100.496 200.567 100.761C200.18 101.023 199.883 101.364 199.675 101.784C199.466 102.205 199.362 102.655 199.362 103.136V103.909C199.362 104.568 199.476 105.127 199.703 105.585C199.934 106.04 200.254 106.386 200.663 106.625C201.072 106.86 201.548 106.977 202.089 106.977C202.442 106.977 202.76 106.928 203.044 106.83C203.332 106.727 203.58 106.576 203.788 106.375C203.997 106.17 204.158 105.917 204.271 105.614L205.567 105.977C205.43 106.417 205.201 106.803 204.879 107.136C204.557 107.466 204.16 107.723 203.686 107.909C203.213 108.091 202.68 108.182 202.089 108.182ZM207.743 108V99.2727H209.038V100.591H209.129C209.288 100.159 209.576 99.8087 209.993 99.5398C210.41 99.2708 210.879 99.1364 211.402 99.1364C211.5 99.1364 211.624 99.1383 211.771 99.142C211.919 99.1458 212.031 99.1515 212.107 99.1591V100.523C212.061 100.511 211.957 100.494 211.794 100.472C211.635 100.445 211.466 100.432 211.288 100.432C210.864 100.432 210.485 100.521 210.152 100.699C209.822 100.873 209.561 101.116 209.368 101.426C209.179 101.733 209.084 102.083 209.084 102.477V108H207.743ZM216.264 108.205C215.711 108.205 215.209 108.1 214.759 107.892C214.308 107.68 213.95 107.375 213.685 106.977C213.42 106.576 213.287 106.091 213.287 105.523C213.287 105.023 213.385 104.617 213.582 104.307C213.779 103.992 214.043 103.746 214.372 103.568C214.702 103.39 215.065 103.258 215.463 103.17C215.865 103.08 216.268 103.008 216.673 102.955C217.204 102.886 217.634 102.835 217.963 102.801C218.296 102.763 218.539 102.701 218.69 102.614C218.846 102.527 218.923 102.375 218.923 102.159V102.114C218.923 101.553 218.77 101.117 218.463 100.807C218.16 100.496 217.7 100.341 217.082 100.341C216.442 100.341 215.94 100.481 215.577 100.761C215.213 101.042 214.957 101.341 214.81 101.659L213.537 101.205C213.764 100.674 214.067 100.261 214.446 99.9659C214.829 99.6667 215.245 99.4583 215.696 99.3409C216.151 99.2197 216.598 99.1591 217.037 99.1591C217.317 99.1591 217.639 99.1932 218.003 99.2614C218.37 99.3258 218.724 99.4602 219.065 99.6648C219.41 99.8693 219.696 100.178 219.923 100.591C220.151 101.004 220.264 101.557 220.264 102.25V108H218.923V106.818H218.855C218.764 107.008 218.613 107.21 218.401 107.426C218.188 107.642 217.906 107.826 217.554 107.977C217.202 108.129 216.772 108.205 216.264 108.205ZM216.469 107C216.999 107 217.446 106.896 217.81 106.688C218.177 106.479 218.454 106.21 218.639 105.881C218.829 105.551 218.923 105.205 218.923 104.841V103.614C218.866 103.682 218.741 103.744 218.548 103.801C218.359 103.854 218.139 103.902 217.889 103.943C217.643 103.981 217.402 104.015 217.168 104.045C216.937 104.072 216.749 104.095 216.605 104.114C216.257 104.159 215.931 104.233 215.628 104.335C215.329 104.434 215.086 104.583 214.901 104.784C214.719 104.981 214.628 105.25 214.628 105.591C214.628 106.057 214.8 106.409 215.145 106.648C215.493 106.883 215.935 107 216.469 107ZM226.507 99.2727V100.409H221.984V99.2727H226.507ZM223.303 97.1818H224.643V105.5C224.643 105.879 224.698 106.163 224.808 106.352C224.922 106.538 225.066 106.663 225.24 106.727C225.418 106.788 225.606 106.818 225.803 106.818C225.95 106.818 226.071 106.811 226.166 106.795C226.261 106.777 226.337 106.761 226.393 106.75L226.666 107.955C226.575 107.989 226.448 108.023 226.286 108.057C226.123 108.095 225.916 108.114 225.666 108.114C225.287 108.114 224.916 108.032 224.553 107.869C224.193 107.706 223.893 107.458 223.655 107.125C223.42 106.792 223.303 106.371 223.303 105.864V97.1818ZM232.089 108.182C231.249 108.182 230.523 107.996 229.913 107.625C229.307 107.25 228.839 106.727 228.51 106.057C228.184 105.383 228.021 104.598 228.021 103.705C228.021 102.811 228.184 102.023 228.51 101.341C228.839 100.655 229.298 100.121 229.885 99.7386C230.476 99.3523 231.165 99.1591 231.953 99.1591C232.408 99.1591 232.857 99.2348 233.3 99.3864C233.743 99.5379 234.146 99.7841 234.51 100.125C234.874 100.462 235.163 100.909 235.379 101.466C235.595 102.023 235.703 102.708 235.703 103.523V104.091H228.976V102.932H234.339C234.339 102.439 234.241 102 234.044 101.614C233.851 101.227 233.574 100.922 233.214 100.699C232.858 100.475 232.438 100.364 231.953 100.364C231.419 100.364 230.957 100.496 230.567 100.761C230.18 101.023 229.883 101.364 229.675 101.784C229.466 102.205 229.362 102.655 229.362 103.136V103.909C229.362 104.568 229.476 105.127 229.703 105.585C229.934 106.04 230.254 106.386 230.663 106.625C231.072 106.86 231.548 106.977 232.089 106.977C232.442 106.977 232.76 106.928 233.044 106.83C233.332 106.727 233.58 106.576 233.788 106.375C233.997 106.17 234.158 105.917 234.271 105.614L235.567 105.977C235.43 106.417 235.201 106.803 234.879 107.136C234.557 107.466 234.16 107.723 233.686 107.909C233.213 108.091 232.68 108.182 232.089 108.182ZM245.788 108.182C245 108.182 244.309 107.994 243.714 107.619C243.124 107.244 242.661 106.72 242.328 106.045C241.999 105.371 241.834 104.583 241.834 103.682C241.834 102.773 241.999 101.979 242.328 101.301C242.661 100.623 243.124 100.097 243.714 99.7216C244.309 99.3466 245 99.1591 245.788 99.1591C246.576 99.1591 247.266 99.3466 247.857 99.7216C248.451 100.097 248.913 100.623 249.243 101.301C249.576 101.979 249.743 102.773 249.743 103.682C249.743 104.583 249.576 105.371 249.243 106.045C248.913 106.72 248.451 107.244 247.857 107.619C247.266 107.994 246.576 108.182 245.788 108.182ZM245.788 106.977C246.387 106.977 246.879 106.824 247.266 106.517C247.652 106.21 247.938 105.807 248.124 105.307C248.309 104.807 248.402 104.265 248.402 103.682C248.402 103.098 248.309 102.555 248.124 102.051C247.938 101.547 247.652 101.14 247.266 100.83C246.879 100.519 246.387 100.364 245.788 100.364C245.19 100.364 244.697 100.519 244.311 100.83C243.925 101.14 243.639 101.547 243.453 102.051C243.268 102.555 243.175 103.098 243.175 103.682C243.175 104.265 243.268 104.807 243.453 105.307C243.639 105.807 243.925 106.21 244.311 106.517C244.697 106.824 245.19 106.977 245.788 106.977ZM253.131 102.75V108H251.79V99.2727H253.085V100.636H253.199C253.403 100.193 253.714 99.8371 254.131 99.5682C254.547 99.2955 255.085 99.1591 255.744 99.1591C256.335 99.1591 256.852 99.2803 257.295 99.5227C257.739 99.7614 258.083 100.125 258.33 100.614C258.576 101.098 258.699 101.712 258.699 102.455V108H257.358V102.545C257.358 101.86 257.18 101.326 256.824 100.943C256.468 100.557 255.979 100.364 255.358 100.364C254.93 100.364 254.547 100.456 254.21 100.642C253.877 100.828 253.614 101.098 253.42 101.455C253.227 101.811 253.131 102.242 253.131 102.75ZM269.445 99.2727V100.409H264.922V99.2727H269.445ZM266.24 97.1818H267.581V105.5C267.581 105.879 267.636 106.163 267.746 106.352C267.859 106.538 268.003 106.663 268.178 106.727C268.356 106.788 268.543 106.818 268.74 106.818C268.888 106.818 269.009 106.811 269.104 106.795C269.198 106.777 269.274 106.761 269.331 106.75L269.604 107.955C269.513 107.989 269.386 108.023 269.223 108.057C269.06 108.095 268.854 108.114 268.604 108.114C268.225 108.114 267.854 108.032 267.49 107.869C267.13 107.706 266.831 107.458 266.592 107.125C266.357 106.792 266.24 106.371 266.24 105.864V97.1818ZM272.99 102.75V108H271.649V96.3636H272.99V100.636H273.104C273.308 100.186 273.615 99.8277 274.024 99.5625C274.437 99.2936 274.986 99.1591 275.672 99.1591C276.267 99.1591 276.787 99.2784 277.234 99.517C277.681 99.7519 278.028 100.114 278.274 100.602C278.524 101.087 278.649 101.705 278.649 102.455V108H277.308V102.545C277.308 101.852 277.128 101.316 276.768 100.938C276.412 100.555 275.918 100.364 275.286 100.364C274.846 100.364 274.452 100.456 274.104 100.642C273.759 100.828 273.486 101.098 273.286 101.455C273.089 101.811 272.99 102.242 272.99 102.75ZM284.761 108.182C283.92 108.182 283.195 107.996 282.585 107.625C281.979 107.25 281.511 106.727 281.182 106.057C280.856 105.383 280.693 104.598 280.693 103.705C280.693 102.811 280.856 102.023 281.182 101.341C281.511 100.655 281.97 100.121 282.557 99.7386C283.148 99.3523 283.837 99.1591 284.625 99.1591C285.08 99.1591 285.528 99.2348 285.972 99.3864C286.415 99.5379 286.818 99.7841 287.182 100.125C287.545 100.462 287.835 100.909 288.051 101.466C288.267 102.023 288.375 102.708 288.375 103.523V104.091H281.648V102.932H287.011C287.011 102.439 286.913 102 286.716 101.614C286.523 101.227 286.246 100.922 285.886 100.699C285.53 100.475 285.11 100.364 284.625 100.364C284.091 100.364 283.629 100.496 283.239 100.761C282.852 101.023 282.555 101.364 282.347 101.784C282.138 102.205 282.034 102.655 282.034 103.136V103.909C282.034 104.568 282.148 105.127 282.375 105.585C282.606 106.04 282.926 106.386 283.335 106.625C283.744 106.86 284.22 106.977 284.761 106.977C285.114 106.977 285.432 106.928 285.716 106.83C286.004 106.727 286.252 106.576 286.46 106.375C286.669 106.17 286.83 105.917 286.943 105.614L288.239 105.977C288.102 106.417 287.873 106.803 287.551 107.136C287.229 107.466 286.831 107.723 286.358 107.909C285.884 108.091 285.352 108.182 284.761 108.182ZM296.256 102.75V108H294.915V99.2727H296.21V100.636H296.324C296.528 100.193 296.839 99.8371 297.256 99.5682C297.672 99.2955 298.21 99.1591 298.869 99.1591C299.46 99.1591 299.977 99.2803 300.42 99.5227C300.864 99.7614 301.208 100.125 301.455 100.614C301.701 101.098 301.824 101.712 301.824 102.455V108H300.483V102.545C300.483 101.86 300.305 101.326 299.949 100.943C299.593 100.557 299.104 100.364 298.483 100.364C298.055 100.364 297.672 100.456 297.335 100.642C297.002 100.828 296.739 101.098 296.545 101.455C296.352 101.811 296.256 102.242 296.256 102.75ZM307.933 108.182C307.092 108.182 306.367 107.996 305.757 107.625C305.151 107.25 304.683 106.727 304.354 106.057C304.028 105.383 303.865 104.598 303.865 103.705C303.865 102.811 304.028 102.023 304.354 101.341C304.683 100.655 305.142 100.121 305.729 99.7386C306.32 99.3523 307.009 99.1591 307.797 99.1591C308.251 99.1591 308.7 99.2348 309.143 99.3864C309.587 99.5379 309.99 99.7841 310.354 100.125C310.717 100.462 311.007 100.909 311.223 101.466C311.439 102.023 311.547 102.708 311.547 103.523V104.091H304.82V102.932H310.183C310.183 102.439 310.085 102 309.888 101.614C309.695 101.227 309.418 100.922 309.058 100.699C308.702 100.475 308.282 100.364 307.797 100.364C307.263 100.364 306.801 100.496 306.411 100.761C306.024 101.023 305.727 101.364 305.518 101.784C305.31 102.205 305.206 102.655 305.206 103.136V103.909C305.206 104.568 305.32 105.127 305.547 105.585C305.778 106.04 306.098 106.386 306.507 106.625C306.916 106.86 307.392 106.977 307.933 106.977C308.286 106.977 308.604 106.928 308.888 106.83C309.176 106.727 309.424 106.576 309.632 106.375C309.84 106.17 310.001 105.917 310.115 105.614L311.411 105.977C311.274 106.417 311.045 106.803 310.723 107.136C310.401 107.466 310.003 107.723 309.53 107.909C309.056 108.091 308.524 108.182 307.933 108.182ZM317.382 99.2727V100.409H312.859V99.2727H317.382ZM314.178 97.1818H315.518V105.5C315.518 105.879 315.573 106.163 315.683 106.352C315.797 106.538 315.941 106.663 316.115 106.727C316.293 106.788 316.481 106.818 316.678 106.818C316.825 106.818 316.946 106.811 317.041 106.795C317.136 106.777 317.212 106.761 317.268 106.75L317.541 107.955C317.45 107.989 317.323 108.023 317.161 108.057C316.998 108.095 316.791 108.114 316.541 108.114C316.162 108.114 315.791 108.032 315.428 107.869C315.068 107.706 314.768 107.458 314.53 107.125C314.295 106.792 314.178 106.371 314.178 105.864V97.1818ZM321.376 108L318.717 99.2727H320.126L322.013 105.955H322.104L323.967 99.2727H325.399L327.24 105.932H327.331L329.217 99.2727H330.626L327.967 108H326.649L324.74 101.295H324.604L322.695 108H321.376ZM335.648 108.182C334.86 108.182 334.169 107.994 333.574 107.619C332.983 107.244 332.521 106.72 332.188 106.045C331.858 105.371 331.693 104.583 331.693 103.682C331.693 102.773 331.858 101.979 332.188 101.301C332.521 100.623 332.983 100.097 333.574 99.7216C334.169 99.3466 334.86 99.1591 335.648 99.1591C336.436 99.1591 337.125 99.3466 337.716 99.7216C338.311 100.097 338.773 100.623 339.102 101.301C339.436 101.979 339.602 102.773 339.602 103.682C339.602 104.583 339.436 105.371 339.102 106.045C338.773 106.72 338.311 107.244 337.716 107.619C337.125 107.994 336.436 108.182 335.648 108.182ZM335.648 106.977C336.246 106.977 336.739 106.824 337.125 106.517C337.511 106.21 337.797 105.807 337.983 105.307C338.169 104.807 338.261 104.265 338.261 103.682C338.261 103.098 338.169 102.555 337.983 102.051C337.797 101.547 337.511 101.14 337.125 100.83C336.739 100.519 336.246 100.364 335.648 100.364C335.049 100.364 334.557 100.519 334.17 100.83C333.784 101.14 333.498 101.547 333.312 102.051C333.127 102.555 333.034 103.098 333.034 103.682C333.034 104.265 333.127 104.807 333.312 105.307C333.498 105.807 333.784 106.21 334.17 106.517C334.557 106.824 335.049 106.977 335.648 106.977ZM341.649 108V99.2727H342.945V100.591H343.036C343.195 100.159 343.482 99.8087 343.899 99.5398C344.316 99.2708 344.786 99.1364 345.308 99.1364C345.407 99.1364 345.53 99.1383 345.678 99.142C345.825 99.1458 345.937 99.1515 346.013 99.1591V100.523C345.967 100.511 345.863 100.494 345.7 100.472C345.541 100.445 345.373 100.432 345.195 100.432C344.77 100.432 344.392 100.521 344.058 100.699C343.729 100.873 343.467 101.116 343.274 101.426C343.085 101.733 342.99 102.083 342.99 102.477V108H341.649ZM348.852 104.818L348.83 103.159H349.102L352.92 99.2727H354.58L350.511 103.386H350.398L348.852 104.818ZM347.602 108V96.3636H348.943V108H347.602ZM353.148 108L349.739 103.682L350.693 102.75L354.852 108H353.148Z" fill="white"/>
<circle cx="81" cy="71" r="43" fill="#74883F"/>
<path fill-rule="evenodd" clip-rule="evenodd" d="M80.6984 45.6263C80.0847 45.7684 79.4188 46.221 78.9319 46.8268C78.6242 47.2097 76.6941 50.5195 71.9805 58.747C71.5981 59.4145 70.9056 60.6219 70.4417 61.43C69.2276 63.5448 64.8386 71.2048 64.3655 72.0344C64.1452 72.4209 63.2227 74.0307 62.3155 75.6118C56.7562 85.3011 55.8526 86.8924 55.7482 87.1777C55.6715 87.3875 55.631 87.6878 55.628 88.0702C55.6237 88.5958 55.6418 88.6834 55.8332 89.067C56.095 89.5915 56.5534 90.0244 57.1323 90.2941L57.5665 90.4963H81.6005H105.635L106.131 90.2545C106.678 89.9877 106.984 89.6794 107.227 89.1497C107.42 88.728 107.431 87.9133 107.25 87.3693C107.181 87.1603 106.406 85.7517 105.528 84.2391C100.208 75.0754 97.4846 70.3851 95.2332 66.5086C93.8353 64.1019 91.5824 60.221 90.2267 57.8845C85.5662 49.8525 84.077 47.3114 83.8563 47.0144C83.0277 45.8996 81.8167 45.3673 80.6984 45.6263ZM81.1035 49.5009C80.954 49.7671 79.3907 52.4873 77.9374 55.0099C77.1977 56.2938 75.1628 59.8358 74.8913 60.3121C74.1845 61.5517 72.0408 65.2882 71.7209 65.8379C71.5165 66.1892 71.2763 66.606 71.1873 66.7642C70.8906 67.2908 68.7314 71.0628 68.1886 72.0025C67.8944 72.5119 66.5101 74.9267 65.1124 77.3686C63.7148 79.8105 62.0675 82.6852 61.452 83.7568C60.8364 84.8284 60.1436 86.0358 59.9124 86.4398L59.492 87.1745L81.4209 87.1905C93.4818 87.1994 103.361 87.1956 103.375 87.1822C103.397 87.1604 101.142 83.2542 96.3655 75.0369C95.4669 73.4909 93.2805 69.7251 91.5071 66.6683C89.7336 63.6116 87.7725 60.2338 87.149 59.1622C84.8172 55.1542 81.6648 49.7302 81.5148 49.4681C81.4293 49.3187 81.34 49.197 81.3164 49.1975C81.2927 49.198 81.1969 49.3346 81.1035 49.5009ZM80.972 59.103C79.4919 59.3174 78.052 60.674 77.8113 62.081C77.748 62.4512 77.7572 62.6719 77.8719 63.5387C77.9462 64.1005 78.1515 65.6526 78.3281 66.9877C78.5047 68.3229 78.6928 69.7315 78.7461 70.118C78.7995 70.5044 78.9163 71.3812 79.0059 72.0664C79.518 75.9868 79.5961 76.4777 79.77 76.8654C79.9664 77.3035 80.2645 77.6422 80.6506 77.8661C80.9127 78.0181 81.0171 78.0393 81.5 78.0386C82.1467 78.0377 82.4321 77.9199 82.8235 77.4926C83.3212 76.9494 83.3901 76.6818 83.7613 73.8551C83.8846 72.9155 84.1222 71.1251 84.414 68.9361C84.4866 68.3915 84.6184 67.3998 84.707 66.7322C84.7954 66.0646 84.9425 64.9723 85.0337 64.3047C85.2775 62.5192 85.282 62.4402 85.1648 61.9476C85.005 61.2762 84.7163 60.7951 84.1203 60.2076C83.4961 59.592 82.8842 59.2652 82.0963 59.1267C81.5404 59.0289 81.4911 59.0278 80.972 59.103ZM81.0544 79.6128C80.3042 79.7353 79.5187 80.3384 79.1916 81.0433C78.4495 82.6419 79.381 84.4614 81.104 84.7786C82.1411 84.9695 83.3508 84.3261 83.8084 83.3401C84.7072 81.404 83.1329 79.2733 81.0544 79.6128Z" fill="white"/>
</svg>
