<svg width="1532" height="174" viewBox="0 0 1532 174" fill="none" xmlns="http://www.w3.org/2000/svg">
<path d="M463.435 79.513C460.775 79.513 458.552 78.943 456.766 77.803C455.018 76.663 453.688 75.086 452.776 73.072C451.864 71.058 451.332 68.721 451.18 66.061L456.88 64.522C456.994 66.156 457.241 67.733 457.621 69.253C458.039 70.773 458.704 72.027 459.616 73.015C460.528 73.965 461.801 74.44 463.435 74.44C465.107 74.44 466.361 73.984 467.197 73.072C468.071 72.122 468.508 70.773 468.508 69.025C468.508 66.935 468.033 65.263 467.083 64.009C466.133 62.717 464.936 61.425 463.492 60.133L455.74 53.293C454.22 51.963 453.099 50.519 452.377 48.961C451.655 47.365 451.294 45.408 451.294 43.09C451.294 39.708 452.263 37.086 454.201 35.224C456.139 33.362 458.78 32.431 462.124 32.431C463.948 32.431 465.544 32.678 466.912 33.172C468.318 33.628 469.477 34.35 470.389 35.338C471.339 36.326 472.08 37.58 472.612 39.1C473.182 40.582 473.562 42.33 473.752 44.344L468.28 45.826C468.166 44.306 467.938 42.919 467.596 41.665C467.254 40.373 466.646 39.347 465.772 38.587C464.936 37.789 463.72 37.39 462.124 37.39C460.528 37.39 459.274 37.827 458.362 38.701C457.488 39.537 457.051 40.791 457.051 42.463C457.051 43.869 457.279 45.028 457.735 45.94C458.229 46.852 459.008 47.783 460.072 48.733L467.881 55.573C469.629 57.093 471.168 58.917 472.498 61.045C473.828 63.135 474.493 65.624 474.493 68.512C474.493 70.792 474.018 72.768 473.068 74.44C472.118 76.074 470.807 77.328 469.135 78.202C467.501 79.076 465.601 79.513 463.435 79.513ZM487.982 79.456C485.284 79.456 483.232 78.924 481.826 77.86C480.458 76.758 479.527 75.219 479.033 73.243C478.577 71.267 478.349 68.968 478.349 66.346V58.765C478.349 55.991 478.596 53.635 479.09 51.697C479.584 49.721 480.515 48.22 481.883 47.194C483.289 46.13 485.322 45.598 487.982 45.598C490.376 45.598 492.219 45.997 493.511 46.795C494.841 47.555 495.753 48.714 496.247 50.272C496.741 51.792 496.988 53.692 496.988 55.972V57.91H491.459V55.915C491.459 54.471 491.364 53.331 491.174 52.495C490.984 51.659 490.642 51.051 490.148 50.671C489.654 50.291 488.951 50.101 488.039 50.101C487.051 50.101 486.291 50.329 485.759 50.785C485.227 51.241 484.866 52.02 484.676 53.122C484.524 54.186 484.448 55.649 484.448 57.511V67.885C484.448 70.697 484.714 72.578 485.246 73.528C485.778 74.478 486.728 74.953 488.096 74.953C489.122 74.953 489.863 74.725 490.319 74.269C490.813 73.775 491.117 73.091 491.231 72.217C491.383 71.343 491.459 70.355 491.459 69.253V66.574H496.988V68.854C496.988 71.058 496.722 72.958 496.19 74.554C495.696 76.15 494.784 77.366 493.454 78.202C492.162 79.038 490.338 79.456 487.982 79.456ZM502.582 79V32.83H508.681V49.474C509.783 48.41 511.018 47.498 512.386 46.738C513.754 45.978 515.274 45.598 516.946 45.598C518.238 45.598 519.226 45.94 519.91 46.624C520.632 47.308 521.126 48.163 521.392 49.189C521.696 50.215 521.848 51.26 521.848 52.324V79H515.749V54.091C515.749 52.913 515.578 52.001 515.236 51.355C514.894 50.709 514.191 50.386 513.127 50.386C512.405 50.386 511.645 50.595 510.847 51.013C510.087 51.431 509.365 51.944 508.681 52.552V79H502.582ZM536.913 79.456C534.329 79.456 532.334 78.962 530.928 77.974C529.522 76.948 528.534 75.466 527.964 73.528C527.432 71.552 527.166 69.139 527.166 66.289V58.765C527.166 55.839 527.451 53.407 528.021 51.469C528.591 49.531 529.579 48.068 530.985 47.08C532.429 46.092 534.405 45.598 536.913 45.598C539.687 45.598 541.72 46.168 543.012 47.308C544.342 48.448 545.216 50.101 545.634 52.267C546.052 54.395 546.261 56.96 546.261 59.962V62.641H533.265V69.253C533.265 70.583 533.379 71.666 533.607 72.502C533.873 73.338 534.272 73.965 534.804 74.383C535.374 74.763 536.096 74.953 536.97 74.953C537.882 74.953 538.566 74.744 539.022 74.326C539.516 73.87 539.839 73.243 539.991 72.445C540.181 71.609 540.276 70.64 540.276 69.538V67.543H546.204V68.797C546.204 72.103 545.501 74.706 544.095 76.606C542.689 78.506 540.295 79.456 536.913 79.456ZM533.265 59.335H540.276V56.371C540.276 55.003 540.2 53.863 540.048 52.951C539.896 52.001 539.573 51.298 539.079 50.842C538.623 50.348 537.882 50.101 536.856 50.101C535.868 50.101 535.108 50.329 534.576 50.785C534.082 51.241 533.74 52.02 533.55 53.122C533.36 54.186 533.265 55.668 533.265 57.568V59.335ZM559.423 79.456C556.649 79.456 554.578 78.449 553.21 76.435C551.842 74.383 551.158 70.925 551.158 66.061V59.677C551.158 57.169 551.367 54.851 551.785 52.723C552.203 50.557 552.982 48.828 554.122 47.536C555.3 46.244 557.01 45.598 559.252 45.598C560.354 45.598 561.361 45.845 562.273 46.339C563.185 46.833 564.002 47.441 564.724 48.163V32.83H570.823V79H564.724V76.891C564.002 77.651 563.204 78.278 562.33 78.772C561.494 79.228 560.525 79.456 559.423 79.456ZM560.962 74.668C561.532 74.668 562.14 74.573 562.786 74.383C563.432 74.155 564.078 73.832 564.724 73.414V51.811C564.192 51.431 563.603 51.108 562.957 50.842C562.311 50.538 561.608 50.386 560.848 50.386C559.442 50.386 558.492 51.07 557.998 52.438C557.504 53.768 557.257 55.383 557.257 57.283V66.574C557.257 68.094 557.333 69.481 557.485 70.735C557.675 71.951 558.036 72.92 558.568 73.642C559.1 74.326 559.898 74.668 560.962 74.668ZM581.731 79.456C580.439 79.456 579.432 79.114 578.71 78.43C577.988 77.746 577.475 76.891 577.171 75.865C576.905 74.839 576.772 73.794 576.772 72.73V46.054H582.871V70.906C582.871 72.084 583.042 73.015 583.384 73.699C583.726 74.345 584.429 74.668 585.493 74.668C586.177 74.668 586.88 74.478 587.602 74.098C588.362 73.68 589.084 73.186 589.768 72.616V46.054H595.867V79H589.768V75.751C588.704 76.777 587.488 77.651 586.12 78.373C584.79 79.095 583.327 79.456 581.731 79.456ZM602.675 79V32.83H608.774V79H602.675ZM624.25 79.456C621.666 79.456 619.671 78.962 618.265 77.974C616.859 76.948 615.871 75.466 615.301 73.528C614.769 71.552 614.503 69.139 614.503 66.289V58.765C614.503 55.839 614.788 53.407 615.358 51.469C615.928 49.531 616.916 48.068 618.322 47.08C619.766 46.092 621.742 45.598 624.25 45.598C627.024 45.598 629.057 46.168 630.349 47.308C631.679 48.448 632.553 50.101 632.971 52.267C633.389 54.395 633.598 56.96 633.598 59.962V62.641H620.602V69.253C620.602 70.583 620.716 71.666 620.944 72.502C621.21 73.338 621.609 73.965 622.141 74.383C622.711 74.763 623.433 74.953 624.307 74.953C625.219 74.953 625.903 74.744 626.359 74.326C626.853 73.87 627.176 73.243 627.328 72.445C627.518 71.609 627.613 70.64 627.613 69.538V67.543H633.541V68.797C633.541 72.103 632.838 74.706 631.432 76.606C630.026 78.506 627.632 79.456 624.25 79.456ZM620.602 59.335H627.613V56.371C627.613 55.003 627.537 53.863 627.385 52.951C627.233 52.001 626.91 51.298 626.416 50.842C625.96 50.348 625.219 50.101 624.193 50.101C623.205 50.101 622.445 50.329 621.913 50.785C621.419 51.241 621.077 52.02 620.887 53.122C620.697 54.186 620.602 55.668 620.602 57.568V59.335ZM474.356 142.456C473.064 142.456 471.924 142.095 470.936 141.373C469.948 140.613 469.169 139.663 468.599 138.523C468.029 137.345 467.744 136.11 467.744 134.818C467.744 132.766 468.086 131.037 468.77 129.631C469.454 128.225 470.385 127.047 471.563 126.097C472.779 125.109 474.166 124.254 475.724 123.532C477.32 122.81 478.992 122.107 480.74 121.423V119.086C480.74 117.756 480.664 116.654 480.512 115.78C480.36 114.906 480.037 114.26 479.543 113.842C479.087 113.386 478.384 113.158 477.434 113.158C476.598 113.158 475.914 113.348 475.382 113.728C474.888 114.108 474.527 114.659 474.299 115.381C474.071 116.065 473.957 116.882 473.957 117.832V119.485L467.915 119.257C467.991 115.609 468.827 112.93 470.423 111.22C472.019 109.472 474.489 108.598 477.833 108.598C481.101 108.598 483.419 109.491 484.787 111.277C486.155 113.063 486.839 115.647 486.839 119.029V134.077C486.839 135.103 486.858 136.091 486.896 137.041C486.972 137.991 487.048 138.884 487.124 139.72C487.238 140.518 487.333 141.278 487.409 142H481.823C481.709 141.392 481.557 140.632 481.367 139.72C481.215 138.77 481.101 137.915 481.025 137.155C480.645 138.447 479.904 139.663 478.802 140.803C477.738 141.905 476.256 142.456 474.356 142.456ZM476.75 137.212C477.358 137.212 477.928 137.041 478.46 136.699C478.992 136.357 479.467 135.977 479.885 135.559C480.303 135.103 480.588 134.742 480.74 134.476V125.128C479.79 125.66 478.897 126.192 478.061 126.724C477.225 127.256 476.484 127.826 475.838 128.434C475.23 129.004 474.736 129.669 474.356 130.429C474.014 131.151 473.843 131.987 473.843 132.937C473.843 134.267 474.09 135.312 474.584 136.072C475.078 136.832 475.8 137.212 476.75 137.212ZM506.236 142V95.83H516.268C519.688 95.83 522.386 96.362 524.362 97.426C526.376 98.452 527.801 100.01 528.637 102.1C529.511 104.19 529.948 106.793 529.948 109.909V126.895C529.948 130.163 529.511 132.918 528.637 135.16C527.801 137.402 526.414 139.112 524.476 140.29C522.576 141.43 520.011 142 516.781 142H506.236ZM512.677 137.383H516.325C518.681 137.383 520.353 136.927 521.341 136.015C522.329 135.103 522.918 133.773 523.108 132.025C523.336 130.277 523.45 128.168 523.45 125.698V110.707C523.45 108.313 523.298 106.375 522.994 104.893C522.69 103.411 522.025 102.328 520.999 101.644C519.973 100.96 518.358 100.618 516.154 100.618H512.677V137.383ZM544.901 142.456C542.317 142.456 540.322 141.962 538.916 140.974C537.51 139.948 536.522 138.466 535.952 136.528C535.42 134.552 535.154 132.139 535.154 129.289V121.765C535.154 118.839 535.439 116.407 536.009 114.469C536.579 112.531 537.567 111.068 538.973 110.08C540.417 109.092 542.393 108.598 544.901 108.598C547.675 108.598 549.708 109.168 551 110.308C552.33 111.448 553.204 113.101 553.622 115.267C554.04 117.395 554.249 119.96 554.249 122.962V125.641H541.253V132.253C541.253 133.583 541.367 134.666 541.595 135.502C541.861 136.338 542.26 136.965 542.792 137.383C543.362 137.763 544.084 137.953 544.958 137.953C545.87 137.953 546.554 137.744 547.01 137.326C547.504 136.87 547.827 136.243 547.979 135.445C548.169 134.609 548.264 133.64 548.264 132.538V130.543H554.192V131.797C554.192 135.103 553.489 137.706 552.083 139.606C550.677 141.506 548.283 142.456 544.901 142.456ZM541.253 122.335H548.264V119.371C548.264 118.003 548.188 116.863 548.036 115.951C547.884 115.001 547.561 114.298 547.067 113.842C546.611 113.348 545.87 113.101 544.844 113.101C543.856 113.101 543.096 113.329 542.564 113.785C542.07 114.241 541.728 115.02 541.538 116.122C541.348 117.186 541.253 118.668 541.253 120.568V122.335ZM559.772 142V109.054H565.415V112.189C566.517 110.935 567.733 110.004 569.063 109.396C570.393 108.788 571.761 108.484 573.167 108.484C574.383 108.484 575.466 108.788 576.416 109.396C577.404 110.004 578.107 111.087 578.525 112.645C579.703 111.201 580.976 110.156 582.344 109.51C583.75 108.826 585.213 108.484 586.733 108.484C587.797 108.484 588.766 108.75 589.64 109.282C590.514 109.776 591.217 110.593 591.749 111.733C592.281 112.835 592.547 114.298 592.547 116.122V142H586.961V116.521C586.961 114.925 586.695 113.861 586.163 113.329C585.669 112.759 584.985 112.474 584.111 112.474C583.275 112.474 582.401 112.721 581.489 113.215C580.577 113.671 579.741 114.317 578.981 115.153C578.981 115.305 578.981 115.457 578.981 115.609C578.981 115.761 578.981 115.932 578.981 116.122V142H573.395V116.521C573.395 114.925 573.129 113.861 572.597 113.329C572.103 112.759 571.419 112.474 570.545 112.474C569.709 112.474 568.835 112.721 567.923 113.215C567.049 113.671 566.213 114.317 565.415 115.153V142H559.772ZM607.578 142.456C605.146 142.456 603.227 141.962 601.821 140.974C600.415 139.986 599.408 138.58 598.8 136.756C598.23 134.932 597.945 132.785 597.945 130.315V120.739C597.945 118.269 598.23 116.122 598.8 114.298C599.408 112.474 600.415 111.068 601.821 110.08C603.227 109.092 605.146 108.598 607.578 108.598C610.01 108.598 611.91 109.092 613.278 110.08C614.684 111.068 615.672 112.474 616.242 114.298C616.85 116.122 617.154 118.269 617.154 120.739V130.315C617.154 132.785 616.85 134.932 616.242 136.756C615.672 138.58 614.684 139.986 613.278 140.974C611.91 141.962 610.01 142.456 607.578 142.456ZM607.578 137.953C608.756 137.953 609.573 137.611 610.029 136.927C610.523 136.243 610.808 135.35 610.884 134.248C610.998 133.108 611.055 131.93 611.055 130.714V120.397C611.055 119.143 610.998 117.965 610.884 116.863C610.808 115.761 610.523 114.868 610.029 114.184C609.573 113.462 608.756 113.101 607.578 113.101C606.4 113.101 605.564 113.462 605.07 114.184C604.576 114.868 604.272 115.761 604.158 116.863C604.082 117.965 604.044 119.143 604.044 120.397V130.714C604.044 131.93 604.082 133.108 604.158 134.248C604.272 135.35 604.576 136.243 605.07 136.927C605.564 137.611 606.4 137.953 607.578 137.953Z" fill="white"/>
<path d="M12.5101 105.513C9.24214 105.513 6.69614 104.829 4.87214 103.461C3.08614 102.093 1.83214 100.25 1.11014 97.932C0.426145 95.614 0.0841446 93.03 0.0841446 90.18V73.878C0.0841446 70.762 0.426145 68.045 1.11014 65.727C1.83214 63.409 3.08614 61.623 4.87214 60.369C6.69614 59.077 9.24214 58.431 12.5101 58.431C15.3981 58.431 17.6781 58.963 19.3501 60.027C21.0601 61.091 22.2761 62.611 22.9981 64.587C23.7581 66.563 24.1381 68.938 24.1381 71.712V75.36H18.0391V72.111C18.0391 70.401 17.9441 68.9 17.7541 67.608C17.6021 66.278 17.1461 65.252 16.3861 64.53C15.6261 63.808 14.3531 63.447 12.5671 63.447C10.7431 63.447 9.41315 63.846 8.57715 64.644C7.74115 65.404 7.19015 66.506 6.92415 67.95C6.69614 69.356 6.58214 71.009 6.58214 72.909V91.206C6.58214 93.524 6.77214 95.367 7.15214 96.735C7.53215 98.065 8.15915 99.015 9.03315 99.585C9.90715 100.155 11.0851 100.44 12.5671 100.44C14.3151 100.44 15.5691 100.06 16.3291 99.3C17.0891 98.502 17.5641 97.419 17.7541 96.051C17.9441 94.683 18.0391 93.087 18.0391 91.263V87.843H24.1381V91.263C24.1381 94.075 23.7961 96.564 23.1121 98.73C22.4281 100.858 21.2501 102.53 19.5781 103.746C17.9061 104.924 15.5501 105.513 12.5101 105.513ZM38.8241 105.456C36.3921 105.456 34.4731 104.962 33.0671 103.974C31.6611 102.986 30.6541 101.58 30.0461 99.756C29.4761 97.932 29.1911 95.785 29.1911 93.315V83.739C29.1911 81.269 29.4761 79.122 30.0461 77.298C30.6541 75.474 31.6611 74.068 33.0671 73.08C34.4731 72.092 36.3921 71.598 38.8241 71.598C41.2561 71.598 43.1561 72.092 44.5241 73.08C45.9301 74.068 46.9181 75.474 47.4881 77.298C48.0961 79.122 48.4001 81.269 48.4001 83.739V93.315C48.4001 95.785 48.0961 97.932 47.4881 99.756C46.9181 101.58 45.9301 102.986 44.5241 103.974C43.1561 104.962 41.2561 105.456 38.8241 105.456ZM38.8241 100.953C40.0021 100.953 40.8191 100.611 41.2751 99.927C41.7691 99.243 42.0541 98.35 42.1301 97.248C42.2441 96.108 42.3011 94.93 42.3011 93.714V83.397C42.3011 82.143 42.2441 80.965 42.1301 79.863C42.0541 78.761 41.7691 77.868 41.2751 77.184C40.8191 76.462 40.0021 76.101 38.8241 76.101C37.6461 76.101 36.8101 76.462 36.3161 77.184C35.8221 77.868 35.5181 78.761 35.4041 79.863C35.3281 80.965 35.2901 82.143 35.2901 83.397V93.714C35.2901 94.93 35.3281 96.108 35.4041 97.248C35.5181 98.35 35.8221 99.243 36.3161 99.927C36.8101 100.611 37.6461 100.953 38.8241 100.953ZM53.975 105V72.054H59.618V75.189C60.72 73.935 61.936 73.004 63.266 72.396C64.596 71.788 65.964 71.484 67.37 71.484C68.586 71.484 69.669 71.788 70.619 72.396C71.607 73.004 72.31 74.087 72.728 75.645C73.906 74.201 75.179 73.156 76.547 72.51C77.953 71.826 79.416 71.484 80.936 71.484C82 71.484 82.969 71.75 83.843 72.282C84.717 72.776 85.42 73.593 85.952 74.733C86.484 75.835 86.75 77.298 86.75 79.122V105H81.164V79.521C81.164 77.925 80.898 76.861 80.366 76.329C79.872 75.759 79.188 75.474 78.314 75.474C77.478 75.474 76.604 75.721 75.692 76.215C74.78 76.671 73.944 77.317 73.184 78.153C73.184 78.305 73.184 78.457 73.184 78.609C73.184 78.761 73.184 78.932 73.184 79.122V105H67.598V79.521C67.598 77.925 67.332 76.861 66.8 76.329C66.306 75.759 65.622 75.474 64.748 75.474C63.912 75.474 63.038 75.721 62.126 76.215C61.252 76.671 60.416 77.317 59.618 78.153V105H53.975ZM92.7172 115.83V72.054H98.8162V74.676C99.5382 73.84 100.412 73.118 101.438 72.51C102.464 71.902 103.68 71.598 105.086 71.598C106.796 71.598 108.145 72.054 109.133 72.966C110.159 73.84 110.919 74.961 111.413 76.329C111.907 77.659 112.23 79.027 112.382 80.433C112.534 81.801 112.61 82.979 112.61 83.967V91.947C112.61 94.265 112.382 96.469 111.926 98.559C111.47 100.611 110.634 102.283 109.418 103.575C108.24 104.829 106.568 105.456 104.402 105.456C103.224 105.456 102.179 105.171 101.267 104.601C100.355 103.993 99.5382 103.309 98.8162 102.549V115.83H92.7172ZM103.205 100.668C104.269 100.668 105.029 100.288 105.485 99.528C105.941 98.73 106.226 97.666 106.34 96.336C106.454 95.006 106.511 93.543 106.511 91.947V83.967C106.511 82.599 106.435 81.345 106.283 80.205C106.131 79.027 105.808 78.096 105.314 77.412C104.82 76.728 104.041 76.386 102.977 76.386C102.179 76.386 101.419 76.557 100.697 76.899C99.9752 77.241 99.3482 77.64 98.8162 78.096V99.186C99.3862 99.604 100.032 99.965 100.754 100.269C101.476 100.535 102.293 100.668 103.205 100.668ZM124.084 105.456C122.792 105.456 121.652 105.095 120.664 104.373C119.676 103.613 118.897 102.663 118.327 101.523C117.757 100.345 117.472 99.11 117.472 97.818C117.472 95.766 117.814 94.037 118.498 92.631C119.182 91.225 120.113 90.047 121.291 89.097C122.507 88.109 123.894 87.254 125.452 86.532C127.048 85.81 128.72 85.107 130.468 84.423V82.086C130.468 80.756 130.392 79.654 130.24 78.78C130.088 77.906 129.765 77.26 129.271 76.842C128.815 76.386 128.112 76.158 127.162 76.158C126.326 76.158 125.642 76.348 125.11 76.728C124.616 77.108 124.255 77.659 124.027 78.381C123.799 79.065 123.685 79.882 123.685 80.832V82.485L117.643 82.257C117.719 78.609 118.555 75.93 120.151 74.22C121.747 72.472 124.217 71.598 127.561 71.598C130.829 71.598 133.147 72.491 134.515 74.277C135.883 76.063 136.567 78.647 136.567 82.029V97.077C136.567 98.103 136.586 99.091 136.624 100.041C136.7 100.991 136.776 101.884 136.852 102.72C136.966 103.518 137.061 104.278 137.137 105H131.551C131.437 104.392 131.285 103.632 131.095 102.72C130.943 101.77 130.829 100.915 130.753 100.155C130.373 101.447 129.632 102.663 128.53 103.803C127.466 104.905 125.984 105.456 124.084 105.456ZM126.478 100.212C127.086 100.212 127.656 100.041 128.188 99.699C128.72 99.357 129.195 98.977 129.613 98.559C130.031 98.103 130.316 97.742 130.468 97.476V88.128C129.518 88.66 128.625 89.192 127.789 89.724C126.953 90.256 126.212 90.826 125.566 91.434C124.958 92.004 124.464 92.669 124.084 93.429C123.742 94.151 123.571 94.987 123.571 95.937C123.571 97.267 123.818 98.312 124.312 99.072C124.806 99.832 125.528 100.212 126.478 100.212ZM142.596 105V72.054H148.695V76.728C149.911 74.714 151.127 73.365 152.343 72.681C153.559 71.997 154.775 71.655 155.991 71.655C156.143 71.655 156.276 71.655 156.39 71.655C156.542 71.655 156.732 71.674 156.96 71.712V78.438C156.504 78.248 155.972 78.096 155.364 77.982C154.794 77.83 154.205 77.754 153.597 77.754C152.647 77.754 151.773 77.982 150.975 78.438C150.215 78.856 149.455 79.692 148.695 80.946V105H142.596ZM169.859 105.456C167.275 105.456 165.28 104.962 163.874 103.974C162.468 102.948 161.48 101.466 160.91 99.528C160.378 97.552 160.112 95.139 160.112 92.289V84.765C160.112 81.839 160.397 79.407 160.967 77.469C161.537 75.531 162.525 74.068 163.931 73.08C165.375 72.092 167.351 71.598 169.859 71.598C172.633 71.598 174.666 72.168 175.958 73.308C177.288 74.448 178.162 76.101 178.58 78.267C178.998 80.395 179.207 82.96 179.207 85.962V88.641H166.211V95.253C166.211 96.583 166.325 97.666 166.553 98.502C166.819 99.338 167.218 99.965 167.75 100.383C168.32 100.763 169.042 100.953 169.916 100.953C170.828 100.953 171.512 100.744 171.968 100.326C172.462 99.87 172.785 99.243 172.937 98.445C173.127 97.609 173.222 96.64 173.222 95.538V93.543H179.15V94.797C179.15 98.103 178.447 100.706 177.041 102.606C175.635 104.506 173.241 105.456 169.859 105.456ZM166.211 85.335H173.222V82.371C173.222 81.003 173.146 79.863 172.994 78.951C172.842 78.001 172.519 77.298 172.025 76.842C171.569 76.348 170.828 76.101 169.802 76.101C168.814 76.101 168.054 76.329 167.522 76.785C167.028 77.241 166.686 78.02 166.496 79.122C166.306 80.186 166.211 81.668 166.211 83.568V85.335Z" fill="white"/>
<path d="M905.919 79V32.83H915.951C919.371 32.83 922.069 33.362 924.045 34.426C926.059 35.452 927.484 37.01 928.32 39.1C929.194 41.19 929.631 43.793 929.631 46.909V63.895C929.631 67.163 929.194 69.918 928.32 72.16C927.484 74.402 926.097 76.112 924.159 77.29C922.259 78.43 919.694 79 916.464 79H905.919ZM912.36 74.383H916.008C918.364 74.383 920.036 73.927 921.024 73.015C922.012 72.103 922.601 70.773 922.791 69.025C923.019 67.277 923.133 65.168 923.133 62.698V47.707C923.133 45.313 922.981 43.375 922.677 41.893C922.373 40.411 921.708 39.328 920.682 38.644C919.656 37.96 918.041 37.618 915.837 37.618H912.36V74.383ZM944.585 79.456C942.001 79.456 940.006 78.962 938.6 77.974C937.194 76.948 936.206 75.466 935.636 73.528C935.104 71.552 934.838 69.139 934.838 66.289V58.765C934.838 55.839 935.123 53.407 935.693 51.469C936.263 49.531 937.251 48.068 938.657 47.08C940.101 46.092 942.077 45.598 944.585 45.598C947.359 45.598 949.392 46.168 950.684 47.308C952.014 48.448 952.888 50.101 953.306 52.267C953.724 54.395 953.933 56.96 953.933 59.962V62.641H940.937V69.253C940.937 70.583 941.051 71.666 941.279 72.502C941.545 73.338 941.944 73.965 942.476 74.383C943.046 74.763 943.768 74.953 944.642 74.953C945.554 74.953 946.238 74.744 946.694 74.326C947.188 73.87 947.511 73.243 947.663 72.445C947.853 71.609 947.948 70.64 947.948 69.538V67.543H953.876V68.797C953.876 72.103 953.173 74.706 951.767 76.606C950.361 78.506 947.967 79.456 944.585 79.456ZM940.937 59.335H947.948V56.371C947.948 55.003 947.872 53.863 947.72 52.951C947.568 52.001 947.245 51.298 946.751 50.842C946.295 50.348 945.554 50.101 944.528 50.101C943.54 50.101 942.78 50.329 942.248 50.785C941.754 51.241 941.412 52.02 941.222 53.122C941.032 54.186 940.937 55.668 940.937 57.568V59.335ZM959.456 89.83V46.054H965.555V48.676C966.277 47.84 967.151 47.118 968.177 46.51C969.203 45.902 970.419 45.598 971.825 45.598C973.535 45.598 974.884 46.054 975.872 46.966C976.898 47.84 977.658 48.961 978.152 50.329C978.646 51.659 978.969 53.027 979.121 54.433C979.273 55.801 979.349 56.979 979.349 57.967V65.947C979.349 68.265 979.121 70.469 978.665 72.559C978.209 74.611 977.373 76.283 976.157 77.575C974.979 78.829 973.307 79.456 971.141 79.456C969.963 79.456 968.918 79.171 968.006 78.601C967.094 77.993 966.277 77.309 965.555 76.549V89.83H959.456ZM969.944 74.668C971.008 74.668 971.768 74.288 972.224 73.528C972.68 72.73 972.965 71.666 973.079 70.336C973.193 69.006 973.25 67.543 973.25 65.947V57.967C973.25 56.599 973.174 55.345 973.022 54.205C972.87 53.027 972.547 52.096 972.053 51.412C971.559 50.728 970.78 50.386 969.716 50.386C968.918 50.386 968.158 50.557 967.436 50.899C966.714 51.241 966.087 51.64 965.555 52.096V73.186C966.125 73.604 966.771 73.965 967.493 74.269C968.215 74.535 969.032 74.668 969.944 74.668ZM985.464 79V32.83H991.563V79H985.464ZM1006.98 79.456C1004.55 79.456 1002.63 78.962 1001.23 77.974C999.82 76.986 998.813 75.58 998.205 73.756C997.635 71.932 997.35 69.785 997.35 67.315V57.739C997.35 55.269 997.635 53.122 998.205 51.298C998.813 49.474 999.82 48.068 1001.23 47.08C1002.63 46.092 1004.55 45.598 1006.98 45.598C1009.41 45.598 1011.31 46.092 1012.68 47.08C1014.09 48.068 1015.08 49.474 1015.65 51.298C1016.25 53.122 1016.56 55.269 1016.56 57.739V67.315C1016.56 69.785 1016.25 71.932 1015.65 73.756C1015.08 75.58 1014.09 76.986 1012.68 77.974C1011.31 78.962 1009.41 79.456 1006.98 79.456ZM1006.98 74.953C1008.16 74.953 1008.98 74.611 1009.43 73.927C1009.93 73.243 1010.21 72.35 1010.29 71.248C1010.4 70.108 1010.46 68.93 1010.46 67.714V57.397C1010.46 56.143 1010.4 54.965 1010.29 53.863C1010.21 52.761 1009.93 51.868 1009.43 51.184C1008.98 50.462 1008.16 50.101 1006.98 50.101C1005.8 50.101 1004.97 50.462 1004.47 51.184C1003.98 51.868 1003.68 52.761 1003.56 53.863C1003.49 54.965 1003.45 56.143 1003.45 57.397V67.714C1003.45 68.93 1003.49 70.108 1003.56 71.248C1003.68 72.35 1003.98 73.243 1004.47 73.927C1004.97 74.611 1005.8 74.953 1006.98 74.953ZM1021.62 87.265V82.591C1023.1 82.591 1024.28 82.515 1025.15 82.363C1026.03 82.249 1026.66 82.002 1027.04 81.622C1027.42 81.28 1027.61 80.786 1027.61 80.14C1027.61 79.798 1027.47 79.038 1027.21 77.86C1026.94 76.682 1026.66 75.428 1026.35 74.098L1019.74 46.054H1025.9L1030.34 70.678L1034.62 46.054H1040.77L1032.91 80.824C1032.56 82.42 1031.94 83.674 1031.03 84.586C1030.11 85.536 1028.94 86.22 1027.49 86.638C1026.09 87.056 1024.38 87.265 1022.36 87.265H1021.62ZM1063.41 79.456C1062.12 79.456 1060.98 79.095 1059.99 78.373C1059 77.613 1058.22 76.663 1057.65 75.523C1057.08 74.345 1056.8 73.11 1056.8 71.818C1056.8 69.766 1057.14 68.037 1057.82 66.631C1058.51 65.225 1059.44 64.047 1060.62 63.097C1061.83 62.109 1063.22 61.254 1064.78 60.532C1066.37 59.81 1068.04 59.107 1069.79 58.423V56.086C1069.79 54.756 1069.72 53.654 1069.56 52.78C1069.41 51.906 1069.09 51.26 1068.6 50.842C1068.14 50.386 1067.44 50.158 1066.49 50.158C1065.65 50.158 1064.97 50.348 1064.43 50.728C1063.94 51.108 1063.58 51.659 1063.35 52.381C1063.12 53.065 1063.01 53.882 1063.01 54.832V56.485L1056.97 56.257C1057.04 52.609 1057.88 49.93 1059.48 48.22C1061.07 46.472 1063.54 45.598 1066.89 45.598C1070.15 45.598 1072.47 46.491 1073.84 48.277C1075.21 50.063 1075.89 52.647 1075.89 56.029V71.077C1075.89 72.103 1075.91 73.091 1075.95 74.041C1076.02 74.991 1076.1 75.884 1076.18 76.72C1076.29 77.518 1076.39 78.278 1076.46 79H1070.88C1070.76 78.392 1070.61 77.632 1070.42 76.72C1070.27 75.77 1070.15 74.915 1070.08 74.155C1069.7 75.447 1068.96 76.663 1067.85 77.803C1066.79 78.905 1065.31 79.456 1063.41 79.456ZM1065.8 74.212C1066.41 74.212 1066.98 74.041 1067.51 73.699C1068.04 73.357 1068.52 72.977 1068.94 72.559C1069.36 72.103 1069.64 71.742 1069.79 71.476V62.128C1068.84 62.66 1067.95 63.192 1067.11 63.724C1066.28 64.256 1065.54 64.826 1064.89 65.434C1064.28 66.004 1063.79 66.669 1063.41 67.429C1063.07 68.151 1062.9 68.987 1062.9 69.937C1062.9 71.267 1063.14 72.312 1063.64 73.072C1064.13 73.832 1064.85 74.212 1065.8 74.212ZM946.498 147V100.83H957.955C960.729 100.83 962.933 101.343 964.567 102.369C966.239 103.357 967.455 104.801 968.215 106.701C968.975 108.601 969.355 110.9 969.355 113.598C969.355 116.03 968.918 118.139 968.044 119.925C967.208 121.711 965.954 123.098 964.282 124.086C962.61 125.036 960.52 125.511 958.012 125.511H952.939V147H946.498ZM952.939 120.894H955.903C957.765 120.894 959.228 120.685 960.292 120.267C961.356 119.849 962.116 119.127 962.572 118.101C963.028 117.037 963.256 115.555 963.256 113.655C963.256 111.451 963.085 109.76 962.743 108.582C962.439 107.404 961.774 106.587 960.748 106.131C959.722 105.675 958.126 105.447 955.96 105.447H952.939V120.894ZM973.771 147V114.054H979.87V147H973.771ZM973.771 109.152V102.768H979.87V109.152H973.771ZM986.967 147V100.83H993.066V147H986.967ZM1008.49 147.456C1006.05 147.456 1004.13 146.962 1002.73 145.974C1001.32 144.986 1000.32 143.58 999.708 141.756C999.138 139.932 998.853 137.785 998.853 135.315V125.739C998.853 123.269 999.138 121.122 999.708 119.298C1000.32 117.474 1001.32 116.068 1002.73 115.08C1004.13 114.092 1006.05 113.598 1008.49 113.598C1010.92 113.598 1012.82 114.092 1014.19 115.08C1015.59 116.068 1016.58 117.474 1017.15 119.298C1017.76 121.122 1018.06 123.269 1018.06 125.739V135.315C1018.06 137.785 1017.76 139.932 1017.15 141.756C1016.58 143.58 1015.59 144.986 1014.19 145.974C1012.82 146.962 1010.92 147.456 1008.49 147.456ZM1008.49 142.953C1009.66 142.953 1010.48 142.611 1010.94 141.927C1011.43 141.243 1011.72 140.35 1011.79 139.248C1011.91 138.108 1011.96 136.93 1011.96 135.714V125.397C1011.96 124.143 1011.91 122.965 1011.79 121.863C1011.72 120.761 1011.43 119.868 1010.94 119.184C1010.48 118.462 1009.66 118.101 1008.49 118.101C1007.31 118.101 1006.47 118.462 1005.98 119.184C1005.48 119.868 1005.18 120.761 1005.07 121.863C1004.99 122.965 1004.95 124.143 1004.95 125.397V135.714C1004.95 136.93 1004.99 138.108 1005.07 139.248C1005.18 140.35 1005.48 141.243 1005.98 141.927C1006.47 142.611 1007.31 142.953 1008.49 142.953ZM1032.41 147.456C1030.7 147.456 1029.32 147.133 1028.25 146.487C1027.23 145.841 1026.47 144.929 1025.97 143.751C1025.52 142.573 1025.29 141.186 1025.29 139.59V118.101H1021.81V114.054H1025.29V104.421H1031.39V114.054H1036.69V118.101H1031.39V139.191C1031.39 140.483 1031.6 141.414 1032.02 141.984C1032.43 142.516 1033.23 142.782 1034.41 142.782C1034.71 142.782 1035.06 142.763 1035.44 142.725C1035.85 142.687 1036.25 142.649 1036.63 142.611V147.114C1035.87 147.228 1035.17 147.304 1034.52 147.342C1033.88 147.418 1033.17 147.456 1032.41 147.456Z" fill="white"/>
<path d="M1372.39 47V0.829996H1383.84C1386.62 0.829996 1388.82 1.343 1390.46 2.369C1392.13 3.357 1393.34 4.801 1394.1 6.701C1394.86 8.601 1395.24 10.9 1395.24 13.598C1395.24 16.03 1394.81 18.139 1393.93 19.925C1393.1 21.711 1391.84 23.098 1390.17 24.086C1388.5 25.036 1386.41 25.511 1383.9 25.511H1378.83V47H1372.39ZM1378.83 20.894H1381.79C1383.65 20.894 1385.12 20.685 1386.18 20.267C1387.24 19.849 1388 19.127 1388.46 18.101C1388.92 17.037 1389.14 15.555 1389.14 13.655C1389.14 11.451 1388.97 9.76 1388.63 8.582C1388.33 7.404 1387.66 6.587 1386.64 6.131C1385.61 5.675 1384.01 5.447 1381.85 5.447H1378.83V20.894ZM1399.43 47V14.054H1405.53V18.728C1406.75 16.714 1407.96 15.365 1409.18 14.681C1410.39 13.997 1411.61 13.655 1412.83 13.655C1412.98 13.655 1413.11 13.655 1413.23 13.655C1413.38 13.655 1413.57 13.674 1413.8 13.712V20.438C1413.34 20.248 1412.81 20.096 1412.2 19.982C1411.63 19.83 1411.04 19.754 1410.43 19.754C1409.48 19.754 1408.61 19.982 1407.81 20.438C1407.05 20.856 1406.29 21.692 1405.53 22.946V47H1399.43ZM1426.64 47.456C1424.21 47.456 1422.29 46.962 1420.88 45.974C1419.47 44.986 1418.47 43.58 1417.86 41.756C1417.29 39.932 1417 37.785 1417 35.315V25.739C1417 23.269 1417.29 21.122 1417.86 19.298C1418.47 17.474 1419.47 16.068 1420.88 15.08C1422.29 14.092 1424.21 13.598 1426.64 13.598C1429.07 13.598 1430.97 14.092 1432.34 15.08C1433.74 16.068 1434.73 17.474 1435.3 19.298C1435.91 21.122 1436.21 23.269 1436.21 25.739V35.315C1436.21 37.785 1435.91 39.932 1435.3 41.756C1434.73 43.58 1433.74 44.986 1432.34 45.974C1430.97 46.962 1429.07 47.456 1426.64 47.456ZM1426.64 42.953C1427.82 42.953 1428.63 42.611 1429.09 41.927C1429.58 41.243 1429.87 40.35 1429.94 39.248C1430.06 38.108 1430.11 36.93 1430.11 35.714V25.397C1430.11 24.143 1430.06 22.965 1429.94 21.863C1429.87 20.761 1429.58 19.868 1429.09 19.184C1428.63 18.462 1427.82 18.101 1426.64 18.101C1425.46 18.101 1424.62 18.462 1424.13 19.184C1423.64 19.868 1423.33 20.761 1423.22 21.863C1423.14 22.965 1423.1 24.143 1423.1 25.397V35.714C1423.1 36.93 1423.14 38.108 1423.22 39.248C1423.33 40.35 1423.64 41.243 1424.13 41.927C1424.62 42.611 1425.46 42.953 1426.64 42.953ZM1450.57 47.456C1448.86 47.456 1447.47 47.133 1446.4 46.487C1445.38 45.841 1444.62 44.929 1444.12 43.751C1443.67 42.573 1443.44 41.186 1443.44 39.59V18.101H1439.96V14.054H1443.44V4.421H1449.54V14.054H1454.84V18.101H1449.54V39.191C1449.54 40.483 1449.75 41.414 1450.17 41.984C1450.58 42.516 1451.38 42.782 1452.56 42.782C1452.86 42.782 1453.21 42.763 1453.59 42.725C1454 42.687 1454.4 42.649 1454.78 42.611V47.114C1454.02 47.228 1453.32 47.304 1452.67 47.342C1452.03 47.418 1451.33 47.456 1450.57 47.456ZM1468.44 47.456C1465.86 47.456 1463.86 46.962 1462.46 45.974C1461.05 44.948 1460.06 43.466 1459.49 41.528C1458.96 39.552 1458.7 37.139 1458.7 34.289V26.765C1458.7 23.839 1458.98 21.407 1459.55 19.469C1460.12 17.531 1461.11 16.068 1462.51 15.08C1463.96 14.092 1465.93 13.598 1468.44 13.598C1471.22 13.598 1473.25 14.168 1474.54 15.308C1475.87 16.448 1476.75 18.101 1477.16 20.267C1477.58 22.395 1477.79 24.96 1477.79 27.962V30.641H1464.79V37.253C1464.79 38.583 1464.91 39.666 1465.14 40.502C1465.4 41.338 1465.8 41.965 1466.33 42.383C1466.9 42.763 1467.63 42.953 1468.5 42.953C1469.41 42.953 1470.1 42.744 1470.55 42.326C1471.05 41.87 1471.37 41.243 1471.52 40.445C1471.71 39.609 1471.81 38.64 1471.81 37.538V35.543H1477.73V36.797C1477.73 40.103 1477.03 42.706 1475.62 44.606C1474.22 46.506 1471.82 47.456 1468.44 47.456ZM1464.79 27.335H1471.81V24.371C1471.81 23.003 1471.73 21.863 1471.58 20.951C1471.43 20.001 1471.1 19.298 1470.61 18.842C1470.15 18.348 1469.41 18.101 1468.39 18.101C1467.4 18.101 1466.64 18.329 1466.11 18.785C1465.61 19.241 1465.27 20.02 1465.08 21.122C1464.89 22.186 1464.79 23.668 1464.79 25.568V27.335ZM1492.32 47.456C1489.62 47.456 1487.57 46.924 1486.16 45.86C1484.8 44.758 1483.86 43.219 1483.37 41.243C1482.91 39.267 1482.69 36.968 1482.69 34.346V26.765C1482.69 23.991 1482.93 21.635 1483.43 19.697C1483.92 17.721 1484.85 16.22 1486.22 15.194C1487.63 14.13 1489.66 13.598 1492.32 13.598C1494.71 13.598 1496.56 13.997 1497.85 14.795C1499.18 15.555 1500.09 16.714 1500.58 18.272C1501.08 19.792 1501.33 21.692 1501.33 23.972V25.91H1495.8V23.915C1495.8 22.471 1495.7 21.331 1495.51 20.495C1495.32 19.659 1494.98 19.051 1494.49 18.671C1493.99 18.291 1493.29 18.101 1492.38 18.101C1491.39 18.101 1490.63 18.329 1490.1 18.785C1489.56 19.241 1489.2 20.02 1489.01 21.122C1488.86 22.186 1488.79 23.649 1488.79 25.511V35.885C1488.79 38.697 1489.05 40.578 1489.58 41.528C1490.12 42.478 1491.07 42.953 1492.43 42.953C1493.46 42.953 1494.2 42.725 1494.66 42.269C1495.15 41.775 1495.45 41.091 1495.57 40.217C1495.72 39.343 1495.8 38.355 1495.8 37.253V34.574H1501.33V36.854C1501.33 39.058 1501.06 40.958 1500.53 42.554C1500.03 44.15 1499.12 45.366 1497.79 46.202C1496.5 47.038 1494.68 47.456 1492.32 47.456ZM1515.53 47.456C1513.82 47.456 1512.43 47.133 1511.36 46.487C1510.34 45.841 1509.58 44.929 1509.08 43.751C1508.63 42.573 1508.4 41.186 1508.4 39.59V18.101H1504.92V14.054H1508.4V4.421H1514.5V14.054H1519.8V18.101H1514.5V39.191C1514.5 40.483 1514.71 41.414 1515.13 41.984C1515.54 42.516 1516.34 42.782 1517.52 42.782C1517.82 42.782 1518.17 42.763 1518.55 42.725C1518.96 42.687 1519.36 42.649 1519.74 42.611V47.114C1518.98 47.228 1518.28 47.304 1517.63 47.342C1516.99 47.418 1516.29 47.456 1515.53 47.456ZM1408.68 110V93.698L1398.7 63.83H1404.69L1411.76 86.117L1418.71 63.83H1424.75L1414.83 93.698V110H1408.68ZM1436.49 110.456C1434.06 110.456 1432.14 109.962 1430.73 108.974C1429.33 107.986 1428.32 106.58 1427.71 104.756C1427.14 102.932 1426.86 100.785 1426.86 98.315V88.739C1426.86 86.269 1427.14 84.122 1427.71 82.298C1428.32 80.474 1429.33 79.068 1430.73 78.08C1432.14 77.092 1434.06 76.598 1436.49 76.598C1438.92 76.598 1440.82 77.092 1442.19 78.08C1443.6 79.068 1444.58 80.474 1445.15 82.298C1445.76 84.122 1446.07 86.269 1446.07 88.739V98.315C1446.07 100.785 1445.76 102.932 1445.15 104.756C1444.58 106.58 1443.6 107.986 1442.19 108.974C1440.82 109.962 1438.92 110.456 1436.49 110.456ZM1436.49 105.953C1437.67 105.953 1438.48 105.611 1438.94 104.927C1439.43 104.243 1439.72 103.35 1439.8 102.248C1439.91 101.108 1439.97 99.93 1439.97 98.714V88.397C1439.97 87.143 1439.91 85.965 1439.8 84.863C1439.72 83.761 1439.43 82.868 1438.94 82.184C1438.48 81.462 1437.67 81.101 1436.49 81.101C1435.31 81.101 1434.48 81.462 1433.98 82.184C1433.49 82.868 1433.18 83.761 1433.07 84.863C1432.99 85.965 1432.96 87.143 1432.96 88.397V98.714C1432.96 99.93 1432.99 101.108 1433.07 102.248C1433.18 103.35 1433.49 104.243 1433.98 104.927C1434.48 105.611 1435.31 105.953 1436.49 105.953ZM1456.37 110.456C1455.08 110.456 1454.07 110.114 1453.35 109.43C1452.63 108.746 1452.12 107.891 1451.81 106.865C1451.55 105.839 1451.41 104.794 1451.41 103.73V77.054H1457.51V101.906C1457.51 103.084 1457.68 104.015 1458.02 104.699C1458.37 105.345 1459.07 105.668 1460.13 105.668C1460.82 105.668 1461.52 105.478 1462.24 105.098C1463 104.68 1463.72 104.186 1464.41 103.616V77.054H1470.51V110H1464.41V106.751C1463.34 107.777 1462.13 108.651 1460.76 109.373C1459.43 110.095 1457.97 110.456 1456.37 110.456ZM1476.92 110V77.054H1483.01V81.728C1484.23 79.714 1485.45 78.365 1486.66 77.681C1487.88 76.997 1489.09 76.655 1490.31 76.655C1490.46 76.655 1490.6 76.655 1490.71 76.655C1490.86 76.655 1491.05 76.674 1491.28 76.712V83.438C1490.82 83.248 1490.29 83.096 1489.68 82.982C1489.11 82.83 1488.52 82.754 1487.92 82.754C1486.97 82.754 1486.09 82.982 1485.29 83.438C1484.53 83.856 1483.77 84.692 1483.01 85.946V110H1476.92ZM1362.53 173V126.83H1366.92L1380.03 157.496V126.83H1385.39V173H1381.29L1368.01 141.479V173H1362.53ZM1401.26 173.456C1398.67 173.456 1396.68 172.962 1395.27 171.974C1393.86 170.948 1392.88 169.466 1392.31 167.528C1391.77 165.552 1391.51 163.139 1391.51 160.289V152.765C1391.51 149.839 1391.79 147.407 1392.36 145.469C1392.93 143.531 1393.92 142.068 1395.33 141.08C1396.77 140.092 1398.75 139.598 1401.26 139.598C1404.03 139.598 1406.06 140.168 1407.35 141.308C1408.68 142.448 1409.56 144.101 1409.98 146.267C1410.39 148.395 1410.6 150.96 1410.6 153.962V156.641H1397.61V163.253C1397.61 164.583 1397.72 165.666 1397.95 166.502C1398.22 167.338 1398.61 167.965 1399.15 168.383C1399.72 168.763 1400.44 168.953 1401.31 168.953C1402.22 168.953 1402.91 168.744 1403.36 168.326C1403.86 167.87 1404.18 167.243 1404.33 166.445C1404.52 165.609 1404.62 164.64 1404.62 163.538V161.543H1410.55V162.797C1410.55 166.103 1409.84 168.706 1408.44 170.606C1407.03 172.506 1404.64 173.456 1401.26 173.456ZM1397.61 153.335H1404.62V150.371C1404.62 149.003 1404.54 147.863 1404.39 146.951C1404.24 146.001 1403.92 145.298 1403.42 144.842C1402.97 144.348 1402.22 144.101 1401.2 144.101C1400.21 144.101 1399.45 144.329 1398.92 144.785C1398.42 145.241 1398.08 146.02 1397.89 147.122C1397.7 148.186 1397.61 149.668 1397.61 151.568V153.335ZM1424.9 173.456C1423.19 173.456 1421.81 173.133 1420.74 172.487C1419.72 171.841 1418.96 170.929 1418.46 169.751C1418.01 168.573 1417.78 167.186 1417.78 165.59V144.101H1414.3V140.054H1417.78V130.421H1423.88V140.054H1429.18V144.101H1423.88V165.191C1423.88 166.483 1424.09 167.414 1424.51 167.984C1424.92 168.516 1425.72 168.782 1426.9 168.782C1427.2 168.782 1427.55 168.763 1427.93 168.725C1428.34 168.687 1428.74 168.649 1429.12 168.611V173.114C1428.36 173.228 1427.66 173.304 1427.01 173.342C1426.37 173.418 1425.66 173.456 1424.9 173.456ZM1437.48 173L1432.18 140.054H1437.2L1440.62 164.336L1445 140.054H1449.68L1454.07 164.222L1457.49 140.054H1462.5L1457.03 173H1451.9L1447.4 149.744L1442.95 173H1437.48ZM1476.23 173.456C1473.8 173.456 1471.88 172.962 1470.48 171.974C1469.07 170.986 1468.06 169.58 1467.46 167.756C1466.89 165.932 1466.6 163.785 1466.6 161.315V151.739C1466.6 149.269 1466.89 147.122 1467.46 145.298C1468.06 143.474 1469.07 142.068 1470.48 141.08C1471.88 140.092 1473.8 139.598 1476.23 139.598C1478.67 139.598 1480.57 140.092 1481.93 141.08C1483.34 142.068 1484.33 143.474 1484.9 145.298C1485.51 147.122 1485.81 149.269 1485.81 151.739V161.315C1485.81 163.785 1485.51 165.932 1484.9 167.756C1484.33 169.58 1483.34 170.986 1481.93 171.974C1480.57 172.962 1478.67 173.456 1476.23 173.456ZM1476.23 168.953C1477.41 168.953 1478.23 168.611 1478.68 167.927C1479.18 167.243 1479.46 166.35 1479.54 165.248C1479.65 164.108 1479.71 162.93 1479.71 161.714V151.397C1479.71 150.143 1479.65 148.965 1479.54 147.863C1479.46 146.761 1479.18 145.868 1478.68 145.184C1478.23 144.462 1477.41 144.101 1476.23 144.101C1475.06 144.101 1474.22 144.462 1473.73 145.184C1473.23 145.868 1472.93 146.761 1472.81 147.863C1472.74 148.965 1472.7 150.143 1472.7 151.397V161.714C1472.7 162.93 1472.74 164.108 1472.81 165.248C1472.93 166.35 1473.23 167.243 1473.73 167.927C1474.22 168.611 1475.06 168.953 1476.23 168.953ZM1491.56 173V140.054H1497.65V144.728C1498.87 142.714 1500.09 141.365 1501.3 140.681C1502.52 139.997 1503.73 139.655 1504.95 139.655C1505.1 139.655 1505.24 139.655 1505.35 139.655C1505.5 139.655 1505.69 139.674 1505.92 139.712V146.438C1505.46 146.248 1504.93 146.096 1504.32 145.982C1503.75 145.83 1503.16 145.754 1502.56 145.754C1501.61 145.754 1500.73 145.982 1499.93 146.438C1499.17 146.856 1498.41 147.692 1497.65 148.946V173H1491.56ZM1509.81 172.943V126.773H1515.91V154.304L1524.8 140.054H1531.19L1523.44 152.936L1530.96 173H1524.86L1518.7 156.128L1515.91 160.346V172.943H1509.81Z" fill="white"/>
</svg>
