<svg width="175" height="175" viewBox="0 0 175 175" fill="none" xmlns="http://www.w3.org/2000/svg">
<circle cx="87.5" cy="87.5" r="87.5" fill="#83984B"/>
<path d="M81.1811 41.4033C82.467 41.2345 83.9088 41.0657 84.3958 41.0281C84.8829 40.9906 86.7143 40.9906 88.4873 41.0281C90.2603 41.0657 92.8905 41.272 94.3323 41.4596C95.774 41.666 97.8782 42.0412 99.0082 42.3038C100.138 42.5665 102.106 43.1293 103.392 43.542C104.678 43.9735 106.957 44.9115 108.458 45.6056C109.958 46.2998 111.809 47.2378 112.549 47.6693C113.289 48.1195 114.653 48.9825 115.569 49.6016C116.485 50.2394 117.887 51.2712 118.686 51.9091C119.485 52.5469 120.342 53.2786 121.024 53.9539L119.329 55.361C118.917 55.6997 118.351 56.1694 117.744 56.6723L117.74 56.6752L117.738 56.6773C116.968 57.315 116.135 58.0057 115.472 58.5502C114.874 59.0328 114.215 59.5704 113.493 60.1586L113.486 60.1642L113.484 60.1657L113.483 60.1669C112.749 60.7655 111.95 61.4163 111.088 62.1147L110.172 61.3455C109.646 60.914 108.399 60.0323 107.386 59.3944C106.373 58.7378 104.873 57.8561 104.074 57.4434C103.275 57.0306 102.048 56.4678 101.346 56.2052C100.645 55.9238 99.3394 55.4735 98.4237 55.1734C97.508 54.8732 95.6376 54.4042 94.2349 54.1228C91.9358 53.6538 91.3319 53.6163 87.5132 53.6163C83.7334 53.6163 83.071 53.6725 80.7914 54.1228C79.3887 54.4042 77.6936 54.7982 76.9922 55.0233C76.2908 55.2296 74.9855 55.6986 74.0697 56.0551C73.154 56.4115 71.6733 57.0869 70.7576 57.5559C69.8419 58.0249 68.4391 58.8504 67.6403 59.3757C66.8415 59.9009 65.8673 60.5763 64.8152 61.3642L60.5289 57.8561C58.1715 55.905 55.9504 54.104 55.5997 53.8226C55.249 53.5225 54.9762 53.2035 54.9762 53.1097C54.9762 53.0159 55.3854 52.6032 55.8919 52.2092C56.1359 52.0265 56.4762 51.7672 56.8411 51.4891L56.8427 51.4878C57.2641 51.1667 57.7179 50.8209 58.0935 50.5396C58.7949 50.0331 60.1003 49.1513 61.016 48.5698C61.9317 48.0069 63.2955 47.2003 64.0359 46.8063C64.7763 46.3936 66.4129 45.6244 67.6403 45.0991C68.8677 44.5738 70.3679 43.9735 70.9524 43.7671C71.5369 43.5608 72.589 43.2043 73.2904 42.998C73.9918 42.7916 75.531 42.4164 76.7 42.1538C77.869 41.8911 79.8952 41.5534 81.1811 41.4033Z" fill="#FEFEFE"/>
<path d="M45.7607 63.8969C46.0724 63.3903 46.7543 62.3398 47.2804 61.6081C47.7869 60.8577 48.2545 60.2386 48.3324 60.2386C48.3909 60.2574 49.1897 60.8577 50.1054 61.6081C51.0211 62.3398 53.1838 64.122 54.9373 65.5853C56.6713 67.0298 58.113 68.268 58.0935 68.3618C58.0935 68.4369 57.7623 68.9809 57.3727 69.5812C56.983 70.1628 56.2426 71.4573 55.7361 72.4328C55.2295 73.4083 54.606 74.7591 54.3138 75.4344C54.041 76.1098 53.6124 77.3667 53.3396 78.2485C53.0863 79.1302 52.6772 80.8937 52.4239 82.1881C52.0732 84.0266 51.9758 85.2085 51.9758 87.7224C51.9758 90.2175 52.0732 91.4181 52.4239 93.2566C52.6772 94.5511 53.0863 96.3146 53.3591 97.1963C53.6319 98.078 54.08 99.335 54.3333 100.01C54.606 100.686 55.249 102.074 55.7945 103.106C56.3206 104.138 57.3142 105.788 57.9961 106.764C58.6975 107.74 59.9055 109.278 60.7238 110.197C61.5226 111.098 63.0033 112.505 63.9775 113.349C64.9711 114.174 66.6272 115.394 67.6403 116.05C68.6534 116.707 70.5433 117.758 71.8292 118.377C73.1151 118.977 75.1413 119.784 76.3103 120.159C77.4793 120.534 79.0769 120.966 79.8173 121.097C80.5576 121.247 81.5123 121.416 82.6424 121.585V134.248L81.337 134.098C80.5966 134.004 78.8236 133.704 77.3819 133.404C75.9401 133.122 73.5242 132.484 72.024 131.997C70.5238 131.509 67.991 130.496 66.3739 129.745C64.7763 128.976 63.2761 128.245 63.0617 128.113C62.9407 128.039 62.54 127.785 62.0105 127.45L62.0071 127.448C61.5999 127.19 61.1168 126.884 60.6263 126.575C59.4963 125.862 57.6064 124.492 56.4375 123.554C55.2685 122.598 53.5734 121.116 52.7162 120.253C51.8394 119.39 50.4951 117.908 49.7158 116.988C48.9364 116.069 47.8064 114.587 47.1829 113.705C46.579 112.824 45.6438 111.342 45.0982 110.422C44.5722 109.503 43.9487 108.359 43.7149 107.89C43.6339 107.712 43.5223 107.476 43.4001 107.217C43.1989 106.792 42.9689 106.305 42.7992 105.92C42.507 105.301 41.903 103.687 41.4354 102.355C40.9873 101.023 40.3638 98.866 40.0716 97.5715C39.7988 96.277 39.4286 94.0071 39.2922 92.5062C39.1364 91.0054 39 88.8668 39 87.7224C39 86.578 39.1364 84.3455 39.2922 82.7509C39.4481 81.1563 39.6624 79.5429 39.7793 79.1865C39.8962 78.83 40.0716 78.0233 40.169 77.4042C40.2664 76.7852 40.7925 75.0217 41.3185 73.4646C41.8445 71.9263 42.507 70.144 42.7797 69.5249C43.0525 68.9059 43.6954 67.5926 44.2215 66.6171C44.7475 65.6416 45.4295 64.4222 45.7607 63.8969Z" fill="#FEFEFE"/>
<path d="M123.588 64.1665L123.587 64.1673C122.895 64.741 122.144 65.3631 121.453 65.9417C119.797 67.2925 118.219 68.5869 117.946 68.8121C117.42 69.2248 117.42 69.2435 117.771 69.7501C117.965 70.0502 118.686 71.3635 119.368 72.7142C120.05 74.0649 120.888 75.9222 121.2 76.8414C121.531 77.7607 122.018 79.5429 122.31 80.7811C122.817 82.9198 122.856 83.2762 122.856 87.7224C122.836 92.131 122.817 92.5438 122.33 94.6261C122.037 95.8268 121.531 97.609 121.2 98.5658C120.868 99.5038 120.264 100.967 119.894 101.793C119.505 102.618 118.998 103.612 118.745 104.006C118.491 104.381 118.297 104.738 118.297 104.794C118.297 104.85 117.848 105.545 117.303 106.351C116.757 107.139 115.978 108.171 115.608 108.64C115.218 109.109 114.322 110.103 113.621 110.873C112.919 111.642 111.614 112.861 110.698 113.612C109.782 114.343 108.477 115.337 107.776 115.806C107.074 116.275 105.808 117.045 104.951 117.514C104.093 117.964 102.476 118.733 101.346 119.202C100.216 119.652 98.3458 120.29 97.1573 120.609C95.9689 120.928 94.6635 121.228 94.2349 121.284C93.8062 121.359 93.2217 121.453 92.91 121.491L92.3839 121.585V134.248C94.4297 134.023 96.0273 133.741 97.2547 133.479C98.4822 133.235 100.294 132.803 101.249 132.541C102.203 132.259 104.054 131.64 105.34 131.152C106.626 130.665 108.341 129.952 109.139 129.558C109.938 129.183 111.341 128.432 112.257 127.907C113.173 127.382 114.536 126.537 115.277 126.012C116.017 125.506 117.264 124.624 118.004 124.042C118.745 123.479 120.284 122.166 121.394 121.116C122.505 120.084 124.2 118.264 125.194 117.082C126.168 115.9 127.376 114.343 127.863 113.612C128.028 113.363 128.216 113.085 128.404 112.805L128.406 112.803C128.773 112.258 129.144 111.707 129.363 111.36C129.694 110.854 130.337 109.653 130.824 108.734C131.292 107.815 131.915 106.539 132.188 105.92C132.461 105.301 132.851 104.381 133.065 103.856C133.279 103.35 133.649 102.28 133.883 101.511C134.117 100.742 134.526 99.2974 134.76 98.3219C135.013 97.3464 135.364 95.5266 135.539 94.2885C135.715 93.0503 135.909 90.649 135.968 88.9418C136.046 86.6906 135.987 85.0209 135.734 82.8447C135.559 81.1938 135.189 78.9238 134.916 77.7795C134.643 76.6351 134.156 74.8716 133.825 73.8398C133.513 72.808 132.948 71.2884 132.617 70.463C132.266 69.6375 131.643 68.2868 131.233 67.4613C130.824 66.6359 130.064 65.2476 129.538 64.3659C129.012 63.4841 128.33 62.4148 128.019 61.9833C127.707 61.5331 127.395 61.1766 127.298 61.1766C127.22 61.1954 126.538 61.7019 125.798 62.321C125.37 62.6893 124.534 63.3826 123.588 64.1665Z" fill="#FEFEFE"/>
<path d="M93.8485 61.6092C92.1339 61.1965 91.3936 61.1214 87.9061 61.0839C85.7045 61.0464 83.6977 61.0651 83.425 61.1214C83.1522 61.1777 82.1001 61.4028 81.087 61.6467C80.0739 61.8906 78.5736 62.3033 77.7748 62.6035C76.976 62.8849 75.5732 63.4852 74.6575 63.9542C73.7418 64.4045 72.3001 65.2487 71.4428 65.8302C70.5855 66.4118 69.1048 67.6125 68.1696 68.4942C67.2149 69.3759 65.8901 70.8017 65.2082 71.6834C64.5263 72.5652 63.6495 73.8784 63.2599 74.5913C62.8507 75.3042 62.461 76.0358 62.3831 76.1859C62.3328 76.2828 62.2256 76.5127 62.1035 76.7746C62.0365 76.9182 61.9651 77.0715 61.896 77.2177C61.7207 77.6304 61.3115 78.681 60.9998 79.5627C60.7076 80.4445 60.2984 82.0016 60.1036 83.0334C59.8698 84.3278 59.7529 85.8099 59.7724 87.8172C59.7724 89.7683 59.8893 91.3066 60.1231 92.5073C60.3179 93.4828 60.6881 94.9274 60.9414 95.6965C61.1946 96.4657 61.7791 97.8915 62.2467 98.8483C62.6948 99.805 63.1819 100.593 63.2988 100.574C63.4352 100.574 65.4225 99.0921 67.6825 97.2724C69.9621 95.4714 71.9299 93.858 72.0273 93.7267C72.1637 93.5391 72.0857 93.0889 71.735 92.1884C71.2869 91.0065 71.248 90.6688 71.248 87.7234C71.248 84.6843 71.2869 84.4592 71.813 82.9396C72.1247 82.0578 72.6897 80.8384 73.0599 80.2193C73.4301 79.6003 73.8977 78.8498 74.1315 78.5309C74.3653 78.212 75.0277 77.4803 75.6317 76.8613C76.2162 76.2609 77.1319 75.4542 77.6774 75.079C78.2035 74.7038 79.0412 74.1598 79.5283 73.8971C80.0154 73.6157 81.1065 73.1467 81.9637 72.8466C82.8405 72.5464 84.3796 72.19 85.4707 72.0586C87.0683 71.8523 87.7892 71.8523 89.4648 72.0586C90.6727 72.19 92.1534 72.5276 93.0691 72.8466C93.9264 73.1467 95.2902 73.7846 96.089 74.2723C96.8878 74.7413 98.1153 75.6418 98.7777 76.2609C99.4596 76.8988 100.317 77.7805 100.668 78.2495C101.018 78.7185 101.525 79.4689 101.798 79.9379C102.07 80.4069 102.499 81.3074 102.791 81.964C103.064 82.6019 103.434 83.7838 103.59 84.5717C103.746 85.3784 103.882 86.7479 103.882 87.6296C103.882 88.5114 103.746 89.9934 103.59 90.9127C103.38 92.124 103.321 92.4663 103.463 92.6669C103.518 92.7459 103.605 92.803 103.726 92.8825C103.817 92.9404 104.058 93.1017 104.394 93.3264C104.928 93.6841 105.703 94.2025 106.493 94.721C107.798 95.584 109.591 96.7659 110.487 97.3474C110.983 97.6798 111.467 97.9948 111.827 98.229C112.118 98.4179 112.327 98.5541 112.396 98.6044C112.591 98.7357 112.747 98.6982 112.961 98.4168C113.117 98.2104 113.488 97.3287 113.799 96.4469C114.111 95.5652 114.52 94.2145 114.695 93.4453C114.871 92.6761 115.105 91.3254 115.222 90.4437C115.338 89.5619 115.377 87.836 115.319 86.5978C115.26 85.2471 115.007 83.4836 114.715 82.1892C114.442 81.0073 113.994 79.4314 113.721 78.7185C113.449 78.0056 112.884 76.7299 112.455 75.9045C112.046 75.079 111.481 74.0847 111.208 73.7095C110.935 73.3156 110.701 72.9591 110.701 72.9028C110.701 72.8466 110.175 72.1524 109.552 71.3645C108.909 70.5578 107.604 69.1883 106.668 68.3066C105.714 67.4249 104.252 66.2617 103.395 65.6989C102.538 65.1361 100.999 64.2731 99.9857 63.7854C98.9725 63.2976 97.6087 62.716 96.9658 62.4909C96.3228 62.2658 94.92 61.8531 93.8485 61.6092Z" fill="#FEFEFE"/>
<path d="M89.0361 80.5007C88.5685 80.4069 87.8476 80.3319 87.419 80.3319C86.9904 80.3507 86.289 80.4257 85.8604 80.5195C85.4317 80.6321 84.6134 80.9322 84.0289 81.2136C83.4444 81.495 82.5287 82.1892 81.9637 82.752C81.3792 83.3711 80.7752 84.234 80.5025 84.9094C80.1128 85.8287 80.0154 86.3539 80.0349 87.7234C80.0349 89.0554 80.1323 89.6557 80.5025 90.5375C80.8337 91.3629 81.3013 92.0008 82.2365 92.9013C83.2886 93.9143 83.7562 94.1957 84.7888 94.5334C85.4902 94.7585 86.4449 95.0024 86.9319 95.0587C87.4969 95.1337 88.2763 95.0587 89.0751 94.8711C89.7765 94.6835 90.6532 94.4021 91.0234 94.2332C91.3936 94.0644 92.1924 93.4641 92.7964 92.8825C93.4004 92.3009 94.1212 91.3629 94.433 90.7251C94.9395 89.712 94.998 89.3931 94.998 87.7234C95.0175 85.9975 94.959 85.7536 94.394 84.628C94.0433 83.9526 93.3419 83.0146 92.8353 82.5081C92.3288 82.0203 91.4326 81.4012 90.8675 81.1574C90.322 80.8947 89.4842 80.6133 89.0361 80.5007Z" fill="#FEFEFE"/>
<path d="M100.372 100.859C99.3365 100.188 98.484 99.6362 98.427 99.6362C98.3686 99.6362 98.0179 99.8613 97.6477 100.143C97.258 100.443 96.7904 100.781 96.5761 100.893C96.3618 101.024 95.6214 101.418 94.92 101.775C94.2187 102.113 92.9133 102.638 91.9976 102.9C90.5168 103.351 90.0492 103.407 87.5164 103.407C85.0031 103.407 84.516 103.351 83.0353 102.9C82.1196 102.638 80.8921 102.169 80.3077 101.906C79.7232 101.625 78.8659 101.175 78.3983 100.893C77.6969 100.462 77.5216 100.424 77.2098 100.612C76.9955 100.743 75.0472 102.281 72.8651 104.026C70.7024 105.752 68.8905 107.272 68.8515 107.403C68.832 107.515 69.0853 107.816 69.4165 108.078C69.7672 108.341 70.1764 108.679 70.3517 108.829C70.5271 108.979 71.4038 109.579 72.3195 110.161C73.2353 110.723 74.638 111.493 75.4369 111.868C76.2357 112.243 77.6774 112.806 78.6516 113.125C79.6257 113.444 81.4572 113.875 82.743 114.063C84.0289 114.269 85.646 114.476 86.3474 114.551C87.0488 114.607 88.4906 114.569 89.5622 114.457C90.6337 114.344 92.0365 114.175 92.6795 114.063C93.3224 113.95 94.6473 113.613 95.602 113.331C96.5566 113.05 97.8815 112.6 98.5244 112.337C99.1674 112.074 100.434 111.455 101.35 110.949C102.265 110.461 103.571 109.617 104.272 109.11C104.954 108.585 106.045 107.722 106.649 107.197C107.272 106.653 107.779 106.071 107.779 105.921C107.779 105.771 107.37 105.396 106.844 105.077C106.337 104.776 105.129 104.007 104.155 103.351C103.6 102.984 102.838 102.482 102.09 101.99C101.499 101.601 100.918 101.218 100.453 100.912L100.372 100.859Z" fill="#FEFEFE"/>
</svg>
