<svg width="38" height="36" viewBox="0 0 38 36" fill="none" xmlns="http://www.w3.org/2000/svg">
<path d="M16.1867 0.154781C16.6802 0.0899889 17.2334 0.0251969 17.4203 0.0107987C17.6073 -0.00359956 18.3101 -0.00359956 18.9904 0.0107987C19.6708 0.0251969 20.6801 0.104387 21.2334 0.176378C21.7866 0.255569 22.5941 0.399551 23.0278 0.500338C23.4614 0.601126 24.2165 0.8171 24.71 0.97548C25.2034 1.14106 26.0782 1.50102 26.6539 1.76738C27.2296 2.03375 27.9398 2.39371 28.2239 2.55929C28.5081 2.73206 29.0314 3.06322 29.3828 3.30079C29.7342 3.54556 30.2725 3.94152 30.5791 4.18629C30.8856 4.43106 31.2146 4.71182 31.4762 4.97099L30.8258 5.51092C30.6677 5.6409 30.4503 5.82115 30.2174 6.01414L30.2161 6.01523L30.2151 6.01604C29.9198 6.26078 29.6 6.52581 29.3454 6.73477C29.1161 6.91995 28.8631 7.12627 28.5862 7.35198L28.5835 7.35415L28.5828 7.35472L28.5823 7.35515C28.3005 7.58487 27.9942 7.83463 27.6632 8.1026L27.3118 7.80744C27.1099 7.64186 26.6314 7.3035 26.2427 7.05873C25.8539 6.80676 25.2782 6.46841 24.9717 6.31002C24.6651 6.15164 24.1941 5.93567 23.9249 5.83488C23.6558 5.7269 23.1549 5.55412 22.8035 5.43893C22.4521 5.32375 21.7343 5.14377 21.196 5.03578C20.3138 4.8558 20.082 4.8414 18.6166 4.8414C17.1661 4.8414 16.9119 4.863 16.0372 5.03578C15.4989 5.14377 14.8484 5.29495 14.5793 5.38134C14.3101 5.46053 13.8092 5.64051 13.4578 5.77729C13.1064 5.91407 12.5382 6.17324 12.1868 6.35322C11.8354 6.5332 11.2971 6.84996 10.9905 7.05153C10.684 7.25311 10.3102 7.51228 9.90642 7.81464L8.26158 6.46841C7.35692 5.7197 6.50459 5.02858 6.37001 4.9206C6.23544 4.80541 6.13077 4.68302 6.13077 4.64703C6.13077 4.61103 6.28777 4.45265 6.48216 4.30147C6.57578 4.23136 6.70639 4.13182 6.84639 4.02513L6.84703 4.02464C7.00872 3.90142 7.18287 3.7687 7.32701 3.66075C7.59617 3.46637 8.0971 3.12802 8.44849 2.90484C8.79989 2.68887 9.32325 2.37931 9.60736 2.22813C9.89147 2.06975 10.5195 1.77458 10.9905 1.57301C11.4615 1.37143 12.0372 1.14106 12.2615 1.06187C12.4858 0.982679 12.8896 0.845896 13.1587 0.766706C13.4279 0.687515 14.0185 0.543533 14.4671 0.442746C14.9157 0.341958 15.6933 0.212374 16.1867 0.154781Z" fill="#FEFEFE"/>
<path d="M2.59436 8.78652C2.71399 8.59214 2.97566 8.18899 3.17753 7.90823C3.37192 7.62026 3.55136 7.38269 3.58126 7.38269C3.60369 7.38989 3.91023 7.62026 4.26163 7.90823C4.61303 8.18899 5.44292 8.87291 6.11581 9.43444C6.78122 9.98877 7.33449 10.4639 7.32701 10.4999C7.32701 10.5287 7.19991 10.7375 7.05038 10.9679C6.90085 11.191 6.61674 11.6878 6.42235 12.0621C6.22796 12.4365 5.98871 12.9548 5.87656 13.214C5.77189 13.4731 5.60741 13.9555 5.50274 14.2938C5.40554 14.6322 5.24853 15.3089 5.15134 15.8057C5.01676 16.5112 4.97938 16.9647 4.97938 17.9294C4.97938 18.8869 5.01676 19.3476 5.15134 20.0531C5.24853 20.5499 5.40554 21.2266 5.51021 21.5649C5.61488 21.9033 5.78684 22.3856 5.88404 22.6448C5.98871 22.904 6.23544 23.4367 6.44478 23.8327C6.64665 24.2286 7.02795 24.8621 7.28963 25.2365C7.55878 25.6109 8.02233 26.2012 8.33635 26.5539C8.64288 26.8995 9.2111 27.4394 9.58493 27.7634C9.96623 28.0801 10.6017 28.5481 10.9905 28.8001C11.3793 29.052 12.1045 29.4552 12.598 29.6928C13.0914 29.9231 13.869 30.2327 14.3176 30.3767C14.7662 30.5206 15.3792 30.6862 15.6634 30.7366C15.9475 30.7942 16.3138 30.859 16.7475 30.9238V35.7832L16.2465 35.7256C15.9624 35.6896 15.2821 35.5744 14.7288 35.4592C14.1755 35.3513 13.2484 35.1065 12.6727 34.9193C12.097 34.7321 11.1251 34.3434 10.5045 34.0554C9.89147 33.7603 9.31577 33.4795 9.23353 33.4291C9.18708 33.4006 9.0333 33.3033 8.83012 33.1746L8.82883 33.1738C8.67255 33.0749 8.48716 32.9575 8.29896 32.8388C7.86532 32.5652 7.1401 32.0397 6.69151 31.6797C6.24291 31.3125 5.59245 30.7438 5.26349 30.4127C4.92704 30.0815 4.41116 29.5128 4.1121 29.16C3.81304 28.8073 3.3794 28.2385 3.14015 27.9002C2.90838 27.5618 2.5495 26.9931 2.34016 26.6403C2.13829 26.2876 1.89904 25.8484 1.80932 25.6684C1.77824 25.6004 1.7354 25.5098 1.68849 25.4105C1.61129 25.2471 1.52303 25.0603 1.45793 24.9125C1.34578 24.675 1.114 24.0558 0.934568 23.5447C0.762607 23.0336 0.523358 22.2057 0.41121 21.7089C0.306538 21.2122 0.164484 20.3411 0.112148 19.7652C0.0523358 19.1892 0 18.3685 0 17.9294C0 17.4902 0.0523358 16.6336 0.112148 16.0216C0.17196 15.4097 0.254202 14.7906 0.299062 14.6538C0.343921 14.517 0.41121 14.2075 0.448593 13.9699C0.485975 13.7323 0.687842 13.0556 0.889709 12.4581C1.09158 11.8677 1.34578 11.1838 1.45045 10.9463C1.55512 10.7087 1.80185 10.2047 2.00371 9.83039C2.20558 9.45604 2.46726 8.9881 2.59436 8.78652Z" fill="#FEFEFE"/>
<path d="M32.4601 8.88999L32.4597 8.8903C32.1941 9.11045 31.9061 9.34919 31.6407 9.57122C31.0052 10.0896 30.3996 10.5863 30.295 10.6727C30.0931 10.8311 30.0931 10.8383 30.2277 11.0326C30.3024 11.1478 30.5791 11.6518 30.8407 12.1701C31.1024 12.6884 31.4239 13.4012 31.5435 13.7539C31.6706 14.1067 31.8575 14.7906 31.9697 15.2657C32.1641 16.0864 32.179 16.2232 32.179 17.9294C32.1716 19.6212 32.1641 19.7796 31.9772 20.5787C31.865 21.0394 31.6706 21.7233 31.5435 22.0905C31.4164 22.4504 31.1847 23.012 31.0426 23.3287C30.8931 23.6455 30.6987 24.027 30.6015 24.1782C30.5043 24.3222 30.4295 24.459 30.4295 24.4806C30.4295 24.5022 30.2576 24.7686 30.0482 25.0781C29.8389 25.3805 29.5398 25.7764 29.3978 25.9564C29.2482 26.1364 28.9043 26.5179 28.6352 26.8131C28.366 27.1083 27.8651 27.5762 27.5137 27.8642C27.1623 28.1449 26.6614 28.5265 26.3922 28.7065C26.123 28.8864 25.6371 29.1816 25.3081 29.3616C24.9791 29.5344 24.3586 29.8295 23.9249 30.0095C23.4913 30.1823 22.7736 30.4271 22.3175 30.5494C21.8614 30.6718 21.3605 30.787 21.196 30.8086C21.0315 30.8374 20.8072 30.8734 20.6876 30.8878L20.4857 30.9238V35.7832C21.2708 35.6968 21.8838 35.5888 22.3549 35.488C22.8259 35.3945 23.5212 35.2289 23.8876 35.1281C24.2539 35.0201 24.9642 34.7825 25.4576 34.5953C25.9511 34.4082 26.609 34.1346 26.9156 33.9834C27.2221 33.8394 27.7604 33.5515 28.1118 33.3499C28.4632 33.1483 28.9866 32.8244 29.2707 32.6228C29.5548 32.4284 30.0333 32.0901 30.3174 31.8669C30.6015 31.6509 31.1921 31.147 31.6183 30.7438C32.0445 30.3479 32.6949 29.6496 33.0762 29.196C33.4501 28.7425 33.9136 28.1449 34.1005 27.8642C34.1639 27.769 34.2359 27.6621 34.3083 27.5547L34.3088 27.554C34.4497 27.3449 34.5923 27.1333 34.6762 27.0003C34.8033 26.8059 35.05 26.3452 35.2369 25.9924C35.4164 25.6396 35.6556 25.1501 35.7603 24.9125C35.865 24.675 36.0145 24.3222 36.0967 24.1206C36.179 23.9263 36.321 23.5159 36.4108 23.2207C36.5005 22.9256 36.6575 22.3713 36.7472 21.9969C36.8444 21.6225 36.979 20.9242 37.0463 20.4491C37.1136 19.9739 37.1883 19.0525 37.2108 18.3973C37.2407 17.5334 37.2182 16.8927 37.121 16.0576C37.0537 15.4241 36.9117 14.553 36.807 14.1139C36.7023 13.6747 36.5154 12.998 36.3883 12.6021C36.2687 12.2061 36.0519 11.623 35.9248 11.3062C35.7902 10.9895 35.551 10.4711 35.394 10.1544C35.2369 9.83759 34.9454 9.30486 34.7435 8.9665C34.5416 8.62814 34.2799 8.21779 34.1603 8.05221C34.0407 7.87943 33.9211 7.74265 33.8837 7.74265C33.8538 7.74985 33.5921 7.94422 33.308 8.18179C33.144 8.3231 32.823 8.58918 32.4601 8.88999Z" fill="#FEFEFE"/>
<path d="M21.0477 7.90863C20.3898 7.75025 20.1057 7.72146 18.7674 7.70706C17.9225 7.69266 17.1524 7.69986 17.0478 7.72146C16.9431 7.74305 16.5394 7.82944 16.1506 7.92303C15.7618 8.01662 15.1861 8.175 14.8796 8.29019C14.573 8.39817 14.0347 8.62854 13.6833 8.80852C13.3319 8.9813 12.7787 9.30526 12.4497 9.52843C12.1207 9.75161 11.5525 10.2123 11.1936 10.5507C10.8273 10.8891 10.3189 11.4362 10.0572 11.7746C9.79553 12.1129 9.45909 12.6169 9.30956 12.8904C9.15255 13.164 9.00302 13.4448 8.97311 13.5023C8.9538 13.5395 8.91266 13.6278 8.86581 13.7282C8.84011 13.7834 8.81268 13.8422 8.7862 13.8983C8.71891 14.0567 8.5619 14.4598 8.44228 14.7982C8.33013 15.1365 8.17312 15.7341 8.09836 16.13C8.00864 16.6268 7.96378 17.1955 7.97125 17.9658C7.97125 18.7145 8.01611 19.3048 8.10583 19.7656C8.1806 20.1399 8.32265 20.6943 8.41985 20.9894C8.51704 21.2846 8.74134 21.8317 8.92078 22.1989C9.09274 22.566 9.27965 22.8684 9.32451 22.8612C9.37684 22.8612 10.1395 22.2925 11.0067 21.5942C11.8815 20.903 12.6366 20.2839 12.674 20.2335C12.7263 20.1615 12.6964 19.9887 12.5619 19.6432C12.3899 19.1896 12.3749 19.0601 12.3749 17.9298C12.3749 16.7635 12.3899 16.6772 12.5918 16.094C12.7114 15.7557 12.9282 15.2877 13.0703 15.0502C13.2123 14.8126 13.3917 14.5246 13.4815 14.4022C13.5712 14.2799 13.8254 13.9991 14.0572 13.7615C14.2815 13.5311 14.6329 13.2216 14.8422 13.0776C15.0441 12.9336 15.3656 12.7248 15.5525 12.6241C15.7394 12.5161 16.1581 12.3361 16.487 12.2209C16.8235 12.1057 17.4141 11.9689 17.8328 11.9185C18.4459 11.8394 18.7225 11.8394 19.3655 11.9185C19.8291 11.9689 20.3973 12.0985 20.7487 12.2209C21.0776 12.3361 21.601 12.5809 21.9075 12.768C22.2141 12.948 22.6851 13.2936 22.9393 13.5311C23.201 13.7759 23.5299 14.1143 23.6645 14.2942C23.7991 14.4742 23.9935 14.7622 24.0982 14.9422C24.2028 15.1221 24.3673 15.4677 24.4795 15.7197C24.5841 15.9644 24.7262 16.418 24.786 16.7204C24.8458 17.0299 24.8981 17.5554 24.8981 17.8938C24.8981 18.2322 24.8458 18.8009 24.786 19.1537C24.7055 19.6185 24.6828 19.7498 24.7371 19.8268C24.7585 19.8572 24.7919 19.879 24.8383 19.9096C24.873 19.9318 24.9655 19.9937 25.0944 20.0799C25.2995 20.2172 25.597 20.4161 25.9 20.6151C26.4009 20.9462 27.0888 21.3998 27.4327 21.6229C27.6231 21.7505 27.8089 21.8714 27.947 21.9612C28.0583 22.0337 28.1387 22.086 28.1654 22.1053C28.2402 22.1557 28.3 22.1413 28.3822 22.0333C28.442 21.9541 28.5841 21.6157 28.7037 21.2774C28.8233 20.939 28.9803 20.4207 29.0476 20.1255C29.1149 19.8304 29.2046 19.312 29.2495 18.9737C29.2944 18.6353 29.3093 17.973 29.2869 17.4979C29.2645 16.9795 29.1673 16.3028 29.0551 15.8061C28.9504 15.3525 28.7785 14.7478 28.6738 14.4742C28.5691 14.2007 28.3523 13.7111 28.1878 13.3944C28.0308 13.0776 27.814 12.696 27.7093 12.5521C27.6047 12.4009 27.5149 12.2641 27.5149 12.2425C27.5149 12.2209 27.3131 11.9545 27.0738 11.6522C26.8271 11.3426 26.3262 10.8171 25.9673 10.4787C25.6009 10.1404 25.0402 9.69401 24.7112 9.47804C24.3823 9.26207 23.7916 8.93091 23.4028 8.74373C23.0141 8.55655 22.4907 8.33338 22.244 8.24699C21.9972 8.1606 21.4589 8.00222 21.0477 7.90863Z" fill="#FEFEFE"/>
<path d="M19.201 15.1581C19.0216 15.1221 18.745 15.0933 18.5805 15.0933C18.416 15.1005 18.1468 15.1293 17.9823 15.1653C17.8179 15.2085 17.5038 15.3237 17.2796 15.4317C17.0553 15.5397 16.7039 15.8061 16.487 16.022C16.2627 16.2596 16.031 16.5908 15.9263 16.8499C15.7768 17.2027 15.7394 17.4043 15.7469 17.9298C15.7469 18.4409 15.7842 18.6713 15.9263 19.0097C16.0534 19.3264 16.2328 19.5712 16.5917 19.9168C16.9954 20.3055 17.1749 20.4135 17.5711 20.5431C17.8403 20.6295 18.2066 20.7231 18.3936 20.7447C18.6104 20.7735 18.9094 20.7447 19.216 20.6727C19.4851 20.6007 19.8216 20.4927 19.9636 20.4279C20.1057 20.3631 20.4122 20.1327 20.644 19.9096C20.8758 19.6864 21.1524 19.3264 21.272 19.0817C21.4664 18.6929 21.4888 18.5705 21.4888 17.9298C21.4963 17.2675 21.4739 17.1739 21.2571 16.7419C21.1225 16.4828 20.8533 16.1228 20.6589 15.9284C20.4646 15.7413 20.1206 15.5037 19.9038 15.4101C19.6945 15.3093 19.373 15.2013 19.201 15.1581Z" fill="#FEFEFE"/>
<path d="M23.5509 22.9705C23.1537 22.7132 22.8266 22.5012 22.8047 22.5012C22.7823 22.5012 22.6477 22.5876 22.5057 22.6956C22.3561 22.8108 22.1767 22.9404 22.0944 22.9836C22.0122 23.034 21.7281 23.1852 21.4589 23.3219C21.1898 23.4515 20.6889 23.6531 20.3375 23.7539C19.7692 23.9267 19.5898 23.9483 18.6179 23.9483C17.6534 23.9483 17.4665 23.9267 16.8982 23.7539C16.5468 23.6531 16.0758 23.4731 15.8515 23.3723C15.6272 23.2643 15.2983 23.0916 15.1188 22.9836C14.8497 22.818 14.7824 22.8036 14.6628 22.8756C14.5805 22.926 13.8329 23.5163 12.9955 24.1858C12.1656 24.8482 11.4703 25.4313 11.4553 25.4817C11.4478 25.5249 11.545 25.6401 11.6721 25.7408C11.8067 25.8416 11.9637 25.9712 12.031 26.0288C12.0983 26.0864 12.4348 26.3168 12.7861 26.5399C13.1375 26.7559 13.6759 27.0511 13.9824 27.1951C14.2889 27.339 14.8422 27.555 15.216 27.6774C15.5899 27.7998 16.2926 27.9654 16.7861 28.0374C17.2796 28.1165 17.9001 28.1957 18.1693 28.2245C18.4384 28.2461 18.9917 28.2317 19.4029 28.1885C19.8141 28.1453 20.3524 28.0806 20.5991 28.0374C20.8459 27.9942 21.3543 27.8646 21.7206 27.7566C22.087 27.6486 22.5954 27.4758 22.8421 27.375C23.0888 27.2743 23.5748 27.0367 23.9262 26.8423C24.2776 26.6551 24.7785 26.3312 25.0477 26.1368C25.3094 25.9352 25.728 25.6041 25.9598 25.4025C26.1991 25.1937 26.3935 24.9705 26.3935 24.9129C26.3935 24.8553 26.2364 24.7114 26.0346 24.589C25.8402 24.4738 25.3766 24.1786 25.0028 23.9267C24.7898 23.7859 24.4974 23.5934 24.2104 23.4045C23.9837 23.2553 23.7604 23.1083 23.5823 22.9908L23.5509 22.9705Z" fill="#FEFEFE"/>
</svg>
