<svg xmlns="http://www.w3.org/2000/svg" width="86" height="86" viewBox="0 0 86 86" fill="none">
<circle cx="43" cy="43" r="43" fill="#2A2B2A"/>
<path fill-rule="evenodd" clip-rule="evenodd" d="M42.6984 17.6263C42.0847 17.7684 41.4188 18.221 40.9319 18.8268C40.6242 19.2097 38.6941 22.5195 33.9805 30.747C33.5981 31.4145 32.9056 32.6219 32.4417 33.43C31.2276 35.5448 26.8386 43.2048 26.3655 44.0344C26.1452 44.4209 25.2227 46.0307 24.3155 47.6118C18.7562 57.3011 17.8526 58.8924 17.7482 59.1777C17.6715 59.3875 17.631 59.6878 17.628 60.0702C17.6237 60.5958 17.6418 60.6834 17.8332 61.067C18.095 61.5915 18.5534 62.0244 19.1323 62.2941L19.5665 62.4963H43.6005H67.6346L68.1308 62.2545C68.678 61.9877 68.984 61.6794 69.227 61.1497C69.4204 60.728 69.4312 59.9133 69.2504 59.3693C69.181 59.1603 68.4057 57.7517 67.5276 56.2391C62.2079 47.0754 59.4846 42.3851 57.2332 38.5086C55.8353 36.1019 53.5824 32.221 52.2267 29.8845C47.5662 21.8525 46.077 19.3114 45.8563 19.0144C45.0277 17.8996 43.8167 17.3673 42.6984 17.6263ZM43.1035 21.5009C42.954 21.7671 41.3907 24.4873 39.9374 27.0099C39.1977 28.2938 37.1628 31.8358 36.8913 32.3121C36.1845 33.5517 34.0408 37.2882 33.7209 37.8379C33.5165 38.1892 33.2763 38.606 33.1873 38.7642C32.8906 39.2908 30.7314 43.0628 30.1886 44.0025C29.8944 44.5119 28.5101 46.9267 27.1124 49.3686C25.7148 51.8105 24.0675 54.6852 23.452 55.7568C22.8364 56.8284 22.1436 58.0358 21.9124 58.4398L21.492 59.1745L43.4209 59.1905C55.4818 59.1994 65.3609 59.1956 65.3745 59.1822C65.3967 59.1604 63.1425 55.2542 58.3655 47.0369C57.4669 45.4909 55.2805 41.7251 53.5071 38.6683C51.7336 35.6116 49.7725 32.2338 49.149 31.1622C46.8172 27.1542 43.6648 21.7302 43.5148 21.4681C43.4293 21.3187 43.34 21.197 43.3164 21.1975C43.2927 21.198 43.1969 21.3346 43.1035 21.5009ZM42.972 31.103C41.4919 31.3174 40.052 32.674 39.8113 34.081C39.748 34.4512 39.7572 34.6719 39.8719 35.5387C39.9462 36.1005 40.1515 37.6526 40.3281 38.9877C40.5047 40.3229 40.6928 41.7315 40.7461 42.118C40.7995 42.5044 40.9163 43.3812 41.0059 44.0664C41.518 47.9868 41.5961 48.4777 41.77 48.8654C41.9664 49.3035 42.2645 49.6422 42.6506 49.8661C42.9127 50.0181 43.0171 50.0393 43.5 50.0386C44.1467 50.0377 44.4321 49.9199 44.8235 49.4926C45.3212 48.9494 45.3901 48.6818 45.7613 45.8551C45.8846 44.9155 46.1222 43.1251 46.414 40.9361C46.4866 40.3915 46.6184 39.3998 46.707 38.7322C46.7954 38.0646 46.9425 36.9723 47.0337 36.3047C47.2775 34.5192 47.282 34.4402 47.1648 33.9476C47.005 33.2762 46.7163 32.7951 46.1203 32.2076C45.4961 31.592 44.8842 31.2652 44.0963 31.1267C43.5404 31.0289 43.4911 31.0278 42.972 31.103ZM43.0544 51.6128C42.3042 51.7353 41.5187 52.3384 41.1916 53.0433C40.4495 54.6419 41.381 56.4614 43.104 56.7786C44.1411 56.9695 45.3508 56.3261 45.8084 55.3401C46.7072 53.404 45.1329 51.2733 43.0544 51.6128Z" fill="white"/>
</svg>
